#VRML V2.0 utf8
# Simplified VISUAL module model, NOT a mechanical or component-layout reference.
Shape { appearance Appearance { material Material { diffuseColor 0.93 0.92 0.87 specularColor 0.25 0.25 0.25 shininess 0.3 } } geometry IndexedFaceSet { solid TRUE coord Coordinate { point [ -1.200787 -0.529528 0.080709, 1.200787 -0.529528 0.080709, 1.200787 0.529528 0.080709, -1.200787 0.529528 0.080709, -1.200787 -0.529528 1.139764, 1.200787 -0.529528 1.139764, 1.200787 0.529528 1.139764, -1.200787 0.529528 1.139764 ] } coordIndex [ 0, 3, 2, 1, -1, 4, 5, 6, 7, -1, 0, 1, 5, 4, -1, 1, 2, 6, 5, -1, 2, 3, 7, 6, -1, 3, 0, 4, 7, -1 ] } }
Shape { appearance Appearance { material Material { diffuseColor 0.65 0.68 0.7 specularColor 0.25 0.25 0.25 shininess 0.3 } } geometry IndexedFaceSet { solid TRUE coord Coordinate { point [ -1.200787 -0.535433 0.074803, -0.901575 -0.535433 0.074803, -0.901575 0.535433 0.074803, -1.200787 0.535433 0.074803, -1.200787 -0.535433 1.145669, -0.901575 -0.535433 1.145669, -0.901575 0.535433 1.145669, -1.200787 0.535433 1.145669 ] } coordIndex [ 0, 3, 2, 1, -1, 4, 5, 6, 7, -1, 0, 1, 5, 4, -1, 1, 2, 6, 5, -1, 2, 3, 7, 6, -1, 3, 0, 4, 7, -1 ] } }
Shape { appearance Appearance { material Material { diffuseColor 0.65 0.68 0.7 specularColor 0.25 0.25 0.25 shininess 0.3 } } geometry IndexedFaceSet { solid TRUE coord Coordinate { point [ 0.901575 -0.535433 0.074803, 1.200787 -0.535433 0.074803, 1.200787 0.535433 0.074803, 0.901575 0.535433 0.074803, 0.901575 -0.535433 1.145669, 1.200787 -0.535433 1.145669, 1.200787 0.535433 1.145669, 0.901575 0.535433 1.145669 ] } coordIndex [ 0, 3, 2, 1, -1, 4, 5, 6, 7, -1, 0, 1, 5, 4, -1, 1, 2, 6, 5, -1, 2, 3, 7, 6, -1, 3, 0, 4, 7, -1 ] } }
