#VRML V2.0 utf8
# ILLUSTRATIVE ONLY; not a vendor mechanical model.
Shape { appearance Appearance { material Material { diffuseColor 0.025 0.27 0.12 specularColor 0.25 0.25 0.25 shininess 0.3 } } geometry IndexedFaceSet { solid TRUE coord Coordinate { point [ -3.543307 -5.019685 0.000000, 3.543307 -5.019685 0.000000, -3.543307 5.019685 0.000000, 3.543307 5.019685 0.000000, -3.543307 -5.019685 0.314961, 3.543307 -5.019685 0.314961, -3.543307 5.019685 0.314961, 3.543307 5.019685 0.314961 ] } coordIndex [ 0, 2, 3, 1, -1, 4, 5, 7, 6, -1, 0, 1, 5, 4, -1, 1, 3, 7, 5, -1, 3, 2, 6, 7, -1, 2, 0, 4, 6, -1 ] } }
Shape { appearance Appearance { material Material { diffuseColor 0.78 0.59 0.19 specularColor 0.25 0.25 0.25 shininess 0.3 } } geometry IndexedFaceSet { solid TRUE coord Coordinate { point [ -3.582677 2.007874 0.000000, -3.346457 2.007874 0.000000, -3.582677 2.244094 0.000000, -3.346457 2.244094 0.000000, -3.582677 2.007874 0.354331, -3.346457 2.007874 0.354331, -3.582677 2.244094 0.354331, -3.346457 2.244094 0.354331 ] } coordIndex [ 0, 2, 3, 1, -1, 4, 5, 7, 6, -1, 0, 1, 5, 4, -1, 1, 3, 7, 5, -1, 3, 2, 6, 7, -1, 2, 0, 4, 6, -1 ] } }
Shape { appearance Appearance { material Material { diffuseColor 0.78 0.59 0.19 specularColor 0.25 0.25 0.25 shininess 0.3 } } geometry IndexedFaceSet { solid TRUE coord Coordinate { point [ -3.582677 1.507874 0.000000, -3.346457 1.507874 0.000000, -3.582677 1.744094 0.000000, -3.346457 1.744094 0.000000, -3.582677 1.507874 0.354331, -3.346457 1.507874 0.354331, -3.582677 1.744094 0.354331, -3.346457 1.744094 0.354331 ] } coordIndex [ 0, 2, 3, 1, -1, 4, 5, 7, 6, -1, 0, 1, 5, 4, -1, 1, 3, 7, 5, -1, 3, 2, 6, 7, -1, 2, 0, 4, 6, -1 ] } }
Shape { appearance Appearance { material Material { diffuseColor 0.78 0.59 0.19 specularColor 0.25 0.25 0.25 shininess 0.3 } } geometry IndexedFaceSet { solid TRUE coord Coordinate { point [ -3.582677 1.007874 0.000000, -3.346457 1.007874 0.000000, -3.582677 1.244094 0.000000, -3.346457 1.244094 0.000000, -3.582677 1.007874 0.354331, -3.346457 1.007874 0.354331, -3.582677 1.244094 0.354331, -3.346457 1.244094 0.354331 ] } coordIndex [ 0, 2, 3, 1, -1, 4, 5, 7, 6, -1, 0, 1, 5, 4, -1, 1, 3, 7, 5, -1, 3, 2, 6, 7, -1, 2, 0, 4, 6, -1 ] } }
Shape { appearance Appearance { material Material { diffuseColor 0.78 0.59 0.19 specularColor 0.25 0.25 0.25 shininess 0.3 } } geometry IndexedFaceSet { solid TRUE coord Coordinate { point [ -3.582677 0.507874 0.000000, -3.346457 0.507874 0.000000, -3.582677 0.744094 0.000000, -3.346457 0.744094 0.000000, -3.582677 0.507874 0.354331, -3.346457 0.507874 0.354331, -3.582677 0.744094 0.354331, -3.346457 0.744094 0.354331 ] } coordIndex [ 0, 2, 3, 1, -1, 4, 5, 7, 6, -1, 0, 1, 5, 4, -1, 1, 3, 7, 5, -1, 3, 2, 6, 7, -1, 2, 0, 4, 6, -1 ] } }
Shape { appearance Appearance { material Material { diffuseColor 0.78 0.59 0.19 specularColor 0.25 0.25 0.25 shininess 0.3 } } geometry IndexedFaceSet { solid TRUE coord Coordinate { point [ -3.582677 0.007874 0.000000, -3.346457 0.007874 0.000000, -3.582677 0.244094 0.000000, -3.346457 0.244094 0.000000, -3.582677 0.007874 0.354331, -3.346457 0.007874 0.354331, -3.582677 0.244094 0.354331, -3.346457 0.244094 0.354331 ] } coordIndex [ 0, 2, 3, 1, -1, 4, 5, 7, 6, -1, 0, 1, 5, 4, -1, 1, 3, 7, 5, -1, 3, 2, 6, 7, -1, 2, 0, 4, 6, -1 ] } }
Shape { appearance Appearance { material Material { diffuseColor 0.78 0.59 0.19 specularColor 0.25 0.25 0.25 shininess 0.3 } } geometry IndexedFaceSet { solid TRUE coord Coordinate { point [ -3.582677 -0.492126 0.000000, -3.346457 -0.492126 0.000000, -3.582677 -0.255906 0.000000, -3.346457 -0.255906 0.000000, -3.582677 -0.492126 0.354331, -3.346457 -0.492126 0.354331, -3.582677 -0.255906 0.354331, -3.346457 -0.255906 0.354331 ] } coordIndex [ 0, 2, 3, 1, -1, 4, 5, 7, 6, -1, 0, 1, 5, 4, -1, 1, 3, 7, 5, -1, 3, 2, 6, 7, -1, 2, 0, 4, 6, -1 ] } }
Shape { appearance Appearance { material Material { diffuseColor 0.78 0.59 0.19 specularColor 0.25 0.25 0.25 shininess 0.3 } } geometry IndexedFaceSet { solid TRUE coord Coordinate { point [ -3.582677 -0.992126 0.000000, -3.346457 -0.992126 0.000000, -3.582677 -0.755906 0.000000, -3.346457 -0.755906 0.000000, -3.582677 -0.992126 0.354331, -3.346457 -0.992126 0.354331, -3.582677 -0.755906 0.354331, -3.346457 -0.755906 0.354331 ] } coordIndex [ 0, 2, 3, 1, -1, 4, 5, 7, 6, -1, 0, 1, 5, 4, -1, 1, 3, 7, 5, -1, 3, 2, 6, 7, -1, 2, 0, 4, 6, -1 ] } }
Shape { appearance Appearance { material Material { diffuseColor 0.78 0.59 0.19 specularColor 0.25 0.25 0.25 shininess 0.3 } } geometry IndexedFaceSet { solid TRUE coord Coordinate { point [ -3.582677 -1.492126 0.000000, -3.346457 -1.492126 0.000000, -3.582677 -1.255906 0.000000, -3.346457 -1.255906 0.000000, -3.582677 -1.492126 0.354331, -3.346457 -1.492126 0.354331, -3.582677 -1.255906 0.354331, -3.346457 -1.255906 0.354331 ] } coordIndex [ 0, 2, 3, 1, -1, 4, 5, 7, 6, -1, 0, 1, 5, 4, -1, 1, 3, 7, 5, -1, 3, 2, 6, 7, -1, 2, 0, 4, 6, -1 ] } }
Shape { appearance Appearance { material Material { diffuseColor 0.78 0.59 0.19 specularColor 0.25 0.25 0.25 shininess 0.3 } } geometry IndexedFaceSet { solid TRUE coord Coordinate { point [ -3.582677 -1.992126 0.000000, -3.346457 -1.992126 0.000000, -3.582677 -1.755906 0.000000, -3.346457 -1.755906 0.000000, -3.582677 -1.992126 0.354331, -3.346457 -1.992126 0.354331, -3.582677 -1.755906 0.354331, -3.346457 -1.755906 0.354331 ] } coordIndex [ 0, 2, 3, 1, -1, 4, 5, 7, 6, -1, 0, 1, 5, 4, -1, 1, 3, 7, 5, -1, 3, 2, 6, 7, -1, 2, 0, 4, 6, -1 ] } }
Shape { appearance Appearance { material Material { diffuseColor 0.78 0.59 0.19 specularColor 0.25 0.25 0.25 shininess 0.3 } } geometry IndexedFaceSet { solid TRUE coord Coordinate { point [ -3.582677 -2.492126 0.000000, -3.346457 -2.492126 0.000000, -3.582677 -2.255906 0.000000, -3.346457 -2.255906 0.000000, -3.582677 -2.492126 0.354331, -3.346457 -2.492126 0.354331, -3.582677 -2.255906 0.354331, -3.346457 -2.255906 0.354331 ] } coordIndex [ 0, 2, 3, 1, -1, 4, 5, 7, 6, -1, 0, 1, 5, 4, -1, 1, 3, 7, 5, -1, 3, 2, 6, 7, -1, 2, 0, 4, 6, -1 ] } }
Shape { appearance Appearance { material Material { diffuseColor 0.78 0.59 0.19 specularColor 0.25 0.25 0.25 shininess 0.3 } } geometry IndexedFaceSet { solid TRUE coord Coordinate { point [ -3.582677 -2.992126 0.000000, -3.346457 -2.992126 0.000000, -3.582677 -2.755906 0.000000, -3.346457 -2.755906 0.000000, -3.582677 -2.992126 0.354331, -3.346457 -2.992126 0.354331, -3.582677 -2.755906 0.354331, -3.346457 -2.755906 0.354331 ] } coordIndex [ 0, 2, 3, 1, -1, 4, 5, 7, 6, -1, 0, 1, 5, 4, -1, 1, 3, 7, 5, -1, 3, 2, 6, 7, -1, 2, 0, 4, 6, -1 ] } }
Shape { appearance Appearance { material Material { diffuseColor 0.78 0.59 0.19 specularColor 0.25 0.25 0.25 shininess 0.3 } } geometry IndexedFaceSet { solid TRUE coord Coordinate { point [ -3.582677 -3.492126 0.000000, -3.346457 -3.492126 0.000000, -3.582677 -3.255906 0.000000, -3.346457 -3.255906 0.000000, -3.582677 -3.492126 0.354331, -3.346457 -3.492126 0.354331, -3.582677 -3.255906 0.354331, -3.346457 -3.255906 0.354331 ] } coordIndex [ 0, 2, 3, 1, -1, 4, 5, 7, 6, -1, 0, 1, 5, 4, -1, 1, 3, 7, 5, -1, 3, 2, 6, 7, -1, 2, 0, 4, 6, -1 ] } }
Shape { appearance Appearance { material Material { diffuseColor 0.78 0.59 0.19 specularColor 0.25 0.25 0.25 shininess 0.3 } } geometry IndexedFaceSet { solid TRUE coord Coordinate { point [ -3.582677 -3.992126 0.000000, -3.346457 -3.992126 0.000000, -3.582677 -3.755906 0.000000, -3.346457 -3.755906 0.000000, -3.582677 -3.992126 0.354331, -3.346457 -3.992126 0.354331, -3.582677 -3.755906 0.354331, -3.346457 -3.755906 0.354331 ] } coordIndex [ 0, 2, 3, 1, -1, 4, 5, 7, 6, -1, 0, 1, 5, 4, -1, 1, 3, 7, 5, -1, 3, 2, 6, 7, -1, 2, 0, 4, 6, -1 ] } }
Shape { appearance Appearance { material Material { diffuseColor 0.78 0.59 0.19 specularColor 0.25 0.25 0.25 shininess 0.3 } } geometry IndexedFaceSet { solid TRUE coord Coordinate { point [ -3.582677 -4.492126 0.000000, -3.346457 -4.492126 0.000000, -3.582677 -4.255906 0.000000, -3.346457 -4.255906 0.000000, -3.582677 -4.492126 0.354331, -3.346457 -4.492126 0.354331, -3.582677 -4.255906 0.354331, -3.346457 -4.255906 0.354331 ] } coordIndex [ 0, 2, 3, 1, -1, 4, 5, 7, 6, -1, 0, 1, 5, 4, -1, 1, 3, 7, 5, -1, 3, 2, 6, 7, -1, 2, 0, 4, 6, -1 ] } }
Shape { appearance Appearance { material Material { diffuseColor 0.78 0.59 0.19 specularColor 0.25 0.25 0.25 shininess 0.3 } } geometry IndexedFaceSet { solid TRUE coord Coordinate { point [ 3.346457 2.007874 0.000000, 3.582677 2.007874 0.000000, 3.346457 2.244094 0.000000, 3.582677 2.244094 0.000000, 3.346457 2.007874 0.354331, 3.582677 2.007874 0.354331, 3.346457 2.244094 0.354331, 3.582677 2.244094 0.354331 ] } coordIndex [ 0, 2, 3, 1, -1, 4, 5, 7, 6, -1, 0, 1, 5, 4, -1, 1, 3, 7, 5, -1, 3, 2, 6, 7, -1, 2, 0, 4, 6, -1 ] } }
Shape { appearance Appearance { material Material { diffuseColor 0.78 0.59 0.19 specularColor 0.25 0.25 0.25 shininess 0.3 } } geometry IndexedFaceSet { solid TRUE coord Coordinate { point [ 3.346457 1.507874 0.000000, 3.582677 1.507874 0.000000, 3.346457 1.744094 0.000000, 3.582677 1.744094 0.000000, 3.346457 1.507874 0.354331, 3.582677 1.507874 0.354331, 3.346457 1.744094 0.354331, 3.582677 1.744094 0.354331 ] } coordIndex [ 0, 2, 3, 1, -1, 4, 5, 7, 6, -1, 0, 1, 5, 4, -1, 1, 3, 7, 5, -1, 3, 2, 6, 7, -1, 2, 0, 4, 6, -1 ] } }
Shape { appearance Appearance { material Material { diffuseColor 0.78 0.59 0.19 specularColor 0.25 0.25 0.25 shininess 0.3 } } geometry IndexedFaceSet { solid TRUE coord Coordinate { point [ 3.346457 1.007874 0.000000, 3.582677 1.007874 0.000000, 3.346457 1.244094 0.000000, 3.582677 1.244094 0.000000, 3.346457 1.007874 0.354331, 3.582677 1.007874 0.354331, 3.346457 1.244094 0.354331, 3.582677 1.244094 0.354331 ] } coordIndex [ 0, 2, 3, 1, -1, 4, 5, 7, 6, -1, 0, 1, 5, 4, -1, 1, 3, 7, 5, -1, 3, 2, 6, 7, -1, 2, 0, 4, 6, -1 ] } }
Shape { appearance Appearance { material Material { diffuseColor 0.78 0.59 0.19 specularColor 0.25 0.25 0.25 shininess 0.3 } } geometry IndexedFaceSet { solid TRUE coord Coordinate { point [ 3.346457 0.507874 0.000000, 3.582677 0.507874 0.000000, 3.346457 0.744094 0.000000, 3.582677 0.744094 0.000000, 3.346457 0.507874 0.354331, 3.582677 0.507874 0.354331, 3.346457 0.744094 0.354331, 3.582677 0.744094 0.354331 ] } coordIndex [ 0, 2, 3, 1, -1, 4, 5, 7, 6, -1, 0, 1, 5, 4, -1, 1, 3, 7, 5, -1, 3, 2, 6, 7, -1, 2, 0, 4, 6, -1 ] } }
Shape { appearance Appearance { material Material { diffuseColor 0.78 0.59 0.19 specularColor 0.25 0.25 0.25 shininess 0.3 } } geometry IndexedFaceSet { solid TRUE coord Coordinate { point [ 3.346457 0.007874 0.000000, 3.582677 0.007874 0.000000, 3.346457 0.244094 0.000000, 3.582677 0.244094 0.000000, 3.346457 0.007874 0.354331, 3.582677 0.007874 0.354331, 3.346457 0.244094 0.354331, 3.582677 0.244094 0.354331 ] } coordIndex [ 0, 2, 3, 1, -1, 4, 5, 7, 6, -1, 0, 1, 5, 4, -1, 1, 3, 7, 5, -1, 3, 2, 6, 7, -1, 2, 0, 4, 6, -1 ] } }
Shape { appearance Appearance { material Material { diffuseColor 0.78 0.59 0.19 specularColor 0.25 0.25 0.25 shininess 0.3 } } geometry IndexedFaceSet { solid TRUE coord Coordinate { point [ 3.346457 -0.492126 0.000000, 3.582677 -0.492126 0.000000, 3.346457 -0.255906 0.000000, 3.582677 -0.255906 0.000000, 3.346457 -0.492126 0.354331, 3.582677 -0.492126 0.354331, 3.346457 -0.255906 0.354331, 3.582677 -0.255906 0.354331 ] } coordIndex [ 0, 2, 3, 1, -1, 4, 5, 7, 6, -1, 0, 1, 5, 4, -1, 1, 3, 7, 5, -1, 3, 2, 6, 7, -1, 2, 0, 4, 6, -1 ] } }
Shape { appearance Appearance { material Material { diffuseColor 0.78 0.59 0.19 specularColor 0.25 0.25 0.25 shininess 0.3 } } geometry IndexedFaceSet { solid TRUE coord Coordinate { point [ 3.346457 -0.992126 0.000000, 3.582677 -0.992126 0.000000, 3.346457 -0.755906 0.000000, 3.582677 -0.755906 0.000000, 3.346457 -0.992126 0.354331, 3.582677 -0.992126 0.354331, 3.346457 -0.755906 0.354331, 3.582677 -0.755906 0.354331 ] } coordIndex [ 0, 2, 3, 1, -1, 4, 5, 7, 6, -1, 0, 1, 5, 4, -1, 1, 3, 7, 5, -1, 3, 2, 6, 7, -1, 2, 0, 4, 6, -1 ] } }
Shape { appearance Appearance { material Material { diffuseColor 0.78 0.59 0.19 specularColor 0.25 0.25 0.25 shininess 0.3 } } geometry IndexedFaceSet { solid TRUE coord Coordinate { point [ 3.346457 -1.492126 0.000000, 3.582677 -1.492126 0.000000, 3.346457 -1.255906 0.000000, 3.582677 -1.255906 0.000000, 3.346457 -1.492126 0.354331, 3.582677 -1.492126 0.354331, 3.346457 -1.255906 0.354331, 3.582677 -1.255906 0.354331 ] } coordIndex [ 0, 2, 3, 1, -1, 4, 5, 7, 6, -1, 0, 1, 5, 4, -1, 1, 3, 7, 5, -1, 3, 2, 6, 7, -1, 2, 0, 4, 6, -1 ] } }
Shape { appearance Appearance { material Material { diffuseColor 0.78 0.59 0.19 specularColor 0.25 0.25 0.25 shininess 0.3 } } geometry IndexedFaceSet { solid TRUE coord Coordinate { point [ 3.346457 -1.992126 0.000000, 3.582677 -1.992126 0.000000, 3.346457 -1.755906 0.000000, 3.582677 -1.755906 0.000000, 3.346457 -1.992126 0.354331, 3.582677 -1.992126 0.354331, 3.346457 -1.755906 0.354331, 3.582677 -1.755906 0.354331 ] } coordIndex [ 0, 2, 3, 1, -1, 4, 5, 7, 6, -1, 0, 1, 5, 4, -1, 1, 3, 7, 5, -1, 3, 2, 6, 7, -1, 2, 0, 4, 6, -1 ] } }
Shape { appearance Appearance { material Material { diffuseColor 0.78 0.59 0.19 specularColor 0.25 0.25 0.25 shininess 0.3 } } geometry IndexedFaceSet { solid TRUE coord Coordinate { point [ 3.346457 -2.492126 0.000000, 3.582677 -2.492126 0.000000, 3.346457 -2.255906 0.000000, 3.582677 -2.255906 0.000000, 3.346457 -2.492126 0.354331, 3.582677 -2.492126 0.354331, 3.346457 -2.255906 0.354331, 3.582677 -2.255906 0.354331 ] } coordIndex [ 0, 2, 3, 1, -1, 4, 5, 7, 6, -1, 0, 1, 5, 4, -1, 1, 3, 7, 5, -1, 3, 2, 6, 7, -1, 2, 0, 4, 6, -1 ] } }
Shape { appearance Appearance { material Material { diffuseColor 0.78 0.59 0.19 specularColor 0.25 0.25 0.25 shininess 0.3 } } geometry IndexedFaceSet { solid TRUE coord Coordinate { point [ 3.346457 -2.992126 0.000000, 3.582677 -2.992126 0.000000, 3.346457 -2.755906 0.000000, 3.582677 -2.755906 0.000000, 3.346457 -2.992126 0.354331, 3.582677 -2.992126 0.354331, 3.346457 -2.755906 0.354331, 3.582677 -2.755906 0.354331 ] } coordIndex [ 0, 2, 3, 1, -1, 4, 5, 7, 6, -1, 0, 1, 5, 4, -1, 1, 3, 7, 5, -1, 3, 2, 6, 7, -1, 2, 0, 4, 6, -1 ] } }
Shape { appearance Appearance { material Material { diffuseColor 0.78 0.59 0.19 specularColor 0.25 0.25 0.25 shininess 0.3 } } geometry IndexedFaceSet { solid TRUE coord Coordinate { point [ 3.346457 -3.492126 0.000000, 3.582677 -3.492126 0.000000, 3.346457 -3.255906 0.000000, 3.582677 -3.255906 0.000000, 3.346457 -3.492126 0.354331, 3.582677 -3.492126 0.354331, 3.346457 -3.255906 0.354331, 3.582677 -3.255906 0.354331 ] } coordIndex [ 0, 2, 3, 1, -1, 4, 5, 7, 6, -1, 0, 1, 5, 4, -1, 1, 3, 7, 5, -1, 3, 2, 6, 7, -1, 2, 0, 4, 6, -1 ] } }
Shape { appearance Appearance { material Material { diffuseColor 0.78 0.59 0.19 specularColor 0.25 0.25 0.25 shininess 0.3 } } geometry IndexedFaceSet { solid TRUE coord Coordinate { point [ 3.346457 -3.992126 0.000000, 3.582677 -3.992126 0.000000, 3.346457 -3.755906 0.000000, 3.582677 -3.755906 0.000000, 3.346457 -3.992126 0.354331, 3.582677 -3.992126 0.354331, 3.346457 -3.755906 0.354331, 3.582677 -3.755906 0.354331 ] } coordIndex [ 0, 2, 3, 1, -1, 4, 5, 7, 6, -1, 0, 1, 5, 4, -1, 1, 3, 7, 5, -1, 3, 2, 6, 7, -1, 2, 0, 4, 6, -1 ] } }
Shape { appearance Appearance { material Material { diffuseColor 0.78 0.59 0.19 specularColor 0.25 0.25 0.25 shininess 0.3 } } geometry IndexedFaceSet { solid TRUE coord Coordinate { point [ 3.346457 -4.492126 0.000000, 3.582677 -4.492126 0.000000, 3.346457 -4.255906 0.000000, 3.582677 -4.255906 0.000000, 3.346457 -4.492126 0.354331, 3.582677 -4.492126 0.354331, 3.346457 -4.255906 0.354331, 3.582677 -4.255906 0.354331 ] } coordIndex [ 0, 2, 3, 1, -1, 4, 5, 7, 6, -1, 0, 1, 5, 4, -1, 1, 3, 7, 5, -1, 3, 2, 6, 7, -1, 2, 0, 4, 6, -1 ] } }
Shape { appearance Appearance { material Material { diffuseColor 0.7 0.73 0.75 specularColor 0.25 0.25 0.25 shininess 0.3 } } geometry IndexedFaceSet { solid TRUE coord Coordinate { point [ -3.228346 -4.685039 0.314961, 3.228346 -4.685039 0.314961, -3.228346 2.204724 0.314961, 3.228346 2.204724 0.314961, -3.228346 -4.685039 1.023622, 3.228346 -4.685039 1.023622, -3.228346 2.204724 1.023622, 3.228346 2.204724 1.023622 ] } coordIndex [ 0, 2, 3, 1, -1, 4, 5, 7, 6, -1, 0, 1, 5, 4, -1, 1, 3, 7, 5, -1, 3, 2, 6, 7, -1, 2, 0, 4, 6, -1 ] } }
Shape { appearance Appearance { material Material { diffuseColor 0.82 0.84 0.85 specularColor 0.25 0.25 0.25 shininess 0.3 } } geometry IndexedFaceSet { solid TRUE coord Coordinate { point [ -3.110236 -4.566929 1.023622, 3.110236 -4.566929 1.023622, -3.110236 2.086614 1.023622, 3.110236 2.086614 1.023622, -3.110236 -4.566929 1.039370, 3.110236 -4.566929 1.039370, -3.110236 2.086614 1.039370, 3.110236 2.086614 1.039370 ] } coordIndex [ 0, 2, 3, 1, -1, 4, 5, 7, 6, -1, 0, 1, 5, 4, -1, 1, 3, 7, 5, -1, 3, 2, 6, 7, -1, 2, 0, 4, 6, -1 ] } }
Shape { appearance Appearance { material Material { diffuseColor 0.78 0.59 0.19 specularColor 0.25 0.25 0.25 shininess 0.3 } } geometry IndexedFaceSet { solid TRUE coord Coordinate { point [ -2.450787 3.070866 0.316929, -2.273622 3.070866 0.316929, -2.450787 4.409449 0.316929, -2.273622 4.409449 0.316929, -2.450787 3.070866 0.332677, -2.273622 3.070866 0.332677, -2.450787 4.409449 0.332677, -2.273622 4.409449 0.332677 ] } coordIndex [ 0, 2, 3, 1, -1, 4, 5, 7, 6, -1, 0, 1, 5, 4, -1, 1, 3, 7, 5, -1, 3, 2, 6, 7, -1, 2, 0, 4, 6, -1 ] } }
Shape { appearance Appearance { material Material { diffuseColor 0.78 0.59 0.19 specularColor 0.25 0.25 0.25 shininess 0.3 } } geometry IndexedFaceSet { solid TRUE coord Coordinate { point [ -0.875984 3.070866 0.316929, -0.698819 3.070866 0.316929, -0.875984 4.409449 0.316929, -0.698819 4.409449 0.316929, -0.875984 3.070866 0.332677, -0.698819 3.070866 0.332677, -0.875984 4.409449 0.332677, -0.698819 4.409449 0.332677 ] } coordIndex [ 0, 2, 3, 1, -1, 4, 5, 7, 6, -1, 0, 1, 5, 4, -1, 1, 3, 7, 5, -1, 3, 2, 6, 7, -1, 2, 0, 4, 6, -1 ] } }
Shape { appearance Appearance { material Material { diffuseColor 0.78 0.59 0.19 specularColor 0.25 0.25 0.25 shininess 0.3 } } geometry IndexedFaceSet { solid TRUE coord Coordinate { point [ 0.698819 3.070866 0.316929, 0.875984 3.070866 0.316929, 0.698819 4.409449 0.316929, 0.875984 4.409449 0.316929, 0.698819 3.070866 0.332677, 0.875984 3.070866 0.332677, 0.698819 4.409449 0.332677, 0.875984 4.409449 0.332677 ] } coordIndex [ 0, 2, 3, 1, -1, 4, 5, 7, 6, -1, 0, 1, 5, 4, -1, 1, 3, 7, 5, -1, 3, 2, 6, 7, -1, 2, 0, 4, 6, -1 ] } }
Shape { appearance Appearance { material Material { diffuseColor 0.78 0.59 0.19 specularColor 0.25 0.25 0.25 shininess 0.3 } } geometry IndexedFaceSet { solid TRUE coord Coordinate { point [ 2.273622 3.070866 0.316929, 2.450787 3.070866 0.316929, 2.273622 4.409449 0.316929, 2.450787 4.409449 0.316929, 2.273622 3.070866 0.332677, 2.450787 3.070866 0.332677, 2.273622 4.409449 0.332677, 2.450787 4.409449 0.332677 ] } coordIndex [ 0, 2, 3, 1, -1, 4, 5, 7, 6, -1, 0, 1, 5, 4, -1, 1, 3, 7, 5, -1, 3, 2, 6, 7, -1, 2, 0, 4, 6, -1 ] } }
Shape { appearance Appearance { material Material { diffuseColor 0.78 0.59 0.19 specularColor 0.25 0.25 0.25 shininess 0.3 } } geometry IndexedFaceSet { solid TRUE coord Coordinate { point [ -2.440945 4.242126 0.316929, -0.708661 4.242126 0.316929, -2.440945 4.419291 0.316929, -0.708661 4.419291 0.316929, -2.440945 4.242126 0.332677, -0.708661 4.242126 0.332677, -2.440945 4.419291 0.332677, -0.708661 4.419291 0.332677 ] } coordIndex [ 0, 2, 3, 1, -1, 4, 5, 7, 6, -1, 0, 1, 5, 4, -1, 1, 3, 7, 5, -1, 3, 2, 6, 7, -1, 2, 0, 4, 6, -1 ] } }
Shape { appearance Appearance { material Material { diffuseColor 0.78 0.59 0.19 specularColor 0.25 0.25 0.25 shininess 0.3 } } geometry IndexedFaceSet { solid TRUE coord Coordinate { point [ -0.866142 3.061024 0.316929, 0.866142 3.061024 0.316929, -0.866142 3.238189 0.316929, 0.866142 3.238189 0.316929, -0.866142 3.061024 0.332677, 0.866142 3.061024 0.332677, -0.866142 3.238189 0.332677, 0.866142 3.238189 0.332677 ] } coordIndex [ 0, 2, 3, 1, -1, 4, 5, 7, 6, -1, 0, 1, 5, 4, -1, 1, 3, 7, 5, -1, 3, 2, 6, 7, -1, 2, 0, 4, 6, -1 ] } }
Shape { appearance Appearance { material Material { diffuseColor 0.78 0.59 0.19 specularColor 0.25 0.25 0.25 shininess 0.3 } } geometry IndexedFaceSet { solid TRUE coord Coordinate { point [ 0.708661 4.242126 0.316929, 2.440945 4.242126 0.316929, 0.708661 4.419291 0.316929, 2.440945 4.419291 0.316929, 0.708661 4.242126 0.332677, 2.440945 4.242126 0.332677, 0.708661 4.419291 0.332677, 2.440945 4.419291 0.332677 ] } coordIndex [ 0, 2, 3, 1, -1, 4, 5, 7, 6, -1, 0, 1, 5, 4, -1, 1, 3, 7, 5, -1, 3, 2, 6, 7, -1, 2, 0, 4, 6, -1 ] } }
Shape { appearance Appearance { material Material { diffuseColor 0.78 0.59 0.19 specularColor 0.25 0.25 0.25 shininess 0.3 } } geometry IndexedFaceSet { solid TRUE coord Coordinate { point [ -2.450787 2.244094 0.316929, -2.273622 2.244094 0.316929, -2.450787 3.110236 0.316929, -2.273622 3.110236 0.316929, -2.450787 2.244094 0.332677, -2.273622 2.244094 0.332677, -2.450787 3.110236 0.332677, -2.273622 3.110236 0.332677 ] } coordIndex [ 0, 2, 3, 1, -1, 4, 5, 7, 6, -1, 0, 1, 5, 4, -1, 1, 3, 7, 5, -1, 3, 2, 6, 7, -1, 2, 0, 4, 6, -1 ] } }
