#VRML V2.0 utf8
# ILLUSTRATIVE ONLY; not a vendor mechanical model.
Shape { appearance Appearance { material Material { diffuseColor 0.025 0.27 0.12 specularColor 0.25 0.25 0.25 shininess 0.3 } } geometry IndexedFaceSet { solid TRUE coord Coordinate { point [ -3.543307 -3.779528 0.000000, 3.543307 -3.779528 0.000000, -3.543307 3.779528 0.000000, 3.543307 3.779528 0.000000, -3.543307 -3.779528 0.314961, 3.543307 -3.779528 0.314961, -3.543307 3.779528 0.314961, 3.543307 3.779528 0.314961 ] } coordIndex [ 0, 2, 3, 1, -1, 4, 5, 7, 6, -1, 0, 1, 5, 4, -1, 1, 3, 7, 5, -1, 3, 2, 6, 7, -1, 2, 0, 4, 6, -1 ] } }
Shape { appearance Appearance { material Material { diffuseColor 0.78 0.59 0.19 specularColor 0.25 0.25 0.25 shininess 0.3 } } geometry IndexedFaceSet { solid TRUE coord Coordinate { point [ -3.582677 -3.464567 0.000000, -3.346457 -3.464567 0.000000, -3.582677 -3.228346 0.000000, -3.346457 -3.228346 0.000000, -3.582677 -3.464567 0.354331, -3.346457 -3.464567 0.354331, -3.582677 -3.228346 0.354331, -3.346457 -3.228346 0.354331 ] } coordIndex [ 0, 2, 3, 1, -1, 4, 5, 7, 6, -1, 0, 1, 5, 4, -1, 1, 3, 7, 5, -1, 3, 2, 6, 7, -1, 2, 0, 4, 6, -1 ] } }
Shape { appearance Appearance { material Material { diffuseColor 0.78 0.59 0.19 specularColor 0.25 0.25 0.25 shininess 0.3 } } geometry IndexedFaceSet { solid TRUE coord Coordinate { point [ -3.582677 -2.964567 0.000000, -3.346457 -2.964567 0.000000, -3.582677 -2.728346 0.000000, -3.346457 -2.728346 0.000000, -3.582677 -2.964567 0.354331, -3.346457 -2.964567 0.354331, -3.582677 -2.728346 0.354331, -3.346457 -2.728346 0.354331 ] } coordIndex [ 0, 2, 3, 1, -1, 4, 5, 7, 6, -1, 0, 1, 5, 4, -1, 1, 3, 7, 5, -1, 3, 2, 6, 7, -1, 2, 0, 4, 6, -1 ] } }
Shape { appearance Appearance { material Material { diffuseColor 0.78 0.59 0.19 specularColor 0.25 0.25 0.25 shininess 0.3 } } geometry IndexedFaceSet { solid TRUE coord Coordinate { point [ -3.582677 -2.464567 0.000000, -3.346457 -2.464567 0.000000, -3.582677 -2.228346 0.000000, -3.346457 -2.228346 0.000000, -3.582677 -2.464567 0.354331, -3.346457 -2.464567 0.354331, -3.582677 -2.228346 0.354331, -3.346457 -2.228346 0.354331 ] } coordIndex [ 0, 2, 3, 1, -1, 4, 5, 7, 6, -1, 0, 1, 5, 4, -1, 1, 3, 7, 5, -1, 3, 2, 6, 7, -1, 2, 0, 4, 6, -1 ] } }
Shape { appearance Appearance { material Material { diffuseColor 0.78 0.59 0.19 specularColor 0.25 0.25 0.25 shininess 0.3 } } geometry IndexedFaceSet { solid TRUE coord Coordinate { point [ -3.582677 -1.964567 0.000000, -3.346457 -1.964567 0.000000, -3.582677 -1.728346 0.000000, -3.346457 -1.728346 0.000000, -3.582677 -1.964567 0.354331, -3.346457 -1.964567 0.354331, -3.582677 -1.728346 0.354331, -3.346457 -1.728346 0.354331 ] } coordIndex [ 0, 2, 3, 1, -1, 4, 5, 7, 6, -1, 0, 1, 5, 4, -1, 1, 3, 7, 5, -1, 3, 2, 6, 7, -1, 2, 0, 4, 6, -1 ] } }
Shape { appearance Appearance { material Material { diffuseColor 0.78 0.59 0.19 specularColor 0.25 0.25 0.25 shininess 0.3 } } geometry IndexedFaceSet { solid TRUE coord Coordinate { point [ -3.582677 -1.464567 0.000000, -3.346457 -1.464567 0.000000, -3.582677 -1.228346 0.000000, -3.346457 -1.228346 0.000000, -3.582677 -1.464567 0.354331, -3.346457 -1.464567 0.354331, -3.582677 -1.228346 0.354331, -3.346457 -1.228346 0.354331 ] } coordIndex [ 0, 2, 3, 1, -1, 4, 5, 7, 6, -1, 0, 1, 5, 4, -1, 1, 3, 7, 5, -1, 3, 2, 6, 7, -1, 2, 0, 4, 6, -1 ] } }
Shape { appearance Appearance { material Material { diffuseColor 0.78 0.59 0.19 specularColor 0.25 0.25 0.25 shininess 0.3 } } geometry IndexedFaceSet { solid TRUE coord Coordinate { point [ -3.582677 -0.964567 0.000000, -3.346457 -0.964567 0.000000, -3.582677 -0.728346 0.000000, -3.346457 -0.728346 0.000000, -3.582677 -0.964567 0.354331, -3.346457 -0.964567 0.354331, -3.582677 -0.728346 0.354331, -3.346457 -0.728346 0.354331 ] } coordIndex [ 0, 2, 3, 1, -1, 4, 5, 7, 6, -1, 0, 1, 5, 4, -1, 1, 3, 7, 5, -1, 3, 2, 6, 7, -1, 2, 0, 4, 6, -1 ] } }
Shape { appearance Appearance { material Material { diffuseColor 0.78 0.59 0.19 specularColor 0.25 0.25 0.25 shininess 0.3 } } geometry IndexedFaceSet { solid TRUE coord Coordinate { point [ -3.582677 -0.464567 0.000000, -3.346457 -0.464567 0.000000, -3.582677 -0.228346 0.000000, -3.346457 -0.228346 0.000000, -3.582677 -0.464567 0.354331, -3.346457 -0.464567 0.354331, -3.582677 -0.228346 0.354331, -3.346457 -0.228346 0.354331 ] } coordIndex [ 0, 2, 3, 1, -1, 4, 5, 7, 6, -1, 0, 1, 5, 4, -1, 1, 3, 7, 5, -1, 3, 2, 6, 7, -1, 2, 0, 4, 6, -1 ] } }
Shape { appearance Appearance { material Material { diffuseColor 0.78 0.59 0.19 specularColor 0.25 0.25 0.25 shininess 0.3 } } geometry IndexedFaceSet { solid TRUE coord Coordinate { point [ -3.582677 0.035433 0.000000, -3.346457 0.035433 0.000000, -3.582677 0.271654 0.000000, -3.346457 0.271654 0.000000, -3.582677 0.035433 0.354331, -3.346457 0.035433 0.354331, -3.582677 0.271654 0.354331, -3.346457 0.271654 0.354331 ] } coordIndex [ 0, 2, 3, 1, -1, 4, 5, 7, 6, -1, 0, 1, 5, 4, -1, 1, 3, 7, 5, -1, 3, 2, 6, 7, -1, 2, 0, 4, 6, -1 ] } }
Shape { appearance Appearance { material Material { diffuseColor 0.78 0.59 0.19 specularColor 0.25 0.25 0.25 shininess 0.3 } } geometry IndexedFaceSet { solid TRUE coord Coordinate { point [ -3.582677 0.535433 0.000000, -3.346457 0.535433 0.000000, -3.582677 0.771654 0.000000, -3.346457 0.771654 0.000000, -3.582677 0.535433 0.354331, -3.346457 0.535433 0.354331, -3.582677 0.771654 0.354331, -3.346457 0.771654 0.354331 ] } coordIndex [ 0, 2, 3, 1, -1, 4, 5, 7, 6, -1, 0, 1, 5, 4, -1, 1, 3, 7, 5, -1, 3, 2, 6, 7, -1, 2, 0, 4, 6, -1 ] } }
Shape { appearance Appearance { material Material { diffuseColor 0.78 0.59 0.19 specularColor 0.25 0.25 0.25 shininess 0.3 } } geometry IndexedFaceSet { solid TRUE coord Coordinate { point [ -3.582677 1.035433 0.000000, -3.346457 1.035433 0.000000, -3.582677 1.271654 0.000000, -3.346457 1.271654 0.000000, -3.582677 1.035433 0.354331, -3.346457 1.035433 0.354331, -3.582677 1.271654 0.354331, -3.346457 1.271654 0.354331 ] } coordIndex [ 0, 2, 3, 1, -1, 4, 5, 7, 6, -1, 0, 1, 5, 4, -1, 1, 3, 7, 5, -1, 3, 2, 6, 7, -1, 2, 0, 4, 6, -1 ] } }
Shape { appearance Appearance { material Material { diffuseColor 0.78 0.59 0.19 specularColor 0.25 0.25 0.25 shininess 0.3 } } geometry IndexedFaceSet { solid TRUE coord Coordinate { point [ -3.582677 1.535433 0.000000, -3.346457 1.535433 0.000000, -3.582677 1.771654 0.000000, -3.346457 1.771654 0.000000, -3.582677 1.535433 0.354331, -3.346457 1.535433 0.354331, -3.582677 1.771654 0.354331, -3.346457 1.771654 0.354331 ] } coordIndex [ 0, 2, 3, 1, -1, 4, 5, 7, 6, -1, 0, 1, 5, 4, -1, 1, 3, 7, 5, -1, 3, 2, 6, 7, -1, 2, 0, 4, 6, -1 ] } }
Shape { appearance Appearance { material Material { diffuseColor 0.78 0.59 0.19 specularColor 0.25 0.25 0.25 shininess 0.3 } } geometry IndexedFaceSet { solid TRUE coord Coordinate { point [ -3.582677 2.035433 0.000000, -3.346457 2.035433 0.000000, -3.582677 2.271654 0.000000, -3.346457 2.271654 0.000000, -3.582677 2.035433 0.354331, -3.346457 2.035433 0.354331, -3.582677 2.271654 0.354331, -3.346457 2.271654 0.354331 ] } coordIndex [ 0, 2, 3, 1, -1, 4, 5, 7, 6, -1, 0, 1, 5, 4, -1, 1, 3, 7, 5, -1, 3, 2, 6, 7, -1, 2, 0, 4, 6, -1 ] } }
Shape { appearance Appearance { material Material { diffuseColor 0.78 0.59 0.19 specularColor 0.25 0.25 0.25 shininess 0.3 } } geometry IndexedFaceSet { solid TRUE coord Coordinate { point [ -3.582677 2.535433 0.000000, -3.346457 2.535433 0.000000, -3.582677 2.771654 0.000000, -3.346457 2.771654 0.000000, -3.582677 2.535433 0.354331, -3.346457 2.535433 0.354331, -3.582677 2.771654 0.354331, -3.346457 2.771654 0.354331 ] } coordIndex [ 0, 2, 3, 1, -1, 4, 5, 7, 6, -1, 0, 1, 5, 4, -1, 1, 3, 7, 5, -1, 3, 2, 6, 7, -1, 2, 0, 4, 6, -1 ] } }
Shape { appearance Appearance { material Material { diffuseColor 0.78 0.59 0.19 specularColor 0.25 0.25 0.25 shininess 0.3 } } geometry IndexedFaceSet { solid TRUE coord Coordinate { point [ -3.582677 3.035433 0.000000, -3.346457 3.035433 0.000000, -3.582677 3.271654 0.000000, -3.346457 3.271654 0.000000, -3.582677 3.035433 0.354331, -3.346457 3.035433 0.354331, -3.582677 3.271654 0.354331, -3.346457 3.271654 0.354331 ] } coordIndex [ 0, 2, 3, 1, -1, 4, 5, 7, 6, -1, 0, 1, 5, 4, -1, 1, 3, 7, 5, -1, 3, 2, 6, 7, -1, 2, 0, 4, 6, -1 ] } }
Shape { appearance Appearance { material Material { diffuseColor 0.78 0.59 0.19 specularColor 0.25 0.25 0.25 shininess 0.3 } } geometry IndexedFaceSet { solid TRUE coord Coordinate { point [ 3.346457 -3.464567 0.000000, 3.582677 -3.464567 0.000000, 3.346457 -3.228346 0.000000, 3.582677 -3.228346 0.000000, 3.346457 -3.464567 0.354331, 3.582677 -3.464567 0.354331, 3.346457 -3.228346 0.354331, 3.582677 -3.228346 0.354331 ] } coordIndex [ 0, 2, 3, 1, -1, 4, 5, 7, 6, -1, 0, 1, 5, 4, -1, 1, 3, 7, 5, -1, 3, 2, 6, 7, -1, 2, 0, 4, 6, -1 ] } }
Shape { appearance Appearance { material Material { diffuseColor 0.78 0.59 0.19 specularColor 0.25 0.25 0.25 shininess 0.3 } } geometry IndexedFaceSet { solid TRUE coord Coordinate { point [ 3.346457 -2.964567 0.000000, 3.582677 -2.964567 0.000000, 3.346457 -2.728346 0.000000, 3.582677 -2.728346 0.000000, 3.346457 -2.964567 0.354331, 3.582677 -2.964567 0.354331, 3.346457 -2.728346 0.354331, 3.582677 -2.728346 0.354331 ] } coordIndex [ 0, 2, 3, 1, -1, 4, 5, 7, 6, -1, 0, 1, 5, 4, -1, 1, 3, 7, 5, -1, 3, 2, 6, 7, -1, 2, 0, 4, 6, -1 ] } }
Shape { appearance Appearance { material Material { diffuseColor 0.78 0.59 0.19 specularColor 0.25 0.25 0.25 shininess 0.3 } } geometry IndexedFaceSet { solid TRUE coord Coordinate { point [ 3.346457 -2.464567 0.000000, 3.582677 -2.464567 0.000000, 3.346457 -2.228346 0.000000, 3.582677 -2.228346 0.000000, 3.346457 -2.464567 0.354331, 3.582677 -2.464567 0.354331, 3.346457 -2.228346 0.354331, 3.582677 -2.228346 0.354331 ] } coordIndex [ 0, 2, 3, 1, -1, 4, 5, 7, 6, -1, 0, 1, 5, 4, -1, 1, 3, 7, 5, -1, 3, 2, 6, 7, -1, 2, 0, 4, 6, -1 ] } }
Shape { appearance Appearance { material Material { diffuseColor 0.78 0.59 0.19 specularColor 0.25 0.25 0.25 shininess 0.3 } } geometry IndexedFaceSet { solid TRUE coord Coordinate { point [ 3.346457 -1.964567 0.000000, 3.582677 -1.964567 0.000000, 3.346457 -1.728346 0.000000, 3.582677 -1.728346 0.000000, 3.346457 -1.964567 0.354331, 3.582677 -1.964567 0.354331, 3.346457 -1.728346 0.354331, 3.582677 -1.728346 0.354331 ] } coordIndex [ 0, 2, 3, 1, -1, 4, 5, 7, 6, -1, 0, 1, 5, 4, -1, 1, 3, 7, 5, -1, 3, 2, 6, 7, -1, 2, 0, 4, 6, -1 ] } }
Shape { appearance Appearance { material Material { diffuseColor 0.78 0.59 0.19 specularColor 0.25 0.25 0.25 shininess 0.3 } } geometry IndexedFaceSet { solid TRUE coord Coordinate { point [ 3.346457 -1.464567 0.000000, 3.582677 -1.464567 0.000000, 3.346457 -1.228346 0.000000, 3.582677 -1.228346 0.000000, 3.346457 -1.464567 0.354331, 3.582677 -1.464567 0.354331, 3.346457 -1.228346 0.354331, 3.582677 -1.228346 0.354331 ] } coordIndex [ 0, 2, 3, 1, -1, 4, 5, 7, 6, -1, 0, 1, 5, 4, -1, 1, 3, 7, 5, -1, 3, 2, 6, 7, -1, 2, 0, 4, 6, -1 ] } }
Shape { appearance Appearance { material Material { diffuseColor 0.78 0.59 0.19 specularColor 0.25 0.25 0.25 shininess 0.3 } } geometry IndexedFaceSet { solid TRUE coord Coordinate { point [ 3.346457 -0.964567 0.000000, 3.582677 -0.964567 0.000000, 3.346457 -0.728346 0.000000, 3.582677 -0.728346 0.000000, 3.346457 -0.964567 0.354331, 3.582677 -0.964567 0.354331, 3.346457 -0.728346 0.354331, 3.582677 -0.728346 0.354331 ] } coordIndex [ 0, 2, 3, 1, -1, 4, 5, 7, 6, -1, 0, 1, 5, 4, -1, 1, 3, 7, 5, -1, 3, 2, 6, 7, -1, 2, 0, 4, 6, -1 ] } }
Shape { appearance Appearance { material Material { diffuseColor 0.78 0.59 0.19 specularColor 0.25 0.25 0.25 shininess 0.3 } } geometry IndexedFaceSet { solid TRUE coord Coordinate { point [ 3.346457 -0.464567 0.000000, 3.582677 -0.464567 0.000000, 3.346457 -0.228346 0.000000, 3.582677 -0.228346 0.000000, 3.346457 -0.464567 0.354331, 3.582677 -0.464567 0.354331, 3.346457 -0.228346 0.354331, 3.582677 -0.228346 0.354331 ] } coordIndex [ 0, 2, 3, 1, -1, 4, 5, 7, 6, -1, 0, 1, 5, 4, -1, 1, 3, 7, 5, -1, 3, 2, 6, 7, -1, 2, 0, 4, 6, -1 ] } }
Shape { appearance Appearance { material Material { diffuseColor 0.78 0.59 0.19 specularColor 0.25 0.25 0.25 shininess 0.3 } } geometry IndexedFaceSet { solid TRUE coord Coordinate { point [ 3.346457 0.035433 0.000000, 3.582677 0.035433 0.000000, 3.346457 0.271654 0.000000, 3.582677 0.271654 0.000000, 3.346457 0.035433 0.354331, 3.582677 0.035433 0.354331, 3.346457 0.271654 0.354331, 3.582677 0.271654 0.354331 ] } coordIndex [ 0, 2, 3, 1, -1, 4, 5, 7, 6, -1, 0, 1, 5, 4, -1, 1, 3, 7, 5, -1, 3, 2, 6, 7, -1, 2, 0, 4, 6, -1 ] } }
Shape { appearance Appearance { material Material { diffuseColor 0.78 0.59 0.19 specularColor 0.25 0.25 0.25 shininess 0.3 } } geometry IndexedFaceSet { solid TRUE coord Coordinate { point [ 3.346457 0.535433 0.000000, 3.582677 0.535433 0.000000, 3.346457 0.771654 0.000000, 3.582677 0.771654 0.000000, 3.346457 0.535433 0.354331, 3.582677 0.535433 0.354331, 3.346457 0.771654 0.354331, 3.582677 0.771654 0.354331 ] } coordIndex [ 0, 2, 3, 1, -1, 4, 5, 7, 6, -1, 0, 1, 5, 4, -1, 1, 3, 7, 5, -1, 3, 2, 6, 7, -1, 2, 0, 4, 6, -1 ] } }
Shape { appearance Appearance { material Material { diffuseColor 0.78 0.59 0.19 specularColor 0.25 0.25 0.25 shininess 0.3 } } geometry IndexedFaceSet { solid TRUE coord Coordinate { point [ 3.346457 1.035433 0.000000, 3.582677 1.035433 0.000000, 3.346457 1.271654 0.000000, 3.582677 1.271654 0.000000, 3.346457 1.035433 0.354331, 3.582677 1.035433 0.354331, 3.346457 1.271654 0.354331, 3.582677 1.271654 0.354331 ] } coordIndex [ 0, 2, 3, 1, -1, 4, 5, 7, 6, -1, 0, 1, 5, 4, -1, 1, 3, 7, 5, -1, 3, 2, 6, 7, -1, 2, 0, 4, 6, -1 ] } }
Shape { appearance Appearance { material Material { diffuseColor 0.78 0.59 0.19 specularColor 0.25 0.25 0.25 shininess 0.3 } } geometry IndexedFaceSet { solid TRUE coord Coordinate { point [ 3.346457 1.535433 0.000000, 3.582677 1.535433 0.000000, 3.346457 1.771654 0.000000, 3.582677 1.771654 0.000000, 3.346457 1.535433 0.354331, 3.582677 1.535433 0.354331, 3.346457 1.771654 0.354331, 3.582677 1.771654 0.354331 ] } coordIndex [ 0, 2, 3, 1, -1, 4, 5, 7, 6, -1, 0, 1, 5, 4, -1, 1, 3, 7, 5, -1, 3, 2, 6, 7, -1, 2, 0, 4, 6, -1 ] } }
Shape { appearance Appearance { material Material { diffuseColor 0.78 0.59 0.19 specularColor 0.25 0.25 0.25 shininess 0.3 } } geometry IndexedFaceSet { solid TRUE coord Coordinate { point [ 3.346457 2.035433 0.000000, 3.582677 2.035433 0.000000, 3.346457 2.271654 0.000000, 3.582677 2.271654 0.000000, 3.346457 2.035433 0.354331, 3.582677 2.035433 0.354331, 3.346457 2.271654 0.354331, 3.582677 2.271654 0.354331 ] } coordIndex [ 0, 2, 3, 1, -1, 4, 5, 7, 6, -1, 0, 1, 5, 4, -1, 1, 3, 7, 5, -1, 3, 2, 6, 7, -1, 2, 0, 4, 6, -1 ] } }
Shape { appearance Appearance { material Material { diffuseColor 0.78 0.59 0.19 specularColor 0.25 0.25 0.25 shininess 0.3 } } geometry IndexedFaceSet { solid TRUE coord Coordinate { point [ 3.346457 2.535433 0.000000, 3.582677 2.535433 0.000000, 3.346457 2.771654 0.000000, 3.582677 2.771654 0.000000, 3.346457 2.535433 0.354331, 3.582677 2.535433 0.354331, 3.346457 2.771654 0.354331, 3.582677 2.771654 0.354331 ] } coordIndex [ 0, 2, 3, 1, -1, 4, 5, 7, 6, -1, 0, 1, 5, 4, -1, 1, 3, 7, 5, -1, 3, 2, 6, 7, -1, 2, 0, 4, 6, -1 ] } }
Shape { appearance Appearance { material Material { diffuseColor 0.78 0.59 0.19 specularColor 0.25 0.25 0.25 shininess 0.3 } } geometry IndexedFaceSet { solid TRUE coord Coordinate { point [ 3.346457 3.035433 0.000000, 3.582677 3.035433 0.000000, 3.346457 3.271654 0.000000, 3.582677 3.271654 0.000000, 3.346457 3.035433 0.354331, 3.582677 3.035433 0.354331, 3.346457 3.271654 0.354331, 3.582677 3.271654 0.354331 ] } coordIndex [ 0, 2, 3, 1, -1, 4, 5, 7, 6, -1, 0, 1, 5, 4, -1, 1, 3, 7, 5, -1, 3, 2, 6, 7, -1, 2, 0, 4, 6, -1 ] } }
Shape { appearance Appearance { material Material { diffuseColor 0.7 0.73 0.75 specularColor 0.25 0.25 0.25 shininess 0.3 } } geometry IndexedFaceSet { solid TRUE coord Coordinate { point [ -3.228346 -3.444882 0.314961, 3.228346 -3.444882 0.314961, -3.228346 2.657480 0.314961, 3.228346 2.657480 0.314961, -3.228346 -3.444882 1.023622, 3.228346 -3.444882 1.023622, -3.228346 2.657480 1.023622, 3.228346 2.657480 1.023622 ] } coordIndex [ 0, 2, 3, 1, -1, 4, 5, 7, 6, -1, 0, 1, 5, 4, -1, 1, 3, 7, 5, -1, 3, 2, 6, 7, -1, 2, 0, 4, 6, -1 ] } }
Shape { appearance Appearance { material Material { diffuseColor 0.82 0.84 0.85 specularColor 0.25 0.25 0.25 shininess 0.3 } } geometry IndexedFaceSet { solid TRUE coord Coordinate { point [ -3.110236 -3.326772 1.023622, 3.110236 -3.326772 1.023622, -3.110236 2.539370 1.023622, 3.110236 2.539370 1.023622, -3.110236 -3.326772 1.039370, 3.110236 -3.326772 1.039370, -3.110236 2.539370 1.039370, 3.110236 2.539370 1.039370 ] } coordIndex [ 0, 2, 3, 1, -1, 4, 5, 7, 6, -1, 0, 1, 5, 4, -1, 1, 3, 7, 5, -1, 3, 2, 6, 7, -1, 2, 0, 4, 6, -1 ] } }
Shape { appearance Appearance { material Material { diffuseColor 0.78 0.59 0.19 specularColor 0.25 0.25 0.25 shininess 0.3 } } geometry IndexedFaceSet { solid TRUE coord Coordinate { point [ 1.968504 2.795276 0.196850, 2.755906 2.795276 0.196850, 1.968504 3.582677 0.196850, 2.755906 3.582677 0.196850, 1.968504 2.795276 0.590551, 2.755906 2.795276 0.590551, 1.968504 3.582677 0.590551, 2.755906 3.582677 0.590551 ] } coordIndex [ 0, 2, 3, 1, -1, 4, 5, 7, 6, -1, 0, 1, 5, 4, -1, 1, 3, 7, 5, -1, 3, 2, 6, 7, -1, 2, 0, 4, 6, -1 ] } }
Shape { appearance Appearance { material Material { diffuseColor 0.08 0.08 0.08 specularColor 0.25 0.25 0.25 shininess 0.3 } } geometry IndexedFaceSet { solid TRUE coord Coordinate { point [ 2.234252 3.061024 0.590551, 2.490157 3.061024 0.590551, 2.234252 3.316929 0.590551, 2.490157 3.316929 0.590551, 2.234252 3.061024 0.606299, 2.490157 3.061024 0.606299, 2.234252 3.316929 0.606299, 2.490157 3.316929 0.606299 ] } coordIndex [ 0, 2, 3, 1, -1, 4, 5, 7, 6, -1, 0, 1, 5, 4, -1, 1, 3, 7, 5, -1, 3, 2, 6, 7, -1, 2, 0, 4, 6, -1 ] } }
