#VRML V2.0 utf8
# ILLUSTRATIVE ONLY; not a vendor mechanical model.
Shape { appearance Appearance { material Material { diffuseColor 0.025 0.27 0.12 specularColor 0.25 0.25 0.25 shininess 0.3 } } geometry IndexedFaceSet { solid TRUE coord Coordinate { point [ -2.401575 -3.149606 0.009843, 2.401575 -3.149606 0.009843, -2.401575 3.149606 0.009843, 2.401575 3.149606 0.009843, -2.401575 -3.149606 0.344488, 2.401575 -3.149606 0.344488, -2.401575 3.149606 0.344488, 2.401575 3.149606 0.344488 ] } coordIndex [ 0, 2, 3, 1, -1, 4, 5, 7, 6, -1, 0, 1, 5, 4, -1, 1, 3, 7, 5, -1, 3, 2, 6, 7, -1, 2, 0, 4, 6, -1 ] } }
Shape { appearance Appearance { material Material { diffuseColor 0.78 0.59 0.19 specularColor 0.25 0.25 0.25 shininess 0.3 } } geometry IndexedFaceSet { solid TRUE coord Coordinate { point [ -2.509843 2.618110 0.011811, -2.214567 2.618110 0.011811, -2.509843 2.893701 0.011811, -2.214567 2.893701 0.011811, -2.509843 2.618110 0.366142, -2.214567 2.618110 0.366142, -2.509843 2.893701 0.366142, -2.214567 2.893701 0.366142 ] } coordIndex [ 0, 2, 3, 1, -1, 4, 5, 7, 6, -1, 0, 1, 5, 4, -1, 1, 3, 7, 5, -1, 3, 2, 6, 7, -1, 2, 0, 4, 6, -1 ] } }
Shape { appearance Appearance { material Material { diffuseColor 0.78 0.59 0.19 specularColor 0.25 0.25 0.25 shininess 0.3 } } geometry IndexedFaceSet { solid TRUE coord Coordinate { point [ -2.509843 2.185039 0.011811, -2.214567 2.185039 0.011811, -2.509843 2.460630 0.011811, -2.214567 2.460630 0.011811, -2.509843 2.185039 0.366142, -2.214567 2.185039 0.366142, -2.509843 2.460630 0.366142, -2.214567 2.460630 0.366142 ] } coordIndex [ 0, 2, 3, 1, -1, 4, 5, 7, 6, -1, 0, 1, 5, 4, -1, 1, 3, 7, 5, -1, 3, 2, 6, 7, -1, 2, 0, 4, 6, -1 ] } }
Shape { appearance Appearance { material Material { diffuseColor 0.78 0.59 0.19 specularColor 0.25 0.25 0.25 shininess 0.3 } } geometry IndexedFaceSet { solid TRUE coord Coordinate { point [ -2.509843 1.751969 0.011811, -2.214567 1.751969 0.011811, -2.509843 2.027559 0.011811, -2.214567 2.027559 0.011811, -2.509843 1.751969 0.366142, -2.214567 1.751969 0.366142, -2.509843 2.027559 0.366142, -2.214567 2.027559 0.366142 ] } coordIndex [ 0, 2, 3, 1, -1, 4, 5, 7, 6, -1, 0, 1, 5, 4, -1, 1, 3, 7, 5, -1, 3, 2, 6, 7, -1, 2, 0, 4, 6, -1 ] } }
Shape { appearance Appearance { material Material { diffuseColor 0.78 0.59 0.19 specularColor 0.25 0.25 0.25 shininess 0.3 } } geometry IndexedFaceSet { solid TRUE coord Coordinate { point [ -2.509843 1.318898 0.011811, -2.214567 1.318898 0.011811, -2.509843 1.594488 0.011811, -2.214567 1.594488 0.011811, -2.509843 1.318898 0.366142, -2.214567 1.318898 0.366142, -2.509843 1.594488 0.366142, -2.214567 1.594488 0.366142 ] } coordIndex [ 0, 2, 3, 1, -1, 4, 5, 7, 6, -1, 0, 1, 5, 4, -1, 1, 3, 7, 5, -1, 3, 2, 6, 7, -1, 2, 0, 4, 6, -1 ] } }
Shape { appearance Appearance { material Material { diffuseColor 0.78 0.59 0.19 specularColor 0.25 0.25 0.25 shininess 0.3 } } geometry IndexedFaceSet { solid TRUE coord Coordinate { point [ -2.509843 0.885827 0.011811, -2.214567 0.885827 0.011811, -2.509843 1.161417 0.011811, -2.214567 1.161417 0.011811, -2.509843 0.885827 0.366142, -2.214567 0.885827 0.366142, -2.509843 1.161417 0.366142, -2.214567 1.161417 0.366142 ] } coordIndex [ 0, 2, 3, 1, -1, 4, 5, 7, 6, -1, 0, 1, 5, 4, -1, 1, 3, 7, 5, -1, 3, 2, 6, 7, -1, 2, 0, 4, 6, -1 ] } }
Shape { appearance Appearance { material Material { diffuseColor 0.78 0.59 0.19 specularColor 0.25 0.25 0.25 shininess 0.3 } } geometry IndexedFaceSet { solid TRUE coord Coordinate { point [ -2.509843 0.452756 0.011811, -2.214567 0.452756 0.011811, -2.509843 0.728346 0.011811, -2.214567 0.728346 0.011811, -2.509843 0.452756 0.366142, -2.214567 0.452756 0.366142, -2.509843 0.728346 0.366142, -2.214567 0.728346 0.366142 ] } coordIndex [ 0, 2, 3, 1, -1, 4, 5, 7, 6, -1, 0, 1, 5, 4, -1, 1, 3, 7, 5, -1, 3, 2, 6, 7, -1, 2, 0, 4, 6, -1 ] } }
Shape { appearance Appearance { material Material { diffuseColor 0.78 0.59 0.19 specularColor 0.25 0.25 0.25 shininess 0.3 } } geometry IndexedFaceSet { solid TRUE coord Coordinate { point [ -2.509843 0.019685 0.011811, -2.214567 0.019685 0.011811, -2.509843 0.295276 0.011811, -2.214567 0.295276 0.011811, -2.509843 0.019685 0.366142, -2.214567 0.019685 0.366142, -2.509843 0.295276 0.366142, -2.214567 0.295276 0.366142 ] } coordIndex [ 0, 2, 3, 1, -1, 4, 5, 7, 6, -1, 0, 1, 5, 4, -1, 1, 3, 7, 5, -1, 3, 2, 6, 7, -1, 2, 0, 4, 6, -1 ] } }
Shape { appearance Appearance { material Material { diffuseColor 0.78 0.59 0.19 specularColor 0.25 0.25 0.25 shininess 0.3 } } geometry IndexedFaceSet { solid TRUE coord Coordinate { point [ -2.509843 -0.413386 0.011811, -2.214567 -0.413386 0.011811, -2.509843 -0.137795 0.011811, -2.214567 -0.137795 0.011811, -2.509843 -0.413386 0.366142, -2.214567 -0.413386 0.366142, -2.509843 -0.137795 0.366142, -2.214567 -0.137795 0.366142 ] } coordIndex [ 0, 2, 3, 1, -1, 4, 5, 7, 6, -1, 0, 1, 5, 4, -1, 1, 3, 7, 5, -1, 3, 2, 6, 7, -1, 2, 0, 4, 6, -1 ] } }
Shape { appearance Appearance { material Material { diffuseColor 0.78 0.59 0.19 specularColor 0.25 0.25 0.25 shininess 0.3 } } geometry IndexedFaceSet { solid TRUE coord Coordinate { point [ -2.509843 -0.846457 0.011811, -2.214567 -0.846457 0.011811, -2.509843 -0.570866 0.011811, -2.214567 -0.570866 0.011811, -2.509843 -0.846457 0.366142, -2.214567 -0.846457 0.366142, -2.509843 -0.570866 0.366142, -2.214567 -0.570866 0.366142 ] } coordIndex [ 0, 2, 3, 1, -1, 4, 5, 7, 6, -1, 0, 1, 5, 4, -1, 1, 3, 7, 5, -1, 3, 2, 6, 7, -1, 2, 0, 4, 6, -1 ] } }
Shape { appearance Appearance { material Material { diffuseColor 0.78 0.59 0.19 specularColor 0.25 0.25 0.25 shininess 0.3 } } geometry IndexedFaceSet { solid TRUE coord Coordinate { point [ -2.509843 -1.279528 0.011811, -2.214567 -1.279528 0.011811, -2.509843 -1.003937 0.011811, -2.214567 -1.003937 0.011811, -2.509843 -1.279528 0.366142, -2.214567 -1.279528 0.366142, -2.509843 -1.003937 0.366142, -2.214567 -1.003937 0.366142 ] } coordIndex [ 0, 2, 3, 1, -1, 4, 5, 7, 6, -1, 0, 1, 5, 4, -1, 1, 3, 7, 5, -1, 3, 2, 6, 7, -1, 2, 0, 4, 6, -1 ] } }
Shape { appearance Appearance { material Material { diffuseColor 0.78 0.59 0.19 specularColor 0.25 0.25 0.25 shininess 0.3 } } geometry IndexedFaceSet { solid TRUE coord Coordinate { point [ -2.509843 -1.712598 0.011811, -2.214567 -1.712598 0.011811, -2.509843 -1.437008 0.011811, -2.214567 -1.437008 0.011811, -2.509843 -1.712598 0.366142, -2.214567 -1.712598 0.366142, -2.509843 -1.437008 0.366142, -2.214567 -1.437008 0.366142 ] } coordIndex [ 0, 2, 3, 1, -1, 4, 5, 7, 6, -1, 0, 1, 5, 4, -1, 1, 3, 7, 5, -1, 3, 2, 6, 7, -1, 2, 0, 4, 6, -1 ] } }
Shape { appearance Appearance { material Material { diffuseColor 0.78 0.59 0.19 specularColor 0.25 0.25 0.25 shininess 0.3 } } geometry IndexedFaceSet { solid TRUE coord Coordinate { point [ -2.509843 -2.145669 0.011811, -2.214567 -2.145669 0.011811, -2.509843 -1.870079 0.011811, -2.214567 -1.870079 0.011811, -2.509843 -2.145669 0.366142, -2.214567 -2.145669 0.366142, -2.509843 -1.870079 0.366142, -2.214567 -1.870079 0.366142 ] } coordIndex [ 0, 2, 3, 1, -1, 4, 5, 7, 6, -1, 0, 1, 5, 4, -1, 1, 3, 7, 5, -1, 3, 2, 6, 7, -1, 2, 0, 4, 6, -1 ] } }
Shape { appearance Appearance { material Material { diffuseColor 0.78 0.59 0.19 specularColor 0.25 0.25 0.25 shininess 0.3 } } geometry IndexedFaceSet { solid TRUE coord Coordinate { point [ 2.214567 2.618110 0.011811, 2.509843 2.618110 0.011811, 2.214567 2.893701 0.011811, 2.509843 2.893701 0.011811, 2.214567 2.618110 0.366142, 2.509843 2.618110 0.366142, 2.214567 2.893701 0.366142, 2.509843 2.893701 0.366142 ] } coordIndex [ 0, 2, 3, 1, -1, 4, 5, 7, 6, -1, 0, 1, 5, 4, -1, 1, 3, 7, 5, -1, 3, 2, 6, 7, -1, 2, 0, 4, 6, -1 ] } }
Shape { appearance Appearance { material Material { diffuseColor 0.78 0.59 0.19 specularColor 0.25 0.25 0.25 shininess 0.3 } } geometry IndexedFaceSet { solid TRUE coord Coordinate { point [ 2.214567 2.185039 0.011811, 2.509843 2.185039 0.011811, 2.214567 2.460630 0.011811, 2.509843 2.460630 0.011811, 2.214567 2.185039 0.366142, 2.509843 2.185039 0.366142, 2.214567 2.460630 0.366142, 2.509843 2.460630 0.366142 ] } coordIndex [ 0, 2, 3, 1, -1, 4, 5, 7, 6, -1, 0, 1, 5, 4, -1, 1, 3, 7, 5, -1, 3, 2, 6, 7, -1, 2, 0, 4, 6, -1 ] } }
Shape { appearance Appearance { material Material { diffuseColor 0.78 0.59 0.19 specularColor 0.25 0.25 0.25 shininess 0.3 } } geometry IndexedFaceSet { solid TRUE coord Coordinate { point [ 2.214567 1.751969 0.011811, 2.509843 1.751969 0.011811, 2.214567 2.027559 0.011811, 2.509843 2.027559 0.011811, 2.214567 1.751969 0.366142, 2.509843 1.751969 0.366142, 2.214567 2.027559 0.366142, 2.509843 2.027559 0.366142 ] } coordIndex [ 0, 2, 3, 1, -1, 4, 5, 7, 6, -1, 0, 1, 5, 4, -1, 1, 3, 7, 5, -1, 3, 2, 6, 7, -1, 2, 0, 4, 6, -1 ] } }
Shape { appearance Appearance { material Material { diffuseColor 0.78 0.59 0.19 specularColor 0.25 0.25 0.25 shininess 0.3 } } geometry IndexedFaceSet { solid TRUE coord Coordinate { point [ 2.214567 1.318898 0.011811, 2.509843 1.318898 0.011811, 2.214567 1.594488 0.011811, 2.509843 1.594488 0.011811, 2.214567 1.318898 0.366142, 2.509843 1.318898 0.366142, 2.214567 1.594488 0.366142, 2.509843 1.594488 0.366142 ] } coordIndex [ 0, 2, 3, 1, -1, 4, 5, 7, 6, -1, 0, 1, 5, 4, -1, 1, 3, 7, 5, -1, 3, 2, 6, 7, -1, 2, 0, 4, 6, -1 ] } }
Shape { appearance Appearance { material Material { diffuseColor 0.78 0.59 0.19 specularColor 0.25 0.25 0.25 shininess 0.3 } } geometry IndexedFaceSet { solid TRUE coord Coordinate { point [ 2.214567 0.885827 0.011811, 2.509843 0.885827 0.011811, 2.214567 1.161417 0.011811, 2.509843 1.161417 0.011811, 2.214567 0.885827 0.366142, 2.509843 0.885827 0.366142, 2.214567 1.161417 0.366142, 2.509843 1.161417 0.366142 ] } coordIndex [ 0, 2, 3, 1, -1, 4, 5, 7, 6, -1, 0, 1, 5, 4, -1, 1, 3, 7, 5, -1, 3, 2, 6, 7, -1, 2, 0, 4, 6, -1 ] } }
Shape { appearance Appearance { material Material { diffuseColor 0.78 0.59 0.19 specularColor 0.25 0.25 0.25 shininess 0.3 } } geometry IndexedFaceSet { solid TRUE coord Coordinate { point [ 2.214567 0.452756 0.011811, 2.509843 0.452756 0.011811, 2.214567 0.728346 0.011811, 2.509843 0.728346 0.011811, 2.214567 0.452756 0.366142, 2.509843 0.452756 0.366142, 2.214567 0.728346 0.366142, 2.509843 0.728346 0.366142 ] } coordIndex [ 0, 2, 3, 1, -1, 4, 5, 7, 6, -1, 0, 1, 5, 4, -1, 1, 3, 7, 5, -1, 3, 2, 6, 7, -1, 2, 0, 4, 6, -1 ] } }
Shape { appearance Appearance { material Material { diffuseColor 0.78 0.59 0.19 specularColor 0.25 0.25 0.25 shininess 0.3 } } geometry IndexedFaceSet { solid TRUE coord Coordinate { point [ 2.214567 0.019685 0.011811, 2.509843 0.019685 0.011811, 2.214567 0.295276 0.011811, 2.509843 0.295276 0.011811, 2.214567 0.019685 0.366142, 2.509843 0.019685 0.366142, 2.214567 0.295276 0.366142, 2.509843 0.295276 0.366142 ] } coordIndex [ 0, 2, 3, 1, -1, 4, 5, 7, 6, -1, 0, 1, 5, 4, -1, 1, 3, 7, 5, -1, 3, 2, 6, 7, -1, 2, 0, 4, 6, -1 ] } }
Shape { appearance Appearance { material Material { diffuseColor 0.78 0.59 0.19 specularColor 0.25 0.25 0.25 shininess 0.3 } } geometry IndexedFaceSet { solid TRUE coord Coordinate { point [ 2.214567 -0.413386 0.011811, 2.509843 -0.413386 0.011811, 2.214567 -0.137795 0.011811, 2.509843 -0.137795 0.011811, 2.214567 -0.413386 0.366142, 2.509843 -0.413386 0.366142, 2.214567 -0.137795 0.366142, 2.509843 -0.137795 0.366142 ] } coordIndex [ 0, 2, 3, 1, -1, 4, 5, 7, 6, -1, 0, 1, 5, 4, -1, 1, 3, 7, 5, -1, 3, 2, 6, 7, -1, 2, 0, 4, 6, -1 ] } }
Shape { appearance Appearance { material Material { diffuseColor 0.78 0.59 0.19 specularColor 0.25 0.25 0.25 shininess 0.3 } } geometry IndexedFaceSet { solid TRUE coord Coordinate { point [ 2.214567 -0.846457 0.011811, 2.509843 -0.846457 0.011811, 2.214567 -0.570866 0.011811, 2.509843 -0.570866 0.011811, 2.214567 -0.846457 0.366142, 2.509843 -0.846457 0.366142, 2.214567 -0.570866 0.366142, 2.509843 -0.570866 0.366142 ] } coordIndex [ 0, 2, 3, 1, -1, 4, 5, 7, 6, -1, 0, 1, 5, 4, -1, 1, 3, 7, 5, -1, 3, 2, 6, 7, -1, 2, 0, 4, 6, -1 ] } }
Shape { appearance Appearance { material Material { diffuseColor 0.78 0.59 0.19 specularColor 0.25 0.25 0.25 shininess 0.3 } } geometry IndexedFaceSet { solid TRUE coord Coordinate { point [ 2.214567 -1.279528 0.011811, 2.509843 -1.279528 0.011811, 2.214567 -1.003937 0.011811, 2.509843 -1.003937 0.011811, 2.214567 -1.279528 0.366142, 2.509843 -1.279528 0.366142, 2.214567 -1.003937 0.366142, 2.509843 -1.003937 0.366142 ] } coordIndex [ 0, 2, 3, 1, -1, 4, 5, 7, 6, -1, 0, 1, 5, 4, -1, 1, 3, 7, 5, -1, 3, 2, 6, 7, -1, 2, 0, 4, 6, -1 ] } }
Shape { appearance Appearance { material Material { diffuseColor 0.78 0.59 0.19 specularColor 0.25 0.25 0.25 shininess 0.3 } } geometry IndexedFaceSet { solid TRUE coord Coordinate { point [ 2.214567 -1.712598 0.011811, 2.509843 -1.712598 0.011811, 2.214567 -1.437008 0.011811, 2.509843 -1.437008 0.011811, 2.214567 -1.712598 0.366142, 2.509843 -1.712598 0.366142, 2.214567 -1.437008 0.366142, 2.509843 -1.437008 0.366142 ] } coordIndex [ 0, 2, 3, 1, -1, 4, 5, 7, 6, -1, 0, 1, 5, 4, -1, 1, 3, 7, 5, -1, 3, 2, 6, 7, -1, 2, 0, 4, 6, -1 ] } }
Shape { appearance Appearance { material Material { diffuseColor 0.78 0.59 0.19 specularColor 0.25 0.25 0.25 shininess 0.3 } } geometry IndexedFaceSet { solid TRUE coord Coordinate { point [ 2.214567 -2.145669 0.011811, 2.509843 -2.145669 0.011811, 2.214567 -1.870079 0.011811, 2.509843 -1.870079 0.011811, 2.214567 -2.145669 0.366142, 2.509843 -2.145669 0.366142, 2.214567 -1.870079 0.366142, 2.509843 -1.870079 0.366142 ] } coordIndex [ 0, 2, 3, 1, -1, 4, 5, 7, 6, -1, 0, 1, 5, 4, -1, 1, 3, 7, 5, -1, 3, 2, 6, 7, -1, 2, 0, 4, 6, -1 ] } }
Shape { appearance Appearance { material Material { diffuseColor 0.7 0.73 0.75 specularColor 0.25 0.25 0.25 shininess 0.3 } } geometry IndexedFaceSet { solid TRUE coord Coordinate { point [ -2.204724 -2.913386 0.344488, 2.204724 -2.913386 0.344488, -2.204724 2.913386 0.344488, 2.204724 2.913386 0.344488, -2.204724 -2.913386 0.954724, 2.204724 -2.913386 0.954724, -2.204724 2.913386 0.954724, 2.204724 2.913386 0.954724 ] } coordIndex [ 0, 2, 3, 1, -1, 4, 5, 7, 6, -1, 0, 1, 5, 4, -1, 1, 3, 7, 5, -1, 3, 2, 6, 7, -1, 2, 0, 4, 6, -1 ] } }
Shape { appearance Appearance { material Material { diffuseColor 0.78 0.8 0.81 specularColor 0.25 0.25 0.25 shininess 0.3 } } geometry IndexedFaceSet { solid TRUE coord Coordinate { point [ -2.066929 -2.775591 0.955709, 2.066929 -2.775591 0.955709, -2.066929 2.775591 0.955709, 2.066929 2.775591 0.955709, -2.066929 -2.775591 0.969488, 2.066929 -2.775591 0.969488, -2.066929 2.775591 0.969488, 2.066929 2.775591 0.969488 ] } coordIndex [ 0, 2, 3, 1, -1, 4, 5, 7, 6, -1, 0, 1, 5, 4, -1, 1, 3, 7, 5, -1, 3, 2, 6, 7, -1, 2, 0, 4, 6, -1 ] } }
