#VRML V2.0 utf8
# ILLUSTRATIVE ONLY; not a vendor mechanical model.
Shape { appearance Appearance { material Material { diffuseColor 0.78 0.59 0.19 specularColor 0.25 0.25 0.25 shininess 0.3 } } geometry IndexedFaceSet { solid TRUE coord Coordinate { point [ -1.377953 -1.377953 0.118110, 1.377953 -1.377953 0.118110, -1.377953 1.377953 0.118110, 1.377953 1.377953 0.118110, -1.377953 -1.377953 2.480315, 1.377953 -1.377953 2.480315, -1.377953 1.377953 2.480315, 1.377953 1.377953 2.480315 ] } coordIndex [ 0, 2, 3, 1, -1, 4, 5, 7, 6, -1, 0, 1, 5, 4, -1, 1, 3, 7, 5, -1, 3, 2, 6, 7, -1, 2, 0, 4, 6, -1 ] } }
Shape { appearance Appearance { material Material { diffuseColor 0.78 0.59 0.19 specularColor 0.25 0.25 0.25 shininess 0.3 } } geometry IndexedFaceSet { solid TRUE coord Coordinate { point [ 1.161417 1.181102 1.338583, 1.151481 1.181102 1.490178, 1.121843 1.181102 1.639180, 1.073010 1.181102 1.783038, 1.005817 1.181102 1.919291, 0.921414 1.181102 2.045609, 0.821246 1.181102 2.159829, 0.707026 1.181102 2.259997, 0.580709 1.181102 2.344400, 0.444455 1.181102 2.411592, 0.300597 1.181102 2.460426, 0.151595 1.181102 2.490064, 0.000000 1.181102 2.500000, -0.151595 1.181102 2.490064, -0.300597 1.181102 2.460426, -0.444455 1.181102 2.411592, -0.580709 1.181102 2.344400, -0.707026 1.181102 2.259997, -0.821246 1.181102 2.159829, -0.921414 1.181102 2.045609, -1.005817 1.181102 1.919291, -1.073010 1.181102 1.783038, -1.121843 1.181102 1.639180, -1.151481 1.181102 1.490178, -1.161417 1.181102 1.338583, -1.151481 1.181102 1.186987, -1.121843 1.181102 1.037986, -1.073010 1.181102 0.894128, -1.005817 1.181102 0.757874, -0.921414 1.181102 0.631557, -0.821246 1.181102 0.517337, -0.707026 1.181102 0.417168, -0.580709 1.181102 0.332766, -0.444455 1.181102 0.265573, -0.300597 1.181102 0.216740, -0.151595 1.181102 0.187101, -0.000000 1.181102 0.177165, 0.151595 1.181102 0.187101, 0.300597 1.181102 0.216740, 0.444455 1.181102 0.265573, 0.580709 1.181102 0.332766, 0.707026 1.181102 0.417168, 0.821246 1.181102 0.517337, 0.921414 1.181102 0.631557, 1.005817 1.181102 0.757874, 1.073010 1.181102 0.894128, 1.121843 1.181102 1.037986, 1.151481 1.181102 1.186987, 1.161417 4.330709 1.338583, 1.151481 4.330709 1.490178, 1.121843 4.330709 1.639180, 1.073010 4.330709 1.783038, 1.005817 4.330709 1.919291, 0.921414 4.330709 2.045609, 0.821246 4.330709 2.159829, 0.707026 4.330709 2.259997, 0.580709 4.330709 2.344400, 0.444455 4.330709 2.411592, 0.300597 4.330709 2.460426, 0.151595 4.330709 2.490064, 0.000000 4.330709 2.500000, -0.151595 4.330709 2.490064, -0.300597 4.330709 2.460426, -0.444455 4.330709 2.411592, -0.580709 4.330709 2.344400, -0.707026 4.330709 2.259997, -0.821246 4.330709 2.159829, -0.921414 4.330709 2.045609, -1.005817 4.330709 1.919291, -1.073010 4.330709 1.783038, -1.121843 4.330709 1.639180, -1.151481 4.330709 1.490178, -1.161417 4.330709 1.338583, -1.151481 4.330709 1.186987, -1.121843 4.330709 1.037986, -1.073010 4.330709 0.894128, -1.005817 4.330709 0.757874, -0.921414 4.330709 0.631557, -0.821246 4.330709 0.517337, -0.707026 4.330709 0.417168, -0.580709 4.330709 0.332766, -0.444455 4.330709 0.265573, -0.300597 4.330709 0.216740, -0.151595 4.330709 0.187101, -0.000000 4.330709 0.177165, 0.151595 4.330709 0.187101, 0.300597 4.330709 0.216740, 0.444455 4.330709 0.265573, 0.580709 4.330709 0.332766, 0.707026 4.330709 0.417168, 0.821246 4.330709 0.517337, 0.921414 4.330709 0.631557, 1.005817 4.330709 0.757874, 1.073010 4.330709 0.894128, 1.121843 4.330709 1.037986, 1.151481 4.330709 1.186987 ] } coordIndex [ 0, 1, 2, 3, 4, 5, 6, 7, 8, 9, 10, 11, 12, 13, 14, 15, 16, 17, 18, 19, 20, 21, 22, 23, 24, 25, 26, 27, 28, 29, 30, 31, 32, 33, 34, 35, 36, 37, 38, 39, 40, 41, 42, 43, 44, 45, 46, 47, -1, 95, 94, 93, 92, 91, 90, 89, 88, 87, 86, 85, 84, 83, 82, 81, 80, 79, 78, 77, 76, 75, 74, 73, 72, 71, 70, 69, 68, 67, 66, 65, 64, 63, 62, 61, 60, 59, 58, 57, 56, 55, 54, 53, 52, 51, 50, 49, 48, -1, 48, 49, 1, 0, -1, 49, 50, 2, 1, -1, 50, 51, 3, 2, -1, 51, 52, 4, 3, -1, 52, 53, 5, 4, -1, 53, 54, 6, 5, -1, 54, 55, 7, 6, -1, 55, 56, 8, 7, -1, 56, 57, 9, 8, -1, 57, 58, 10, 9, -1, 58, 59, 11, 10, -1, 59, 60, 12, 11, -1, 60, 61, 13, 12, -1, 61, 62, 14, 13, -1, 62, 63, 15, 14, -1, 63, 64, 16, 15, -1, 64, 65, 17, 16, -1, 65, 66, 18, 17, -1, 66, 67, 19, 18, -1, 67, 68, 20, 19, -1, 68, 69, 21, 20, -1, 69, 70, 22, 21, -1, 70, 71, 23, 22, -1, 71, 72, 24, 23, -1, 72, 73, 25, 24, -1, 73, 74, 26, 25, -1, 74, 75, 27, 26, -1, 75, 76, 28, 27, -1, 76, 77, 29, 28, -1, 77, 78, 30, 29, -1, 78, 79, 31, 30, -1, 79, 80, 32, 31, -1, 80, 81, 33, 32, -1, 81, 82, 34, 33, -1, 82, 83, 35, 34, -1, 83, 84, 36, 35, -1, 84, 85, 37, 36, -1, 85, 86, 38, 37, -1, 86, 87, 39, 38, -1, 87, 88, 40, 39, -1, 88, 89, 41, 40, -1, 89, 90, 42, 41, -1, 90, 91, 43, 42, -1, 91, 92, 44, 43, -1, 92, 93, 45, 44, -1, 93, 94, 46, 45, -1, 94, 95, 47, 46, -1, 95, 48, 0, 47, -1 ] } }
Shape { appearance Appearance { material Material { diffuseColor 0.84 0.68 0.31 specularColor 0.25 0.25 0.25 shininess 0.3 } } geometry IndexedFaceSet { solid TRUE coord Coordinate { point [ 1.259843 1.515748 1.338583, 1.249064 1.515748 1.503025, 1.216914 1.515748 1.664654, 1.163943 1.515748 1.820704, 1.091056 1.515748 1.968504, 0.999500 1.515748 2.105526, 0.890843 1.515748 2.229426, 0.766944 1.515748 2.338083, 0.629921 1.515748 2.429638, 0.482121 1.515748 2.502525, 0.326071 1.515748 2.555497, 0.164442 1.515748 2.587647, 0.000000 1.515748 2.598425, -0.164442 1.515748 2.587647, -0.326071 1.515748 2.555497, -0.482121 1.515748 2.502525, -0.629921 1.515748 2.429638, -0.766944 1.515748 2.338083, -0.890843 1.515748 2.229426, -0.999500 1.515748 2.105526, -1.091056 1.515748 1.968504, -1.163943 1.515748 1.820704, -1.216914 1.515748 1.664654, -1.249064 1.515748 1.503025, -1.259843 1.515748 1.338583, -1.249064 1.515748 1.174140, -1.216914 1.515748 1.012511, -1.163943 1.515748 0.856462, -1.091056 1.515748 0.708661, -0.999500 1.515748 0.571639, -0.890843 1.515748 0.447739, -0.766944 1.515748 0.339082, -0.629921 1.515748 0.247527, -0.482121 1.515748 0.174640, -0.326071 1.515748 0.121668, -0.164442 1.515748 0.089518, -0.000000 1.515748 0.078740, 0.164442 1.515748 0.089518, 0.326071 1.515748 0.121668, 0.482121 1.515748 0.174640, 0.629921 1.515748 0.247527, 0.766944 1.515748 0.339082, 0.890843 1.515748 0.447739, 0.999500 1.515748 0.571639, 1.091056 1.515748 0.708661, 1.163943 1.515748 0.856462, 1.216914 1.515748 1.012511, 1.249064 1.515748 1.174140, 1.259843 1.633858 1.338583, 1.249064 1.633858 1.503025, 1.216914 1.633858 1.664654, 1.163943 1.633858 1.820704, 1.091056 1.633858 1.968504, 0.999500 1.633858 2.105526, 0.890843 1.633858 2.229426, 0.766944 1.633858 2.338083, 0.629921 1.633858 2.429638, 0.482121 1.633858 2.502525, 0.326071 1.633858 2.555497, 0.164442 1.633858 2.587647, 0.000000 1.633858 2.598425, -0.164442 1.633858 2.587647, -0.326071 1.633858 2.555497, -0.482121 1.633858 2.502525, -0.629921 1.633858 2.429638, -0.766944 1.633858 2.338083, -0.890843 1.633858 2.229426, -0.999500 1.633858 2.105526, -1.091056 1.633858 1.968504, -1.163943 1.633858 1.820704, -1.216914 1.633858 1.664654, -1.249064 1.633858 1.503025, -1.259843 1.633858 1.338583, -1.249064 1.633858 1.174140, -1.216914 1.633858 1.012511, -1.163943 1.633858 0.856462, -1.091056 1.633858 0.708661, -0.999500 1.633858 0.571639, -0.890843 1.633858 0.447739, -0.766944 1.633858 0.339082, -0.629921 1.633858 0.247527, -0.482121 1.633858 0.174640, -0.326071 1.633858 0.121668, -0.164442 1.633858 0.089518, -0.000000 1.633858 0.078740, 0.164442 1.633858 0.089518, 0.326071 1.633858 0.121668, 0.482121 1.633858 0.174640, 0.629921 1.633858 0.247527, 0.766944 1.633858 0.339082, 0.890843 1.633858 0.447739, 0.999500 1.633858 0.571639, 1.091056 1.633858 0.708661, 1.163943 1.633858 0.856462, 1.216914 1.633858 1.012511, 1.249064 1.633858 1.174140 ] } coordIndex [ 0, 1, 2, 3, 4, 5, 6, 7, 8, 9, 10, 11, 12, 13, 14, 15, 16, 17, 18, 19, 20, 21, 22, 23, 24, 25, 26, 27, 28, 29, 30, 31, 32, 33, 34, 35, 36, 37, 38, 39, 40, 41, 42, 43, 44, 45, 46, 47, -1, 95, 94, 93, 92, 91, 90, 89, 88, 87, 86, 85, 84, 83, 82, 81, 80, 79, 78, 77, 76, 75, 74, 73, 72, 71, 70, 69, 68, 67, 66, 65, 64, 63, 62, 61, 60, 59, 58, 57, 56, 55, 54, 53, 52, 51, 50, 49, 48, -1, 48, 49, 1, 0, -1, 49, 50, 2, 1, -1, 50, 51, 3, 2, -1, 51, 52, 4, 3, -1, 52, 53, 5, 4, -1, 53, 54, 6, 5, -1, 54, 55, 7, 6, -1, 55, 56, 8, 7, -1, 56, 57, 9, 8, -1, 57, 58, 10, 9, -1, 58, 59, 11, 10, -1, 59, 60, 12, 11, -1, 60, 61, 13, 12, -1, 61, 62, 14, 13, -1, 62, 63, 15, 14, -1, 63, 64, 16, 15, -1, 64, 65, 17, 16, -1, 65, 66, 18, 17, -1, 66, 67, 19, 18, -1, 67, 68, 20, 19, -1, 68, 69, 21, 20, -1, 69, 70, 22, 21, -1, 70, 71, 23, 22, -1, 71, 72, 24, 23, -1, 72, 73, 25, 24, -1, 73, 74, 26, 25, -1, 74, 75, 27, 26, -1, 75, 76, 28, 27, -1, 76, 77, 29, 28, -1, 77, 78, 30, 29, -1, 78, 79, 31, 30, -1, 79, 80, 32, 31, -1, 80, 81, 33, 32, -1, 81, 82, 34, 33, -1, 82, 83, 35, 34, -1, 83, 84, 36, 35, -1, 84, 85, 37, 36, -1, 85, 86, 38, 37, -1, 86, 87, 39, 38, -1, 87, 88, 40, 39, -1, 88, 89, 41, 40, -1, 89, 90, 42, 41, -1, 90, 91, 43, 42, -1, 91, 92, 44, 43, -1, 92, 93, 45, 44, -1, 93, 94, 46, 45, -1, 94, 95, 47, 46, -1, 95, 48, 0, 47, -1 ] } }
Shape { appearance Appearance { material Material { diffuseColor 0.84 0.68 0.31 specularColor 0.25 0.25 0.25 shininess 0.3 } } geometry IndexedFaceSet { solid TRUE coord Coordinate { point [ 1.259843 1.948819 1.338583, 1.249064 1.948819 1.503025, 1.216914 1.948819 1.664654, 1.163943 1.948819 1.820704, 1.091056 1.948819 1.968504, 0.999500 1.948819 2.105526, 0.890843 1.948819 2.229426, 0.766944 1.948819 2.338083, 0.629921 1.948819 2.429638, 0.482121 1.948819 2.502525, 0.326071 1.948819 2.555497, 0.164442 1.948819 2.587647, 0.000000 1.948819 2.598425, -0.164442 1.948819 2.587647, -0.326071 1.948819 2.555497, -0.482121 1.948819 2.502525, -0.629921 1.948819 2.429638, -0.766944 1.948819 2.338083, -0.890843 1.948819 2.229426, -0.999500 1.948819 2.105526, -1.091056 1.948819 1.968504, -1.163943 1.948819 1.820704, -1.216914 1.948819 1.664654, -1.249064 1.948819 1.503025, -1.259843 1.948819 1.338583, -1.249064 1.948819 1.174140, -1.216914 1.948819 1.012511, -1.163943 1.948819 0.856462, -1.091056 1.948819 0.708661, -0.999500 1.948819 0.571639, -0.890843 1.948819 0.447739, -0.766944 1.948819 0.339082, -0.629921 1.948819 0.247527, -0.482121 1.948819 0.174640, -0.326071 1.948819 0.121668, -0.164442 1.948819 0.089518, -0.000000 1.948819 0.078740, 0.164442 1.948819 0.089518, 0.326071 1.948819 0.121668, 0.482121 1.948819 0.174640, 0.629921 1.948819 0.247527, 0.766944 1.948819 0.339082, 0.890843 1.948819 0.447739, 0.999500 1.948819 0.571639, 1.091056 1.948819 0.708661, 1.163943 1.948819 0.856462, 1.216914 1.948819 1.012511, 1.249064 1.948819 1.174140, 1.259843 2.066929 1.338583, 1.249064 2.066929 1.503025, 1.216914 2.066929 1.664654, 1.163943 2.066929 1.820704, 1.091056 2.066929 1.968504, 0.999500 2.066929 2.105526, 0.890843 2.066929 2.229426, 0.766944 2.066929 2.338083, 0.629921 2.066929 2.429638, 0.482121 2.066929 2.502525, 0.326071 2.066929 2.555497, 0.164442 2.066929 2.587647, 0.000000 2.066929 2.598425, -0.164442 2.066929 2.587647, -0.326071 2.066929 2.555497, -0.482121 2.066929 2.502525, -0.629921 2.066929 2.429638, -0.766944 2.066929 2.338083, -0.890843 2.066929 2.229426, -0.999500 2.066929 2.105526, -1.091056 2.066929 1.968504, -1.163943 2.066929 1.820704, -1.216914 2.066929 1.664654, -1.249064 2.066929 1.503025, -1.259843 2.066929 1.338583, -1.249064 2.066929 1.174140, -1.216914 2.066929 1.012511, -1.163943 2.066929 0.856462, -1.091056 2.066929 0.708661, -0.999500 2.066929 0.571639, -0.890843 2.066929 0.447739, -0.766944 2.066929 0.339082, -0.629921 2.066929 0.247527, -0.482121 2.066929 0.174640, -0.326071 2.066929 0.121668, -0.164442 2.066929 0.089518, -0.000000 2.066929 0.078740, 0.164442 2.066929 0.089518, 0.326071 2.066929 0.121668, 0.482121 2.066929 0.174640, 0.629921 2.066929 0.247527, 0.766944 2.066929 0.339082, 0.890843 2.066929 0.447739, 0.999500 2.066929 0.571639, 1.091056 2.066929 0.708661, 1.163943 2.066929 0.856462, 1.216914 2.066929 1.012511, 1.249064 2.066929 1.174140 ] } coordIndex [ 0, 1, 2, 3, 4, 5, 6, 7, 8, 9, 10, 11, 12, 13, 14, 15, 16, 17, 18, 19, 20, 21, 22, 23, 24, 25, 26, 27, 28, 29, 30, 31, 32, 33, 34, 35, 36, 37, 38, 39, 40, 41, 42, 43, 44, 45, 46, 47, -1, 95, 94, 93, 92, 91, 90, 89, 88, 87, 86, 85, 84, 83, 82, 81, 80, 79, 78, 77, 76, 75, 74, 73, 72, 71, 70, 69, 68, 67, 66, 65, 64, 63, 62, 61, 60, 59, 58, 57, 56, 55, 54, 53, 52, 51, 50, 49, 48, -1, 48, 49, 1, 0, -1, 49, 50, 2, 1, -1, 50, 51, 3, 2, -1, 51, 52, 4, 3, -1, 52, 53, 5, 4, -1, 53, 54, 6, 5, -1, 54, 55, 7, 6, -1, 55, 56, 8, 7, -1, 56, 57, 9, 8, -1, 57, 58, 10, 9, -1, 58, 59, 11, 10, -1, 59, 60, 12, 11, -1, 60, 61, 13, 12, -1, 61, 62, 14, 13, -1, 62, 63, 15, 14, -1, 63, 64, 16, 15, -1, 64, 65, 17, 16, -1, 65, 66, 18, 17, -1, 66, 67, 19, 18, -1, 67, 68, 20, 19, -1, 68, 69, 21, 20, -1, 69, 70, 22, 21, -1, 70, 71, 23, 22, -1, 71, 72, 24, 23, -1, 72, 73, 25, 24, -1, 73, 74, 26, 25, -1, 74, 75, 27, 26, -1, 75, 76, 28, 27, -1, 76, 77, 29, 28, -1, 77, 78, 30, 29, -1, 78, 79, 31, 30, -1, 79, 80, 32, 31, -1, 80, 81, 33, 32, -1, 81, 82, 34, 33, -1, 82, 83, 35, 34, -1, 83, 84, 36, 35, -1, 84, 85, 37, 36, -1, 85, 86, 38, 37, -1, 86, 87, 39, 38, -1, 87, 88, 40, 39, -1, 88, 89, 41, 40, -1, 89, 90, 42, 41, -1, 90, 91, 43, 42, -1, 91, 92, 44, 43, -1, 92, 93, 45, 44, -1, 93, 94, 46, 45, -1, 94, 95, 47, 46, -1, 95, 48, 0, 47, -1 ] } }
Shape { appearance Appearance { material Material { diffuseColor 0.84 0.68 0.31 specularColor 0.25 0.25 0.25 shininess 0.3 } } geometry IndexedFaceSet { solid TRUE coord Coordinate { point [ 1.259843 2.381890 1.338583, 1.249064 2.381890 1.503025, 1.216914 2.381890 1.664654, 1.163943 2.381890 1.820704, 1.091056 2.381890 1.968504, 0.999500 2.381890 2.105526, 0.890843 2.381890 2.229426, 0.766944 2.381890 2.338083, 0.629921 2.381890 2.429638, 0.482121 2.381890 2.502525, 0.326071 2.381890 2.555497, 0.164442 2.381890 2.587647, 0.000000 2.381890 2.598425, -0.164442 2.381890 2.587647, -0.326071 2.381890 2.555497, -0.482121 2.381890 2.502525, -0.629921 2.381890 2.429638, -0.766944 2.381890 2.338083, -0.890843 2.381890 2.229426, -0.999500 2.381890 2.105526, -1.091056 2.381890 1.968504, -1.163943 2.381890 1.820704, -1.216914 2.381890 1.664654, -1.249064 2.381890 1.503025, -1.259843 2.381890 1.338583, -1.249064 2.381890 1.174140, -1.216914 2.381890 1.012511, -1.163943 2.381890 0.856462, -1.091056 2.381890 0.708661, -0.999500 2.381890 0.571639, -0.890843 2.381890 0.447739, -0.766944 2.381890 0.339082, -0.629921 2.381890 0.247527, -0.482121 2.381890 0.174640, -0.326071 2.381890 0.121668, -0.164442 2.381890 0.089518, -0.000000 2.381890 0.078740, 0.164442 2.381890 0.089518, 0.326071 2.381890 0.121668, 0.482121 2.381890 0.174640, 0.629921 2.381890 0.247527, 0.766944 2.381890 0.339082, 0.890843 2.381890 0.447739, 0.999500 2.381890 0.571639, 1.091056 2.381890 0.708661, 1.163943 2.381890 0.856462, 1.216914 2.381890 1.012511, 1.249064 2.381890 1.174140, 1.259843 2.500000 1.338583, 1.249064 2.500000 1.503025, 1.216914 2.500000 1.664654, 1.163943 2.500000 1.820704, 1.091056 2.500000 1.968504, 0.999500 2.500000 2.105526, 0.890843 2.500000 2.229426, 0.766944 2.500000 2.338083, 0.629921 2.500000 2.429638, 0.482121 2.500000 2.502525, 0.326071 2.500000 2.555497, 0.164442 2.500000 2.587647, 0.000000 2.500000 2.598425, -0.164442 2.500000 2.587647, -0.326071 2.500000 2.555497, -0.482121 2.500000 2.502525, -0.629921 2.500000 2.429638, -0.766944 2.500000 2.338083, -0.890843 2.500000 2.229426, -0.999500 2.500000 2.105526, -1.091056 2.500000 1.968504, -1.163943 2.500000 1.820704, -1.216914 2.500000 1.664654, -1.249064 2.500000 1.503025, -1.259843 2.500000 1.338583, -1.249064 2.500000 1.174140, -1.216914 2.500000 1.012511, -1.163943 2.500000 0.856462, -1.091056 2.500000 0.708661, -0.999500 2.500000 0.571639, -0.890843 2.500000 0.447739, -0.766944 2.500000 0.339082, -0.629921 2.500000 0.247527, -0.482121 2.500000 0.174640, -0.326071 2.500000 0.121668, -0.164442 2.500000 0.089518, -0.000000 2.500000 0.078740, 0.164442 2.500000 0.089518, 0.326071 2.500000 0.121668, 0.482121 2.500000 0.174640, 0.629921 2.500000 0.247527, 0.766944 2.500000 0.339082, 0.890843 2.500000 0.447739, 0.999500 2.500000 0.571639, 1.091056 2.500000 0.708661, 1.163943 2.500000 0.856462, 1.216914 2.500000 1.012511, 1.249064 2.500000 1.174140 ] } coordIndex [ 0, 1, 2, 3, 4, 5, 6, 7, 8, 9, 10, 11, 12, 13, 14, 15, 16, 17, 18, 19, 20, 21, 22, 23, 24, 25, 26, 27, 28, 29, 30, 31, 32, 33, 34, 35, 36, 37, 38, 39, 40, 41, 42, 43, 44, 45, 46, 47, -1, 95, 94, 93, 92, 91, 90, 89, 88, 87, 86, 85, 84, 83, 82, 81, 80, 79, 78, 77, 76, 75, 74, 73, 72, 71, 70, 69, 68, 67, 66, 65, 64, 63, 62, 61, 60, 59, 58, 57, 56, 55, 54, 53, 52, 51, 50, 49, 48, -1, 48, 49, 1, 0, -1, 49, 50, 2, 1, -1, 50, 51, 3, 2, -1, 51, 52, 4, 3, -1, 52, 53, 5, 4, -1, 53, 54, 6, 5, -1, 54, 55, 7, 6, -1, 55, 56, 8, 7, -1, 56, 57, 9, 8, -1, 57, 58, 10, 9, -1, 58, 59, 11, 10, -1, 59, 60, 12, 11, -1, 60, 61, 13, 12, -1, 61, 62, 14, 13, -1, 62, 63, 15, 14, -1, 63, 64, 16, 15, -1, 64, 65, 17, 16, -1, 65, 66, 18, 17, -1, 66, 67, 19, 18, -1, 67, 68, 20, 19, -1, 68, 69, 21, 20, -1, 69, 70, 22, 21, -1, 70, 71, 23, 22, -1, 71, 72, 24, 23, -1, 72, 73, 25, 24, -1, 73, 74, 26, 25, -1, 74, 75, 27, 26, -1, 75, 76, 28, 27, -1, 76, 77, 29, 28, -1, 77, 78, 30, 29, -1, 78, 79, 31, 30, -1, 79, 80, 32, 31, -1, 80, 81, 33, 32, -1, 81, 82, 34, 33, -1, 82, 83, 35, 34, -1, 83, 84, 36, 35, -1, 84, 85, 37, 36, -1, 85, 86, 38, 37, -1, 86, 87, 39, 38, -1, 87, 88, 40, 39, -1, 88, 89, 41, 40, -1, 89, 90, 42, 41, -1, 90, 91, 43, 42, -1, 91, 92, 44, 43, -1, 92, 93, 45, 44, -1, 93, 94, 46, 45, -1, 94, 95, 47, 46, -1, 95, 48, 0, 47, -1 ] } }
Shape { appearance Appearance { material Material { diffuseColor 0.84 0.68 0.31 specularColor 0.25 0.25 0.25 shininess 0.3 } } geometry IndexedFaceSet { solid TRUE coord Coordinate { point [ 1.259843 2.814961 1.338583, 1.249064 2.814961 1.503025, 1.216914 2.814961 1.664654, 1.163943 2.814961 1.820704, 1.091056 2.814961 1.968504, 0.999500 2.814961 2.105526, 0.890843 2.814961 2.229426, 0.766944 2.814961 2.338083, 0.629921 2.814961 2.429638, 0.482121 2.814961 2.502525, 0.326071 2.814961 2.555497, 0.164442 2.814961 2.587647, 0.000000 2.814961 2.598425, -0.164442 2.814961 2.587647, -0.326071 2.814961 2.555497, -0.482121 2.814961 2.502525, -0.629921 2.814961 2.429638, -0.766944 2.814961 2.338083, -0.890843 2.814961 2.229426, -0.999500 2.814961 2.105526, -1.091056 2.814961 1.968504, -1.163943 2.814961 1.820704, -1.216914 2.814961 1.664654, -1.249064 2.814961 1.503025, -1.259843 2.814961 1.338583, -1.249064 2.814961 1.174140, -1.216914 2.814961 1.012511, -1.163943 2.814961 0.856462, -1.091056 2.814961 0.708661, -0.999500 2.814961 0.571639, -0.890843 2.814961 0.447739, -0.766944 2.814961 0.339082, -0.629921 2.814961 0.247527, -0.482121 2.814961 0.174640, -0.326071 2.814961 0.121668, -0.164442 2.814961 0.089518, -0.000000 2.814961 0.078740, 0.164442 2.814961 0.089518, 0.326071 2.814961 0.121668, 0.482121 2.814961 0.174640, 0.629921 2.814961 0.247527, 0.766944 2.814961 0.339082, 0.890843 2.814961 0.447739, 0.999500 2.814961 0.571639, 1.091056 2.814961 0.708661, 1.163943 2.814961 0.856462, 1.216914 2.814961 1.012511, 1.249064 2.814961 1.174140, 1.259843 2.933071 1.338583, 1.249064 2.933071 1.503025, 1.216914 2.933071 1.664654, 1.163943 2.933071 1.820704, 1.091056 2.933071 1.968504, 0.999500 2.933071 2.105526, 0.890843 2.933071 2.229426, 0.766944 2.933071 2.338083, 0.629921 2.933071 2.429638, 0.482121 2.933071 2.502525, 0.326071 2.933071 2.555497, 0.164442 2.933071 2.587647, 0.000000 2.933071 2.598425, -0.164442 2.933071 2.587647, -0.326071 2.933071 2.555497, -0.482121 2.933071 2.502525, -0.629921 2.933071 2.429638, -0.766944 2.933071 2.338083, -0.890843 2.933071 2.229426, -0.999500 2.933071 2.105526, -1.091056 2.933071 1.968504, -1.163943 2.933071 1.820704, -1.216914 2.933071 1.664654, -1.249064 2.933071 1.503025, -1.259843 2.933071 1.338583, -1.249064 2.933071 1.174140, -1.216914 2.933071 1.012511, -1.163943 2.933071 0.856462, -1.091056 2.933071 0.708661, -0.999500 2.933071 0.571639, -0.890843 2.933071 0.447739, -0.766944 2.933071 0.339082, -0.629921 2.933071 0.247527, -0.482121 2.933071 0.174640, -0.326071 2.933071 0.121668, -0.164442 2.933071 0.089518, -0.000000 2.933071 0.078740, 0.164442 2.933071 0.089518, 0.326071 2.933071 0.121668, 0.482121 2.933071 0.174640, 0.629921 2.933071 0.247527, 0.766944 2.933071 0.339082, 0.890843 2.933071 0.447739, 0.999500 2.933071 0.571639, 1.091056 2.933071 0.708661, 1.163943 2.933071 0.856462, 1.216914 2.933071 1.012511, 1.249064 2.933071 1.174140 ] } coordIndex [ 0, 1, 2, 3, 4, 5, 6, 7, 8, 9, 10, 11, 12, 13, 14, 15, 16, 17, 18, 19, 20, 21, 22, 23, 24, 25, 26, 27, 28, 29, 30, 31, 32, 33, 34, 35, 36, 37, 38, 39, 40, 41, 42, 43, 44, 45, 46, 47, -1, 95, 94, 93, 92, 91, 90, 89, 88, 87, 86, 85, 84, 83, 82, 81, 80, 79, 78, 77, 76, 75, 74, 73, 72, 71, 70, 69, 68, 67, 66, 65, 64, 63, 62, 61, 60, 59, 58, 57, 56, 55, 54, 53, 52, 51, 50, 49, 48, -1, 48, 49, 1, 0, -1, 49, 50, 2, 1, -1, 50, 51, 3, 2, -1, 51, 52, 4, 3, -1, 52, 53, 5, 4, -1, 53, 54, 6, 5, -1, 54, 55, 7, 6, -1, 55, 56, 8, 7, -1, 56, 57, 9, 8, -1, 57, 58, 10, 9, -1, 58, 59, 11, 10, -1, 59, 60, 12, 11, -1, 60, 61, 13, 12, -1, 61, 62, 14, 13, -1, 62, 63, 15, 14, -1, 63, 64, 16, 15, -1, 64, 65, 17, 16, -1, 65, 66, 18, 17, -1, 66, 67, 19, 18, -1, 67, 68, 20, 19, -1, 68, 69, 21, 20, -1, 69, 70, 22, 21, -1, 70, 71, 23, 22, -1, 71, 72, 24, 23, -1, 72, 73, 25, 24, -1, 73, 74, 26, 25, -1, 74, 75, 27, 26, -1, 75, 76, 28, 27, -1, 76, 77, 29, 28, -1, 77, 78, 30, 29, -1, 78, 79, 31, 30, -1, 79, 80, 32, 31, -1, 80, 81, 33, 32, -1, 81, 82, 34, 33, -1, 82, 83, 35, 34, -1, 83, 84, 36, 35, -1, 84, 85, 37, 36, -1, 85, 86, 38, 37, -1, 86, 87, 39, 38, -1, 87, 88, 40, 39, -1, 88, 89, 41, 40, -1, 89, 90, 42, 41, -1, 90, 91, 43, 42, -1, 91, 92, 44, 43, -1, 92, 93, 45, 44, -1, 93, 94, 46, 45, -1, 94, 95, 47, 46, -1, 95, 48, 0, 47, -1 ] } }
Shape { appearance Appearance { material Material { diffuseColor 0.84 0.68 0.31 specularColor 0.25 0.25 0.25 shininess 0.3 } } geometry IndexedFaceSet { solid TRUE coord Coordinate { point [ 1.259843 3.248031 1.338583, 1.249064 3.248031 1.503025, 1.216914 3.248031 1.664654, 1.163943 3.248031 1.820704, 1.091056 3.248031 1.968504, 0.999500 3.248031 2.105526, 0.890843 3.248031 2.229426, 0.766944 3.248031 2.338083, 0.629921 3.248031 2.429638, 0.482121 3.248031 2.502525, 0.326071 3.248031 2.555497, 0.164442 3.248031 2.587647, 0.000000 3.248031 2.598425, -0.164442 3.248031 2.587647, -0.326071 3.248031 2.555497, -0.482121 3.248031 2.502525, -0.629921 3.248031 2.429638, -0.766944 3.248031 2.338083, -0.890843 3.248031 2.229426, -0.999500 3.248031 2.105526, -1.091056 3.248031 1.968504, -1.163943 3.248031 1.820704, -1.216914 3.248031 1.664654, -1.249064 3.248031 1.503025, -1.259843 3.248031 1.338583, -1.249064 3.248031 1.174140, -1.216914 3.248031 1.012511, -1.163943 3.248031 0.856462, -1.091056 3.248031 0.708661, -0.999500 3.248031 0.571639, -0.890843 3.248031 0.447739, -0.766944 3.248031 0.339082, -0.629921 3.248031 0.247527, -0.482121 3.248031 0.174640, -0.326071 3.248031 0.121668, -0.164442 3.248031 0.089518, -0.000000 3.248031 0.078740, 0.164442 3.248031 0.089518, 0.326071 3.248031 0.121668, 0.482121 3.248031 0.174640, 0.629921 3.248031 0.247527, 0.766944 3.248031 0.339082, 0.890843 3.248031 0.447739, 0.999500 3.248031 0.571639, 1.091056 3.248031 0.708661, 1.163943 3.248031 0.856462, 1.216914 3.248031 1.012511, 1.249064 3.248031 1.174140, 1.259843 3.366142 1.338583, 1.249064 3.366142 1.503025, 1.216914 3.366142 1.664654, 1.163943 3.366142 1.820704, 1.091056 3.366142 1.968504, 0.999500 3.366142 2.105526, 0.890843 3.366142 2.229426, 0.766944 3.366142 2.338083, 0.629921 3.366142 2.429638, 0.482121 3.366142 2.502525, 0.326071 3.366142 2.555497, 0.164442 3.366142 2.587647, 0.000000 3.366142 2.598425, -0.164442 3.366142 2.587647, -0.326071 3.366142 2.555497, -0.482121 3.366142 2.502525, -0.629921 3.366142 2.429638, -0.766944 3.366142 2.338083, -0.890843 3.366142 2.229426, -0.999500 3.366142 2.105526, -1.091056 3.366142 1.968504, -1.163943 3.366142 1.820704, -1.216914 3.366142 1.664654, -1.249064 3.366142 1.503025, -1.259843 3.366142 1.338583, -1.249064 3.366142 1.174140, -1.216914 3.366142 1.012511, -1.163943 3.366142 0.856462, -1.091056 3.366142 0.708661, -0.999500 3.366142 0.571639, -0.890843 3.366142 0.447739, -0.766944 3.366142 0.339082, -0.629921 3.366142 0.247527, -0.482121 3.366142 0.174640, -0.326071 3.366142 0.121668, -0.164442 3.366142 0.089518, -0.000000 3.366142 0.078740, 0.164442 3.366142 0.089518, 0.326071 3.366142 0.121668, 0.482121 3.366142 0.174640, 0.629921 3.366142 0.247527, 0.766944 3.366142 0.339082, 0.890843 3.366142 0.447739, 0.999500 3.366142 0.571639, 1.091056 3.366142 0.708661, 1.163943 3.366142 0.856462, 1.216914 3.366142 1.012511, 1.249064 3.366142 1.174140 ] } coordIndex [ 0, 1, 2, 3, 4, 5, 6, 7, 8, 9, 10, 11, 12, 13, 14, 15, 16, 17, 18, 19, 20, 21, 22, 23, 24, 25, 26, 27, 28, 29, 30, 31, 32, 33, 34, 35, 36, 37, 38, 39, 40, 41, 42, 43, 44, 45, 46, 47, -1, 95, 94, 93, 92, 91, 90, 89, 88, 87, 86, 85, 84, 83, 82, 81, 80, 79, 78, 77, 76, 75, 74, 73, 72, 71, 70, 69, 68, 67, 66, 65, 64, 63, 62, 61, 60, 59, 58, 57, 56, 55, 54, 53, 52, 51, 50, 49, 48, -1, 48, 49, 1, 0, -1, 49, 50, 2, 1, -1, 50, 51, 3, 2, -1, 51, 52, 4, 3, -1, 52, 53, 5, 4, -1, 53, 54, 6, 5, -1, 54, 55, 7, 6, -1, 55, 56, 8, 7, -1, 56, 57, 9, 8, -1, 57, 58, 10, 9, -1, 58, 59, 11, 10, -1, 59, 60, 12, 11, -1, 60, 61, 13, 12, -1, 61, 62, 14, 13, -1, 62, 63, 15, 14, -1, 63, 64, 16, 15, -1, 64, 65, 17, 16, -1, 65, 66, 18, 17, -1, 66, 67, 19, 18, -1, 67, 68, 20, 19, -1, 68, 69, 21, 20, -1, 69, 70, 22, 21, -1, 70, 71, 23, 22, -1, 71, 72, 24, 23, -1, 72, 73, 25, 24, -1, 73, 74, 26, 25, -1, 74, 75, 27, 26, -1, 75, 76, 28, 27, -1, 76, 77, 29, 28, -1, 77, 78, 30, 29, -1, 78, 79, 31, 30, -1, 79, 80, 32, 31, -1, 80, 81, 33, 32, -1, 81, 82, 34, 33, -1, 82, 83, 35, 34, -1, 83, 84, 36, 35, -1, 84, 85, 37, 36, -1, 85, 86, 38, 37, -1, 86, 87, 39, 38, -1, 87, 88, 40, 39, -1, 88, 89, 41, 40, -1, 89, 90, 42, 41, -1, 90, 91, 43, 42, -1, 91, 92, 44, 43, -1, 92, 93, 45, 44, -1, 93, 94, 46, 45, -1, 94, 95, 47, 46, -1, 95, 48, 0, 47, -1 ] } }
Shape { appearance Appearance { material Material { diffuseColor 0.84 0.68 0.31 specularColor 0.25 0.25 0.25 shininess 0.3 } } geometry IndexedFaceSet { solid TRUE coord Coordinate { point [ 1.259843 3.681102 1.338583, 1.249064 3.681102 1.503025, 1.216914 3.681102 1.664654, 1.163943 3.681102 1.820704, 1.091056 3.681102 1.968504, 0.999500 3.681102 2.105526, 0.890843 3.681102 2.229426, 0.766944 3.681102 2.338083, 0.629921 3.681102 2.429638, 0.482121 3.681102 2.502525, 0.326071 3.681102 2.555497, 0.164442 3.681102 2.587647, 0.000000 3.681102 2.598425, -0.164442 3.681102 2.587647, -0.326071 3.681102 2.555497, -0.482121 3.681102 2.502525, -0.629921 3.681102 2.429638, -0.766944 3.681102 2.338083, -0.890843 3.681102 2.229426, -0.999500 3.681102 2.105526, -1.091056 3.681102 1.968504, -1.163943 3.681102 1.820704, -1.216914 3.681102 1.664654, -1.249064 3.681102 1.503025, -1.259843 3.681102 1.338583, -1.249064 3.681102 1.174140, -1.216914 3.681102 1.012511, -1.163943 3.681102 0.856462, -1.091056 3.681102 0.708661, -0.999500 3.681102 0.571639, -0.890843 3.681102 0.447739, -0.766944 3.681102 0.339082, -0.629921 3.681102 0.247527, -0.482121 3.681102 0.174640, -0.326071 3.681102 0.121668, -0.164442 3.681102 0.089518, -0.000000 3.681102 0.078740, 0.164442 3.681102 0.089518, 0.326071 3.681102 0.121668, 0.482121 3.681102 0.174640, 0.629921 3.681102 0.247527, 0.766944 3.681102 0.339082, 0.890843 3.681102 0.447739, 0.999500 3.681102 0.571639, 1.091056 3.681102 0.708661, 1.163943 3.681102 0.856462, 1.216914 3.681102 1.012511, 1.249064 3.681102 1.174140, 1.259843 3.799213 1.338583, 1.249064 3.799213 1.503025, 1.216914 3.799213 1.664654, 1.163943 3.799213 1.820704, 1.091056 3.799213 1.968504, 0.999500 3.799213 2.105526, 0.890843 3.799213 2.229426, 0.766944 3.799213 2.338083, 0.629921 3.799213 2.429638, 0.482121 3.799213 2.502525, 0.326071 3.799213 2.555497, 0.164442 3.799213 2.587647, 0.000000 3.799213 2.598425, -0.164442 3.799213 2.587647, -0.326071 3.799213 2.555497, -0.482121 3.799213 2.502525, -0.629921 3.799213 2.429638, -0.766944 3.799213 2.338083, -0.890843 3.799213 2.229426, -0.999500 3.799213 2.105526, -1.091056 3.799213 1.968504, -1.163943 3.799213 1.820704, -1.216914 3.799213 1.664654, -1.249064 3.799213 1.503025, -1.259843 3.799213 1.338583, -1.249064 3.799213 1.174140, -1.216914 3.799213 1.012511, -1.163943 3.799213 0.856462, -1.091056 3.799213 0.708661, -0.999500 3.799213 0.571639, -0.890843 3.799213 0.447739, -0.766944 3.799213 0.339082, -0.629921 3.799213 0.247527, -0.482121 3.799213 0.174640, -0.326071 3.799213 0.121668, -0.164442 3.799213 0.089518, -0.000000 3.799213 0.078740, 0.164442 3.799213 0.089518, 0.326071 3.799213 0.121668, 0.482121 3.799213 0.174640, 0.629921 3.799213 0.247527, 0.766944 3.799213 0.339082, 0.890843 3.799213 0.447739, 0.999500 3.799213 0.571639, 1.091056 3.799213 0.708661, 1.163943 3.799213 0.856462, 1.216914 3.799213 1.012511, 1.249064 3.799213 1.174140 ] } coordIndex [ 0, 1, 2, 3, 4, 5, 6, 7, 8, 9, 10, 11, 12, 13, 14, 15, 16, 17, 18, 19, 20, 21, 22, 23, 24, 25, 26, 27, 28, 29, 30, 31, 32, 33, 34, 35, 36, 37, 38, 39, 40, 41, 42, 43, 44, 45, 46, 47, -1, 95, 94, 93, 92, 91, 90, 89, 88, 87, 86, 85, 84, 83, 82, 81, 80, 79, 78, 77, 76, 75, 74, 73, 72, 71, 70, 69, 68, 67, 66, 65, 64, 63, 62, 61, 60, 59, 58, 57, 56, 55, 54, 53, 52, 51, 50, 49, 48, -1, 48, 49, 1, 0, -1, 49, 50, 2, 1, -1, 50, 51, 3, 2, -1, 51, 52, 4, 3, -1, 52, 53, 5, 4, -1, 53, 54, 6, 5, -1, 54, 55, 7, 6, -1, 55, 56, 8, 7, -1, 56, 57, 9, 8, -1, 57, 58, 10, 9, -1, 58, 59, 11, 10, -1, 59, 60, 12, 11, -1, 60, 61, 13, 12, -1, 61, 62, 14, 13, -1, 62, 63, 15, 14, -1, 63, 64, 16, 15, -1, 64, 65, 17, 16, -1, 65, 66, 18, 17, -1, 66, 67, 19, 18, -1, 67, 68, 20, 19, -1, 68, 69, 21, 20, -1, 69, 70, 22, 21, -1, 70, 71, 23, 22, -1, 71, 72, 24, 23, -1, 72, 73, 25, 24, -1, 73, 74, 26, 25, -1, 74, 75, 27, 26, -1, 75, 76, 28, 27, -1, 76, 77, 29, 28, -1, 77, 78, 30, 29, -1, 78, 79, 31, 30, -1, 79, 80, 32, 31, -1, 80, 81, 33, 32, -1, 81, 82, 34, 33, -1, 82, 83, 35, 34, -1, 83, 84, 36, 35, -1, 84, 85, 37, 36, -1, 85, 86, 38, 37, -1, 86, 87, 39, 38, -1, 87, 88, 40, 39, -1, 88, 89, 41, 40, -1, 89, 90, 42, 41, -1, 90, 91, 43, 42, -1, 91, 92, 44, 43, -1, 92, 93, 45, 44, -1, 93, 94, 46, 45, -1, 94, 95, 47, 46, -1, 95, 48, 0, 47, -1 ] } }
Shape { appearance Appearance { material Material { diffuseColor 0.84 0.68 0.31 specularColor 0.25 0.25 0.25 shininess 0.3 } } geometry IndexedFaceSet { solid TRUE coord Coordinate { point [ 1.259843 4.114173 1.338583, 1.249064 4.114173 1.503025, 1.216914 4.114173 1.664654, 1.163943 4.114173 1.820704, 1.091056 4.114173 1.968504, 0.999500 4.114173 2.105526, 0.890843 4.114173 2.229426, 0.766944 4.114173 2.338083, 0.629921 4.114173 2.429638, 0.482121 4.114173 2.502525, 0.326071 4.114173 2.555497, 0.164442 4.114173 2.587647, 0.000000 4.114173 2.598425, -0.164442 4.114173 2.587647, -0.326071 4.114173 2.555497, -0.482121 4.114173 2.502525, -0.629921 4.114173 2.429638, -0.766944 4.114173 2.338083, -0.890843 4.114173 2.229426, -0.999500 4.114173 2.105526, -1.091056 4.114173 1.968504, -1.163943 4.114173 1.820704, -1.216914 4.114173 1.664654, -1.249064 4.114173 1.503025, -1.259843 4.114173 1.338583, -1.249064 4.114173 1.174140, -1.216914 4.114173 1.012511, -1.163943 4.114173 0.856462, -1.091056 4.114173 0.708661, -0.999500 4.114173 0.571639, -0.890843 4.114173 0.447739, -0.766944 4.114173 0.339082, -0.629921 4.114173 0.247527, -0.482121 4.114173 0.174640, -0.326071 4.114173 0.121668, -0.164442 4.114173 0.089518, -0.000000 4.114173 0.078740, 0.164442 4.114173 0.089518, 0.326071 4.114173 0.121668, 0.482121 4.114173 0.174640, 0.629921 4.114173 0.247527, 0.766944 4.114173 0.339082, 0.890843 4.114173 0.447739, 0.999500 4.114173 0.571639, 1.091056 4.114173 0.708661, 1.163943 4.114173 0.856462, 1.216914 4.114173 1.012511, 1.249064 4.114173 1.174140, 1.259843 4.232283 1.338583, 1.249064 4.232283 1.503025, 1.216914 4.232283 1.664654, 1.163943 4.232283 1.820704, 1.091056 4.232283 1.968504, 0.999500 4.232283 2.105526, 0.890843 4.232283 2.229426, 0.766944 4.232283 2.338083, 0.629921 4.232283 2.429638, 0.482121 4.232283 2.502525, 0.326071 4.232283 2.555497, 0.164442 4.232283 2.587647, 0.000000 4.232283 2.598425, -0.164442 4.232283 2.587647, -0.326071 4.232283 2.555497, -0.482121 4.232283 2.502525, -0.629921 4.232283 2.429638, -0.766944 4.232283 2.338083, -0.890843 4.232283 2.229426, -0.999500 4.232283 2.105526, -1.091056 4.232283 1.968504, -1.163943 4.232283 1.820704, -1.216914 4.232283 1.664654, -1.249064 4.232283 1.503025, -1.259843 4.232283 1.338583, -1.249064 4.232283 1.174140, -1.216914 4.232283 1.012511, -1.163943 4.232283 0.856462, -1.091056 4.232283 0.708661, -0.999500 4.232283 0.571639, -0.890843 4.232283 0.447739, -0.766944 4.232283 0.339082, -0.629921 4.232283 0.247527, -0.482121 4.232283 0.174640, -0.326071 4.232283 0.121668, -0.164442 4.232283 0.089518, -0.000000 4.232283 0.078740, 0.164442 4.232283 0.089518, 0.326071 4.232283 0.121668, 0.482121 4.232283 0.174640, 0.629921 4.232283 0.247527, 0.766944 4.232283 0.339082, 0.890843 4.232283 0.447739, 0.999500 4.232283 0.571639, 1.091056 4.232283 0.708661, 1.163943 4.232283 0.856462, 1.216914 4.232283 1.012511, 1.249064 4.232283 1.174140 ] } coordIndex [ 0, 1, 2, 3, 4, 5, 6, 7, 8, 9, 10, 11, 12, 13, 14, 15, 16, 17, 18, 19, 20, 21, 22, 23, 24, 25, 26, 27, 28, 29, 30, 31, 32, 33, 34, 35, 36, 37, 38, 39, 40, 41, 42, 43, 44, 45, 46, 47, -1, 95, 94, 93, 92, 91, 90, 89, 88, 87, 86, 85, 84, 83, 82, 81, 80, 79, 78, 77, 76, 75, 74, 73, 72, 71, 70, 69, 68, 67, 66, 65, 64, 63, 62, 61, 60, 59, 58, 57, 56, 55, 54, 53, 52, 51, 50, 49, 48, -1, 48, 49, 1, 0, -1, 49, 50, 2, 1, -1, 50, 51, 3, 2, -1, 51, 52, 4, 3, -1, 52, 53, 5, 4, -1, 53, 54, 6, 5, -1, 54, 55, 7, 6, -1, 55, 56, 8, 7, -1, 56, 57, 9, 8, -1, 57, 58, 10, 9, -1, 58, 59, 11, 10, -1, 59, 60, 12, 11, -1, 60, 61, 13, 12, -1, 61, 62, 14, 13, -1, 62, 63, 15, 14, -1, 63, 64, 16, 15, -1, 64, 65, 17, 16, -1, 65, 66, 18, 17, -1, 66, 67, 19, 18, -1, 67, 68, 20, 19, -1, 68, 69, 21, 20, -1, 69, 70, 22, 21, -1, 70, 71, 23, 22, -1, 71, 72, 24, 23, -1, 72, 73, 25, 24, -1, 73, 74, 26, 25, -1, 74, 75, 27, 26, -1, 75, 76, 28, 27, -1, 76, 77, 29, 28, -1, 77, 78, 30, 29, -1, 78, 79, 31, 30, -1, 79, 80, 32, 31, -1, 80, 81, 33, 32, -1, 81, 82, 34, 33, -1, 82, 83, 35, 34, -1, 83, 84, 36, 35, -1, 84, 85, 37, 36, -1, 85, 86, 38, 37, -1, 86, 87, 39, 38, -1, 87, 88, 40, 39, -1, 88, 89, 41, 40, -1, 89, 90, 42, 41, -1, 90, 91, 43, 42, -1, 91, 92, 44, 43, -1, 92, 93, 45, 44, -1, 93, 94, 46, 45, -1, 94, 95, 47, 46, -1, 95, 48, 0, 47, -1 ] } }
Shape { appearance Appearance { material Material { diffuseColor 0.92 0.91 0.84 specularColor 0.25 0.25 0.25 shininess 0.3 } } geometry IndexedFaceSet { solid TRUE coord Coordinate { point [ 0.850394 4.332677 1.338583, 0.843118 4.332677 1.449581, 0.821417 4.332677 1.558681, 0.785661 4.332677 1.664014, 0.736463 4.332677 1.763780, 0.674663 4.332677 1.856270, 0.601319 4.332677 1.939902, 0.517687 4.332677 2.013245, 0.425197 4.332677 2.075045, 0.325432 4.332677 2.124244, 0.220098 4.332677 2.160000, 0.110999 4.332677 2.181701, 0.000000 4.332677 2.188976, -0.110999 4.332677 2.181701, -0.220098 4.332677 2.160000, -0.325432 4.332677 2.124244, -0.425197 4.332677 2.075045, -0.517687 4.332677 2.013245, -0.601319 4.332677 1.939902, -0.674663 4.332677 1.856270, -0.736463 4.332677 1.763780, -0.785661 4.332677 1.664014, -0.821417 4.332677 1.558681, -0.843118 4.332677 1.449581, -0.850394 4.332677 1.338583, -0.843118 4.332677 1.227584, -0.821417 4.332677 1.118485, -0.785661 4.332677 1.013151, -0.736463 4.332677 0.913386, -0.674663 4.332677 0.820896, -0.601319 4.332677 0.737264, -0.517687 4.332677 0.663920, -0.425197 4.332677 0.602120, -0.325432 4.332677 0.552921, -0.220098 4.332677 0.517165, -0.110999 4.332677 0.495464, -0.000000 4.332677 0.488189, 0.110999 4.332677 0.495464, 0.220098 4.332677 0.517165, 0.325432 4.332677 0.552921, 0.425197 4.332677 0.602120, 0.517687 4.332677 0.663920, 0.601319 4.332677 0.737264, 0.674663 4.332677 0.820896, 0.736463 4.332677 0.913386, 0.785661 4.332677 1.013151, 0.821417 4.332677 1.118485, 0.843118 4.332677 1.227584, 0.850394 4.356299 1.338583, 0.843118 4.356299 1.449581, 0.821417 4.356299 1.558681, 0.785661 4.356299 1.664014, 0.736463 4.356299 1.763780, 0.674663 4.356299 1.856270, 0.601319 4.356299 1.939902, 0.517687 4.356299 2.013245, 0.425197 4.356299 2.075045, 0.325432 4.356299 2.124244, 0.220098 4.356299 2.160000, 0.110999 4.356299 2.181701, 0.000000 4.356299 2.188976, -0.110999 4.356299 2.181701, -0.220098 4.356299 2.160000, -0.325432 4.356299 2.124244, -0.425197 4.356299 2.075045, -0.517687 4.356299 2.013245, -0.601319 4.356299 1.939902, -0.674663 4.356299 1.856270, -0.736463 4.356299 1.763780, -0.785661 4.356299 1.664014, -0.821417 4.356299 1.558681, -0.843118 4.356299 1.449581, -0.850394 4.356299 1.338583, -0.843118 4.356299 1.227584, -0.821417 4.356299 1.118485, -0.785661 4.356299 1.013151, -0.736463 4.356299 0.913386, -0.674663 4.356299 0.820896, -0.601319 4.356299 0.737264, -0.517687 4.356299 0.663920, -0.425197 4.356299 0.602120, -0.325432 4.356299 0.552921, -0.220098 4.356299 0.517165, -0.110999 4.356299 0.495464, -0.000000 4.356299 0.488189, 0.110999 4.356299 0.495464, 0.220098 4.356299 0.517165, 0.325432 4.356299 0.552921, 0.425197 4.356299 0.602120, 0.517687 4.356299 0.663920, 0.601319 4.356299 0.737264, 0.674663 4.356299 0.820896, 0.736463 4.356299 0.913386, 0.785661 4.356299 1.013151, 0.821417 4.356299 1.118485, 0.843118 4.356299 1.227584 ] } coordIndex [ 0, 1, 2, 3, 4, 5, 6, 7, 8, 9, 10, 11, 12, 13, 14, 15, 16, 17, 18, 19, 20, 21, 22, 23, 24, 25, 26, 27, 28, 29, 30, 31, 32, 33, 34, 35, 36, 37, 38, 39, 40, 41, 42, 43, 44, 45, 46, 47, -1, 95, 94, 93, 92, 91, 90, 89, 88, 87, 86, 85, 84, 83, 82, 81, 80, 79, 78, 77, 76, 75, 74, 73, 72, 71, 70, 69, 68, 67, 66, 65, 64, 63, 62, 61, 60, 59, 58, 57, 56, 55, 54, 53, 52, 51, 50, 49, 48, -1, 48, 49, 1, 0, -1, 49, 50, 2, 1, -1, 50, 51, 3, 2, -1, 51, 52, 4, 3, -1, 52, 53, 5, 4, -1, 53, 54, 6, 5, -1, 54, 55, 7, 6, -1, 55, 56, 8, 7, -1, 56, 57, 9, 8, -1, 57, 58, 10, 9, -1, 58, 59, 11, 10, -1, 59, 60, 12, 11, -1, 60, 61, 13, 12, -1, 61, 62, 14, 13, -1, 62, 63, 15, 14, -1, 63, 64, 16, 15, -1, 64, 65, 17, 16, -1, 65, 66, 18, 17, -1, 66, 67, 19, 18, -1, 67, 68, 20, 19, -1, 68, 69, 21, 20, -1, 69, 70, 22, 21, -1, 70, 71, 23, 22, -1, 71, 72, 24, 23, -1, 72, 73, 25, 24, -1, 73, 74, 26, 25, -1, 74, 75, 27, 26, -1, 75, 76, 28, 27, -1, 76, 77, 29, 28, -1, 77, 78, 30, 29, -1, 78, 79, 31, 30, -1, 79, 80, 32, 31, -1, 80, 81, 33, 32, -1, 81, 82, 34, 33, -1, 82, 83, 35, 34, -1, 83, 84, 36, 35, -1, 84, 85, 37, 36, -1, 85, 86, 38, 37, -1, 86, 87, 39, 38, -1, 87, 88, 40, 39, -1, 88, 89, 41, 40, -1, 89, 90, 42, 41, -1, 90, 91, 43, 42, -1, 91, 92, 44, 43, -1, 92, 93, 45, 44, -1, 93, 94, 46, 45, -1, 94, 95, 47, 46, -1, 95, 48, 0, 47, -1 ] } }
Shape { appearance Appearance { material Material { diffuseColor 0.06 0.06 0.045 specularColor 0.25 0.25 0.25 shininess 0.3 } } geometry IndexedFaceSet { solid TRUE coord Coordinate { point [ 0.228346 4.354528 1.338583, 0.226393 4.354528 1.368388, 0.220566 4.354528 1.397683, 0.210965 4.354528 1.425967, 0.197754 4.354528 1.452756, 0.181159 4.354528 1.477591, 0.161465 4.354528 1.500048, 0.139009 4.354528 1.519742, 0.114173 4.354528 1.536337, 0.087384 4.354528 1.549547, 0.059100 4.354528 1.559148, 0.029805 4.354528 1.564976, 0.000000 4.354528 1.566929, -0.029805 4.354528 1.564976, -0.059100 4.354528 1.559148, -0.087384 4.354528 1.549547, -0.114173 4.354528 1.536337, -0.139009 4.354528 1.519742, -0.161465 4.354528 1.500048, -0.181159 4.354528 1.477591, -0.197754 4.354528 1.452756, -0.210965 4.354528 1.425967, -0.220566 4.354528 1.397683, -0.226393 4.354528 1.368388, -0.228346 4.354528 1.338583, -0.226393 4.354528 1.308777, -0.220566 4.354528 1.279482, -0.210965 4.354528 1.251198, -0.197754 4.354528 1.224409, -0.181159 4.354528 1.199574, -0.161465 4.354528 1.177117, -0.139009 4.354528 1.157423, -0.114173 4.354528 1.140829, -0.087384 4.354528 1.127618, -0.059100 4.354528 1.118017, -0.029805 4.354528 1.112190, -0.000000 4.354528 1.110236, 0.029805 4.354528 1.112190, 0.059100 4.354528 1.118017, 0.087384 4.354528 1.127618, 0.114173 4.354528 1.140829, 0.139009 4.354528 1.157423, 0.161465 4.354528 1.177117, 0.181159 4.354528 1.199574, 0.197754 4.354528 1.224409, 0.210965 4.354528 1.251198, 0.220566 4.354528 1.279482, 0.226393 4.354528 1.308777, 0.228346 4.368307 1.338583, 0.226393 4.368307 1.368388, 0.220566 4.368307 1.397683, 0.210965 4.368307 1.425967, 0.197754 4.368307 1.452756, 0.181159 4.368307 1.477591, 0.161465 4.368307 1.500048, 0.139009 4.368307 1.519742, 0.114173 4.368307 1.536337, 0.087384 4.368307 1.549547, 0.059100 4.368307 1.559148, 0.029805 4.368307 1.564976, 0.000000 4.368307 1.566929, -0.029805 4.368307 1.564976, -0.059100 4.368307 1.559148, -0.087384 4.368307 1.549547, -0.114173 4.368307 1.536337, -0.139009 4.368307 1.519742, -0.161465 4.368307 1.500048, -0.181159 4.368307 1.477591, -0.197754 4.368307 1.452756, -0.210965 4.368307 1.425967, -0.220566 4.368307 1.397683, -0.226393 4.368307 1.368388, -0.228346 4.368307 1.338583, -0.226393 4.368307 1.308777, -0.220566 4.368307 1.279482, -0.210965 4.368307 1.251198, -0.197754 4.368307 1.224409, -0.181159 4.368307 1.199574, -0.161465 4.368307 1.177117, -0.139009 4.368307 1.157423, -0.114173 4.368307 1.140829, -0.087384 4.368307 1.127618, -0.059100 4.368307 1.118017, -0.029805 4.368307 1.112190, -0.000000 4.368307 1.110236, 0.029805 4.368307 1.112190, 0.059100 4.368307 1.118017, 0.087384 4.368307 1.127618, 0.114173 4.368307 1.140829, 0.139009 4.368307 1.157423, 0.161465 4.368307 1.177117, 0.181159 4.368307 1.199574, 0.197754 4.368307 1.224409, 0.210965 4.368307 1.251198, 0.220566 4.368307 1.279482, 0.226393 4.368307 1.308777 ] } coordIndex [ 0, 1, 2, 3, 4, 5, 6, 7, 8, 9, 10, 11, 12, 13, 14, 15, 16, 17, 18, 19, 20, 21, 22, 23, 24, 25, 26, 27, 28, 29, 30, 31, 32, 33, 34, 35, 36, 37, 38, 39, 40, 41, 42, 43, 44, 45, 46, 47, -1, 95, 94, 93, 92, 91, 90, 89, 88, 87, 86, 85, 84, 83, 82, 81, 80, 79, 78, 77, 76, 75, 74, 73, 72, 71, 70, 69, 68, 67, 66, 65, 64, 63, 62, 61, 60, 59, 58, 57, 56, 55, 54, 53, 52, 51, 50, 49, 48, -1, 48, 49, 1, 0, -1, 49, 50, 2, 1, -1, 50, 51, 3, 2, -1, 51, 52, 4, 3, -1, 52, 53, 5, 4, -1, 53, 54, 6, 5, -1, 54, 55, 7, 6, -1, 55, 56, 8, 7, -1, 56, 57, 9, 8, -1, 57, 58, 10, 9, -1, 58, 59, 11, 10, -1, 59, 60, 12, 11, -1, 60, 61, 13, 12, -1, 61, 62, 14, 13, -1, 62, 63, 15, 14, -1, 63, 64, 16, 15, -1, 64, 65, 17, 16, -1, 65, 66, 18, 17, -1, 66, 67, 19, 18, -1, 67, 68, 20, 19, -1, 68, 69, 21, 20, -1, 69, 70, 22, 21, -1, 70, 71, 23, 22, -1, 71, 72, 24, 23, -1, 72, 73, 25, 24, -1, 73, 74, 26, 25, -1, 74, 75, 27, 26, -1, 75, 76, 28, 27, -1, 76, 77, 29, 28, -1, 77, 78, 30, 29, -1, 78, 79, 31, 30, -1, 79, 80, 32, 31, -1, 80, 81, 33, 32, -1, 81, 82, 34, 33, -1, 82, 83, 35, 34, -1, 83, 84, 36, 35, -1, 84, 85, 37, 36, -1, 85, 86, 38, 37, -1, 86, 87, 39, 38, -1, 87, 88, 40, 39, -1, 88, 89, 41, 40, -1, 89, 90, 42, 41, -1, 90, 91, 43, 42, -1, 91, 92, 44, 43, -1, 92, 93, 45, 44, -1, 93, 94, 46, 45, -1, 94, 95, 47, 46, -1, 95, 48, 0, 47, -1 ] } }
Shape { appearance Appearance { material Material { diffuseColor 0.78 0.59 0.19 specularColor 0.25 0.25 0.25 shininess 0.3 } } geometry IndexedFaceSet { solid TRUE coord Coordinate { point [ -1.177165 -1.177165 -0.944882, -0.822835 -1.177165 -0.944882, -1.177165 -0.822835 -0.944882, -0.822835 -0.822835 -0.944882, -1.177165 -1.177165 0.629921, -0.822835 -1.177165 0.629921, -1.177165 -0.822835 0.629921, -0.822835 -0.822835 0.629921 ] } coordIndex [ 0, 2, 3, 1, -1, 4, 5, 7, 6, -1, 0, 1, 5, 4, -1, 1, 3, 7, 5, -1, 3, 2, 6, 7, -1, 2, 0, 4, 6, -1 ] } }
Shape { appearance Appearance { material Material { diffuseColor 0.78 0.59 0.19 specularColor 0.25 0.25 0.25 shininess 0.3 } } geometry IndexedFaceSet { solid TRUE coord Coordinate { point [ -1.177165 0.822835 -0.944882, -0.822835 0.822835 -0.944882, -1.177165 1.177165 -0.944882, -0.822835 1.177165 -0.944882, -1.177165 0.822835 0.629921, -0.822835 0.822835 0.629921, -1.177165 1.177165 0.629921, -0.822835 1.177165 0.629921 ] } coordIndex [ 0, 2, 3, 1, -1, 4, 5, 7, 6, -1, 0, 1, 5, 4, -1, 1, 3, 7, 5, -1, 3, 2, 6, 7, -1, 2, 0, 4, 6, -1 ] } }
Shape { appearance Appearance { material Material { diffuseColor 0.78 0.59 0.19 specularColor 0.25 0.25 0.25 shininess 0.3 } } geometry IndexedFaceSet { solid TRUE coord Coordinate { point [ 0.822835 -1.177165 -0.944882, 1.177165 -1.177165 -0.944882, 0.822835 -0.822835 -0.944882, 1.177165 -0.822835 -0.944882, 0.822835 -1.177165 0.629921, 1.177165 -1.177165 0.629921, 0.822835 -0.822835 0.629921, 1.177165 -0.822835 0.629921 ] } coordIndex [ 0, 2, 3, 1, -1, 4, 5, 7, 6, -1, 0, 1, 5, 4, -1, 1, 3, 7, 5, -1, 3, 2, 6, 7, -1, 2, 0, 4, 6, -1 ] } }
Shape { appearance Appearance { material Material { diffuseColor 0.78 0.59 0.19 specularColor 0.25 0.25 0.25 shininess 0.3 } } geometry IndexedFaceSet { solid TRUE coord Coordinate { point [ 0.822835 0.822835 -0.944882, 1.177165 0.822835 -0.944882, 0.822835 1.177165 -0.944882, 1.177165 1.177165 -0.944882, 0.822835 0.822835 0.629921, 1.177165 0.822835 0.629921, 0.822835 1.177165 0.629921, 1.177165 1.177165 0.629921 ] } coordIndex [ 0, 2, 3, 1, -1, 4, 5, 7, 6, -1, 0, 1, 5, 4, -1, 1, 3, 7, 5, -1, 3, 2, 6, 7, -1, 2, 0, 4, 6, -1 ] } }
Shape { appearance Appearance { material Material { diffuseColor 0.78 0.59 0.19 specularColor 0.25 0.25 0.25 shininess 0.3 } } geometry IndexedFaceSet { solid TRUE coord Coordinate { point [ -0.118110 -0.118110 -0.984252, 0.118110 -0.118110 -0.984252, -0.118110 0.118110 -0.984252, 0.118110 0.118110 -0.984252, -0.118110 -0.118110 0.590551, 0.118110 -0.118110 0.590551, -0.118110 0.118110 0.590551, 0.118110 0.118110 0.590551 ] } coordIndex [ 0, 2, 3, 1, -1, 4, 5, 7, 6, -1, 0, 1, 5, 4, -1, 1, 3, 7, 5, -1, 3, 2, 6, 7, -1, 2, 0, 4, 6, -1 ] } }
