M48
; DRILL file {KiCad 9.0.8+dfsg-1} date 2026-09-09T08:36:47-0400
; FORMAT={-:-/ absolute / metric / decimal}
; #@! TF.CreationDate,2026-09-09T08:36:47-04:00
; #@! TF.GenerationSoftware,Kicad,Pcbnew,9.0.8+dfsg-1
; #@! TF.FileFunction,Plated,1,2,PTH
FMAT,2
METRIC
; #@! TA.AperFunction,Plated,PTH,ViaDrill
T1C0.400
; #@! TA.AperFunction,Plated,PTH,ComponentDrill
T2C0.800
; #@! TA.AperFunction,Plated,PTH,ComponentDrill
T3C0.950
; #@! TA.AperFunction,Plated,PTH,ComponentDrill
T4C1.000
; #@! TA.AperFunction,Plated,PTH,ComponentDrill
T5C1.300
%
G90
G05
T1
X28.097Y-68.05
X42.786Y-61.512
X81.055Y-25.383
X88.199Y-80.181
X92.892Y-36.593
X93.957Y-27.433
X97.266Y-27.425
X102.526Y-58.84
X125.935Y-83.781
X127.89Y-100.993
X131.911Y-89.073
T2
X51.5Y-116.0
X55.0Y-116.0
X98.0Y-112.0
X101.5Y-112.0
T3
X99.0Y-28.0
X99.0Y-47.0
X101.5Y-28.0
X101.5Y-47.0
X104.0Y-28.0
X104.0Y-47.0
X106.5Y-28.0
X106.5Y-47.0
X123.0Y-28.0
X125.5Y-28.0
X128.0Y-28.0
X130.5Y-28.0
T4
X42.0Y-119.0
X47.0Y-119.0
X50.0Y-28.0
X50.0Y-30.54
X50.0Y-33.08
X50.0Y-35.62
X50.0Y-38.16
X50.0Y-40.7
X50.0Y-43.24
X50.0Y-45.78
X50.0Y-48.32
X50.0Y-50.86
X50.0Y-53.4
X50.0Y-55.94
X50.0Y-58.48
X50.0Y-61.02
X50.0Y-63.56
X50.0Y-66.1
X50.0Y-68.64
X50.0Y-71.18
X50.0Y-73.72
X50.0Y-76.26
X50.0Y-78.8
X50.0Y-81.34
X50.0Y-83.88
X50.0Y-86.42
X65.24Y-28.0
X65.24Y-30.54
X65.24Y-33.08
X65.24Y-35.62
X65.24Y-38.16
X65.24Y-40.7
X65.24Y-43.24
X65.24Y-45.78
X65.24Y-48.32
X65.24Y-50.86
X65.24Y-53.4
X65.24Y-55.94
X65.24Y-58.48
X65.24Y-61.02
X65.24Y-63.56
X65.24Y-66.1
X65.24Y-68.64
X65.24Y-71.18
X65.24Y-73.72
X65.24Y-76.26
X65.24Y-78.8
X65.24Y-81.34
X65.24Y-83.88
X65.24Y-86.42
X68.0Y-99.0
X68.0Y-101.54
X68.0Y-104.08
X68.0Y-106.62
X68.0Y-109.16
X68.0Y-111.7
X70.54Y-99.0
X70.54Y-101.54
X70.54Y-104.08
X70.54Y-106.62
X70.54Y-109.16
X70.54Y-111.7
X74.0Y-43.0
X82.0Y-30.0
X82.0Y-32.54
X100.0Y-76.0
X102.54Y-76.0
X105.08Y-76.0
X114.0Y-70.0
X115.0Y-92.0
X125.0Y-47.0
X125.0Y-49.54
X125.0Y-52.08
X125.0Y-54.62
X127.54Y-47.0
X127.54Y-49.54
X127.54Y-52.08
X127.54Y-54.62
T5
X30.0Y-111.0
X32.0Y-54.0
X32.0Y-59.08
X35.08Y-111.0
X110.0Y-111.0
X115.08Y-111.0
X120.16Y-111.0
X125.24Y-111.0
M30
