%TF.GenerationSoftware,KiCad,Pcbnew,9.0.8+dfsg-1*%
%TF.CreationDate,2026-09-09T08:36:47-04:00*%
%TF.ProjectId,racecar-carrier-reva,72616365-6361-4722-9d63-617272696572,rev?*%
%TF.SameCoordinates,Original*%
%TF.FileFunction,Soldermask,Bot*%
%TF.FilePolarity,Negative*%
%FSLAX46Y46*%
G04 Gerber Fmt 4.6, Leading zero omitted, Abs format (unit mm)*
G04 Created by KiCad (PCBNEW 9.0.8+dfsg-1) date 2026-09-09 08:36:47*
%MOMM*%
%LPD*%
G01*
G04 APERTURE LIST*
G04 Aperture macros list*
%AMRoundRect*
0 Rectangle with rounded corners*
0 $1 Rounding radius*
0 $2 $3 $4 $5 $6 $7 $8 $9 X,Y pos of 4 corners*
0 Add a 4 corners polygon primitive as box body*
4,1,4,$2,$3,$4,$5,$6,$7,$8,$9,$2,$3,0*
0 Add four circle primitives for the rounded corners*
1,1,$1+$1,$2,$3*
1,1,$1+$1,$4,$5*
1,1,$1+$1,$6,$7*
1,1,$1+$1,$8,$9*
0 Add four rect primitives between the rounded corners*
20,1,$1+$1,$2,$3,$4,$5,0*
20,1,$1+$1,$4,$5,$6,$7,0*
20,1,$1+$1,$6,$7,$8,$9,0*
20,1,$1+$1,$8,$9,$2,$3,0*%
G04 Aperture macros list end*
%ADD10R,1.700000X1.700000*%
%ADD11C,1.700000*%
%ADD12C,3.200000*%
%ADD13RoundRect,0.250000X-0.550000X-0.550000X0.550000X-0.550000X0.550000X0.550000X-0.550000X0.550000X0*%
%ADD14C,1.600000*%
%ADD15C,2.000000*%
%ADD16R,1.900000X1.900000*%
%ADD17C,1.900000*%
%ADD18RoundRect,0.250000X-1.050000X-1.050000X1.050000X-1.050000X1.050000X1.050000X-1.050000X1.050000X0*%
%ADD19C,2.600000*%
%ADD20RoundRect,0.250000X-0.600000X-0.725000X0.600000X-0.725000X0.600000X0.725000X-0.600000X0.725000X0*%
%ADD21O,1.700000X1.950000*%
%ADD22RoundRect,0.250000X-1.050000X1.050000X-1.050000X-1.050000X1.050000X-1.050000X1.050000X1.050000X0*%
%ADD23RoundRect,0.250000X0.550000X0.550000X-0.550000X0.550000X-0.550000X-0.550000X0.550000X-0.550000X0*%
%ADD24R,1.500000X2.500000*%
%ADD25O,1.500000X2.500000*%
G04 APERTURE END LIST*
D10*
%TO.C,JP1*%
X82000000Y-30000000D03*
D11*
X82000000Y-32540000D03*
%TD*%
D10*
%TO.C,J7*%
X125000000Y-47000000D03*
D11*
X127540000Y-47000000D03*
X125000000Y-49540000D03*
X127540000Y-49540000D03*
X125000000Y-52080000D03*
X127540000Y-52080000D03*
X125000000Y-54620000D03*
X127540000Y-54620000D03*
%TD*%
D12*
%TO.C,H4*%
X146000000Y-126000000D03*
%TD*%
D13*
%TO.C,C2*%
X98000000Y-112000000D03*
D14*
X101500000Y-112000000D03*
%TD*%
D15*
%TO.C,TP2*%
X47000000Y-119000000D03*
%TD*%
D16*
%TO.C,U2*%
X68000000Y-99000000D03*
D17*
X70540000Y-99000000D03*
X68000000Y-101540000D03*
X70540000Y-101540000D03*
X68000000Y-104080000D03*
X70540000Y-104080000D03*
X68000000Y-106620000D03*
X70540000Y-106620000D03*
X68000000Y-109160000D03*
X70540000Y-109160000D03*
X68000000Y-111700000D03*
X70540000Y-111700000D03*
%TD*%
D18*
%TO.C,J1*%
X30000000Y-111000000D03*
D19*
X35080000Y-111000000D03*
%TD*%
D20*
%TO.C,J5*%
X123000000Y-28000000D03*
D21*
X125500000Y-28000000D03*
X128000000Y-28000000D03*
X130500000Y-28000000D03*
%TD*%
D22*
%TO.C,J3*%
X32000000Y-54000000D03*
D19*
X32000000Y-59080000D03*
%TD*%
D15*
%TO.C,TP1*%
X42000000Y-119000000D03*
%TD*%
D16*
%TO.C,U1*%
X50000000Y-28000000D03*
D17*
X50000000Y-30540000D03*
X50000000Y-33080000D03*
X50000000Y-35620000D03*
X50000000Y-38160000D03*
X50000000Y-40700000D03*
X50000000Y-43240000D03*
X50000000Y-45780000D03*
X50000000Y-48320000D03*
X50000000Y-50860000D03*
X50000000Y-53400000D03*
X50000000Y-55940000D03*
X50000000Y-58480000D03*
X50000000Y-61020000D03*
X50000000Y-63560000D03*
X50000000Y-66100000D03*
X50000000Y-68640000D03*
X50000000Y-71180000D03*
X50000000Y-73720000D03*
X50000000Y-76260000D03*
X50000000Y-78800000D03*
X50000000Y-81340000D03*
X50000000Y-83880000D03*
X50000000Y-86420000D03*
X65240000Y-28000000D03*
X65240000Y-30540000D03*
X65240000Y-33080000D03*
X65240000Y-35620000D03*
X65240000Y-38160000D03*
X65240000Y-40700000D03*
X65240000Y-43240000D03*
X65240000Y-45780000D03*
X65240000Y-48320000D03*
X65240000Y-50860000D03*
X65240000Y-53400000D03*
X65240000Y-55940000D03*
X65240000Y-58480000D03*
X65240000Y-61020000D03*
X65240000Y-63560000D03*
X65240000Y-66100000D03*
X65240000Y-68640000D03*
X65240000Y-71180000D03*
X65240000Y-73720000D03*
X65240000Y-76260000D03*
X65240000Y-78800000D03*
X65240000Y-81340000D03*
X65240000Y-83880000D03*
X65240000Y-86420000D03*
%TD*%
D15*
%TO.C,TP3*%
X115000000Y-92000000D03*
%TD*%
%TO.C,TP5*%
X74000000Y-43000000D03*
%TD*%
D12*
%TO.C,H2*%
X146000000Y-24000000D03*
%TD*%
D18*
%TO.C,J2*%
X110000000Y-111000000D03*
D19*
X115080000Y-111000000D03*
X120160000Y-111000000D03*
X125240000Y-111000000D03*
%TD*%
D15*
%TO.C,TP4*%
X114000000Y-70000000D03*
%TD*%
D12*
%TO.C,H1*%
X24000000Y-24000000D03*
%TD*%
D20*
%TO.C,J4*%
X99000000Y-28000000D03*
D21*
X101500000Y-28000000D03*
X104000000Y-28000000D03*
X106500000Y-28000000D03*
%TD*%
D23*
%TO.C,C1*%
X55000000Y-116000000D03*
D14*
X51500000Y-116000000D03*
%TD*%
D20*
%TO.C,J6*%
X99000000Y-47000000D03*
D21*
X101500000Y-47000000D03*
X104000000Y-47000000D03*
X106500000Y-47000000D03*
%TD*%
D24*
%TO.C,U3*%
X100000000Y-76000000D03*
D25*
X102540000Y-76000000D03*
X105080000Y-76000000D03*
%TD*%
D12*
%TO.C,H3*%
X24000000Y-126000000D03*
%TD*%
M02*
