%TF.GenerationSoftware,KiCad,Pcbnew,9.0.8+dfsg-1*%
%TF.CreationDate,2026-09-09T08:36:47-04:00*%
%TF.ProjectId,racecar-carrier-reva,72616365-6361-4722-9d63-617272696572,rev?*%
%TF.SameCoordinates,Original*%
%TF.FileFunction,Legend,Top*%
%TF.FilePolarity,Positive*%
%FSLAX46Y46*%
G04 Gerber Fmt 4.6, Leading zero omitted, Abs format (unit mm)*
G04 Created by KiCad (PCBNEW 9.0.8+dfsg-1) date 2026-09-09 08:36:47*
%MOMM*%
%LPD*%
G01*
G04 APERTURE LIST*
%ADD10C,0.150000*%
%ADD11C,0.120000*%
G04 APERTURE END LIST*
D10*
X22390476Y-53600390D02*
X22314286Y-53562295D01*
X22314286Y-53562295D02*
X22200000Y-53562295D01*
X22200000Y-53562295D02*
X22085714Y-53600390D01*
X22085714Y-53600390D02*
X22009524Y-53676580D01*
X22009524Y-53676580D02*
X21971429Y-53752771D01*
X21971429Y-53752771D02*
X21933333Y-53905152D01*
X21933333Y-53905152D02*
X21933333Y-54019438D01*
X21933333Y-54019438D02*
X21971429Y-54171819D01*
X21971429Y-54171819D02*
X22009524Y-54248009D01*
X22009524Y-54248009D02*
X22085714Y-54324200D01*
X22085714Y-54324200D02*
X22200000Y-54362295D01*
X22200000Y-54362295D02*
X22276191Y-54362295D01*
X22276191Y-54362295D02*
X22390476Y-54324200D01*
X22390476Y-54324200D02*
X22428572Y-54286104D01*
X22428572Y-54286104D02*
X22428572Y-54019438D01*
X22428572Y-54019438D02*
X22276191Y-54019438D01*
X22771429Y-54362295D02*
X22771429Y-53562295D01*
X22771429Y-53562295D02*
X23228572Y-54362295D01*
X23228572Y-54362295D02*
X23228572Y-53562295D01*
X23609524Y-54362295D02*
X23609524Y-53562295D01*
X23609524Y-53562295D02*
X23800000Y-53562295D01*
X23800000Y-53562295D02*
X23914286Y-53600390D01*
X23914286Y-53600390D02*
X23990476Y-53676580D01*
X23990476Y-53676580D02*
X24028571Y-53752771D01*
X24028571Y-53752771D02*
X24066667Y-53905152D01*
X24066667Y-53905152D02*
X24066667Y-54019438D01*
X24066667Y-54019438D02*
X24028571Y-54171819D01*
X24028571Y-54171819D02*
X23990476Y-54248009D01*
X23990476Y-54248009D02*
X23914286Y-54324200D01*
X23914286Y-54324200D02*
X23800000Y-54362295D01*
X23800000Y-54362295D02*
X23609524Y-54362295D01*
X22180952Y-59324200D02*
X22295238Y-59362295D01*
X22295238Y-59362295D02*
X22485714Y-59362295D01*
X22485714Y-59362295D02*
X22561905Y-59324200D01*
X22561905Y-59324200D02*
X22600000Y-59286104D01*
X22600000Y-59286104D02*
X22638095Y-59209914D01*
X22638095Y-59209914D02*
X22638095Y-59133723D01*
X22638095Y-59133723D02*
X22600000Y-59057533D01*
X22600000Y-59057533D02*
X22561905Y-59019438D01*
X22561905Y-59019438D02*
X22485714Y-58981342D01*
X22485714Y-58981342D02*
X22333333Y-58943247D01*
X22333333Y-58943247D02*
X22257143Y-58905152D01*
X22257143Y-58905152D02*
X22219048Y-58867057D01*
X22219048Y-58867057D02*
X22180952Y-58790866D01*
X22180952Y-58790866D02*
X22180952Y-58714676D01*
X22180952Y-58714676D02*
X22219048Y-58638485D01*
X22219048Y-58638485D02*
X22257143Y-58600390D01*
X22257143Y-58600390D02*
X22333333Y-58562295D01*
X22333333Y-58562295D02*
X22523810Y-58562295D01*
X22523810Y-58562295D02*
X22638095Y-58600390D01*
X22980953Y-59362295D02*
X22980953Y-58562295D01*
X23780952Y-58600390D02*
X23704762Y-58562295D01*
X23704762Y-58562295D02*
X23590476Y-58562295D01*
X23590476Y-58562295D02*
X23476190Y-58600390D01*
X23476190Y-58600390D02*
X23400000Y-58676580D01*
X23400000Y-58676580D02*
X23361905Y-58752771D01*
X23361905Y-58752771D02*
X23323809Y-58905152D01*
X23323809Y-58905152D02*
X23323809Y-59019438D01*
X23323809Y-59019438D02*
X23361905Y-59171819D01*
X23361905Y-59171819D02*
X23400000Y-59248009D01*
X23400000Y-59248009D02*
X23476190Y-59324200D01*
X23476190Y-59324200D02*
X23590476Y-59362295D01*
X23590476Y-59362295D02*
X23666667Y-59362295D01*
X23666667Y-59362295D02*
X23780952Y-59324200D01*
X23780952Y-59324200D02*
X23819048Y-59286104D01*
X23819048Y-59286104D02*
X23819048Y-59019438D01*
X23819048Y-59019438D02*
X23666667Y-59019438D01*
X33542858Y-81562295D02*
X33542858Y-82209914D01*
X33542858Y-82209914D02*
X33580953Y-82286104D01*
X33580953Y-82286104D02*
X33619048Y-82324200D01*
X33619048Y-82324200D02*
X33695239Y-82362295D01*
X33695239Y-82362295D02*
X33847620Y-82362295D01*
X33847620Y-82362295D02*
X33923810Y-82324200D01*
X33923810Y-82324200D02*
X33961905Y-82286104D01*
X33961905Y-82286104D02*
X34000001Y-82209914D01*
X34000001Y-82209914D02*
X34000001Y-81562295D01*
X34723810Y-81562295D02*
X34571429Y-81562295D01*
X34571429Y-81562295D02*
X34495238Y-81600390D01*
X34495238Y-81600390D02*
X34457143Y-81638485D01*
X34457143Y-81638485D02*
X34380953Y-81752771D01*
X34380953Y-81752771D02*
X34342857Y-81905152D01*
X34342857Y-81905152D02*
X34342857Y-82209914D01*
X34342857Y-82209914D02*
X34380953Y-82286104D01*
X34380953Y-82286104D02*
X34419048Y-82324200D01*
X34419048Y-82324200D02*
X34495238Y-82362295D01*
X34495238Y-82362295D02*
X34647619Y-82362295D01*
X34647619Y-82362295D02*
X34723810Y-82324200D01*
X34723810Y-82324200D02*
X34761905Y-82286104D01*
X34761905Y-82286104D02*
X34800000Y-82209914D01*
X34800000Y-82209914D02*
X34800000Y-82019438D01*
X34800000Y-82019438D02*
X34761905Y-81943247D01*
X34761905Y-81943247D02*
X34723810Y-81905152D01*
X34723810Y-81905152D02*
X34647619Y-81867057D01*
X34647619Y-81867057D02*
X34495238Y-81867057D01*
X34495238Y-81867057D02*
X34419048Y-81905152D01*
X34419048Y-81905152D02*
X34380953Y-81943247D01*
X34380953Y-81943247D02*
X34342857Y-82019438D01*
X36133334Y-82362295D02*
X35752382Y-82362295D01*
X35752382Y-82362295D02*
X35752382Y-81562295D01*
X36552382Y-81562295D02*
X36704763Y-81562295D01*
X36704763Y-81562295D02*
X36780953Y-81600390D01*
X36780953Y-81600390D02*
X36857144Y-81676580D01*
X36857144Y-81676580D02*
X36895239Y-81828961D01*
X36895239Y-81828961D02*
X36895239Y-82095628D01*
X36895239Y-82095628D02*
X36857144Y-82248009D01*
X36857144Y-82248009D02*
X36780953Y-82324200D01*
X36780953Y-82324200D02*
X36704763Y-82362295D01*
X36704763Y-82362295D02*
X36552382Y-82362295D01*
X36552382Y-82362295D02*
X36476191Y-82324200D01*
X36476191Y-82324200D02*
X36400001Y-82248009D01*
X36400001Y-82248009D02*
X36361905Y-82095628D01*
X36361905Y-82095628D02*
X36361905Y-81828961D01*
X36361905Y-81828961D02*
X36400001Y-81676580D01*
X36400001Y-81676580D02*
X36476191Y-81600390D01*
X36476191Y-81600390D02*
X36552382Y-81562295D01*
X37657143Y-81600390D02*
X37580953Y-81562295D01*
X37580953Y-81562295D02*
X37466667Y-81562295D01*
X37466667Y-81562295D02*
X37352381Y-81600390D01*
X37352381Y-81600390D02*
X37276191Y-81676580D01*
X37276191Y-81676580D02*
X37238096Y-81752771D01*
X37238096Y-81752771D02*
X37200000Y-81905152D01*
X37200000Y-81905152D02*
X37200000Y-82019438D01*
X37200000Y-82019438D02*
X37238096Y-82171819D01*
X37238096Y-82171819D02*
X37276191Y-82248009D01*
X37276191Y-82248009D02*
X37352381Y-82324200D01*
X37352381Y-82324200D02*
X37466667Y-82362295D01*
X37466667Y-82362295D02*
X37542858Y-82362295D01*
X37542858Y-82362295D02*
X37657143Y-82324200D01*
X37657143Y-82324200D02*
X37695239Y-82286104D01*
X37695239Y-82286104D02*
X37695239Y-82019438D01*
X37695239Y-82019438D02*
X37542858Y-82019438D01*
X38038096Y-82362295D02*
X38038096Y-81562295D01*
X38876191Y-82286104D02*
X38838095Y-82324200D01*
X38838095Y-82324200D02*
X38723810Y-82362295D01*
X38723810Y-82362295D02*
X38647619Y-82362295D01*
X38647619Y-82362295D02*
X38533333Y-82324200D01*
X38533333Y-82324200D02*
X38457143Y-82248009D01*
X38457143Y-82248009D02*
X38419048Y-82171819D01*
X38419048Y-82171819D02*
X38380952Y-82019438D01*
X38380952Y-82019438D02*
X38380952Y-81905152D01*
X38380952Y-81905152D02*
X38419048Y-81752771D01*
X38419048Y-81752771D02*
X38457143Y-81676580D01*
X38457143Y-81676580D02*
X38533333Y-81600390D01*
X38533333Y-81600390D02*
X38647619Y-81562295D01*
X38647619Y-81562295D02*
X38723810Y-81562295D01*
X38723810Y-81562295D02*
X38838095Y-81600390D01*
X38838095Y-81600390D02*
X38876191Y-81638485D01*
X39980953Y-81562295D02*
X40133334Y-81562295D01*
X40133334Y-81562295D02*
X40209524Y-81600390D01*
X40209524Y-81600390D02*
X40285715Y-81676580D01*
X40285715Y-81676580D02*
X40323810Y-81828961D01*
X40323810Y-81828961D02*
X40323810Y-82095628D01*
X40323810Y-82095628D02*
X40285715Y-82248009D01*
X40285715Y-82248009D02*
X40209524Y-82324200D01*
X40209524Y-82324200D02*
X40133334Y-82362295D01*
X40133334Y-82362295D02*
X39980953Y-82362295D01*
X39980953Y-82362295D02*
X39904762Y-82324200D01*
X39904762Y-82324200D02*
X39828572Y-82248009D01*
X39828572Y-82248009D02*
X39790476Y-82095628D01*
X39790476Y-82095628D02*
X39790476Y-81828961D01*
X39790476Y-81828961D02*
X39828572Y-81676580D01*
X39828572Y-81676580D02*
X39904762Y-81600390D01*
X39904762Y-81600390D02*
X39980953Y-81562295D01*
X40666667Y-82362295D02*
X40666667Y-81562295D01*
X40666667Y-81562295D02*
X41123810Y-82362295D01*
X41123810Y-82362295D02*
X41123810Y-81562295D01*
X41885714Y-82362295D02*
X41504762Y-82362295D01*
X41504762Y-82362295D02*
X41504762Y-81562295D01*
X42304762Y-81981342D02*
X42304762Y-82362295D01*
X42038095Y-81562295D02*
X42304762Y-81981342D01*
X42304762Y-81981342D02*
X42571428Y-81562295D01*
X74257142Y-115943247D02*
X73990476Y-115943247D01*
X73990476Y-116362295D02*
X73990476Y-115562295D01*
X73990476Y-115562295D02*
X74371428Y-115562295D01*
X74676190Y-116362295D02*
X74676190Y-115562295D01*
X74942856Y-115562295D02*
X75399999Y-115562295D01*
X75171427Y-116362295D02*
X75171427Y-115562295D01*
X76276190Y-116362295D02*
X76276190Y-115562295D01*
X76276190Y-115562295D02*
X76542856Y-116133723D01*
X76542856Y-116133723D02*
X76809523Y-115562295D01*
X76809523Y-115562295D02*
X76809523Y-116362295D01*
X77342857Y-115562295D02*
X77495238Y-115562295D01*
X77495238Y-115562295D02*
X77571428Y-115600390D01*
X77571428Y-115600390D02*
X77647619Y-115676580D01*
X77647619Y-115676580D02*
X77685714Y-115828961D01*
X77685714Y-115828961D02*
X77685714Y-116095628D01*
X77685714Y-116095628D02*
X77647619Y-116248009D01*
X77647619Y-116248009D02*
X77571428Y-116324200D01*
X77571428Y-116324200D02*
X77495238Y-116362295D01*
X77495238Y-116362295D02*
X77342857Y-116362295D01*
X77342857Y-116362295D02*
X77266666Y-116324200D01*
X77266666Y-116324200D02*
X77190476Y-116248009D01*
X77190476Y-116248009D02*
X77152380Y-116095628D01*
X77152380Y-116095628D02*
X77152380Y-115828961D01*
X77152380Y-115828961D02*
X77190476Y-115676580D01*
X77190476Y-115676580D02*
X77266666Y-115600390D01*
X77266666Y-115600390D02*
X77342857Y-115562295D01*
X78028571Y-116362295D02*
X78028571Y-115562295D01*
X78028571Y-115562295D02*
X78219047Y-115562295D01*
X78219047Y-115562295D02*
X78333333Y-115600390D01*
X78333333Y-115600390D02*
X78409523Y-115676580D01*
X78409523Y-115676580D02*
X78447618Y-115752771D01*
X78447618Y-115752771D02*
X78485714Y-115905152D01*
X78485714Y-115905152D02*
X78485714Y-116019438D01*
X78485714Y-116019438D02*
X78447618Y-116171819D01*
X78447618Y-116171819D02*
X78409523Y-116248009D01*
X78409523Y-116248009D02*
X78333333Y-116324200D01*
X78333333Y-116324200D02*
X78219047Y-116362295D01*
X78219047Y-116362295D02*
X78028571Y-116362295D01*
X78828571Y-115562295D02*
X78828571Y-116209914D01*
X78828571Y-116209914D02*
X78866666Y-116286104D01*
X78866666Y-116286104D02*
X78904761Y-116324200D01*
X78904761Y-116324200D02*
X78980952Y-116362295D01*
X78980952Y-116362295D02*
X79133333Y-116362295D01*
X79133333Y-116362295D02*
X79209523Y-116324200D01*
X79209523Y-116324200D02*
X79247618Y-116286104D01*
X79247618Y-116286104D02*
X79285714Y-116209914D01*
X79285714Y-116209914D02*
X79285714Y-115562295D01*
X80047618Y-116362295D02*
X79666666Y-116362295D01*
X79666666Y-116362295D02*
X79666666Y-115562295D01*
X80314285Y-115943247D02*
X80580951Y-115943247D01*
X80695237Y-116362295D02*
X80314285Y-116362295D01*
X80314285Y-116362295D02*
X80314285Y-115562295D01*
X80314285Y-115562295D02*
X80695237Y-115562295D01*
X81609523Y-116133723D02*
X81990476Y-116133723D01*
X81533333Y-116362295D02*
X81800000Y-115562295D01*
X81800000Y-115562295D02*
X82066666Y-116362295D01*
X82599999Y-115943247D02*
X82714285Y-115981342D01*
X82714285Y-115981342D02*
X82752380Y-116019438D01*
X82752380Y-116019438D02*
X82790476Y-116095628D01*
X82790476Y-116095628D02*
X82790476Y-116209914D01*
X82790476Y-116209914D02*
X82752380Y-116286104D01*
X82752380Y-116286104D02*
X82714285Y-116324200D01*
X82714285Y-116324200D02*
X82638095Y-116362295D01*
X82638095Y-116362295D02*
X82333333Y-116362295D01*
X82333333Y-116362295D02*
X82333333Y-115562295D01*
X82333333Y-115562295D02*
X82599999Y-115562295D01*
X82599999Y-115562295D02*
X82676190Y-115600390D01*
X82676190Y-115600390D02*
X82714285Y-115638485D01*
X82714285Y-115638485D02*
X82752380Y-115714676D01*
X82752380Y-115714676D02*
X82752380Y-115790866D01*
X82752380Y-115790866D02*
X82714285Y-115867057D01*
X82714285Y-115867057D02*
X82676190Y-115905152D01*
X82676190Y-115905152D02*
X82599999Y-115943247D01*
X82599999Y-115943247D02*
X82333333Y-115943247D01*
X83285714Y-115562295D02*
X83438095Y-115562295D01*
X83438095Y-115562295D02*
X83514285Y-115600390D01*
X83514285Y-115600390D02*
X83590476Y-115676580D01*
X83590476Y-115676580D02*
X83628571Y-115828961D01*
X83628571Y-115828961D02*
X83628571Y-116095628D01*
X83628571Y-116095628D02*
X83590476Y-116248009D01*
X83590476Y-116248009D02*
X83514285Y-116324200D01*
X83514285Y-116324200D02*
X83438095Y-116362295D01*
X83438095Y-116362295D02*
X83285714Y-116362295D01*
X83285714Y-116362295D02*
X83209523Y-116324200D01*
X83209523Y-116324200D02*
X83133333Y-116248009D01*
X83133333Y-116248009D02*
X83095237Y-116095628D01*
X83095237Y-116095628D02*
X83095237Y-115828961D01*
X83095237Y-115828961D02*
X83133333Y-115676580D01*
X83133333Y-115676580D02*
X83209523Y-115600390D01*
X83209523Y-115600390D02*
X83285714Y-115562295D01*
X83857142Y-115562295D02*
X84123809Y-116362295D01*
X84123809Y-116362295D02*
X84390475Y-115562295D01*
X84657142Y-115943247D02*
X84923808Y-115943247D01*
X85038094Y-116362295D02*
X84657142Y-116362295D01*
X84657142Y-116362295D02*
X84657142Y-115562295D01*
X84657142Y-115562295D02*
X85038094Y-115562295D01*
X85990476Y-116362295D02*
X85990476Y-115562295D01*
X85990476Y-115562295D02*
X86295238Y-115562295D01*
X86295238Y-115562295D02*
X86371428Y-115600390D01*
X86371428Y-115600390D02*
X86409523Y-115638485D01*
X86409523Y-115638485D02*
X86447619Y-115714676D01*
X86447619Y-115714676D02*
X86447619Y-115828961D01*
X86447619Y-115828961D02*
X86409523Y-115905152D01*
X86409523Y-115905152D02*
X86371428Y-115943247D01*
X86371428Y-115943247D02*
X86295238Y-115981342D01*
X86295238Y-115981342D02*
X85990476Y-115981342D01*
X87247619Y-116286104D02*
X87209523Y-116324200D01*
X87209523Y-116324200D02*
X87095238Y-116362295D01*
X87095238Y-116362295D02*
X87019047Y-116362295D01*
X87019047Y-116362295D02*
X86904761Y-116324200D01*
X86904761Y-116324200D02*
X86828571Y-116248009D01*
X86828571Y-116248009D02*
X86790476Y-116171819D01*
X86790476Y-116171819D02*
X86752380Y-116019438D01*
X86752380Y-116019438D02*
X86752380Y-115905152D01*
X86752380Y-115905152D02*
X86790476Y-115752771D01*
X86790476Y-115752771D02*
X86828571Y-115676580D01*
X86828571Y-115676580D02*
X86904761Y-115600390D01*
X86904761Y-115600390D02*
X87019047Y-115562295D01*
X87019047Y-115562295D02*
X87095238Y-115562295D01*
X87095238Y-115562295D02*
X87209523Y-115600390D01*
X87209523Y-115600390D02*
X87247619Y-115638485D01*
X87857142Y-115943247D02*
X87971428Y-115981342D01*
X87971428Y-115981342D02*
X88009523Y-116019438D01*
X88009523Y-116019438D02*
X88047619Y-116095628D01*
X88047619Y-116095628D02*
X88047619Y-116209914D01*
X88047619Y-116209914D02*
X88009523Y-116286104D01*
X88009523Y-116286104D02*
X87971428Y-116324200D01*
X87971428Y-116324200D02*
X87895238Y-116362295D01*
X87895238Y-116362295D02*
X87590476Y-116362295D01*
X87590476Y-116362295D02*
X87590476Y-115562295D01*
X87590476Y-115562295D02*
X87857142Y-115562295D01*
X87857142Y-115562295D02*
X87933333Y-115600390D01*
X87933333Y-115600390D02*
X87971428Y-115638485D01*
X87971428Y-115638485D02*
X88009523Y-115714676D01*
X88009523Y-115714676D02*
X88009523Y-115790866D01*
X88009523Y-115790866D02*
X87971428Y-115867057D01*
X87971428Y-115867057D02*
X87933333Y-115905152D01*
X87933333Y-115905152D02*
X87857142Y-115943247D01*
X87857142Y-115943247D02*
X87590476Y-115943247D01*
X91685713Y-84562295D02*
X92180951Y-84562295D01*
X92180951Y-84562295D02*
X91914285Y-84867057D01*
X91914285Y-84867057D02*
X92028570Y-84867057D01*
X92028570Y-84867057D02*
X92104761Y-84905152D01*
X92104761Y-84905152D02*
X92142856Y-84943247D01*
X92142856Y-84943247D02*
X92180951Y-85019438D01*
X92180951Y-85019438D02*
X92180951Y-85209914D01*
X92180951Y-85209914D02*
X92142856Y-85286104D01*
X92142856Y-85286104D02*
X92104761Y-85324200D01*
X92104761Y-85324200D02*
X92028570Y-85362295D01*
X92028570Y-85362295D02*
X91799999Y-85362295D01*
X91799999Y-85362295D02*
X91723808Y-85324200D01*
X91723808Y-85324200D02*
X91685713Y-85286104D01*
X92409523Y-84562295D02*
X92676190Y-85362295D01*
X92676190Y-85362295D02*
X92942856Y-84562295D01*
X93133332Y-84562295D02*
X93628570Y-84562295D01*
X93628570Y-84562295D02*
X93361904Y-84867057D01*
X93361904Y-84867057D02*
X93476189Y-84867057D01*
X93476189Y-84867057D02*
X93552380Y-84905152D01*
X93552380Y-84905152D02*
X93590475Y-84943247D01*
X93590475Y-84943247D02*
X93628570Y-85019438D01*
X93628570Y-85019438D02*
X93628570Y-85209914D01*
X93628570Y-85209914D02*
X93590475Y-85286104D01*
X93590475Y-85286104D02*
X93552380Y-85324200D01*
X93552380Y-85324200D02*
X93476189Y-85362295D01*
X93476189Y-85362295D02*
X93247618Y-85362295D01*
X93247618Y-85362295D02*
X93171427Y-85324200D01*
X93171427Y-85324200D02*
X93133332Y-85286104D01*
X93780952Y-85438485D02*
X94390475Y-85438485D01*
X94542856Y-85133723D02*
X94923809Y-85133723D01*
X94466666Y-85362295D02*
X94733333Y-84562295D01*
X94733333Y-84562295D02*
X94999999Y-85362295D01*
X95266666Y-84562295D02*
X95266666Y-85209914D01*
X95266666Y-85209914D02*
X95304761Y-85286104D01*
X95304761Y-85286104D02*
X95342856Y-85324200D01*
X95342856Y-85324200D02*
X95419047Y-85362295D01*
X95419047Y-85362295D02*
X95571428Y-85362295D01*
X95571428Y-85362295D02*
X95647618Y-85324200D01*
X95647618Y-85324200D02*
X95685713Y-85286104D01*
X95685713Y-85286104D02*
X95723809Y-85209914D01*
X95723809Y-85209914D02*
X95723809Y-84562295D01*
X96028570Y-84562295D02*
X96561904Y-85362295D01*
X96561904Y-84562295D02*
X96028570Y-85362295D01*
X97476190Y-85286104D02*
X97514285Y-85324200D01*
X97514285Y-85324200D02*
X97476190Y-85362295D01*
X97476190Y-85362295D02*
X97438094Y-85324200D01*
X97438094Y-85324200D02*
X97476190Y-85286104D01*
X97476190Y-85286104D02*
X97476190Y-85362295D01*
X97476190Y-85057533D02*
X97438094Y-84600390D01*
X97438094Y-84600390D02*
X97476190Y-84562295D01*
X97476190Y-84562295D02*
X97514285Y-84600390D01*
X97514285Y-84600390D02*
X97476190Y-85057533D01*
X97476190Y-85057533D02*
X97476190Y-84562295D01*
X97857142Y-84943247D02*
X98466666Y-84943247D01*
X98466666Y-85171819D02*
X97857142Y-85171819D01*
X99342856Y-84562295D02*
X99799999Y-84562295D01*
X99571427Y-85362295D02*
X99571427Y-84562295D01*
X100066666Y-84943247D02*
X100333332Y-84943247D01*
X100447618Y-85362295D02*
X100066666Y-85362295D01*
X100066666Y-85362295D02*
X100066666Y-84562295D01*
X100066666Y-84562295D02*
X100447618Y-84562295D01*
X100790476Y-84943247D02*
X101057142Y-84943247D01*
X101171428Y-85362295D02*
X100790476Y-85362295D01*
X100790476Y-85362295D02*
X100790476Y-84562295D01*
X100790476Y-84562295D02*
X101171428Y-84562295D01*
X101514286Y-85362295D02*
X101514286Y-84562295D01*
X101514286Y-84562295D02*
X101971429Y-85362295D01*
X101971429Y-85362295D02*
X101971429Y-84562295D01*
X102314285Y-85324200D02*
X102428571Y-85362295D01*
X102428571Y-85362295D02*
X102619047Y-85362295D01*
X102619047Y-85362295D02*
X102695238Y-85324200D01*
X102695238Y-85324200D02*
X102733333Y-85286104D01*
X102733333Y-85286104D02*
X102771428Y-85209914D01*
X102771428Y-85209914D02*
X102771428Y-85133723D01*
X102771428Y-85133723D02*
X102733333Y-85057533D01*
X102733333Y-85057533D02*
X102695238Y-85019438D01*
X102695238Y-85019438D02*
X102619047Y-84981342D01*
X102619047Y-84981342D02*
X102466666Y-84943247D01*
X102466666Y-84943247D02*
X102390476Y-84905152D01*
X102390476Y-84905152D02*
X102352381Y-84867057D01*
X102352381Y-84867057D02*
X102314285Y-84790866D01*
X102314285Y-84790866D02*
X102314285Y-84714676D01*
X102314285Y-84714676D02*
X102352381Y-84638485D01*
X102352381Y-84638485D02*
X102390476Y-84600390D01*
X102390476Y-84600390D02*
X102466666Y-84562295D01*
X102466666Y-84562295D02*
X102657143Y-84562295D01*
X102657143Y-84562295D02*
X102771428Y-84600390D01*
X103266667Y-84981342D02*
X103266667Y-85362295D01*
X103000000Y-84562295D02*
X103266667Y-84981342D01*
X103266667Y-84981342D02*
X103533333Y-84562295D01*
X104333333Y-84562295D02*
X104828571Y-84562295D01*
X104828571Y-84562295D02*
X104561905Y-84867057D01*
X104561905Y-84867057D02*
X104676190Y-84867057D01*
X104676190Y-84867057D02*
X104752381Y-84905152D01*
X104752381Y-84905152D02*
X104790476Y-84943247D01*
X104790476Y-84943247D02*
X104828571Y-85019438D01*
X104828571Y-85019438D02*
X104828571Y-85209914D01*
X104828571Y-85209914D02*
X104790476Y-85286104D01*
X104790476Y-85286104D02*
X104752381Y-85324200D01*
X104752381Y-85324200D02*
X104676190Y-85362295D01*
X104676190Y-85362295D02*
X104447619Y-85362295D01*
X104447619Y-85362295D02*
X104371428Y-85324200D01*
X104371428Y-85324200D02*
X104333333Y-85286104D01*
X105057143Y-84562295D02*
X105323810Y-85362295D01*
X105323810Y-85362295D02*
X105590476Y-84562295D01*
X105780952Y-84562295D02*
X106276190Y-84562295D01*
X106276190Y-84562295D02*
X106009524Y-84867057D01*
X106009524Y-84867057D02*
X106123809Y-84867057D01*
X106123809Y-84867057D02*
X106200000Y-84905152D01*
X106200000Y-84905152D02*
X106238095Y-84943247D01*
X106238095Y-84943247D02*
X106276190Y-85019438D01*
X106276190Y-85019438D02*
X106276190Y-85209914D01*
X106276190Y-85209914D02*
X106238095Y-85286104D01*
X106238095Y-85286104D02*
X106200000Y-85324200D01*
X106200000Y-85324200D02*
X106123809Y-85362295D01*
X106123809Y-85362295D02*
X105895238Y-85362295D01*
X105895238Y-85362295D02*
X105819047Y-85324200D01*
X105819047Y-85324200D02*
X105780952Y-85286104D01*
X98580952Y-53562295D02*
X98580952Y-54133723D01*
X98580952Y-54133723D02*
X98542857Y-54248009D01*
X98542857Y-54248009D02*
X98466666Y-54324200D01*
X98466666Y-54324200D02*
X98352381Y-54362295D01*
X98352381Y-54362295D02*
X98276190Y-54362295D01*
X99304762Y-53562295D02*
X99152381Y-53562295D01*
X99152381Y-53562295D02*
X99076190Y-53600390D01*
X99076190Y-53600390D02*
X99038095Y-53638485D01*
X99038095Y-53638485D02*
X98961905Y-53752771D01*
X98961905Y-53752771D02*
X98923809Y-53905152D01*
X98923809Y-53905152D02*
X98923809Y-54209914D01*
X98923809Y-54209914D02*
X98961905Y-54286104D01*
X98961905Y-54286104D02*
X99000000Y-54324200D01*
X99000000Y-54324200D02*
X99076190Y-54362295D01*
X99076190Y-54362295D02*
X99228571Y-54362295D01*
X99228571Y-54362295D02*
X99304762Y-54324200D01*
X99304762Y-54324200D02*
X99342857Y-54286104D01*
X99342857Y-54286104D02*
X99380952Y-54209914D01*
X99380952Y-54209914D02*
X99380952Y-54019438D01*
X99380952Y-54019438D02*
X99342857Y-53943247D01*
X99342857Y-53943247D02*
X99304762Y-53905152D01*
X99304762Y-53905152D02*
X99228571Y-53867057D01*
X99228571Y-53867057D02*
X99076190Y-53867057D01*
X99076190Y-53867057D02*
X99000000Y-53905152D01*
X99000000Y-53905152D02*
X98961905Y-53943247D01*
X98961905Y-53943247D02*
X98923809Y-54019438D01*
X100790477Y-54286104D02*
X100752381Y-54324200D01*
X100752381Y-54324200D02*
X100638096Y-54362295D01*
X100638096Y-54362295D02*
X100561905Y-54362295D01*
X100561905Y-54362295D02*
X100447619Y-54324200D01*
X100447619Y-54324200D02*
X100371429Y-54248009D01*
X100371429Y-54248009D02*
X100333334Y-54171819D01*
X100333334Y-54171819D02*
X100295238Y-54019438D01*
X100295238Y-54019438D02*
X100295238Y-53905152D01*
X100295238Y-53905152D02*
X100333334Y-53752771D01*
X100333334Y-53752771D02*
X100371429Y-53676580D01*
X100371429Y-53676580D02*
X100447619Y-53600390D01*
X100447619Y-53600390D02*
X100561905Y-53562295D01*
X100561905Y-53562295D02*
X100638096Y-53562295D01*
X100638096Y-53562295D02*
X100752381Y-53600390D01*
X100752381Y-53600390D02*
X100790477Y-53638485D01*
X101095238Y-54133723D02*
X101476191Y-54133723D01*
X101019048Y-54362295D02*
X101285715Y-53562295D01*
X101285715Y-53562295D02*
X101552381Y-54362295D01*
X101819048Y-54362295D02*
X101819048Y-53562295D01*
X101819048Y-53562295D02*
X102276191Y-54362295D01*
X102276191Y-54362295D02*
X102276191Y-53562295D01*
X103266667Y-54362295D02*
X103266667Y-53562295D01*
X103266667Y-53562295D02*
X103533333Y-54133723D01*
X103533333Y-54133723D02*
X103800000Y-53562295D01*
X103800000Y-53562295D02*
X103800000Y-54362295D01*
X104333334Y-53562295D02*
X104485715Y-53562295D01*
X104485715Y-53562295D02*
X104561905Y-53600390D01*
X104561905Y-53600390D02*
X104638096Y-53676580D01*
X104638096Y-53676580D02*
X104676191Y-53828961D01*
X104676191Y-53828961D02*
X104676191Y-54095628D01*
X104676191Y-54095628D02*
X104638096Y-54248009D01*
X104638096Y-54248009D02*
X104561905Y-54324200D01*
X104561905Y-54324200D02*
X104485715Y-54362295D01*
X104485715Y-54362295D02*
X104333334Y-54362295D01*
X104333334Y-54362295D02*
X104257143Y-54324200D01*
X104257143Y-54324200D02*
X104180953Y-54248009D01*
X104180953Y-54248009D02*
X104142857Y-54095628D01*
X104142857Y-54095628D02*
X104142857Y-53828961D01*
X104142857Y-53828961D02*
X104180953Y-53676580D01*
X104180953Y-53676580D02*
X104257143Y-53600390D01*
X104257143Y-53600390D02*
X104333334Y-53562295D01*
X105019048Y-54362295D02*
X105019048Y-53562295D01*
X105019048Y-53562295D02*
X105209524Y-53562295D01*
X105209524Y-53562295D02*
X105323810Y-53600390D01*
X105323810Y-53600390D02*
X105400000Y-53676580D01*
X105400000Y-53676580D02*
X105438095Y-53752771D01*
X105438095Y-53752771D02*
X105476191Y-53905152D01*
X105476191Y-53905152D02*
X105476191Y-54019438D01*
X105476191Y-54019438D02*
X105438095Y-54171819D01*
X105438095Y-54171819D02*
X105400000Y-54248009D01*
X105400000Y-54248009D02*
X105323810Y-54324200D01*
X105323810Y-54324200D02*
X105209524Y-54362295D01*
X105209524Y-54362295D02*
X105019048Y-54362295D01*
X105819048Y-53562295D02*
X105819048Y-54209914D01*
X105819048Y-54209914D02*
X105857143Y-54286104D01*
X105857143Y-54286104D02*
X105895238Y-54324200D01*
X105895238Y-54324200D02*
X105971429Y-54362295D01*
X105971429Y-54362295D02*
X106123810Y-54362295D01*
X106123810Y-54362295D02*
X106200000Y-54324200D01*
X106200000Y-54324200D02*
X106238095Y-54286104D01*
X106238095Y-54286104D02*
X106276191Y-54209914D01*
X106276191Y-54209914D02*
X106276191Y-53562295D01*
X107038095Y-54362295D02*
X106657143Y-54362295D01*
X106657143Y-54362295D02*
X106657143Y-53562295D01*
X107304762Y-53943247D02*
X107571428Y-53943247D01*
X107685714Y-54362295D02*
X107304762Y-54362295D01*
X107304762Y-54362295D02*
X107304762Y-53562295D01*
X107304762Y-53562295D02*
X107685714Y-53562295D01*
X99428570Y-56562295D02*
X99923808Y-56562295D01*
X99923808Y-56562295D02*
X99657142Y-56867057D01*
X99657142Y-56867057D02*
X99771427Y-56867057D01*
X99771427Y-56867057D02*
X99847618Y-56905152D01*
X99847618Y-56905152D02*
X99885713Y-56943247D01*
X99885713Y-56943247D02*
X99923808Y-57019438D01*
X99923808Y-57019438D02*
X99923808Y-57209914D01*
X99923808Y-57209914D02*
X99885713Y-57286104D01*
X99885713Y-57286104D02*
X99847618Y-57324200D01*
X99847618Y-57324200D02*
X99771427Y-57362295D01*
X99771427Y-57362295D02*
X99542856Y-57362295D01*
X99542856Y-57362295D02*
X99466665Y-57324200D01*
X99466665Y-57324200D02*
X99428570Y-57286104D01*
X100152380Y-56562295D02*
X100419047Y-57362295D01*
X100419047Y-57362295D02*
X100685713Y-56562295D01*
X100876189Y-56562295D02*
X101371427Y-56562295D01*
X101371427Y-56562295D02*
X101104761Y-56867057D01*
X101104761Y-56867057D02*
X101219046Y-56867057D01*
X101219046Y-56867057D02*
X101295237Y-56905152D01*
X101295237Y-56905152D02*
X101333332Y-56943247D01*
X101333332Y-56943247D02*
X101371427Y-57019438D01*
X101371427Y-57019438D02*
X101371427Y-57209914D01*
X101371427Y-57209914D02*
X101333332Y-57286104D01*
X101333332Y-57286104D02*
X101295237Y-57324200D01*
X101295237Y-57324200D02*
X101219046Y-57362295D01*
X101219046Y-57362295D02*
X100990475Y-57362295D01*
X100990475Y-57362295D02*
X100914284Y-57324200D01*
X100914284Y-57324200D02*
X100876189Y-57286104D01*
X102742856Y-56600390D02*
X102666666Y-56562295D01*
X102666666Y-56562295D02*
X102552380Y-56562295D01*
X102552380Y-56562295D02*
X102438094Y-56600390D01*
X102438094Y-56600390D02*
X102361904Y-56676580D01*
X102361904Y-56676580D02*
X102323809Y-56752771D01*
X102323809Y-56752771D02*
X102285713Y-56905152D01*
X102285713Y-56905152D02*
X102285713Y-57019438D01*
X102285713Y-57019438D02*
X102323809Y-57171819D01*
X102323809Y-57171819D02*
X102361904Y-57248009D01*
X102361904Y-57248009D02*
X102438094Y-57324200D01*
X102438094Y-57324200D02*
X102552380Y-57362295D01*
X102552380Y-57362295D02*
X102628571Y-57362295D01*
X102628571Y-57362295D02*
X102742856Y-57324200D01*
X102742856Y-57324200D02*
X102780952Y-57286104D01*
X102780952Y-57286104D02*
X102780952Y-57019438D01*
X102780952Y-57019438D02*
X102628571Y-57019438D01*
X104190476Y-57286104D02*
X104152380Y-57324200D01*
X104152380Y-57324200D02*
X104038095Y-57362295D01*
X104038095Y-57362295D02*
X103961904Y-57362295D01*
X103961904Y-57362295D02*
X103847618Y-57324200D01*
X103847618Y-57324200D02*
X103771428Y-57248009D01*
X103771428Y-57248009D02*
X103733333Y-57171819D01*
X103733333Y-57171819D02*
X103695237Y-57019438D01*
X103695237Y-57019438D02*
X103695237Y-56905152D01*
X103695237Y-56905152D02*
X103733333Y-56752771D01*
X103733333Y-56752771D02*
X103771428Y-56676580D01*
X103771428Y-56676580D02*
X103847618Y-56600390D01*
X103847618Y-56600390D02*
X103961904Y-56562295D01*
X103961904Y-56562295D02*
X104038095Y-56562295D01*
X104038095Y-56562295D02*
X104152380Y-56600390D01*
X104152380Y-56600390D02*
X104190476Y-56638485D01*
X104419047Y-56562295D02*
X104876190Y-56562295D01*
X104647618Y-57362295D02*
X104647618Y-56562295D01*
X105066666Y-56562295D02*
X105600000Y-57362295D01*
X105600000Y-56562295D02*
X105066666Y-57362295D01*
X106971429Y-57286104D02*
X106933333Y-57324200D01*
X106933333Y-57324200D02*
X106819048Y-57362295D01*
X106819048Y-57362295D02*
X106742857Y-57362295D01*
X106742857Y-57362295D02*
X106628571Y-57324200D01*
X106628571Y-57324200D02*
X106552381Y-57248009D01*
X106552381Y-57248009D02*
X106514286Y-57171819D01*
X106514286Y-57171819D02*
X106476190Y-57019438D01*
X106476190Y-57019438D02*
X106476190Y-56905152D01*
X106476190Y-56905152D02*
X106514286Y-56752771D01*
X106514286Y-56752771D02*
X106552381Y-56676580D01*
X106552381Y-56676580D02*
X106628571Y-56600390D01*
X106628571Y-56600390D02*
X106742857Y-56562295D01*
X106742857Y-56562295D02*
X106819048Y-56562295D01*
X106819048Y-56562295D02*
X106933333Y-56600390D01*
X106933333Y-56600390D02*
X106971429Y-56638485D01*
X107771429Y-57362295D02*
X107504762Y-56981342D01*
X107314286Y-57362295D02*
X107314286Y-56562295D01*
X107314286Y-56562295D02*
X107619048Y-56562295D01*
X107619048Y-56562295D02*
X107695238Y-56600390D01*
X107695238Y-56600390D02*
X107733333Y-56638485D01*
X107733333Y-56638485D02*
X107771429Y-56714676D01*
X107771429Y-56714676D02*
X107771429Y-56828961D01*
X107771429Y-56828961D02*
X107733333Y-56905152D01*
X107733333Y-56905152D02*
X107695238Y-56943247D01*
X107695238Y-56943247D02*
X107619048Y-56981342D01*
X107619048Y-56981342D02*
X107314286Y-56981342D01*
X108038095Y-56562295D02*
X108571429Y-57362295D01*
X108571429Y-56562295D02*
X108038095Y-57362295D01*
X99057141Y-22600390D02*
X98980951Y-22562295D01*
X98980951Y-22562295D02*
X98866665Y-22562295D01*
X98866665Y-22562295D02*
X98752379Y-22600390D01*
X98752379Y-22600390D02*
X98676189Y-22676580D01*
X98676189Y-22676580D02*
X98638094Y-22752771D01*
X98638094Y-22752771D02*
X98599998Y-22905152D01*
X98599998Y-22905152D02*
X98599998Y-23019438D01*
X98599998Y-23019438D02*
X98638094Y-23171819D01*
X98638094Y-23171819D02*
X98676189Y-23248009D01*
X98676189Y-23248009D02*
X98752379Y-23324200D01*
X98752379Y-23324200D02*
X98866665Y-23362295D01*
X98866665Y-23362295D02*
X98942856Y-23362295D01*
X98942856Y-23362295D02*
X99057141Y-23324200D01*
X99057141Y-23324200D02*
X99095237Y-23286104D01*
X99095237Y-23286104D02*
X99095237Y-23019438D01*
X99095237Y-23019438D02*
X98942856Y-23019438D01*
X99438094Y-23362295D02*
X99438094Y-22562295D01*
X99438094Y-22562295D02*
X99742856Y-22562295D01*
X99742856Y-22562295D02*
X99819046Y-22600390D01*
X99819046Y-22600390D02*
X99857141Y-22638485D01*
X99857141Y-22638485D02*
X99895237Y-22714676D01*
X99895237Y-22714676D02*
X99895237Y-22828961D01*
X99895237Y-22828961D02*
X99857141Y-22905152D01*
X99857141Y-22905152D02*
X99819046Y-22943247D01*
X99819046Y-22943247D02*
X99742856Y-22981342D01*
X99742856Y-22981342D02*
X99438094Y-22981342D01*
X100199998Y-23324200D02*
X100314284Y-23362295D01*
X100314284Y-23362295D02*
X100504760Y-23362295D01*
X100504760Y-23362295D02*
X100580951Y-23324200D01*
X100580951Y-23324200D02*
X100619046Y-23286104D01*
X100619046Y-23286104D02*
X100657141Y-23209914D01*
X100657141Y-23209914D02*
X100657141Y-23133723D01*
X100657141Y-23133723D02*
X100619046Y-23057533D01*
X100619046Y-23057533D02*
X100580951Y-23019438D01*
X100580951Y-23019438D02*
X100504760Y-22981342D01*
X100504760Y-22981342D02*
X100352379Y-22943247D01*
X100352379Y-22943247D02*
X100276189Y-22905152D01*
X100276189Y-22905152D02*
X100238094Y-22867057D01*
X100238094Y-22867057D02*
X100199998Y-22790866D01*
X100199998Y-22790866D02*
X100199998Y-22714676D01*
X100199998Y-22714676D02*
X100238094Y-22638485D01*
X100238094Y-22638485D02*
X100276189Y-22600390D01*
X100276189Y-22600390D02*
X100352379Y-22562295D01*
X100352379Y-22562295D02*
X100542856Y-22562295D01*
X100542856Y-22562295D02*
X100657141Y-22600390D01*
X101838094Y-22562295D02*
X101838094Y-23133723D01*
X101838094Y-23133723D02*
X101799999Y-23248009D01*
X101799999Y-23248009D02*
X101723808Y-23324200D01*
X101723808Y-23324200D02*
X101609523Y-23362295D01*
X101609523Y-23362295D02*
X101533332Y-23362295D01*
X102561904Y-22828961D02*
X102561904Y-23362295D01*
X102371428Y-22524200D02*
X102180951Y-23095628D01*
X102180951Y-23095628D02*
X102676190Y-23095628D01*
X102980952Y-23286104D02*
X103019047Y-23324200D01*
X103019047Y-23324200D02*
X102980952Y-23362295D01*
X102980952Y-23362295D02*
X102942856Y-23324200D01*
X102942856Y-23324200D02*
X102980952Y-23286104D01*
X102980952Y-23286104D02*
X102980952Y-23362295D01*
X102980952Y-22867057D02*
X103019047Y-22905152D01*
X103019047Y-22905152D02*
X102980952Y-22943247D01*
X102980952Y-22943247D02*
X102942856Y-22905152D01*
X102942856Y-22905152D02*
X102980952Y-22867057D01*
X102980952Y-22867057D02*
X102980952Y-22943247D01*
X103895237Y-22562295D02*
X104390475Y-22562295D01*
X104390475Y-22562295D02*
X104123809Y-22867057D01*
X104123809Y-22867057D02*
X104238094Y-22867057D01*
X104238094Y-22867057D02*
X104314285Y-22905152D01*
X104314285Y-22905152D02*
X104352380Y-22943247D01*
X104352380Y-22943247D02*
X104390475Y-23019438D01*
X104390475Y-23019438D02*
X104390475Y-23209914D01*
X104390475Y-23209914D02*
X104352380Y-23286104D01*
X104352380Y-23286104D02*
X104314285Y-23324200D01*
X104314285Y-23324200D02*
X104238094Y-23362295D01*
X104238094Y-23362295D02*
X104009523Y-23362295D01*
X104009523Y-23362295D02*
X103933332Y-23324200D01*
X103933332Y-23324200D02*
X103895237Y-23286104D01*
X104619047Y-22562295D02*
X104885714Y-23362295D01*
X104885714Y-23362295D02*
X105152380Y-22562295D01*
X105342856Y-22562295D02*
X105838094Y-22562295D01*
X105838094Y-22562295D02*
X105571428Y-22867057D01*
X105571428Y-22867057D02*
X105685713Y-22867057D01*
X105685713Y-22867057D02*
X105761904Y-22905152D01*
X105761904Y-22905152D02*
X105799999Y-22943247D01*
X105799999Y-22943247D02*
X105838094Y-23019438D01*
X105838094Y-23019438D02*
X105838094Y-23209914D01*
X105838094Y-23209914D02*
X105799999Y-23286104D01*
X105799999Y-23286104D02*
X105761904Y-23324200D01*
X105761904Y-23324200D02*
X105685713Y-23362295D01*
X105685713Y-23362295D02*
X105457142Y-23362295D01*
X105457142Y-23362295D02*
X105380951Y-23324200D01*
X105380951Y-23324200D02*
X105342856Y-23286104D01*
X107209523Y-22600390D02*
X107133333Y-22562295D01*
X107133333Y-22562295D02*
X107019047Y-22562295D01*
X107019047Y-22562295D02*
X106904761Y-22600390D01*
X106904761Y-22600390D02*
X106828571Y-22676580D01*
X106828571Y-22676580D02*
X106790476Y-22752771D01*
X106790476Y-22752771D02*
X106752380Y-22905152D01*
X106752380Y-22905152D02*
X106752380Y-23019438D01*
X106752380Y-23019438D02*
X106790476Y-23171819D01*
X106790476Y-23171819D02*
X106828571Y-23248009D01*
X106828571Y-23248009D02*
X106904761Y-23324200D01*
X106904761Y-23324200D02*
X107019047Y-23362295D01*
X107019047Y-23362295D02*
X107095238Y-23362295D01*
X107095238Y-23362295D02*
X107209523Y-23324200D01*
X107209523Y-23324200D02*
X107247619Y-23286104D01*
X107247619Y-23286104D02*
X107247619Y-23019438D01*
X107247619Y-23019438D02*
X107095238Y-23019438D01*
X108657143Y-23362295D02*
X108390476Y-22981342D01*
X108200000Y-23362295D02*
X108200000Y-22562295D01*
X108200000Y-22562295D02*
X108504762Y-22562295D01*
X108504762Y-22562295D02*
X108580952Y-22600390D01*
X108580952Y-22600390D02*
X108619047Y-22638485D01*
X108619047Y-22638485D02*
X108657143Y-22714676D01*
X108657143Y-22714676D02*
X108657143Y-22828961D01*
X108657143Y-22828961D02*
X108619047Y-22905152D01*
X108619047Y-22905152D02*
X108580952Y-22943247D01*
X108580952Y-22943247D02*
X108504762Y-22981342D01*
X108504762Y-22981342D02*
X108200000Y-22981342D01*
X108923809Y-22562295D02*
X109457143Y-23362295D01*
X109457143Y-22562295D02*
X108923809Y-23362295D01*
X110257143Y-22562295D02*
X110714286Y-22562295D01*
X110485714Y-23362295D02*
X110485714Y-22562295D01*
X110904762Y-22562295D02*
X111438096Y-23362295D01*
X111438096Y-22562295D02*
X110904762Y-23362295D01*
X97885713Y-38600390D02*
X97809523Y-38562295D01*
X97809523Y-38562295D02*
X97695237Y-38562295D01*
X97695237Y-38562295D02*
X97580951Y-38600390D01*
X97580951Y-38600390D02*
X97504761Y-38676580D01*
X97504761Y-38676580D02*
X97466666Y-38752771D01*
X97466666Y-38752771D02*
X97428570Y-38905152D01*
X97428570Y-38905152D02*
X97428570Y-39019438D01*
X97428570Y-39019438D02*
X97466666Y-39171819D01*
X97466666Y-39171819D02*
X97504761Y-39248009D01*
X97504761Y-39248009D02*
X97580951Y-39324200D01*
X97580951Y-39324200D02*
X97695237Y-39362295D01*
X97695237Y-39362295D02*
X97771428Y-39362295D01*
X97771428Y-39362295D02*
X97885713Y-39324200D01*
X97885713Y-39324200D02*
X97923809Y-39286104D01*
X97923809Y-39286104D02*
X97923809Y-39019438D01*
X97923809Y-39019438D02*
X97771428Y-39019438D01*
X98266666Y-39362295D02*
X98266666Y-38562295D01*
X98266666Y-38562295D02*
X98571428Y-38562295D01*
X98571428Y-38562295D02*
X98647618Y-38600390D01*
X98647618Y-38600390D02*
X98685713Y-38638485D01*
X98685713Y-38638485D02*
X98723809Y-38714676D01*
X98723809Y-38714676D02*
X98723809Y-38828961D01*
X98723809Y-38828961D02*
X98685713Y-38905152D01*
X98685713Y-38905152D02*
X98647618Y-38943247D01*
X98647618Y-38943247D02*
X98571428Y-38981342D01*
X98571428Y-38981342D02*
X98266666Y-38981342D01*
X99028570Y-39324200D02*
X99142856Y-39362295D01*
X99142856Y-39362295D02*
X99333332Y-39362295D01*
X99333332Y-39362295D02*
X99409523Y-39324200D01*
X99409523Y-39324200D02*
X99447618Y-39286104D01*
X99447618Y-39286104D02*
X99485713Y-39209914D01*
X99485713Y-39209914D02*
X99485713Y-39133723D01*
X99485713Y-39133723D02*
X99447618Y-39057533D01*
X99447618Y-39057533D02*
X99409523Y-39019438D01*
X99409523Y-39019438D02*
X99333332Y-38981342D01*
X99333332Y-38981342D02*
X99180951Y-38943247D01*
X99180951Y-38943247D02*
X99104761Y-38905152D01*
X99104761Y-38905152D02*
X99066666Y-38867057D01*
X99066666Y-38867057D02*
X99028570Y-38790866D01*
X99028570Y-38790866D02*
X99028570Y-38714676D01*
X99028570Y-38714676D02*
X99066666Y-38638485D01*
X99066666Y-38638485D02*
X99104761Y-38600390D01*
X99104761Y-38600390D02*
X99180951Y-38562295D01*
X99180951Y-38562295D02*
X99371428Y-38562295D01*
X99371428Y-38562295D02*
X99485713Y-38600390D01*
X100895238Y-39362295D02*
X100628571Y-38981342D01*
X100438095Y-39362295D02*
X100438095Y-38562295D01*
X100438095Y-38562295D02*
X100742857Y-38562295D01*
X100742857Y-38562295D02*
X100819047Y-38600390D01*
X100819047Y-38600390D02*
X100857142Y-38638485D01*
X100857142Y-38638485D02*
X100895238Y-38714676D01*
X100895238Y-38714676D02*
X100895238Y-38828961D01*
X100895238Y-38828961D02*
X100857142Y-38905152D01*
X100857142Y-38905152D02*
X100819047Y-38943247D01*
X100819047Y-38943247D02*
X100742857Y-38981342D01*
X100742857Y-38981342D02*
X100438095Y-38981342D01*
X101161904Y-38562295D02*
X101695238Y-39362295D01*
X101695238Y-38562295D02*
X101161904Y-39362295D01*
X102571428Y-38524200D02*
X101885714Y-39552771D01*
X102723809Y-38562295D02*
X103180952Y-38562295D01*
X102952380Y-39362295D02*
X102952380Y-38562295D01*
X103371428Y-38562295D02*
X103904762Y-39362295D01*
X103904762Y-38562295D02*
X103371428Y-39362295D01*
X104780952Y-39133723D02*
X105161905Y-39133723D01*
X104704762Y-39362295D02*
X104971429Y-38562295D01*
X104971429Y-38562295D02*
X105238095Y-39362295D01*
X105771428Y-38943247D02*
X105885714Y-38981342D01*
X105885714Y-38981342D02*
X105923809Y-39019438D01*
X105923809Y-39019438D02*
X105961905Y-39095628D01*
X105961905Y-39095628D02*
X105961905Y-39209914D01*
X105961905Y-39209914D02*
X105923809Y-39286104D01*
X105923809Y-39286104D02*
X105885714Y-39324200D01*
X105885714Y-39324200D02*
X105809524Y-39362295D01*
X105809524Y-39362295D02*
X105504762Y-39362295D01*
X105504762Y-39362295D02*
X105504762Y-38562295D01*
X105504762Y-38562295D02*
X105771428Y-38562295D01*
X105771428Y-38562295D02*
X105847619Y-38600390D01*
X105847619Y-38600390D02*
X105885714Y-38638485D01*
X105885714Y-38638485D02*
X105923809Y-38714676D01*
X105923809Y-38714676D02*
X105923809Y-38790866D01*
X105923809Y-38790866D02*
X105885714Y-38867057D01*
X105885714Y-38867057D02*
X105847619Y-38905152D01*
X105847619Y-38905152D02*
X105771428Y-38943247D01*
X105771428Y-38943247D02*
X105504762Y-38943247D01*
X106457143Y-38562295D02*
X106609524Y-38562295D01*
X106609524Y-38562295D02*
X106685714Y-38600390D01*
X106685714Y-38600390D02*
X106761905Y-38676580D01*
X106761905Y-38676580D02*
X106800000Y-38828961D01*
X106800000Y-38828961D02*
X106800000Y-39095628D01*
X106800000Y-39095628D02*
X106761905Y-39248009D01*
X106761905Y-39248009D02*
X106685714Y-39324200D01*
X106685714Y-39324200D02*
X106609524Y-39362295D01*
X106609524Y-39362295D02*
X106457143Y-39362295D01*
X106457143Y-39362295D02*
X106380952Y-39324200D01*
X106380952Y-39324200D02*
X106304762Y-39248009D01*
X106304762Y-39248009D02*
X106266666Y-39095628D01*
X106266666Y-39095628D02*
X106266666Y-38828961D01*
X106266666Y-38828961D02*
X106304762Y-38676580D01*
X106304762Y-38676580D02*
X106380952Y-38600390D01*
X106380952Y-38600390D02*
X106457143Y-38562295D01*
X107028571Y-38562295D02*
X107295238Y-39362295D01*
X107295238Y-39362295D02*
X107561904Y-38562295D01*
X107828571Y-38943247D02*
X108095237Y-38943247D01*
X108209523Y-39362295D02*
X107828571Y-39362295D01*
X107828571Y-39362295D02*
X107828571Y-38562295D01*
X107828571Y-38562295D02*
X108209523Y-38562295D01*
X109161905Y-38943247D02*
X109771429Y-38943247D01*
X109771429Y-39171819D02*
X109161905Y-39171819D01*
X110761905Y-39362295D02*
X110761905Y-38562295D01*
X110761905Y-38562295D02*
X111028571Y-39133723D01*
X111028571Y-39133723D02*
X111295238Y-38562295D01*
X111295238Y-38562295D02*
X111295238Y-39362295D01*
X111828572Y-38562295D02*
X111980953Y-38562295D01*
X111980953Y-38562295D02*
X112057143Y-38600390D01*
X112057143Y-38600390D02*
X112133334Y-38676580D01*
X112133334Y-38676580D02*
X112171429Y-38828961D01*
X112171429Y-38828961D02*
X112171429Y-39095628D01*
X112171429Y-39095628D02*
X112133334Y-39248009D01*
X112133334Y-39248009D02*
X112057143Y-39324200D01*
X112057143Y-39324200D02*
X111980953Y-39362295D01*
X111980953Y-39362295D02*
X111828572Y-39362295D01*
X111828572Y-39362295D02*
X111752381Y-39324200D01*
X111752381Y-39324200D02*
X111676191Y-39248009D01*
X111676191Y-39248009D02*
X111638095Y-39095628D01*
X111638095Y-39095628D02*
X111638095Y-38828961D01*
X111638095Y-38828961D02*
X111676191Y-38676580D01*
X111676191Y-38676580D02*
X111752381Y-38600390D01*
X111752381Y-38600390D02*
X111828572Y-38562295D01*
X112514286Y-39362295D02*
X112514286Y-38562295D01*
X112514286Y-38562295D02*
X112704762Y-38562295D01*
X112704762Y-38562295D02*
X112819048Y-38600390D01*
X112819048Y-38600390D02*
X112895238Y-38676580D01*
X112895238Y-38676580D02*
X112933333Y-38752771D01*
X112933333Y-38752771D02*
X112971429Y-38905152D01*
X112971429Y-38905152D02*
X112971429Y-39019438D01*
X112971429Y-39019438D02*
X112933333Y-39171819D01*
X112933333Y-39171819D02*
X112895238Y-39248009D01*
X112895238Y-39248009D02*
X112819048Y-39324200D01*
X112819048Y-39324200D02*
X112704762Y-39362295D01*
X112704762Y-39362295D02*
X112514286Y-39362295D01*
X113314286Y-38562295D02*
X113314286Y-39209914D01*
X113314286Y-39209914D02*
X113352381Y-39286104D01*
X113352381Y-39286104D02*
X113390476Y-39324200D01*
X113390476Y-39324200D02*
X113466667Y-39362295D01*
X113466667Y-39362295D02*
X113619048Y-39362295D01*
X113619048Y-39362295D02*
X113695238Y-39324200D01*
X113695238Y-39324200D02*
X113733333Y-39286104D01*
X113733333Y-39286104D02*
X113771429Y-39209914D01*
X113771429Y-39209914D02*
X113771429Y-38562295D01*
X114533333Y-39362295D02*
X114152381Y-39362295D01*
X114152381Y-39362295D02*
X114152381Y-38562295D01*
X114800000Y-38943247D02*
X115066666Y-38943247D01*
X115180952Y-39362295D02*
X114800000Y-39362295D01*
X114800000Y-39362295D02*
X114800000Y-38562295D01*
X114800000Y-38562295D02*
X115180952Y-38562295D01*
X116133334Y-39362295D02*
X116133334Y-38562295D01*
X116133334Y-38562295D02*
X116438096Y-38562295D01*
X116438096Y-38562295D02*
X116514286Y-38600390D01*
X116514286Y-38600390D02*
X116552381Y-38638485D01*
X116552381Y-38638485D02*
X116590477Y-38714676D01*
X116590477Y-38714676D02*
X116590477Y-38828961D01*
X116590477Y-38828961D02*
X116552381Y-38905152D01*
X116552381Y-38905152D02*
X116514286Y-38943247D01*
X116514286Y-38943247D02*
X116438096Y-38981342D01*
X116438096Y-38981342D02*
X116133334Y-38981342D01*
X116933334Y-39362295D02*
X116933334Y-38562295D01*
X117314286Y-39362295D02*
X117314286Y-38562295D01*
X117314286Y-38562295D02*
X117771429Y-39362295D01*
X117771429Y-39362295D02*
X117771429Y-38562295D01*
X118114285Y-39324200D02*
X118228571Y-39362295D01*
X118228571Y-39362295D02*
X118419047Y-39362295D01*
X118419047Y-39362295D02*
X118495238Y-39324200D01*
X118495238Y-39324200D02*
X118533333Y-39286104D01*
X118533333Y-39286104D02*
X118571428Y-39209914D01*
X118571428Y-39209914D02*
X118571428Y-39133723D01*
X118571428Y-39133723D02*
X118533333Y-39057533D01*
X118533333Y-39057533D02*
X118495238Y-39019438D01*
X118495238Y-39019438D02*
X118419047Y-38981342D01*
X118419047Y-38981342D02*
X118266666Y-38943247D01*
X118266666Y-38943247D02*
X118190476Y-38905152D01*
X118190476Y-38905152D02*
X118152381Y-38867057D01*
X118152381Y-38867057D02*
X118114285Y-38790866D01*
X118114285Y-38790866D02*
X118114285Y-38714676D01*
X118114285Y-38714676D02*
X118152381Y-38638485D01*
X118152381Y-38638485D02*
X118190476Y-38600390D01*
X118190476Y-38600390D02*
X118266666Y-38562295D01*
X118266666Y-38562295D02*
X118457143Y-38562295D01*
X118457143Y-38562295D02*
X118571428Y-38600390D01*
X103371428Y-91828961D02*
X103371428Y-92362295D01*
X103180952Y-91524200D02*
X102990475Y-92095628D01*
X102990475Y-92095628D02*
X103485714Y-92095628D01*
X103752380Y-92133723D02*
X104133333Y-92133723D01*
X103676190Y-92362295D02*
X103942857Y-91562295D01*
X103942857Y-91562295D02*
X104209523Y-92362295D01*
X105047618Y-92324200D02*
X105161904Y-92362295D01*
X105161904Y-92362295D02*
X105352380Y-92362295D01*
X105352380Y-92362295D02*
X105428571Y-92324200D01*
X105428571Y-92324200D02*
X105466666Y-92286104D01*
X105466666Y-92286104D02*
X105504761Y-92209914D01*
X105504761Y-92209914D02*
X105504761Y-92133723D01*
X105504761Y-92133723D02*
X105466666Y-92057533D01*
X105466666Y-92057533D02*
X105428571Y-92019438D01*
X105428571Y-92019438D02*
X105352380Y-91981342D01*
X105352380Y-91981342D02*
X105199999Y-91943247D01*
X105199999Y-91943247D02*
X105123809Y-91905152D01*
X105123809Y-91905152D02*
X105085714Y-91867057D01*
X105085714Y-91867057D02*
X105047618Y-91790866D01*
X105047618Y-91790866D02*
X105047618Y-91714676D01*
X105047618Y-91714676D02*
X105085714Y-91638485D01*
X105085714Y-91638485D02*
X105123809Y-91600390D01*
X105123809Y-91600390D02*
X105199999Y-91562295D01*
X105199999Y-91562295D02*
X105390476Y-91562295D01*
X105390476Y-91562295D02*
X105504761Y-91600390D01*
X106304762Y-92286104D02*
X106266666Y-92324200D01*
X106266666Y-92324200D02*
X106152381Y-92362295D01*
X106152381Y-92362295D02*
X106076190Y-92362295D01*
X106076190Y-92362295D02*
X105961904Y-92324200D01*
X105961904Y-92324200D02*
X105885714Y-92248009D01*
X105885714Y-92248009D02*
X105847619Y-92171819D01*
X105847619Y-92171819D02*
X105809523Y-92019438D01*
X105809523Y-92019438D02*
X105809523Y-91905152D01*
X105809523Y-91905152D02*
X105847619Y-91752771D01*
X105847619Y-91752771D02*
X105885714Y-91676580D01*
X105885714Y-91676580D02*
X105961904Y-91600390D01*
X105961904Y-91600390D02*
X106076190Y-91562295D01*
X106076190Y-91562295D02*
X106152381Y-91562295D01*
X106152381Y-91562295D02*
X106266666Y-91600390D01*
X106266666Y-91600390D02*
X106304762Y-91638485D01*
X107104762Y-92362295D02*
X106838095Y-91981342D01*
X106647619Y-92362295D02*
X106647619Y-91562295D01*
X106647619Y-91562295D02*
X106952381Y-91562295D01*
X106952381Y-91562295D02*
X107028571Y-91600390D01*
X107028571Y-91600390D02*
X107066666Y-91638485D01*
X107066666Y-91638485D02*
X107104762Y-91714676D01*
X107104762Y-91714676D02*
X107104762Y-91828961D01*
X107104762Y-91828961D02*
X107066666Y-91905152D01*
X107066666Y-91905152D02*
X107028571Y-91943247D01*
X107028571Y-91943247D02*
X106952381Y-91981342D01*
X106952381Y-91981342D02*
X106647619Y-91981342D01*
X107447619Y-91943247D02*
X107714285Y-91943247D01*
X107828571Y-92362295D02*
X107447619Y-92362295D01*
X107447619Y-92362295D02*
X107447619Y-91562295D01*
X107447619Y-91562295D02*
X107828571Y-91562295D01*
X108171429Y-91943247D02*
X108438095Y-91943247D01*
X108552381Y-92362295D02*
X108171429Y-92362295D01*
X108171429Y-92362295D02*
X108171429Y-91562295D01*
X108171429Y-91562295D02*
X108552381Y-91562295D01*
X108895239Y-92362295D02*
X108895239Y-91562295D01*
X108895239Y-91562295D02*
X109352382Y-92362295D01*
X109352382Y-92362295D02*
X109352382Y-91562295D01*
X110609524Y-91943247D02*
X110342858Y-91943247D01*
X110342858Y-92362295D02*
X110342858Y-91562295D01*
X110342858Y-91562295D02*
X110723810Y-91562295D01*
X111028572Y-91562295D02*
X111028572Y-92209914D01*
X111028572Y-92209914D02*
X111066667Y-92286104D01*
X111066667Y-92286104D02*
X111104762Y-92324200D01*
X111104762Y-92324200D02*
X111180953Y-92362295D01*
X111180953Y-92362295D02*
X111333334Y-92362295D01*
X111333334Y-92362295D02*
X111409524Y-92324200D01*
X111409524Y-92324200D02*
X111447619Y-92286104D01*
X111447619Y-92286104D02*
X111485715Y-92209914D01*
X111485715Y-92209914D02*
X111485715Y-91562295D01*
X111828571Y-92324200D02*
X111942857Y-92362295D01*
X111942857Y-92362295D02*
X112133333Y-92362295D01*
X112133333Y-92362295D02*
X112209524Y-92324200D01*
X112209524Y-92324200D02*
X112247619Y-92286104D01*
X112247619Y-92286104D02*
X112285714Y-92209914D01*
X112285714Y-92209914D02*
X112285714Y-92133723D01*
X112285714Y-92133723D02*
X112247619Y-92057533D01*
X112247619Y-92057533D02*
X112209524Y-92019438D01*
X112209524Y-92019438D02*
X112133333Y-91981342D01*
X112133333Y-91981342D02*
X111980952Y-91943247D01*
X111980952Y-91943247D02*
X111904762Y-91905152D01*
X111904762Y-91905152D02*
X111866667Y-91867057D01*
X111866667Y-91867057D02*
X111828571Y-91790866D01*
X111828571Y-91790866D02*
X111828571Y-91714676D01*
X111828571Y-91714676D02*
X111866667Y-91638485D01*
X111866667Y-91638485D02*
X111904762Y-91600390D01*
X111904762Y-91600390D02*
X111980952Y-91562295D01*
X111980952Y-91562295D02*
X112171429Y-91562295D01*
X112171429Y-91562295D02*
X112285714Y-91600390D01*
X112628572Y-91943247D02*
X112895238Y-91943247D01*
X113009524Y-92362295D02*
X112628572Y-92362295D01*
X112628572Y-92362295D02*
X112628572Y-91562295D01*
X112628572Y-91562295D02*
X113009524Y-91562295D01*
X110133331Y-124362295D02*
X109676188Y-124362295D01*
X109904760Y-124362295D02*
X109904760Y-123562295D01*
X109904760Y-123562295D02*
X109828569Y-123676580D01*
X109828569Y-123676580D02*
X109752379Y-123752771D01*
X109752379Y-123752771D02*
X109676188Y-123790866D01*
X111504760Y-123600390D02*
X111428570Y-123562295D01*
X111428570Y-123562295D02*
X111314284Y-123562295D01*
X111314284Y-123562295D02*
X111199998Y-123600390D01*
X111199998Y-123600390D02*
X111123808Y-123676580D01*
X111123808Y-123676580D02*
X111085713Y-123752771D01*
X111085713Y-123752771D02*
X111047617Y-123905152D01*
X111047617Y-123905152D02*
X111047617Y-124019438D01*
X111047617Y-124019438D02*
X111085713Y-124171819D01*
X111085713Y-124171819D02*
X111123808Y-124248009D01*
X111123808Y-124248009D02*
X111199998Y-124324200D01*
X111199998Y-124324200D02*
X111314284Y-124362295D01*
X111314284Y-124362295D02*
X111390475Y-124362295D01*
X111390475Y-124362295D02*
X111504760Y-124324200D01*
X111504760Y-124324200D02*
X111542856Y-124286104D01*
X111542856Y-124286104D02*
X111542856Y-124019438D01*
X111542856Y-124019438D02*
X111390475Y-124019438D01*
X111885713Y-124362295D02*
X111885713Y-123562295D01*
X111885713Y-123562295D02*
X112342856Y-124362295D01*
X112342856Y-124362295D02*
X112342856Y-123562295D01*
X112723808Y-124362295D02*
X112723808Y-123562295D01*
X112723808Y-123562295D02*
X112914284Y-123562295D01*
X112914284Y-123562295D02*
X113028570Y-123600390D01*
X113028570Y-123600390D02*
X113104760Y-123676580D01*
X113104760Y-123676580D02*
X113142855Y-123752771D01*
X113142855Y-123752771D02*
X113180951Y-123905152D01*
X113180951Y-123905152D02*
X113180951Y-124019438D01*
X113180951Y-124019438D02*
X113142855Y-124171819D01*
X113142855Y-124171819D02*
X113104760Y-124248009D01*
X113104760Y-124248009D02*
X113028570Y-124324200D01*
X113028570Y-124324200D02*
X112914284Y-124362295D01*
X112914284Y-124362295D02*
X112723808Y-124362295D01*
X114704760Y-123638485D02*
X114742856Y-123600390D01*
X114742856Y-123600390D02*
X114819046Y-123562295D01*
X114819046Y-123562295D02*
X115009522Y-123562295D01*
X115009522Y-123562295D02*
X115085713Y-123600390D01*
X115085713Y-123600390D02*
X115123808Y-123638485D01*
X115123808Y-123638485D02*
X115161903Y-123714676D01*
X115161903Y-123714676D02*
X115161903Y-123790866D01*
X115161903Y-123790866D02*
X115123808Y-123905152D01*
X115123808Y-123905152D02*
X114666665Y-124362295D01*
X114666665Y-124362295D02*
X115161903Y-124362295D01*
X116114285Y-124057533D02*
X116723809Y-124057533D01*
X116419047Y-124362295D02*
X116419047Y-123752771D01*
X117485713Y-123562295D02*
X117104761Y-123562295D01*
X117104761Y-123562295D02*
X117066665Y-123943247D01*
X117066665Y-123943247D02*
X117104761Y-123905152D01*
X117104761Y-123905152D02*
X117180951Y-123867057D01*
X117180951Y-123867057D02*
X117371427Y-123867057D01*
X117371427Y-123867057D02*
X117447618Y-123905152D01*
X117447618Y-123905152D02*
X117485713Y-123943247D01*
X117485713Y-123943247D02*
X117523808Y-124019438D01*
X117523808Y-124019438D02*
X117523808Y-124209914D01*
X117523808Y-124209914D02*
X117485713Y-124286104D01*
X117485713Y-124286104D02*
X117447618Y-124324200D01*
X117447618Y-124324200D02*
X117371427Y-124362295D01*
X117371427Y-124362295D02*
X117180951Y-124362295D01*
X117180951Y-124362295D02*
X117104761Y-124324200D01*
X117104761Y-124324200D02*
X117066665Y-124286104D01*
X117752380Y-123562295D02*
X118019047Y-124362295D01*
X118019047Y-124362295D02*
X118285713Y-123562295D01*
X119695237Y-123562295D02*
X120190475Y-123562295D01*
X120190475Y-123562295D02*
X119923809Y-123867057D01*
X119923809Y-123867057D02*
X120038094Y-123867057D01*
X120038094Y-123867057D02*
X120114285Y-123905152D01*
X120114285Y-123905152D02*
X120152380Y-123943247D01*
X120152380Y-123943247D02*
X120190475Y-124019438D01*
X120190475Y-124019438D02*
X120190475Y-124209914D01*
X120190475Y-124209914D02*
X120152380Y-124286104D01*
X120152380Y-124286104D02*
X120114285Y-124324200D01*
X120114285Y-124324200D02*
X120038094Y-124362295D01*
X120038094Y-124362295D02*
X119809523Y-124362295D01*
X119809523Y-124362295D02*
X119733332Y-124324200D01*
X119733332Y-124324200D02*
X119695237Y-124286104D01*
X121600000Y-124362295D02*
X121333333Y-123981342D01*
X121142857Y-124362295D02*
X121142857Y-123562295D01*
X121142857Y-123562295D02*
X121447619Y-123562295D01*
X121447619Y-123562295D02*
X121523809Y-123600390D01*
X121523809Y-123600390D02*
X121561904Y-123638485D01*
X121561904Y-123638485D02*
X121600000Y-123714676D01*
X121600000Y-123714676D02*
X121600000Y-123828961D01*
X121600000Y-123828961D02*
X121561904Y-123905152D01*
X121561904Y-123905152D02*
X121523809Y-123943247D01*
X121523809Y-123943247D02*
X121447619Y-123981342D01*
X121447619Y-123981342D02*
X121142857Y-123981342D01*
X121866666Y-123562295D02*
X122400000Y-124362295D01*
X122400000Y-123562295D02*
X121866666Y-124362295D01*
X124266667Y-123828961D02*
X124266667Y-124362295D01*
X124076191Y-123524200D02*
X123885714Y-124095628D01*
X123885714Y-124095628D02*
X124380953Y-124095628D01*
X125180953Y-123562295D02*
X125638096Y-123562295D01*
X125409524Y-124362295D02*
X125409524Y-123562295D01*
X125828572Y-123562295D02*
X126361906Y-124362295D01*
X126361906Y-123562295D02*
X125828572Y-124362295D01*
X111695238Y-127362295D02*
X111428571Y-126981342D01*
X111238095Y-127362295D02*
X111238095Y-126562295D01*
X111238095Y-126562295D02*
X111542857Y-126562295D01*
X111542857Y-126562295D02*
X111619047Y-126600390D01*
X111619047Y-126600390D02*
X111657142Y-126638485D01*
X111657142Y-126638485D02*
X111695238Y-126714676D01*
X111695238Y-126714676D02*
X111695238Y-126828961D01*
X111695238Y-126828961D02*
X111657142Y-126905152D01*
X111657142Y-126905152D02*
X111619047Y-126943247D01*
X111619047Y-126943247D02*
X111542857Y-126981342D01*
X111542857Y-126981342D02*
X111238095Y-126981342D01*
X111961904Y-126562295D02*
X112495238Y-127362295D01*
X112495238Y-126562295D02*
X111961904Y-127362295D01*
X113371428Y-126524200D02*
X112685714Y-127552771D01*
X113523809Y-126562295D02*
X113980952Y-126562295D01*
X113752380Y-127362295D02*
X113752380Y-126562295D01*
X114171428Y-126562295D02*
X114704762Y-127362295D01*
X114704762Y-126562295D02*
X114171428Y-127362295D01*
X116076191Y-127362295D02*
X115809524Y-126981342D01*
X115619048Y-127362295D02*
X115619048Y-126562295D01*
X115619048Y-126562295D02*
X115923810Y-126562295D01*
X115923810Y-126562295D02*
X116000000Y-126600390D01*
X116000000Y-126600390D02*
X116038095Y-126638485D01*
X116038095Y-126638485D02*
X116076191Y-126714676D01*
X116076191Y-126714676D02*
X116076191Y-126828961D01*
X116076191Y-126828961D02*
X116038095Y-126905152D01*
X116038095Y-126905152D02*
X116000000Y-126943247D01*
X116000000Y-126943247D02*
X115923810Y-126981342D01*
X115923810Y-126981342D02*
X115619048Y-126981342D01*
X116419048Y-126943247D02*
X116685714Y-126943247D01*
X116800000Y-127362295D02*
X116419048Y-127362295D01*
X116419048Y-127362295D02*
X116419048Y-126562295D01*
X116419048Y-126562295D02*
X116800000Y-126562295D01*
X117523810Y-127362295D02*
X117142858Y-127362295D01*
X117142858Y-127362295D02*
X117142858Y-126562295D01*
X117752381Y-127133723D02*
X118133334Y-127133723D01*
X117676191Y-127362295D02*
X117942858Y-126562295D01*
X117942858Y-126562295D02*
X118209524Y-127362295D01*
X118361905Y-126562295D02*
X118819048Y-126562295D01*
X118590476Y-127362295D02*
X118590476Y-126562295D01*
X119085715Y-127362295D02*
X119085715Y-126562295D01*
X119352381Y-126562295D02*
X119619048Y-127362295D01*
X119619048Y-127362295D02*
X119885714Y-126562295D01*
X120152381Y-126943247D02*
X120419047Y-126943247D01*
X120533333Y-127362295D02*
X120152381Y-127362295D01*
X120152381Y-127362295D02*
X120152381Y-126562295D01*
X120152381Y-126562295D02*
X120533333Y-126562295D01*
X121371429Y-126562295D02*
X121828572Y-126562295D01*
X121600000Y-127362295D02*
X121600000Y-126562295D01*
X122247620Y-126562295D02*
X122400001Y-126562295D01*
X122400001Y-126562295D02*
X122476191Y-126600390D01*
X122476191Y-126600390D02*
X122552382Y-126676580D01*
X122552382Y-126676580D02*
X122590477Y-126828961D01*
X122590477Y-126828961D02*
X122590477Y-127095628D01*
X122590477Y-127095628D02*
X122552382Y-127248009D01*
X122552382Y-127248009D02*
X122476191Y-127324200D01*
X122476191Y-127324200D02*
X122400001Y-127362295D01*
X122400001Y-127362295D02*
X122247620Y-127362295D01*
X122247620Y-127362295D02*
X122171429Y-127324200D01*
X122171429Y-127324200D02*
X122095239Y-127248009D01*
X122095239Y-127248009D02*
X122057143Y-127095628D01*
X122057143Y-127095628D02*
X122057143Y-126828961D01*
X122057143Y-126828961D02*
X122095239Y-126676580D01*
X122095239Y-126676580D02*
X122171429Y-126600390D01*
X122171429Y-126600390D02*
X122247620Y-126562295D01*
X123428572Y-126562295D02*
X123885715Y-126562295D01*
X123657143Y-127362295D02*
X123657143Y-126562295D01*
X124152382Y-127362295D02*
X124152382Y-126562295D01*
X124152382Y-126943247D02*
X124609525Y-126943247D01*
X124609525Y-127362295D02*
X124609525Y-126562295D01*
X124990477Y-127362295D02*
X124990477Y-126562295D01*
X125333333Y-127324200D02*
X125447619Y-127362295D01*
X125447619Y-127362295D02*
X125638095Y-127362295D01*
X125638095Y-127362295D02*
X125714286Y-127324200D01*
X125714286Y-127324200D02*
X125752381Y-127286104D01*
X125752381Y-127286104D02*
X125790476Y-127209914D01*
X125790476Y-127209914D02*
X125790476Y-127133723D01*
X125790476Y-127133723D02*
X125752381Y-127057533D01*
X125752381Y-127057533D02*
X125714286Y-127019438D01*
X125714286Y-127019438D02*
X125638095Y-126981342D01*
X125638095Y-126981342D02*
X125485714Y-126943247D01*
X125485714Y-126943247D02*
X125409524Y-126905152D01*
X125409524Y-126905152D02*
X125371429Y-126867057D01*
X125371429Y-126867057D02*
X125333333Y-126790866D01*
X125333333Y-126790866D02*
X125333333Y-126714676D01*
X125333333Y-126714676D02*
X125371429Y-126638485D01*
X125371429Y-126638485D02*
X125409524Y-126600390D01*
X125409524Y-126600390D02*
X125485714Y-126562295D01*
X125485714Y-126562295D02*
X125676191Y-126562295D01*
X125676191Y-126562295D02*
X125790476Y-126600390D01*
X126742858Y-127362295D02*
X126742858Y-126562295D01*
X126742858Y-126562295D02*
X127047620Y-126562295D01*
X127047620Y-126562295D02*
X127123810Y-126600390D01*
X127123810Y-126600390D02*
X127161905Y-126638485D01*
X127161905Y-126638485D02*
X127200001Y-126714676D01*
X127200001Y-126714676D02*
X127200001Y-126828961D01*
X127200001Y-126828961D02*
X127161905Y-126905152D01*
X127161905Y-126905152D02*
X127123810Y-126943247D01*
X127123810Y-126943247D02*
X127047620Y-126981342D01*
X127047620Y-126981342D02*
X126742858Y-126981342D01*
X128000001Y-127286104D02*
X127961905Y-127324200D01*
X127961905Y-127324200D02*
X127847620Y-127362295D01*
X127847620Y-127362295D02*
X127771429Y-127362295D01*
X127771429Y-127362295D02*
X127657143Y-127324200D01*
X127657143Y-127324200D02*
X127580953Y-127248009D01*
X127580953Y-127248009D02*
X127542858Y-127171819D01*
X127542858Y-127171819D02*
X127504762Y-127019438D01*
X127504762Y-127019438D02*
X127504762Y-126905152D01*
X127504762Y-126905152D02*
X127542858Y-126752771D01*
X127542858Y-126752771D02*
X127580953Y-126676580D01*
X127580953Y-126676580D02*
X127657143Y-126600390D01*
X127657143Y-126600390D02*
X127771429Y-126562295D01*
X127771429Y-126562295D02*
X127847620Y-126562295D01*
X127847620Y-126562295D02*
X127961905Y-126600390D01*
X127961905Y-126600390D02*
X128000001Y-126638485D01*
X128609524Y-126943247D02*
X128723810Y-126981342D01*
X128723810Y-126981342D02*
X128761905Y-127019438D01*
X128761905Y-127019438D02*
X128800001Y-127095628D01*
X128800001Y-127095628D02*
X128800001Y-127209914D01*
X128800001Y-127209914D02*
X128761905Y-127286104D01*
X128761905Y-127286104D02*
X128723810Y-127324200D01*
X128723810Y-127324200D02*
X128647620Y-127362295D01*
X128647620Y-127362295D02*
X128342858Y-127362295D01*
X128342858Y-127362295D02*
X128342858Y-126562295D01*
X128342858Y-126562295D02*
X128609524Y-126562295D01*
X128609524Y-126562295D02*
X128685715Y-126600390D01*
X128685715Y-126600390D02*
X128723810Y-126638485D01*
X128723810Y-126638485D02*
X128761905Y-126714676D01*
X128761905Y-126714676D02*
X128761905Y-126790866D01*
X128761905Y-126790866D02*
X128723810Y-126867057D01*
X128723810Y-126867057D02*
X128685715Y-126905152D01*
X128685715Y-126905152D02*
X128609524Y-126943247D01*
X128609524Y-126943247D02*
X128342858Y-126943247D01*
X125200000Y-62562295D02*
X125695238Y-62562295D01*
X125695238Y-62562295D02*
X125428572Y-62867057D01*
X125428572Y-62867057D02*
X125542857Y-62867057D01*
X125542857Y-62867057D02*
X125619048Y-62905152D01*
X125619048Y-62905152D02*
X125657143Y-62943247D01*
X125657143Y-62943247D02*
X125695238Y-63019438D01*
X125695238Y-63019438D02*
X125695238Y-63209914D01*
X125695238Y-63209914D02*
X125657143Y-63286104D01*
X125657143Y-63286104D02*
X125619048Y-63324200D01*
X125619048Y-63324200D02*
X125542857Y-63362295D01*
X125542857Y-63362295D02*
X125314286Y-63362295D01*
X125314286Y-63362295D02*
X125238095Y-63324200D01*
X125238095Y-63324200D02*
X125200000Y-63286104D01*
X125923810Y-62562295D02*
X126190477Y-63362295D01*
X126190477Y-63362295D02*
X126457143Y-62562295D01*
X126647619Y-62562295D02*
X127142857Y-62562295D01*
X127142857Y-62562295D02*
X126876191Y-62867057D01*
X126876191Y-62867057D02*
X126990476Y-62867057D01*
X126990476Y-62867057D02*
X127066667Y-62905152D01*
X127066667Y-62905152D02*
X127104762Y-62943247D01*
X127104762Y-62943247D02*
X127142857Y-63019438D01*
X127142857Y-63019438D02*
X127142857Y-63209914D01*
X127142857Y-63209914D02*
X127104762Y-63286104D01*
X127104762Y-63286104D02*
X127066667Y-63324200D01*
X127066667Y-63324200D02*
X126990476Y-63362295D01*
X126990476Y-63362295D02*
X126761905Y-63362295D01*
X126761905Y-63362295D02*
X126685714Y-63324200D01*
X126685714Y-63324200D02*
X126647619Y-63286104D01*
X128247620Y-62562295D02*
X128400001Y-62562295D01*
X128400001Y-62562295D02*
X128476191Y-62600390D01*
X128476191Y-62600390D02*
X128552382Y-62676580D01*
X128552382Y-62676580D02*
X128590477Y-62828961D01*
X128590477Y-62828961D02*
X128590477Y-63095628D01*
X128590477Y-63095628D02*
X128552382Y-63248009D01*
X128552382Y-63248009D02*
X128476191Y-63324200D01*
X128476191Y-63324200D02*
X128400001Y-63362295D01*
X128400001Y-63362295D02*
X128247620Y-63362295D01*
X128247620Y-63362295D02*
X128171429Y-63324200D01*
X128171429Y-63324200D02*
X128095239Y-63248009D01*
X128095239Y-63248009D02*
X128057143Y-63095628D01*
X128057143Y-63095628D02*
X128057143Y-62828961D01*
X128057143Y-62828961D02*
X128095239Y-62676580D01*
X128095239Y-62676580D02*
X128171429Y-62600390D01*
X128171429Y-62600390D02*
X128247620Y-62562295D01*
X128933334Y-63362295D02*
X128933334Y-62562295D01*
X128933334Y-62562295D02*
X129390477Y-63362295D01*
X129390477Y-63362295D02*
X129390477Y-62562295D01*
X130152381Y-63362295D02*
X129771429Y-63362295D01*
X129771429Y-63362295D02*
X129771429Y-62562295D01*
X130571429Y-62981342D02*
X130571429Y-63362295D01*
X130304762Y-62562295D02*
X130571429Y-62981342D01*
X130571429Y-62981342D02*
X130838095Y-62562295D01*
X123990476Y-23362295D02*
X123990476Y-22562295D01*
X124371428Y-23362295D02*
X124371428Y-22562295D01*
X124371428Y-22562295D02*
X124638094Y-23133723D01*
X124638094Y-23133723D02*
X124904761Y-22562295D01*
X124904761Y-22562295D02*
X124904761Y-23362295D01*
X125285714Y-22562295D02*
X125285714Y-23209914D01*
X125285714Y-23209914D02*
X125323809Y-23286104D01*
X125323809Y-23286104D02*
X125361904Y-23324200D01*
X125361904Y-23324200D02*
X125438095Y-23362295D01*
X125438095Y-23362295D02*
X125590476Y-23362295D01*
X125590476Y-23362295D02*
X125666666Y-23324200D01*
X125666666Y-23324200D02*
X125704761Y-23286104D01*
X125704761Y-23286104D02*
X125742857Y-23209914D01*
X125742857Y-23209914D02*
X125742857Y-22562295D01*
X126961904Y-22562295D02*
X126961904Y-23133723D01*
X126961904Y-23133723D02*
X126923809Y-23248009D01*
X126923809Y-23248009D02*
X126847618Y-23324200D01*
X126847618Y-23324200D02*
X126733333Y-23362295D01*
X126733333Y-23362295D02*
X126657142Y-23362295D01*
X127723809Y-22562295D02*
X127342857Y-22562295D01*
X127342857Y-22562295D02*
X127304761Y-22943247D01*
X127304761Y-22943247D02*
X127342857Y-22905152D01*
X127342857Y-22905152D02*
X127419047Y-22867057D01*
X127419047Y-22867057D02*
X127609523Y-22867057D01*
X127609523Y-22867057D02*
X127685714Y-22905152D01*
X127685714Y-22905152D02*
X127723809Y-22943247D01*
X127723809Y-22943247D02*
X127761904Y-23019438D01*
X127761904Y-23019438D02*
X127761904Y-23209914D01*
X127761904Y-23209914D02*
X127723809Y-23286104D01*
X127723809Y-23286104D02*
X127685714Y-23324200D01*
X127685714Y-23324200D02*
X127609523Y-23362295D01*
X127609523Y-23362295D02*
X127419047Y-23362295D01*
X127419047Y-23362295D02*
X127342857Y-23324200D01*
X127342857Y-23324200D02*
X127304761Y-23286104D01*
X128104762Y-23286104D02*
X128142857Y-23324200D01*
X128142857Y-23324200D02*
X128104762Y-23362295D01*
X128104762Y-23362295D02*
X128066666Y-23324200D01*
X128066666Y-23324200D02*
X128104762Y-23286104D01*
X128104762Y-23286104D02*
X128104762Y-23362295D01*
X128104762Y-22867057D02*
X128142857Y-22905152D01*
X128142857Y-22905152D02*
X128104762Y-22943247D01*
X128104762Y-22943247D02*
X128066666Y-22905152D01*
X128066666Y-22905152D02*
X128104762Y-22867057D01*
X128104762Y-22867057D02*
X128104762Y-22943247D01*
X129019047Y-22562295D02*
X129514285Y-22562295D01*
X129514285Y-22562295D02*
X129247619Y-22867057D01*
X129247619Y-22867057D02*
X129361904Y-22867057D01*
X129361904Y-22867057D02*
X129438095Y-22905152D01*
X129438095Y-22905152D02*
X129476190Y-22943247D01*
X129476190Y-22943247D02*
X129514285Y-23019438D01*
X129514285Y-23019438D02*
X129514285Y-23209914D01*
X129514285Y-23209914D02*
X129476190Y-23286104D01*
X129476190Y-23286104D02*
X129438095Y-23324200D01*
X129438095Y-23324200D02*
X129361904Y-23362295D01*
X129361904Y-23362295D02*
X129133333Y-23362295D01*
X129133333Y-23362295D02*
X129057142Y-23324200D01*
X129057142Y-23324200D02*
X129019047Y-23286104D01*
X129742857Y-22562295D02*
X130009524Y-23362295D01*
X130009524Y-23362295D02*
X130276190Y-22562295D01*
X130466666Y-22562295D02*
X130961904Y-22562295D01*
X130961904Y-22562295D02*
X130695238Y-22867057D01*
X130695238Y-22867057D02*
X130809523Y-22867057D01*
X130809523Y-22867057D02*
X130885714Y-22905152D01*
X130885714Y-22905152D02*
X130923809Y-22943247D01*
X130923809Y-22943247D02*
X130961904Y-23019438D01*
X130961904Y-23019438D02*
X130961904Y-23209914D01*
X130961904Y-23209914D02*
X130923809Y-23286104D01*
X130923809Y-23286104D02*
X130885714Y-23324200D01*
X130885714Y-23324200D02*
X130809523Y-23362295D01*
X130809523Y-23362295D02*
X130580952Y-23362295D01*
X130580952Y-23362295D02*
X130504761Y-23324200D01*
X130504761Y-23324200D02*
X130466666Y-23286104D01*
X132333333Y-22600390D02*
X132257143Y-22562295D01*
X132257143Y-22562295D02*
X132142857Y-22562295D01*
X132142857Y-22562295D02*
X132028571Y-22600390D01*
X132028571Y-22600390D02*
X131952381Y-22676580D01*
X131952381Y-22676580D02*
X131914286Y-22752771D01*
X131914286Y-22752771D02*
X131876190Y-22905152D01*
X131876190Y-22905152D02*
X131876190Y-23019438D01*
X131876190Y-23019438D02*
X131914286Y-23171819D01*
X131914286Y-23171819D02*
X131952381Y-23248009D01*
X131952381Y-23248009D02*
X132028571Y-23324200D01*
X132028571Y-23324200D02*
X132142857Y-23362295D01*
X132142857Y-23362295D02*
X132219048Y-23362295D01*
X132219048Y-23362295D02*
X132333333Y-23324200D01*
X132333333Y-23324200D02*
X132371429Y-23286104D01*
X132371429Y-23286104D02*
X132371429Y-23019438D01*
X132371429Y-23019438D02*
X132219048Y-23019438D01*
X133285714Y-23324200D02*
X133400000Y-23362295D01*
X133400000Y-23362295D02*
X133590476Y-23362295D01*
X133590476Y-23362295D02*
X133666667Y-23324200D01*
X133666667Y-23324200D02*
X133704762Y-23286104D01*
X133704762Y-23286104D02*
X133742857Y-23209914D01*
X133742857Y-23209914D02*
X133742857Y-23133723D01*
X133742857Y-23133723D02*
X133704762Y-23057533D01*
X133704762Y-23057533D02*
X133666667Y-23019438D01*
X133666667Y-23019438D02*
X133590476Y-22981342D01*
X133590476Y-22981342D02*
X133438095Y-22943247D01*
X133438095Y-22943247D02*
X133361905Y-22905152D01*
X133361905Y-22905152D02*
X133323810Y-22867057D01*
X133323810Y-22867057D02*
X133285714Y-22790866D01*
X133285714Y-22790866D02*
X133285714Y-22714676D01*
X133285714Y-22714676D02*
X133323810Y-22638485D01*
X133323810Y-22638485D02*
X133361905Y-22600390D01*
X133361905Y-22600390D02*
X133438095Y-22562295D01*
X133438095Y-22562295D02*
X133628572Y-22562295D01*
X133628572Y-22562295D02*
X133742857Y-22600390D01*
X134085715Y-23362295D02*
X134085715Y-22562295D01*
X134085715Y-22562295D02*
X134276191Y-22562295D01*
X134276191Y-22562295D02*
X134390477Y-22600390D01*
X134390477Y-22600390D02*
X134466667Y-22676580D01*
X134466667Y-22676580D02*
X134504762Y-22752771D01*
X134504762Y-22752771D02*
X134542858Y-22905152D01*
X134542858Y-22905152D02*
X134542858Y-23019438D01*
X134542858Y-23019438D02*
X134504762Y-23171819D01*
X134504762Y-23171819D02*
X134466667Y-23248009D01*
X134466667Y-23248009D02*
X134390477Y-23324200D01*
X134390477Y-23324200D02*
X134276191Y-23362295D01*
X134276191Y-23362295D02*
X134085715Y-23362295D01*
X134847619Y-23133723D02*
X135228572Y-23133723D01*
X134771429Y-23362295D02*
X135038096Y-22562295D01*
X135038096Y-22562295D02*
X135304762Y-23362295D01*
X136142857Y-23324200D02*
X136257143Y-23362295D01*
X136257143Y-23362295D02*
X136447619Y-23362295D01*
X136447619Y-23362295D02*
X136523810Y-23324200D01*
X136523810Y-23324200D02*
X136561905Y-23286104D01*
X136561905Y-23286104D02*
X136600000Y-23209914D01*
X136600000Y-23209914D02*
X136600000Y-23133723D01*
X136600000Y-23133723D02*
X136561905Y-23057533D01*
X136561905Y-23057533D02*
X136523810Y-23019438D01*
X136523810Y-23019438D02*
X136447619Y-22981342D01*
X136447619Y-22981342D02*
X136295238Y-22943247D01*
X136295238Y-22943247D02*
X136219048Y-22905152D01*
X136219048Y-22905152D02*
X136180953Y-22867057D01*
X136180953Y-22867057D02*
X136142857Y-22790866D01*
X136142857Y-22790866D02*
X136142857Y-22714676D01*
X136142857Y-22714676D02*
X136180953Y-22638485D01*
X136180953Y-22638485D02*
X136219048Y-22600390D01*
X136219048Y-22600390D02*
X136295238Y-22562295D01*
X136295238Y-22562295D02*
X136485715Y-22562295D01*
X136485715Y-22562295D02*
X136600000Y-22600390D01*
X137400001Y-23286104D02*
X137361905Y-23324200D01*
X137361905Y-23324200D02*
X137247620Y-23362295D01*
X137247620Y-23362295D02*
X137171429Y-23362295D01*
X137171429Y-23362295D02*
X137057143Y-23324200D01*
X137057143Y-23324200D02*
X136980953Y-23248009D01*
X136980953Y-23248009D02*
X136942858Y-23171819D01*
X136942858Y-23171819D02*
X136904762Y-23019438D01*
X136904762Y-23019438D02*
X136904762Y-22905152D01*
X136904762Y-22905152D02*
X136942858Y-22752771D01*
X136942858Y-22752771D02*
X136980953Y-22676580D01*
X136980953Y-22676580D02*
X137057143Y-22600390D01*
X137057143Y-22600390D02*
X137171429Y-22562295D01*
X137171429Y-22562295D02*
X137247620Y-22562295D01*
X137247620Y-22562295D02*
X137361905Y-22600390D01*
X137361905Y-22600390D02*
X137400001Y-22638485D01*
X138123810Y-23362295D02*
X137742858Y-23362295D01*
X137742858Y-23362295D02*
X137742858Y-22562295D01*
X75636904Y-94535427D02*
X75636904Y-95223522D01*
X75636904Y-95223522D02*
X75677381Y-95304474D01*
X75677381Y-95304474D02*
X75717857Y-95344951D01*
X75717857Y-95344951D02*
X75798809Y-95385427D01*
X75798809Y-95385427D02*
X75960714Y-95385427D01*
X75960714Y-95385427D02*
X76041666Y-95344951D01*
X76041666Y-95344951D02*
X76082143Y-95304474D01*
X76082143Y-95304474D02*
X76122619Y-95223522D01*
X76122619Y-95223522D02*
X76122619Y-94535427D01*
X76486904Y-94616379D02*
X76527380Y-94575903D01*
X76527380Y-94575903D02*
X76608333Y-94535427D01*
X76608333Y-94535427D02*
X76810714Y-94535427D01*
X76810714Y-94535427D02*
X76891666Y-94575903D01*
X76891666Y-94575903D02*
X76932142Y-94616379D01*
X76932142Y-94616379D02*
X76972619Y-94697331D01*
X76972619Y-94697331D02*
X76972619Y-94778284D01*
X76972619Y-94778284D02*
X76932142Y-94899712D01*
X76932142Y-94899712D02*
X76446428Y-95385427D01*
X76446428Y-95385427D02*
X76972619Y-95385427D01*
X77984523Y-95385427D02*
X77984523Y-94535427D01*
X77984523Y-94535427D02*
X78308333Y-94535427D01*
X78308333Y-94535427D02*
X78389285Y-94575903D01*
X78389285Y-94575903D02*
X78429762Y-94616379D01*
X78429762Y-94616379D02*
X78470238Y-94697331D01*
X78470238Y-94697331D02*
X78470238Y-94818760D01*
X78470238Y-94818760D02*
X78429762Y-94899712D01*
X78429762Y-94899712D02*
X78389285Y-94940189D01*
X78389285Y-94940189D02*
X78308333Y-94980665D01*
X78308333Y-94980665D02*
X77984523Y-94980665D01*
X78996428Y-94535427D02*
X79158333Y-94535427D01*
X79158333Y-94535427D02*
X79239285Y-94575903D01*
X79239285Y-94575903D02*
X79320238Y-94656855D01*
X79320238Y-94656855D02*
X79360714Y-94818760D01*
X79360714Y-94818760D02*
X79360714Y-95102093D01*
X79360714Y-95102093D02*
X79320238Y-95263998D01*
X79320238Y-95263998D02*
X79239285Y-95344951D01*
X79239285Y-95344951D02*
X79158333Y-95385427D01*
X79158333Y-95385427D02*
X78996428Y-95385427D01*
X78996428Y-95385427D02*
X78915476Y-95344951D01*
X78915476Y-95344951D02*
X78834523Y-95263998D01*
X78834523Y-95263998D02*
X78794047Y-95102093D01*
X78794047Y-95102093D02*
X78794047Y-94818760D01*
X78794047Y-94818760D02*
X78834523Y-94656855D01*
X78834523Y-94656855D02*
X78915476Y-94575903D01*
X78915476Y-94575903D02*
X78996428Y-94535427D01*
X80129761Y-95385427D02*
X79724999Y-95385427D01*
X79724999Y-95385427D02*
X79724999Y-94535427D01*
X80574999Y-94535427D02*
X80736904Y-94535427D01*
X80736904Y-94535427D02*
X80817856Y-94575903D01*
X80817856Y-94575903D02*
X80898809Y-94656855D01*
X80898809Y-94656855D02*
X80939285Y-94818760D01*
X80939285Y-94818760D02*
X80939285Y-95102093D01*
X80939285Y-95102093D02*
X80898809Y-95263998D01*
X80898809Y-95263998D02*
X80817856Y-95344951D01*
X80817856Y-95344951D02*
X80736904Y-95385427D01*
X80736904Y-95385427D02*
X80574999Y-95385427D01*
X80574999Y-95385427D02*
X80494047Y-95344951D01*
X80494047Y-95344951D02*
X80413094Y-95263998D01*
X80413094Y-95263998D02*
X80372618Y-95102093D01*
X80372618Y-95102093D02*
X80372618Y-94818760D01*
X80372618Y-94818760D02*
X80413094Y-94656855D01*
X80413094Y-94656855D02*
X80494047Y-94575903D01*
X80494047Y-94575903D02*
X80574999Y-94535427D01*
X81708332Y-95385427D02*
X81303570Y-95385427D01*
X81303570Y-95385427D02*
X81303570Y-94535427D01*
X81991665Y-94535427D02*
X81991665Y-95223522D01*
X81991665Y-95223522D02*
X82032142Y-95304474D01*
X82032142Y-95304474D02*
X82072618Y-95344951D01*
X82072618Y-95344951D02*
X82153570Y-95385427D01*
X82153570Y-95385427D02*
X82315475Y-95385427D01*
X82315475Y-95385427D02*
X82396427Y-95344951D01*
X82396427Y-95344951D02*
X82436904Y-95304474D01*
X82436904Y-95304474D02*
X82477380Y-95223522D01*
X82477380Y-95223522D02*
X82477380Y-94535427D01*
X83894046Y-94818760D02*
X83894046Y-95385427D01*
X83691665Y-94494951D02*
X83489284Y-95102093D01*
X83489284Y-95102093D02*
X84015475Y-95102093D01*
X84501189Y-94535427D02*
X84582142Y-94535427D01*
X84582142Y-94535427D02*
X84663094Y-94575903D01*
X84663094Y-94575903D02*
X84703570Y-94616379D01*
X84703570Y-94616379D02*
X84744046Y-94697331D01*
X84744046Y-94697331D02*
X84784523Y-94859236D01*
X84784523Y-94859236D02*
X84784523Y-95061617D01*
X84784523Y-95061617D02*
X84744046Y-95223522D01*
X84744046Y-95223522D02*
X84703570Y-95304474D01*
X84703570Y-95304474D02*
X84663094Y-95344951D01*
X84663094Y-95344951D02*
X84582142Y-95385427D01*
X84582142Y-95385427D02*
X84501189Y-95385427D01*
X84501189Y-95385427D02*
X84420237Y-95344951D01*
X84420237Y-95344951D02*
X84379761Y-95304474D01*
X84379761Y-95304474D02*
X84339284Y-95223522D01*
X84339284Y-95223522D02*
X84298808Y-95061617D01*
X84298808Y-95061617D02*
X84298808Y-94859236D01*
X84298808Y-94859236D02*
X84339284Y-94697331D01*
X84339284Y-94697331D02*
X84379761Y-94616379D01*
X84379761Y-94616379D02*
X84420237Y-94575903D01*
X84420237Y-94575903D02*
X84501189Y-94535427D01*
X85189285Y-95385427D02*
X85351189Y-95385427D01*
X85351189Y-95385427D02*
X85432142Y-95344951D01*
X85432142Y-95344951D02*
X85472618Y-95304474D01*
X85472618Y-95304474D02*
X85553570Y-95183046D01*
X85553570Y-95183046D02*
X85594047Y-95021141D01*
X85594047Y-95021141D02*
X85594047Y-94697331D01*
X85594047Y-94697331D02*
X85553570Y-94616379D01*
X85553570Y-94616379D02*
X85513094Y-94575903D01*
X85513094Y-94575903D02*
X85432142Y-94535427D01*
X85432142Y-94535427D02*
X85270237Y-94535427D01*
X85270237Y-94535427D02*
X85189285Y-94575903D01*
X85189285Y-94575903D02*
X85148808Y-94616379D01*
X85148808Y-94616379D02*
X85108332Y-94697331D01*
X85108332Y-94697331D02*
X85108332Y-94899712D01*
X85108332Y-94899712D02*
X85148808Y-94980665D01*
X85148808Y-94980665D02*
X85189285Y-95021141D01*
X85189285Y-95021141D02*
X85270237Y-95061617D01*
X85270237Y-95061617D02*
X85432142Y-95061617D01*
X85432142Y-95061617D02*
X85513094Y-95021141D01*
X85513094Y-95021141D02*
X85553570Y-94980665D01*
X85553570Y-94980665D02*
X85594047Y-94899712D01*
X86403571Y-95385427D02*
X85917856Y-95385427D01*
X86160713Y-95385427D02*
X86160713Y-94535427D01*
X86160713Y-94535427D02*
X86079761Y-94656855D01*
X86079761Y-94656855D02*
X85998809Y-94737808D01*
X85998809Y-94737808D02*
X85917856Y-94778284D01*
X76851191Y-97535427D02*
X76446429Y-97535427D01*
X76446429Y-97535427D02*
X76405953Y-97940189D01*
X76405953Y-97940189D02*
X76446429Y-97899712D01*
X76446429Y-97899712D02*
X76527382Y-97859236D01*
X76527382Y-97859236D02*
X76729763Y-97859236D01*
X76729763Y-97859236D02*
X76810715Y-97899712D01*
X76810715Y-97899712D02*
X76851191Y-97940189D01*
X76851191Y-97940189D02*
X76891668Y-98021141D01*
X76891668Y-98021141D02*
X76891668Y-98223522D01*
X76891668Y-98223522D02*
X76851191Y-98304474D01*
X76851191Y-98304474D02*
X76810715Y-98344951D01*
X76810715Y-98344951D02*
X76729763Y-98385427D01*
X76729763Y-98385427D02*
X76527382Y-98385427D01*
X76527382Y-98385427D02*
X76446429Y-98344951D01*
X76446429Y-98344951D02*
X76405953Y-98304474D01*
X77134525Y-97535427D02*
X77417858Y-98385427D01*
X77417858Y-98385427D02*
X77701192Y-97535427D01*
X79239286Y-97494951D02*
X78510715Y-98587808D01*
X80575000Y-97535427D02*
X80170238Y-97535427D01*
X80170238Y-97535427D02*
X80129762Y-97940189D01*
X80129762Y-97940189D02*
X80170238Y-97899712D01*
X80170238Y-97899712D02*
X80251191Y-97859236D01*
X80251191Y-97859236D02*
X80453572Y-97859236D01*
X80453572Y-97859236D02*
X80534524Y-97899712D01*
X80534524Y-97899712D02*
X80575000Y-97940189D01*
X80575000Y-97940189D02*
X80615477Y-98021141D01*
X80615477Y-98021141D02*
X80615477Y-98223522D01*
X80615477Y-98223522D02*
X80575000Y-98304474D01*
X80575000Y-98304474D02*
X80534524Y-98344951D01*
X80534524Y-98344951D02*
X80453572Y-98385427D01*
X80453572Y-98385427D02*
X80251191Y-98385427D01*
X80251191Y-98385427D02*
X80170238Y-98344951D01*
X80170238Y-98344951D02*
X80129762Y-98304474D01*
X80939286Y-98142570D02*
X81344048Y-98142570D01*
X80858334Y-98385427D02*
X81141667Y-97535427D01*
X81141667Y-97535427D02*
X81425001Y-98385427D01*
X82234524Y-97535427D02*
X82720238Y-97535427D01*
X82477381Y-98385427D02*
X82477381Y-97535427D01*
X83165476Y-97535427D02*
X83327381Y-97535427D01*
X83327381Y-97535427D02*
X83408333Y-97575903D01*
X83408333Y-97575903D02*
X83489286Y-97656855D01*
X83489286Y-97656855D02*
X83529762Y-97818760D01*
X83529762Y-97818760D02*
X83529762Y-98102093D01*
X83529762Y-98102093D02*
X83489286Y-98263998D01*
X83489286Y-98263998D02*
X83408333Y-98344951D01*
X83408333Y-98344951D02*
X83327381Y-98385427D01*
X83327381Y-98385427D02*
X83165476Y-98385427D01*
X83165476Y-98385427D02*
X83084524Y-98344951D01*
X83084524Y-98344951D02*
X83003571Y-98263998D01*
X83003571Y-98263998D02*
X82963095Y-98102093D01*
X82963095Y-98102093D02*
X82963095Y-97818760D01*
X82963095Y-97818760D02*
X83003571Y-97656855D01*
X83003571Y-97656855D02*
X83084524Y-97575903D01*
X83084524Y-97575903D02*
X83165476Y-97535427D01*
X83772619Y-97535427D02*
X84258333Y-97535427D01*
X84015476Y-98385427D02*
X84015476Y-97535427D01*
X84501190Y-98142570D02*
X84905952Y-98142570D01*
X84420238Y-98385427D02*
X84703571Y-97535427D01*
X84703571Y-97535427D02*
X84986905Y-98385427D01*
X85674999Y-98385427D02*
X85270237Y-98385427D01*
X85270237Y-98385427D02*
X85270237Y-97535427D01*
X28621429Y-46508557D02*
X28621429Y-47151414D01*
X28621429Y-47151414D02*
X28578572Y-47279985D01*
X28578572Y-47279985D02*
X28492858Y-47365700D01*
X28492858Y-47365700D02*
X28364286Y-47408557D01*
X28364286Y-47408557D02*
X28278572Y-47408557D01*
X28964286Y-46508557D02*
X29521429Y-46508557D01*
X29521429Y-46508557D02*
X29221429Y-46851414D01*
X29221429Y-46851414D02*
X29350000Y-46851414D01*
X29350000Y-46851414D02*
X29435715Y-46894271D01*
X29435715Y-46894271D02*
X29478572Y-46937128D01*
X29478572Y-46937128D02*
X29521429Y-47022842D01*
X29521429Y-47022842D02*
X29521429Y-47237128D01*
X29521429Y-47237128D02*
X29478572Y-47322842D01*
X29478572Y-47322842D02*
X29435715Y-47365700D01*
X29435715Y-47365700D02*
X29350000Y-47408557D01*
X29350000Y-47408557D02*
X29092857Y-47408557D01*
X29092857Y-47408557D02*
X29007143Y-47365700D01*
X29007143Y-47365700D02*
X28964286Y-47322842D01*
X30764286Y-46508557D02*
X30935714Y-46508557D01*
X30935714Y-46508557D02*
X31021429Y-46551414D01*
X31021429Y-46551414D02*
X31107143Y-46637128D01*
X31107143Y-46637128D02*
X31150000Y-46808557D01*
X31150000Y-46808557D02*
X31150000Y-47108557D01*
X31150000Y-47108557D02*
X31107143Y-47279985D01*
X31107143Y-47279985D02*
X31021429Y-47365700D01*
X31021429Y-47365700D02*
X30935714Y-47408557D01*
X30935714Y-47408557D02*
X30764286Y-47408557D01*
X30764286Y-47408557D02*
X30678572Y-47365700D01*
X30678572Y-47365700D02*
X30592857Y-47279985D01*
X30592857Y-47279985D02*
X30550000Y-47108557D01*
X30550000Y-47108557D02*
X30550000Y-46808557D01*
X30550000Y-46808557D02*
X30592857Y-46637128D01*
X30592857Y-46637128D02*
X30678572Y-46551414D01*
X30678572Y-46551414D02*
X30764286Y-46508557D01*
X31535714Y-47408557D02*
X31535714Y-46508557D01*
X31535714Y-46508557D02*
X31878571Y-46508557D01*
X31878571Y-46508557D02*
X31964286Y-46551414D01*
X31964286Y-46551414D02*
X32007143Y-46594271D01*
X32007143Y-46594271D02*
X32050000Y-46679985D01*
X32050000Y-46679985D02*
X32050000Y-46808557D01*
X32050000Y-46808557D02*
X32007143Y-46894271D01*
X32007143Y-46894271D02*
X31964286Y-46937128D01*
X31964286Y-46937128D02*
X31878571Y-46979985D01*
X31878571Y-46979985D02*
X31535714Y-46979985D01*
X32307143Y-46508557D02*
X32821429Y-46508557D01*
X32564286Y-47408557D02*
X32564286Y-46508557D01*
X33292857Y-46508557D02*
X33464285Y-46508557D01*
X33464285Y-46508557D02*
X33550000Y-46551414D01*
X33550000Y-46551414D02*
X33635714Y-46637128D01*
X33635714Y-46637128D02*
X33678571Y-46808557D01*
X33678571Y-46808557D02*
X33678571Y-47108557D01*
X33678571Y-47108557D02*
X33635714Y-47279985D01*
X33635714Y-47279985D02*
X33550000Y-47365700D01*
X33550000Y-47365700D02*
X33464285Y-47408557D01*
X33464285Y-47408557D02*
X33292857Y-47408557D01*
X33292857Y-47408557D02*
X33207143Y-47365700D01*
X33207143Y-47365700D02*
X33121428Y-47279985D01*
X33121428Y-47279985D02*
X33078571Y-47108557D01*
X33078571Y-47108557D02*
X33078571Y-46808557D01*
X33078571Y-46808557D02*
X33121428Y-46637128D01*
X33121428Y-46637128D02*
X33207143Y-46551414D01*
X33207143Y-46551414D02*
X33292857Y-46508557D01*
X29685714Y-79408557D02*
X29685714Y-78508557D01*
X29685714Y-78508557D02*
X30200000Y-79408557D01*
X30200000Y-79408557D02*
X30200000Y-78508557D01*
X30800000Y-78508557D02*
X30971428Y-78508557D01*
X30971428Y-78508557D02*
X31057143Y-78551414D01*
X31057143Y-78551414D02*
X31142857Y-78637128D01*
X31142857Y-78637128D02*
X31185714Y-78808557D01*
X31185714Y-78808557D02*
X31185714Y-79108557D01*
X31185714Y-79108557D02*
X31142857Y-79279985D01*
X31142857Y-79279985D02*
X31057143Y-79365700D01*
X31057143Y-79365700D02*
X30971428Y-79408557D01*
X30971428Y-79408557D02*
X30800000Y-79408557D01*
X30800000Y-79408557D02*
X30714286Y-79365700D01*
X30714286Y-79365700D02*
X30628571Y-79279985D01*
X30628571Y-79279985D02*
X30585714Y-79108557D01*
X30585714Y-79108557D02*
X30585714Y-78808557D01*
X30585714Y-78808557D02*
X30628571Y-78637128D01*
X30628571Y-78637128D02*
X30714286Y-78551414D01*
X30714286Y-78551414D02*
X30800000Y-78508557D01*
X32728571Y-79408557D02*
X32214285Y-79408557D01*
X32471428Y-79408557D02*
X32471428Y-78508557D01*
X32471428Y-78508557D02*
X32385714Y-78637128D01*
X32385714Y-78637128D02*
X32299999Y-78722842D01*
X32299999Y-78722842D02*
X32214285Y-78765700D01*
X33071428Y-78594271D02*
X33114285Y-78551414D01*
X33114285Y-78551414D02*
X33200000Y-78508557D01*
X33200000Y-78508557D02*
X33414285Y-78508557D01*
X33414285Y-78508557D02*
X33500000Y-78551414D01*
X33500000Y-78551414D02*
X33542857Y-78594271D01*
X33542857Y-78594271D02*
X33585714Y-78679985D01*
X33585714Y-78679985D02*
X33585714Y-78765700D01*
X33585714Y-78765700D02*
X33542857Y-78894271D01*
X33542857Y-78894271D02*
X33028571Y-79408557D01*
X33028571Y-79408557D02*
X33585714Y-79408557D01*
X33842857Y-78508557D02*
X34142857Y-79408557D01*
X34142857Y-79408557D02*
X34442857Y-78508557D01*
X27742857Y-120508557D02*
X27742857Y-121151414D01*
X27742857Y-121151414D02*
X27700000Y-121279985D01*
X27700000Y-121279985D02*
X27614286Y-121365700D01*
X27614286Y-121365700D02*
X27485714Y-121408557D01*
X27485714Y-121408557D02*
X27400000Y-121408557D01*
X28642857Y-121408557D02*
X28128571Y-121408557D01*
X28385714Y-121408557D02*
X28385714Y-120508557D01*
X28385714Y-120508557D02*
X28300000Y-120637128D01*
X28300000Y-120637128D02*
X28214285Y-120722842D01*
X28214285Y-120722842D02*
X28128571Y-120765700D01*
X30399999Y-121065700D02*
X31085714Y-121065700D01*
X30742856Y-121408557D02*
X30742856Y-120722842D01*
X31985714Y-121408557D02*
X31471428Y-121408557D01*
X31728571Y-121408557D02*
X31728571Y-120508557D01*
X31728571Y-120508557D02*
X31642857Y-120637128D01*
X31642857Y-120637128D02*
X31557142Y-120722842D01*
X31557142Y-120722842D02*
X31471428Y-120765700D01*
X32542857Y-120508557D02*
X32628571Y-120508557D01*
X32628571Y-120508557D02*
X32714285Y-120551414D01*
X32714285Y-120551414D02*
X32757143Y-120594271D01*
X32757143Y-120594271D02*
X32800000Y-120679985D01*
X32800000Y-120679985D02*
X32842857Y-120851414D01*
X32842857Y-120851414D02*
X32842857Y-121065700D01*
X32842857Y-121065700D02*
X32800000Y-121237128D01*
X32800000Y-121237128D02*
X32757143Y-121322842D01*
X32757143Y-121322842D02*
X32714285Y-121365700D01*
X32714285Y-121365700D02*
X32628571Y-121408557D01*
X32628571Y-121408557D02*
X32542857Y-121408557D01*
X32542857Y-121408557D02*
X32457143Y-121365700D01*
X32457143Y-121365700D02*
X32414285Y-121322842D01*
X32414285Y-121322842D02*
X32371428Y-121237128D01*
X32371428Y-121237128D02*
X32328571Y-121065700D01*
X32328571Y-121065700D02*
X32328571Y-120851414D01*
X32328571Y-120851414D02*
X32371428Y-120679985D01*
X32371428Y-120679985D02*
X32414285Y-120594271D01*
X32414285Y-120594271D02*
X32457143Y-120551414D01*
X32457143Y-120551414D02*
X32542857Y-120508557D01*
X33228571Y-121065700D02*
X33914286Y-121065700D01*
X34300000Y-120594271D02*
X34342857Y-120551414D01*
X34342857Y-120551414D02*
X34428572Y-120508557D01*
X34428572Y-120508557D02*
X34642857Y-120508557D01*
X34642857Y-120508557D02*
X34728572Y-120551414D01*
X34728572Y-120551414D02*
X34771429Y-120594271D01*
X34771429Y-120594271D02*
X34814286Y-120679985D01*
X34814286Y-120679985D02*
X34814286Y-120765700D01*
X34814286Y-120765700D02*
X34771429Y-120894271D01*
X34771429Y-120894271D02*
X34257143Y-121408557D01*
X34257143Y-121408557D02*
X34814286Y-121408557D01*
X35371429Y-120508557D02*
X35457143Y-120508557D01*
X35457143Y-120508557D02*
X35542857Y-120551414D01*
X35542857Y-120551414D02*
X35585715Y-120594271D01*
X35585715Y-120594271D02*
X35628572Y-120679985D01*
X35628572Y-120679985D02*
X35671429Y-120851414D01*
X35671429Y-120851414D02*
X35671429Y-121065700D01*
X35671429Y-121065700D02*
X35628572Y-121237128D01*
X35628572Y-121237128D02*
X35585715Y-121322842D01*
X35585715Y-121322842D02*
X35542857Y-121365700D01*
X35542857Y-121365700D02*
X35457143Y-121408557D01*
X35457143Y-121408557D02*
X35371429Y-121408557D01*
X35371429Y-121408557D02*
X35285715Y-121365700D01*
X35285715Y-121365700D02*
X35242857Y-121322842D01*
X35242857Y-121322842D02*
X35200000Y-121237128D01*
X35200000Y-121237128D02*
X35157143Y-121065700D01*
X35157143Y-121065700D02*
X35157143Y-120851414D01*
X35157143Y-120851414D02*
X35200000Y-120679985D01*
X35200000Y-120679985D02*
X35242857Y-120594271D01*
X35242857Y-120594271D02*
X35285715Y-120551414D01*
X35285715Y-120551414D02*
X35371429Y-120508557D01*
X35928572Y-120508557D02*
X36228572Y-121408557D01*
X36228572Y-121408557D02*
X36528572Y-120508557D01*
X38671429Y-120551414D02*
X38585715Y-120508557D01*
X38585715Y-120508557D02*
X38457143Y-120508557D01*
X38457143Y-120508557D02*
X38328572Y-120551414D01*
X38328572Y-120551414D02*
X38242857Y-120637128D01*
X38242857Y-120637128D02*
X38200000Y-120722842D01*
X38200000Y-120722842D02*
X38157143Y-120894271D01*
X38157143Y-120894271D02*
X38157143Y-121022842D01*
X38157143Y-121022842D02*
X38200000Y-121194271D01*
X38200000Y-121194271D02*
X38242857Y-121279985D01*
X38242857Y-121279985D02*
X38328572Y-121365700D01*
X38328572Y-121365700D02*
X38457143Y-121408557D01*
X38457143Y-121408557D02*
X38542857Y-121408557D01*
X38542857Y-121408557D02*
X38671429Y-121365700D01*
X38671429Y-121365700D02*
X38714286Y-121322842D01*
X38714286Y-121322842D02*
X38714286Y-121022842D01*
X38714286Y-121022842D02*
X38542857Y-121022842D01*
X39100000Y-121408557D02*
X39100000Y-120508557D01*
X39100000Y-120508557D02*
X39614286Y-121408557D01*
X39614286Y-121408557D02*
X39614286Y-120508557D01*
X40042857Y-121408557D02*
X40042857Y-120508557D01*
X40042857Y-120508557D02*
X40257143Y-120508557D01*
X40257143Y-120508557D02*
X40385714Y-120551414D01*
X40385714Y-120551414D02*
X40471429Y-120637128D01*
X40471429Y-120637128D02*
X40514286Y-120722842D01*
X40514286Y-120722842D02*
X40557143Y-120894271D01*
X40557143Y-120894271D02*
X40557143Y-121022842D01*
X40557143Y-121022842D02*
X40514286Y-121194271D01*
X40514286Y-121194271D02*
X40471429Y-121279985D01*
X40471429Y-121279985D02*
X40385714Y-121365700D01*
X40385714Y-121365700D02*
X40257143Y-121408557D01*
X40257143Y-121408557D02*
X40042857Y-121408557D01*
X39800000Y-95508557D02*
X39371428Y-95508557D01*
X39371428Y-95508557D02*
X39328571Y-95937128D01*
X39328571Y-95937128D02*
X39371428Y-95894271D01*
X39371428Y-95894271D02*
X39457143Y-95851414D01*
X39457143Y-95851414D02*
X39671428Y-95851414D01*
X39671428Y-95851414D02*
X39757143Y-95894271D01*
X39757143Y-95894271D02*
X39800000Y-95937128D01*
X39800000Y-95937128D02*
X39842857Y-96022842D01*
X39842857Y-96022842D02*
X39842857Y-96237128D01*
X39842857Y-96237128D02*
X39800000Y-96322842D01*
X39800000Y-96322842D02*
X39757143Y-96365700D01*
X39757143Y-96365700D02*
X39671428Y-96408557D01*
X39671428Y-96408557D02*
X39457143Y-96408557D01*
X39457143Y-96408557D02*
X39371428Y-96365700D01*
X39371428Y-96365700D02*
X39328571Y-96322842D01*
X40185714Y-96151414D02*
X40614286Y-96151414D01*
X40100000Y-96408557D02*
X40400000Y-95508557D01*
X40400000Y-95508557D02*
X40700000Y-96408557D01*
X41685714Y-96408557D02*
X41685714Y-95508557D01*
X42114285Y-96408557D02*
X42114285Y-95508557D01*
X42114285Y-95508557D02*
X42628571Y-96408557D01*
X42628571Y-96408557D02*
X42628571Y-95508557D01*
X53785714Y-22508557D02*
X53785714Y-23237128D01*
X53785714Y-23237128D02*
X53828571Y-23322842D01*
X53828571Y-23322842D02*
X53871429Y-23365700D01*
X53871429Y-23365700D02*
X53957143Y-23408557D01*
X53957143Y-23408557D02*
X54128571Y-23408557D01*
X54128571Y-23408557D02*
X54214286Y-23365700D01*
X54214286Y-23365700D02*
X54257143Y-23322842D01*
X54257143Y-23322842D02*
X54300000Y-23237128D01*
X54300000Y-23237128D02*
X54300000Y-22508557D01*
X54685714Y-23365700D02*
X54814286Y-23408557D01*
X54814286Y-23408557D02*
X55028571Y-23408557D01*
X55028571Y-23408557D02*
X55114286Y-23365700D01*
X55114286Y-23365700D02*
X55157143Y-23322842D01*
X55157143Y-23322842D02*
X55200000Y-23237128D01*
X55200000Y-23237128D02*
X55200000Y-23151414D01*
X55200000Y-23151414D02*
X55157143Y-23065700D01*
X55157143Y-23065700D02*
X55114286Y-23022842D01*
X55114286Y-23022842D02*
X55028571Y-22979985D01*
X55028571Y-22979985D02*
X54857143Y-22937128D01*
X54857143Y-22937128D02*
X54771428Y-22894271D01*
X54771428Y-22894271D02*
X54728571Y-22851414D01*
X54728571Y-22851414D02*
X54685714Y-22765700D01*
X54685714Y-22765700D02*
X54685714Y-22679985D01*
X54685714Y-22679985D02*
X54728571Y-22594271D01*
X54728571Y-22594271D02*
X54771428Y-22551414D01*
X54771428Y-22551414D02*
X54857143Y-22508557D01*
X54857143Y-22508557D02*
X55071428Y-22508557D01*
X55071428Y-22508557D02*
X55200000Y-22551414D01*
X55885714Y-22937128D02*
X56014286Y-22979985D01*
X56014286Y-22979985D02*
X56057143Y-23022842D01*
X56057143Y-23022842D02*
X56100000Y-23108557D01*
X56100000Y-23108557D02*
X56100000Y-23237128D01*
X56100000Y-23237128D02*
X56057143Y-23322842D01*
X56057143Y-23322842D02*
X56014286Y-23365700D01*
X56014286Y-23365700D02*
X55928571Y-23408557D01*
X55928571Y-23408557D02*
X55585714Y-23408557D01*
X55585714Y-23408557D02*
X55585714Y-22508557D01*
X55585714Y-22508557D02*
X55885714Y-22508557D01*
X55885714Y-22508557D02*
X55971429Y-22551414D01*
X55971429Y-22551414D02*
X56014286Y-22594271D01*
X56014286Y-22594271D02*
X56057143Y-22679985D01*
X56057143Y-22679985D02*
X56057143Y-22765700D01*
X56057143Y-22765700D02*
X56014286Y-22851414D01*
X56014286Y-22851414D02*
X55971429Y-22894271D01*
X55971429Y-22894271D02*
X55885714Y-22937128D01*
X55885714Y-22937128D02*
X55585714Y-22937128D01*
X56485714Y-23322842D02*
X56528571Y-23365700D01*
X56528571Y-23365700D02*
X56485714Y-23408557D01*
X56485714Y-23408557D02*
X56442857Y-23365700D01*
X56442857Y-23365700D02*
X56485714Y-23322842D01*
X56485714Y-23322842D02*
X56485714Y-23408557D01*
X56485714Y-22851414D02*
X56528571Y-22894271D01*
X56528571Y-22894271D02*
X56485714Y-22937128D01*
X56485714Y-22937128D02*
X56442857Y-22894271D01*
X56442857Y-22894271D02*
X56485714Y-22851414D01*
X56485714Y-22851414D02*
X56485714Y-22937128D01*
X58114285Y-23322842D02*
X58071428Y-23365700D01*
X58071428Y-23365700D02*
X57942856Y-23408557D01*
X57942856Y-23408557D02*
X57857142Y-23408557D01*
X57857142Y-23408557D02*
X57728571Y-23365700D01*
X57728571Y-23365700D02*
X57642856Y-23279985D01*
X57642856Y-23279985D02*
X57599999Y-23194271D01*
X57599999Y-23194271D02*
X57557142Y-23022842D01*
X57557142Y-23022842D02*
X57557142Y-22894271D01*
X57557142Y-22894271D02*
X57599999Y-22722842D01*
X57599999Y-22722842D02*
X57642856Y-22637128D01*
X57642856Y-22637128D02*
X57728571Y-22551414D01*
X57728571Y-22551414D02*
X57857142Y-22508557D01*
X57857142Y-22508557D02*
X57942856Y-22508557D01*
X57942856Y-22508557D02*
X58071428Y-22551414D01*
X58071428Y-22551414D02*
X58114285Y-22594271D01*
X58499999Y-22508557D02*
X58499999Y-23237128D01*
X58499999Y-23237128D02*
X58542856Y-23322842D01*
X58542856Y-23322842D02*
X58585714Y-23365700D01*
X58585714Y-23365700D02*
X58671428Y-23408557D01*
X58671428Y-23408557D02*
X58842856Y-23408557D01*
X58842856Y-23408557D02*
X58928571Y-23365700D01*
X58928571Y-23365700D02*
X58971428Y-23322842D01*
X58971428Y-23322842D02*
X59014285Y-23237128D01*
X59014285Y-23237128D02*
X59014285Y-22508557D01*
X59314285Y-22508557D02*
X59828571Y-22508557D01*
X59571428Y-23408557D02*
X59571428Y-22508557D01*
X60685713Y-22508557D02*
X61199999Y-22508557D01*
X60942856Y-23408557D02*
X60942856Y-22508557D01*
X61499998Y-22937128D02*
X61799998Y-22937128D01*
X61928570Y-23408557D02*
X61499998Y-23408557D01*
X61499998Y-23408557D02*
X61499998Y-22508557D01*
X61499998Y-22508557D02*
X61928570Y-22508557D01*
X62314284Y-22937128D02*
X62614284Y-22937128D01*
X62742856Y-23408557D02*
X62314284Y-23408557D01*
X62314284Y-23408557D02*
X62314284Y-22508557D01*
X62314284Y-22508557D02*
X62742856Y-22508557D01*
X63128570Y-23408557D02*
X63128570Y-22508557D01*
X63128570Y-22508557D02*
X63642856Y-23408557D01*
X63642856Y-23408557D02*
X63642856Y-22508557D01*
X64028570Y-23365700D02*
X64157142Y-23408557D01*
X64157142Y-23408557D02*
X64371427Y-23408557D01*
X64371427Y-23408557D02*
X64457142Y-23365700D01*
X64457142Y-23365700D02*
X64499999Y-23322842D01*
X64499999Y-23322842D02*
X64542856Y-23237128D01*
X64542856Y-23237128D02*
X64542856Y-23151414D01*
X64542856Y-23151414D02*
X64499999Y-23065700D01*
X64499999Y-23065700D02*
X64457142Y-23022842D01*
X64457142Y-23022842D02*
X64371427Y-22979985D01*
X64371427Y-22979985D02*
X64199999Y-22937128D01*
X64199999Y-22937128D02*
X64114284Y-22894271D01*
X64114284Y-22894271D02*
X64071427Y-22851414D01*
X64071427Y-22851414D02*
X64028570Y-22765700D01*
X64028570Y-22765700D02*
X64028570Y-22679985D01*
X64028570Y-22679985D02*
X64071427Y-22594271D01*
X64071427Y-22594271D02*
X64114284Y-22551414D01*
X64114284Y-22551414D02*
X64199999Y-22508557D01*
X64199999Y-22508557D02*
X64414284Y-22508557D01*
X64414284Y-22508557D02*
X64542856Y-22551414D01*
X65099999Y-22979985D02*
X65099999Y-23408557D01*
X64799999Y-22508557D02*
X65099999Y-22979985D01*
X65099999Y-22979985D02*
X65399999Y-22508557D01*
X66257142Y-22508557D02*
X66557142Y-23408557D01*
X66557142Y-23408557D02*
X66857142Y-22508557D01*
X67157142Y-22508557D02*
X67157142Y-23237128D01*
X67157142Y-23237128D02*
X67199999Y-23322842D01*
X67199999Y-23322842D02*
X67242857Y-23365700D01*
X67242857Y-23365700D02*
X67328571Y-23408557D01*
X67328571Y-23408557D02*
X67499999Y-23408557D01*
X67499999Y-23408557D02*
X67585714Y-23365700D01*
X67585714Y-23365700D02*
X67628571Y-23322842D01*
X67628571Y-23322842D02*
X67671428Y-23237128D01*
X67671428Y-23237128D02*
X67671428Y-22508557D01*
X68057142Y-23365700D02*
X68185714Y-23408557D01*
X68185714Y-23408557D02*
X68399999Y-23408557D01*
X68399999Y-23408557D02*
X68485714Y-23365700D01*
X68485714Y-23365700D02*
X68528571Y-23322842D01*
X68528571Y-23322842D02*
X68571428Y-23237128D01*
X68571428Y-23237128D02*
X68571428Y-23151414D01*
X68571428Y-23151414D02*
X68528571Y-23065700D01*
X68528571Y-23065700D02*
X68485714Y-23022842D01*
X68485714Y-23022842D02*
X68399999Y-22979985D01*
X68399999Y-22979985D02*
X68228571Y-22937128D01*
X68228571Y-22937128D02*
X68142856Y-22894271D01*
X68142856Y-22894271D02*
X68099999Y-22851414D01*
X68099999Y-22851414D02*
X68057142Y-22765700D01*
X68057142Y-22765700D02*
X68057142Y-22679985D01*
X68057142Y-22679985D02*
X68099999Y-22594271D01*
X68099999Y-22594271D02*
X68142856Y-22551414D01*
X68142856Y-22551414D02*
X68228571Y-22508557D01*
X68228571Y-22508557D02*
X68442856Y-22508557D01*
X68442856Y-22508557D02*
X68571428Y-22551414D01*
X69257142Y-22937128D02*
X69385714Y-22979985D01*
X69385714Y-22979985D02*
X69428571Y-23022842D01*
X69428571Y-23022842D02*
X69471428Y-23108557D01*
X69471428Y-23108557D02*
X69471428Y-23237128D01*
X69471428Y-23237128D02*
X69428571Y-23322842D01*
X69428571Y-23322842D02*
X69385714Y-23365700D01*
X69385714Y-23365700D02*
X69299999Y-23408557D01*
X69299999Y-23408557D02*
X68957142Y-23408557D01*
X68957142Y-23408557D02*
X68957142Y-22508557D01*
X68957142Y-22508557D02*
X69257142Y-22508557D01*
X69257142Y-22508557D02*
X69342857Y-22551414D01*
X69342857Y-22551414D02*
X69385714Y-22594271D01*
X69385714Y-22594271D02*
X69428571Y-22679985D01*
X69428571Y-22679985D02*
X69428571Y-22765700D01*
X69428571Y-22765700D02*
X69385714Y-22851414D01*
X69385714Y-22851414D02*
X69342857Y-22894271D01*
X69342857Y-22894271D02*
X69257142Y-22937128D01*
X69257142Y-22937128D02*
X68957142Y-22937128D01*
X69857142Y-23065700D02*
X70542857Y-23065700D01*
X70842857Y-22508557D02*
X71142857Y-23408557D01*
X71142857Y-23408557D02*
X71442857Y-22508557D01*
X71742857Y-23408557D02*
X71742857Y-22508557D01*
X72171428Y-23408557D02*
X72171428Y-22508557D01*
X72171428Y-22508557D02*
X72685714Y-23408557D01*
X72685714Y-23408557D02*
X72685714Y-22508557D01*
X74099999Y-22937128D02*
X74228571Y-22979985D01*
X74228571Y-22979985D02*
X74271428Y-23022842D01*
X74271428Y-23022842D02*
X74314285Y-23108557D01*
X74314285Y-23108557D02*
X74314285Y-23237128D01*
X74314285Y-23237128D02*
X74271428Y-23322842D01*
X74271428Y-23322842D02*
X74228571Y-23365700D01*
X74228571Y-23365700D02*
X74142856Y-23408557D01*
X74142856Y-23408557D02*
X73799999Y-23408557D01*
X73799999Y-23408557D02*
X73799999Y-22508557D01*
X73799999Y-22508557D02*
X74099999Y-22508557D01*
X74099999Y-22508557D02*
X74185714Y-22551414D01*
X74185714Y-22551414D02*
X74228571Y-22594271D01*
X74228571Y-22594271D02*
X74271428Y-22679985D01*
X74271428Y-22679985D02*
X74271428Y-22765700D01*
X74271428Y-22765700D02*
X74228571Y-22851414D01*
X74228571Y-22851414D02*
X74185714Y-22894271D01*
X74185714Y-22894271D02*
X74099999Y-22937128D01*
X74099999Y-22937128D02*
X73799999Y-22937128D01*
X75214285Y-23408557D02*
X74914285Y-22979985D01*
X74699999Y-23408557D02*
X74699999Y-22508557D01*
X74699999Y-22508557D02*
X75042856Y-22508557D01*
X75042856Y-22508557D02*
X75128571Y-22551414D01*
X75128571Y-22551414D02*
X75171428Y-22594271D01*
X75171428Y-22594271D02*
X75214285Y-22679985D01*
X75214285Y-22679985D02*
X75214285Y-22808557D01*
X75214285Y-22808557D02*
X75171428Y-22894271D01*
X75171428Y-22894271D02*
X75128571Y-22937128D01*
X75128571Y-22937128D02*
X75042856Y-22979985D01*
X75042856Y-22979985D02*
X74699999Y-22979985D01*
X75599999Y-23408557D02*
X75599999Y-22508557D01*
X76028570Y-23408557D02*
X76028570Y-22508557D01*
X76028570Y-22508557D02*
X76242856Y-22508557D01*
X76242856Y-22508557D02*
X76371427Y-22551414D01*
X76371427Y-22551414D02*
X76457142Y-22637128D01*
X76457142Y-22637128D02*
X76499999Y-22722842D01*
X76499999Y-22722842D02*
X76542856Y-22894271D01*
X76542856Y-22894271D02*
X76542856Y-23022842D01*
X76542856Y-23022842D02*
X76499999Y-23194271D01*
X76499999Y-23194271D02*
X76457142Y-23279985D01*
X76457142Y-23279985D02*
X76371427Y-23365700D01*
X76371427Y-23365700D02*
X76242856Y-23408557D01*
X76242856Y-23408557D02*
X76028570Y-23408557D01*
X77399999Y-22551414D02*
X77314285Y-22508557D01*
X77314285Y-22508557D02*
X77185713Y-22508557D01*
X77185713Y-22508557D02*
X77057142Y-22551414D01*
X77057142Y-22551414D02*
X76971427Y-22637128D01*
X76971427Y-22637128D02*
X76928570Y-22722842D01*
X76928570Y-22722842D02*
X76885713Y-22894271D01*
X76885713Y-22894271D02*
X76885713Y-23022842D01*
X76885713Y-23022842D02*
X76928570Y-23194271D01*
X76928570Y-23194271D02*
X76971427Y-23279985D01*
X76971427Y-23279985D02*
X77057142Y-23365700D01*
X77057142Y-23365700D02*
X77185713Y-23408557D01*
X77185713Y-23408557D02*
X77271427Y-23408557D01*
X77271427Y-23408557D02*
X77399999Y-23365700D01*
X77399999Y-23365700D02*
X77442856Y-23322842D01*
X77442856Y-23322842D02*
X77442856Y-23022842D01*
X77442856Y-23022842D02*
X77271427Y-23022842D01*
X77828570Y-22937128D02*
X78128570Y-22937128D01*
X78257142Y-23408557D02*
X77828570Y-23408557D01*
X77828570Y-23408557D02*
X77828570Y-22508557D01*
X77828570Y-22508557D02*
X78257142Y-22508557D01*
X77714286Y-37508557D02*
X77714286Y-38151414D01*
X77714286Y-38151414D02*
X77671429Y-38279985D01*
X77671429Y-38279985D02*
X77585715Y-38365700D01*
X77585715Y-38365700D02*
X77457143Y-38408557D01*
X77457143Y-38408557D02*
X77371429Y-38408557D01*
X78142857Y-38408557D02*
X78142857Y-37508557D01*
X78142857Y-37508557D02*
X78485714Y-37508557D01*
X78485714Y-37508557D02*
X78571429Y-37551414D01*
X78571429Y-37551414D02*
X78614286Y-37594271D01*
X78614286Y-37594271D02*
X78657143Y-37679985D01*
X78657143Y-37679985D02*
X78657143Y-37808557D01*
X78657143Y-37808557D02*
X78614286Y-37894271D01*
X78614286Y-37894271D02*
X78571429Y-37937128D01*
X78571429Y-37937128D02*
X78485714Y-37979985D01*
X78485714Y-37979985D02*
X78142857Y-37979985D01*
X79514286Y-38408557D02*
X79000000Y-38408557D01*
X79257143Y-38408557D02*
X79257143Y-37508557D01*
X79257143Y-37508557D02*
X79171429Y-37637128D01*
X79171429Y-37637128D02*
X79085714Y-37722842D01*
X79085714Y-37722842D02*
X79000000Y-37765700D01*
X80585714Y-38408557D02*
X80585714Y-37508557D01*
X80585714Y-37508557D02*
X80885714Y-38151414D01*
X80885714Y-38151414D02*
X81185714Y-37508557D01*
X81185714Y-37508557D02*
X81185714Y-38408557D01*
X82128571Y-38322842D02*
X82085714Y-38365700D01*
X82085714Y-38365700D02*
X81957142Y-38408557D01*
X81957142Y-38408557D02*
X81871428Y-38408557D01*
X81871428Y-38408557D02*
X81742857Y-38365700D01*
X81742857Y-38365700D02*
X81657142Y-38279985D01*
X81657142Y-38279985D02*
X81614285Y-38194271D01*
X81614285Y-38194271D02*
X81571428Y-38022842D01*
X81571428Y-38022842D02*
X81571428Y-37894271D01*
X81571428Y-37894271D02*
X81614285Y-37722842D01*
X81614285Y-37722842D02*
X81657142Y-37637128D01*
X81657142Y-37637128D02*
X81742857Y-37551414D01*
X81742857Y-37551414D02*
X81871428Y-37508557D01*
X81871428Y-37508557D02*
X81957142Y-37508557D01*
X81957142Y-37508557D02*
X82085714Y-37551414D01*
X82085714Y-37551414D02*
X82128571Y-37594271D01*
X82514285Y-37508557D02*
X82514285Y-38237128D01*
X82514285Y-38237128D02*
X82557142Y-38322842D01*
X82557142Y-38322842D02*
X82600000Y-38365700D01*
X82600000Y-38365700D02*
X82685714Y-38408557D01*
X82685714Y-38408557D02*
X82857142Y-38408557D01*
X82857142Y-38408557D02*
X82942857Y-38365700D01*
X82942857Y-38365700D02*
X82985714Y-38322842D01*
X82985714Y-38322842D02*
X83028571Y-38237128D01*
X83028571Y-38237128D02*
X83028571Y-37508557D01*
X84142856Y-38408557D02*
X84142856Y-37508557D01*
X84142856Y-37508557D02*
X84485713Y-37508557D01*
X84485713Y-37508557D02*
X84571428Y-37551414D01*
X84571428Y-37551414D02*
X84614285Y-37594271D01*
X84614285Y-37594271D02*
X84657142Y-37679985D01*
X84657142Y-37679985D02*
X84657142Y-37808557D01*
X84657142Y-37808557D02*
X84614285Y-37894271D01*
X84614285Y-37894271D02*
X84571428Y-37937128D01*
X84571428Y-37937128D02*
X84485713Y-37979985D01*
X84485713Y-37979985D02*
X84142856Y-37979985D01*
X84957142Y-37508557D02*
X85171428Y-38408557D01*
X85171428Y-38408557D02*
X85342856Y-37765700D01*
X85342856Y-37765700D02*
X85514285Y-38408557D01*
X85514285Y-38408557D02*
X85728571Y-37508557D01*
X86585713Y-38408557D02*
X86285713Y-37979985D01*
X86071427Y-38408557D02*
X86071427Y-37508557D01*
X86071427Y-37508557D02*
X86414284Y-37508557D01*
X86414284Y-37508557D02*
X86499999Y-37551414D01*
X86499999Y-37551414D02*
X86542856Y-37594271D01*
X86542856Y-37594271D02*
X86585713Y-37679985D01*
X86585713Y-37679985D02*
X86585713Y-37808557D01*
X86585713Y-37808557D02*
X86542856Y-37894271D01*
X86542856Y-37894271D02*
X86499999Y-37937128D01*
X86499999Y-37937128D02*
X86414284Y-37979985D01*
X86414284Y-37979985D02*
X86071427Y-37979985D01*
X97099999Y-65508557D02*
X97099999Y-66237128D01*
X97099999Y-66237128D02*
X97142856Y-66322842D01*
X97142856Y-66322842D02*
X97185714Y-66365700D01*
X97185714Y-66365700D02*
X97271428Y-66408557D01*
X97271428Y-66408557D02*
X97442856Y-66408557D01*
X97442856Y-66408557D02*
X97528571Y-66365700D01*
X97528571Y-66365700D02*
X97571428Y-66322842D01*
X97571428Y-66322842D02*
X97614285Y-66237128D01*
X97614285Y-66237128D02*
X97614285Y-65508557D01*
X97957142Y-65508557D02*
X98514285Y-65508557D01*
X98514285Y-65508557D02*
X98214285Y-65851414D01*
X98214285Y-65851414D02*
X98342856Y-65851414D01*
X98342856Y-65851414D02*
X98428571Y-65894271D01*
X98428571Y-65894271D02*
X98471428Y-65937128D01*
X98471428Y-65937128D02*
X98514285Y-66022842D01*
X98514285Y-66022842D02*
X98514285Y-66237128D01*
X98514285Y-66237128D02*
X98471428Y-66322842D01*
X98471428Y-66322842D02*
X98428571Y-66365700D01*
X98428571Y-66365700D02*
X98342856Y-66408557D01*
X98342856Y-66408557D02*
X98085713Y-66408557D01*
X98085713Y-66408557D02*
X97999999Y-66365700D01*
X97999999Y-66365700D02*
X97957142Y-66322842D01*
X99542856Y-66151414D02*
X99971428Y-66151414D01*
X99457142Y-66408557D02*
X99757142Y-65508557D01*
X99757142Y-65508557D02*
X100057142Y-66408557D01*
X100357142Y-65508557D02*
X100357142Y-66237128D01*
X100357142Y-66237128D02*
X100399999Y-66322842D01*
X100399999Y-66322842D02*
X100442857Y-66365700D01*
X100442857Y-66365700D02*
X100528571Y-66408557D01*
X100528571Y-66408557D02*
X100699999Y-66408557D01*
X100699999Y-66408557D02*
X100785714Y-66365700D01*
X100785714Y-66365700D02*
X100828571Y-66322842D01*
X100828571Y-66322842D02*
X100871428Y-66237128D01*
X100871428Y-66237128D02*
X100871428Y-65508557D01*
X101214285Y-65508557D02*
X101814285Y-66408557D01*
X101814285Y-65508557D02*
X101214285Y-66408557D01*
X102757142Y-65508557D02*
X103314285Y-65508557D01*
X103314285Y-65508557D02*
X103014285Y-65851414D01*
X103014285Y-65851414D02*
X103142856Y-65851414D01*
X103142856Y-65851414D02*
X103228571Y-65894271D01*
X103228571Y-65894271D02*
X103271428Y-65937128D01*
X103271428Y-65937128D02*
X103314285Y-66022842D01*
X103314285Y-66022842D02*
X103314285Y-66237128D01*
X103314285Y-66237128D02*
X103271428Y-66322842D01*
X103271428Y-66322842D02*
X103228571Y-66365700D01*
X103228571Y-66365700D02*
X103142856Y-66408557D01*
X103142856Y-66408557D02*
X102885713Y-66408557D01*
X102885713Y-66408557D02*
X102799999Y-66365700D01*
X102799999Y-66365700D02*
X102757142Y-66322842D01*
X103571428Y-65508557D02*
X103871428Y-66408557D01*
X103871428Y-66408557D02*
X104171428Y-65508557D01*
X104385714Y-65508557D02*
X104942857Y-65508557D01*
X104942857Y-65508557D02*
X104642857Y-65851414D01*
X104642857Y-65851414D02*
X104771428Y-65851414D01*
X104771428Y-65851414D02*
X104857143Y-65894271D01*
X104857143Y-65894271D02*
X104900000Y-65937128D01*
X104900000Y-65937128D02*
X104942857Y-66022842D01*
X104942857Y-66022842D02*
X104942857Y-66237128D01*
X104942857Y-66237128D02*
X104900000Y-66322842D01*
X104900000Y-66322842D02*
X104857143Y-66365700D01*
X104857143Y-66365700D02*
X104771428Y-66408557D01*
X104771428Y-66408557D02*
X104514285Y-66408557D01*
X104514285Y-66408557D02*
X104428571Y-66365700D01*
X104428571Y-66365700D02*
X104385714Y-66322842D01*
X110950000Y-120508557D02*
X110950000Y-121151414D01*
X110950000Y-121151414D02*
X110907143Y-121279985D01*
X110907143Y-121279985D02*
X110821429Y-121365700D01*
X110821429Y-121365700D02*
X110692857Y-121408557D01*
X110692857Y-121408557D02*
X110607143Y-121408557D01*
X111335714Y-120594271D02*
X111378571Y-120551414D01*
X111378571Y-120551414D02*
X111464286Y-120508557D01*
X111464286Y-120508557D02*
X111678571Y-120508557D01*
X111678571Y-120508557D02*
X111764286Y-120551414D01*
X111764286Y-120551414D02*
X111807143Y-120594271D01*
X111807143Y-120594271D02*
X111850000Y-120679985D01*
X111850000Y-120679985D02*
X111850000Y-120765700D01*
X111850000Y-120765700D02*
X111807143Y-120894271D01*
X111807143Y-120894271D02*
X111292857Y-121408557D01*
X111292857Y-121408557D02*
X111850000Y-121408557D01*
X112878571Y-121365700D02*
X113007143Y-121408557D01*
X113007143Y-121408557D02*
X113221428Y-121408557D01*
X113221428Y-121408557D02*
X113307143Y-121365700D01*
X113307143Y-121365700D02*
X113350000Y-121322842D01*
X113350000Y-121322842D02*
X113392857Y-121237128D01*
X113392857Y-121237128D02*
X113392857Y-121151414D01*
X113392857Y-121151414D02*
X113350000Y-121065700D01*
X113350000Y-121065700D02*
X113307143Y-121022842D01*
X113307143Y-121022842D02*
X113221428Y-120979985D01*
X113221428Y-120979985D02*
X113050000Y-120937128D01*
X113050000Y-120937128D02*
X112964285Y-120894271D01*
X112964285Y-120894271D02*
X112921428Y-120851414D01*
X112921428Y-120851414D02*
X112878571Y-120765700D01*
X112878571Y-120765700D02*
X112878571Y-120679985D01*
X112878571Y-120679985D02*
X112921428Y-120594271D01*
X112921428Y-120594271D02*
X112964285Y-120551414D01*
X112964285Y-120551414D02*
X113050000Y-120508557D01*
X113050000Y-120508557D02*
X113264285Y-120508557D01*
X113264285Y-120508557D02*
X113392857Y-120551414D01*
X114292857Y-121322842D02*
X114250000Y-121365700D01*
X114250000Y-121365700D02*
X114121428Y-121408557D01*
X114121428Y-121408557D02*
X114035714Y-121408557D01*
X114035714Y-121408557D02*
X113907143Y-121365700D01*
X113907143Y-121365700D02*
X113821428Y-121279985D01*
X113821428Y-121279985D02*
X113778571Y-121194271D01*
X113778571Y-121194271D02*
X113735714Y-121022842D01*
X113735714Y-121022842D02*
X113735714Y-120894271D01*
X113735714Y-120894271D02*
X113778571Y-120722842D01*
X113778571Y-120722842D02*
X113821428Y-120637128D01*
X113821428Y-120637128D02*
X113907143Y-120551414D01*
X113907143Y-120551414D02*
X114035714Y-120508557D01*
X114035714Y-120508557D02*
X114121428Y-120508557D01*
X114121428Y-120508557D02*
X114250000Y-120551414D01*
X114250000Y-120551414D02*
X114292857Y-120594271D01*
X115192857Y-121408557D02*
X114892857Y-120979985D01*
X114678571Y-121408557D02*
X114678571Y-120508557D01*
X114678571Y-120508557D02*
X115021428Y-120508557D01*
X115021428Y-120508557D02*
X115107143Y-120551414D01*
X115107143Y-120551414D02*
X115150000Y-120594271D01*
X115150000Y-120594271D02*
X115192857Y-120679985D01*
X115192857Y-120679985D02*
X115192857Y-120808557D01*
X115192857Y-120808557D02*
X115150000Y-120894271D01*
X115150000Y-120894271D02*
X115107143Y-120937128D01*
X115107143Y-120937128D02*
X115021428Y-120979985D01*
X115021428Y-120979985D02*
X114678571Y-120979985D01*
X115578571Y-120937128D02*
X115878571Y-120937128D01*
X116007143Y-121408557D02*
X115578571Y-121408557D01*
X115578571Y-121408557D02*
X115578571Y-120508557D01*
X115578571Y-120508557D02*
X116007143Y-120508557D01*
X116392857Y-120937128D02*
X116692857Y-120937128D01*
X116821429Y-121408557D02*
X116392857Y-121408557D01*
X116392857Y-121408557D02*
X116392857Y-120508557D01*
X116392857Y-120508557D02*
X116821429Y-120508557D01*
X117207143Y-121408557D02*
X117207143Y-120508557D01*
X117207143Y-120508557D02*
X117721429Y-121408557D01*
X117721429Y-121408557D02*
X117721429Y-120508557D01*
X118150000Y-121322842D02*
X118192857Y-121365700D01*
X118192857Y-121365700D02*
X118150000Y-121408557D01*
X118150000Y-121408557D02*
X118107143Y-121365700D01*
X118107143Y-121365700D02*
X118150000Y-121322842D01*
X118150000Y-121322842D02*
X118150000Y-121408557D01*
X118150000Y-120851414D02*
X118192857Y-120894271D01*
X118192857Y-120894271D02*
X118150000Y-120937128D01*
X118150000Y-120937128D02*
X118107143Y-120894271D01*
X118107143Y-120894271D02*
X118150000Y-120851414D01*
X118150000Y-120851414D02*
X118150000Y-120937128D01*
X119521428Y-120508557D02*
X119521428Y-121151414D01*
X119521428Y-121151414D02*
X119478571Y-121279985D01*
X119478571Y-121279985D02*
X119392857Y-121365700D01*
X119392857Y-121365700D02*
X119264285Y-121408557D01*
X119264285Y-121408557D02*
X119178571Y-121408557D01*
X120421428Y-121408557D02*
X119907142Y-121408557D01*
X120164285Y-121408557D02*
X120164285Y-120508557D01*
X120164285Y-120508557D02*
X120078571Y-120637128D01*
X120078571Y-120637128D02*
X119992856Y-120722842D01*
X119992856Y-120722842D02*
X119907142Y-120765700D01*
X120978571Y-120508557D02*
X121064285Y-120508557D01*
X121064285Y-120508557D02*
X121149999Y-120551414D01*
X121149999Y-120551414D02*
X121192857Y-120594271D01*
X121192857Y-120594271D02*
X121235714Y-120679985D01*
X121235714Y-120679985D02*
X121278571Y-120851414D01*
X121278571Y-120851414D02*
X121278571Y-121065700D01*
X121278571Y-121065700D02*
X121235714Y-121237128D01*
X121235714Y-121237128D02*
X121192857Y-121322842D01*
X121192857Y-121322842D02*
X121149999Y-121365700D01*
X121149999Y-121365700D02*
X121064285Y-121408557D01*
X121064285Y-121408557D02*
X120978571Y-121408557D01*
X120978571Y-121408557D02*
X120892857Y-121365700D01*
X120892857Y-121365700D02*
X120849999Y-121322842D01*
X120849999Y-121322842D02*
X120807142Y-121237128D01*
X120807142Y-121237128D02*
X120764285Y-121065700D01*
X120764285Y-121065700D02*
X120764285Y-120851414D01*
X120764285Y-120851414D02*
X120807142Y-120679985D01*
X120807142Y-120679985D02*
X120849999Y-120594271D01*
X120849999Y-120594271D02*
X120892857Y-120551414D01*
X120892857Y-120551414D02*
X120978571Y-120508557D01*
X122521428Y-120508557D02*
X122692856Y-120508557D01*
X122692856Y-120508557D02*
X122778571Y-120551414D01*
X122778571Y-120551414D02*
X122864285Y-120637128D01*
X122864285Y-120637128D02*
X122907142Y-120808557D01*
X122907142Y-120808557D02*
X122907142Y-121108557D01*
X122907142Y-121108557D02*
X122864285Y-121279985D01*
X122864285Y-121279985D02*
X122778571Y-121365700D01*
X122778571Y-121365700D02*
X122692856Y-121408557D01*
X122692856Y-121408557D02*
X122521428Y-121408557D01*
X122521428Y-121408557D02*
X122435714Y-121365700D01*
X122435714Y-121365700D02*
X122349999Y-121279985D01*
X122349999Y-121279985D02*
X122307142Y-121108557D01*
X122307142Y-121108557D02*
X122307142Y-120808557D01*
X122307142Y-120808557D02*
X122349999Y-120637128D01*
X122349999Y-120637128D02*
X122435714Y-120551414D01*
X122435714Y-120551414D02*
X122521428Y-120508557D01*
X123292856Y-121408557D02*
X123292856Y-120508557D01*
X123292856Y-120508557D02*
X123807142Y-121408557D01*
X123807142Y-121408557D02*
X123807142Y-120508557D01*
X124664285Y-121408557D02*
X124235713Y-121408557D01*
X124235713Y-121408557D02*
X124235713Y-120508557D01*
X125135713Y-120979985D02*
X125135713Y-121408557D01*
X124835713Y-120508557D02*
X125135713Y-120979985D01*
X125135713Y-120979985D02*
X125435713Y-120508557D01*
X125128571Y-59508557D02*
X125128571Y-60151414D01*
X125128571Y-60151414D02*
X125085714Y-60279985D01*
X125085714Y-60279985D02*
X125000000Y-60365700D01*
X125000000Y-60365700D02*
X124871428Y-60408557D01*
X124871428Y-60408557D02*
X124785714Y-60408557D01*
X125471428Y-59508557D02*
X126071428Y-59508557D01*
X126071428Y-59508557D02*
X125685714Y-60408557D01*
X127014285Y-59508557D02*
X127228571Y-60408557D01*
X127228571Y-60408557D02*
X127399999Y-59765700D01*
X127399999Y-59765700D02*
X127571428Y-60408557D01*
X127571428Y-60408557D02*
X127785714Y-59508557D01*
X128557142Y-59508557D02*
X128128570Y-59508557D01*
X128128570Y-59508557D02*
X128085713Y-59937128D01*
X128085713Y-59937128D02*
X128128570Y-59894271D01*
X128128570Y-59894271D02*
X128214285Y-59851414D01*
X128214285Y-59851414D02*
X128428570Y-59851414D01*
X128428570Y-59851414D02*
X128514285Y-59894271D01*
X128514285Y-59894271D02*
X128557142Y-59937128D01*
X128557142Y-59937128D02*
X128599999Y-60022842D01*
X128599999Y-60022842D02*
X128599999Y-60237128D01*
X128599999Y-60237128D02*
X128557142Y-60322842D01*
X128557142Y-60322842D02*
X128514285Y-60365700D01*
X128514285Y-60365700D02*
X128428570Y-60408557D01*
X128428570Y-60408557D02*
X128214285Y-60408557D01*
X128214285Y-60408557D02*
X128128570Y-60365700D01*
X128128570Y-60365700D02*
X128085713Y-60322842D01*
X129414285Y-59508557D02*
X128985713Y-59508557D01*
X128985713Y-59508557D02*
X128942856Y-59937128D01*
X128942856Y-59937128D02*
X128985713Y-59894271D01*
X128985713Y-59894271D02*
X129071428Y-59851414D01*
X129071428Y-59851414D02*
X129285713Y-59851414D01*
X129285713Y-59851414D02*
X129371428Y-59894271D01*
X129371428Y-59894271D02*
X129414285Y-59937128D01*
X129414285Y-59937128D02*
X129457142Y-60022842D01*
X129457142Y-60022842D02*
X129457142Y-60237128D01*
X129457142Y-60237128D02*
X129414285Y-60322842D01*
X129414285Y-60322842D02*
X129371428Y-60365700D01*
X129371428Y-60365700D02*
X129285713Y-60408557D01*
X129285713Y-60408557D02*
X129071428Y-60408557D01*
X129071428Y-60408557D02*
X128985713Y-60365700D01*
X128985713Y-60365700D02*
X128942856Y-60322842D01*
X130014285Y-59508557D02*
X130099999Y-59508557D01*
X130099999Y-59508557D02*
X130185713Y-59551414D01*
X130185713Y-59551414D02*
X130228571Y-59594271D01*
X130228571Y-59594271D02*
X130271428Y-59679985D01*
X130271428Y-59679985D02*
X130314285Y-59851414D01*
X130314285Y-59851414D02*
X130314285Y-60065700D01*
X130314285Y-60065700D02*
X130271428Y-60237128D01*
X130271428Y-60237128D02*
X130228571Y-60322842D01*
X130228571Y-60322842D02*
X130185713Y-60365700D01*
X130185713Y-60365700D02*
X130099999Y-60408557D01*
X130099999Y-60408557D02*
X130014285Y-60408557D01*
X130014285Y-60408557D02*
X129928571Y-60365700D01*
X129928571Y-60365700D02*
X129885713Y-60322842D01*
X129885713Y-60322842D02*
X129842856Y-60237128D01*
X129842856Y-60237128D02*
X129799999Y-60065700D01*
X129799999Y-60065700D02*
X129799999Y-59851414D01*
X129799999Y-59851414D02*
X129842856Y-59679985D01*
X129842856Y-59679985D02*
X129885713Y-59594271D01*
X129885713Y-59594271D02*
X129928571Y-59551414D01*
X129928571Y-59551414D02*
X130014285Y-59508557D01*
X130871428Y-59508557D02*
X130957142Y-59508557D01*
X130957142Y-59508557D02*
X131042856Y-59551414D01*
X131042856Y-59551414D02*
X131085714Y-59594271D01*
X131085714Y-59594271D02*
X131128571Y-59679985D01*
X131128571Y-59679985D02*
X131171428Y-59851414D01*
X131171428Y-59851414D02*
X131171428Y-60065700D01*
X131171428Y-60065700D02*
X131128571Y-60237128D01*
X131128571Y-60237128D02*
X131085714Y-60322842D01*
X131085714Y-60322842D02*
X131042856Y-60365700D01*
X131042856Y-60365700D02*
X130957142Y-60408557D01*
X130957142Y-60408557D02*
X130871428Y-60408557D01*
X130871428Y-60408557D02*
X130785714Y-60365700D01*
X130785714Y-60365700D02*
X130742856Y-60322842D01*
X130742856Y-60322842D02*
X130699999Y-60237128D01*
X130699999Y-60237128D02*
X130657142Y-60065700D01*
X130657142Y-60065700D02*
X130657142Y-59851414D01*
X130657142Y-59851414D02*
X130699999Y-59679985D01*
X130699999Y-59679985D02*
X130742856Y-59594271D01*
X130742856Y-59594271D02*
X130785714Y-59551414D01*
X130785714Y-59551414D02*
X130871428Y-59508557D01*
X68476189Y-126454819D02*
X68142856Y-125978628D01*
X67904761Y-126454819D02*
X67904761Y-125454819D01*
X67904761Y-125454819D02*
X68285713Y-125454819D01*
X68285713Y-125454819D02*
X68380951Y-125502438D01*
X68380951Y-125502438D02*
X68428570Y-125550057D01*
X68428570Y-125550057D02*
X68476189Y-125645295D01*
X68476189Y-125645295D02*
X68476189Y-125788152D01*
X68476189Y-125788152D02*
X68428570Y-125883390D01*
X68428570Y-125883390D02*
X68380951Y-125931009D01*
X68380951Y-125931009D02*
X68285713Y-125978628D01*
X68285713Y-125978628D02*
X67904761Y-125978628D01*
X68904761Y-125931009D02*
X69238094Y-125931009D01*
X69380951Y-126454819D02*
X68904761Y-126454819D01*
X68904761Y-126454819D02*
X68904761Y-125454819D01*
X68904761Y-125454819D02*
X69380951Y-125454819D01*
X69666666Y-125454819D02*
X69999999Y-126454819D01*
X69999999Y-126454819D02*
X70333332Y-125454819D01*
X71380952Y-126169104D02*
X71857142Y-126169104D01*
X71285714Y-126454819D02*
X71619047Y-125454819D01*
X71619047Y-125454819D02*
X71952380Y-126454819D01*
X73809524Y-126073866D02*
X74571429Y-126073866D01*
X75047619Y-126073866D02*
X75809524Y-126073866D01*
X77809524Y-125454819D02*
X77809524Y-126264342D01*
X77809524Y-126264342D02*
X77857143Y-126359580D01*
X77857143Y-126359580D02*
X77904762Y-126407200D01*
X77904762Y-126407200D02*
X78000000Y-126454819D01*
X78000000Y-126454819D02*
X78190476Y-126454819D01*
X78190476Y-126454819D02*
X78285714Y-126407200D01*
X78285714Y-126407200D02*
X78333333Y-126359580D01*
X78333333Y-126359580D02*
X78380952Y-126264342D01*
X78380952Y-126264342D02*
X78380952Y-125454819D01*
X78857143Y-126454819D02*
X78857143Y-125454819D01*
X78857143Y-125454819D02*
X79428571Y-126454819D01*
X79428571Y-126454819D02*
X79428571Y-125454819D01*
X79761905Y-125454819D02*
X80095238Y-126454819D01*
X80095238Y-126454819D02*
X80428571Y-125454819D01*
X80714286Y-126169104D02*
X81190476Y-126169104D01*
X80619048Y-126454819D02*
X80952381Y-125454819D01*
X80952381Y-125454819D02*
X81285714Y-126454819D01*
X82095238Y-126454819D02*
X81619048Y-126454819D01*
X81619048Y-126454819D02*
X81619048Y-125454819D01*
X82428572Y-126454819D02*
X82428572Y-125454819D01*
X82904762Y-126454819D02*
X82904762Y-125454819D01*
X82904762Y-125454819D02*
X83142857Y-125454819D01*
X83142857Y-125454819D02*
X83285714Y-125502438D01*
X83285714Y-125502438D02*
X83380952Y-125597676D01*
X83380952Y-125597676D02*
X83428571Y-125692914D01*
X83428571Y-125692914D02*
X83476190Y-125883390D01*
X83476190Y-125883390D02*
X83476190Y-126026247D01*
X83476190Y-126026247D02*
X83428571Y-126216723D01*
X83428571Y-126216723D02*
X83380952Y-126311961D01*
X83380952Y-126311961D02*
X83285714Y-126407200D01*
X83285714Y-126407200D02*
X83142857Y-126454819D01*
X83142857Y-126454819D02*
X82904762Y-126454819D01*
X83857143Y-126169104D02*
X84333333Y-126169104D01*
X83761905Y-126454819D02*
X84095238Y-125454819D01*
X84095238Y-125454819D02*
X84428571Y-126454819D01*
X84619048Y-125454819D02*
X85190476Y-125454819D01*
X84904762Y-126454819D02*
X84904762Y-125454819D01*
X85523810Y-125931009D02*
X85857143Y-125931009D01*
X86000000Y-126454819D02*
X85523810Y-126454819D01*
X85523810Y-126454819D02*
X85523810Y-125454819D01*
X85523810Y-125454819D02*
X86000000Y-125454819D01*
X86428572Y-126454819D02*
X86428572Y-125454819D01*
X86428572Y-125454819D02*
X86666667Y-125454819D01*
X86666667Y-125454819D02*
X86809524Y-125502438D01*
X86809524Y-125502438D02*
X86904762Y-125597676D01*
X86904762Y-125597676D02*
X86952381Y-125692914D01*
X86952381Y-125692914D02*
X87000000Y-125883390D01*
X87000000Y-125883390D02*
X87000000Y-126026247D01*
X87000000Y-126026247D02*
X86952381Y-126216723D01*
X86952381Y-126216723D02*
X86904762Y-126311961D01*
X86904762Y-126311961D02*
X86809524Y-126407200D01*
X86809524Y-126407200D02*
X86666667Y-126454819D01*
X86666667Y-126454819D02*
X86428572Y-126454819D01*
X88190477Y-126454819D02*
X88190477Y-125454819D01*
X88190477Y-125454819D02*
X88571429Y-125454819D01*
X88571429Y-125454819D02*
X88666667Y-125502438D01*
X88666667Y-125502438D02*
X88714286Y-125550057D01*
X88714286Y-125550057D02*
X88761905Y-125645295D01*
X88761905Y-125645295D02*
X88761905Y-125788152D01*
X88761905Y-125788152D02*
X88714286Y-125883390D01*
X88714286Y-125883390D02*
X88666667Y-125931009D01*
X88666667Y-125931009D02*
X88571429Y-125978628D01*
X88571429Y-125978628D02*
X88190477Y-125978628D01*
X89761905Y-126454819D02*
X89428572Y-125978628D01*
X89190477Y-126454819D02*
X89190477Y-125454819D01*
X89190477Y-125454819D02*
X89571429Y-125454819D01*
X89571429Y-125454819D02*
X89666667Y-125502438D01*
X89666667Y-125502438D02*
X89714286Y-125550057D01*
X89714286Y-125550057D02*
X89761905Y-125645295D01*
X89761905Y-125645295D02*
X89761905Y-125788152D01*
X89761905Y-125788152D02*
X89714286Y-125883390D01*
X89714286Y-125883390D02*
X89666667Y-125931009D01*
X89666667Y-125931009D02*
X89571429Y-125978628D01*
X89571429Y-125978628D02*
X89190477Y-125978628D01*
X90380953Y-125454819D02*
X90571429Y-125454819D01*
X90571429Y-125454819D02*
X90666667Y-125502438D01*
X90666667Y-125502438D02*
X90761905Y-125597676D01*
X90761905Y-125597676D02*
X90809524Y-125788152D01*
X90809524Y-125788152D02*
X90809524Y-126121485D01*
X90809524Y-126121485D02*
X90761905Y-126311961D01*
X90761905Y-126311961D02*
X90666667Y-126407200D01*
X90666667Y-126407200D02*
X90571429Y-126454819D01*
X90571429Y-126454819D02*
X90380953Y-126454819D01*
X90380953Y-126454819D02*
X90285715Y-126407200D01*
X90285715Y-126407200D02*
X90190477Y-126311961D01*
X90190477Y-126311961D02*
X90142858Y-126121485D01*
X90142858Y-126121485D02*
X90142858Y-125788152D01*
X90142858Y-125788152D02*
X90190477Y-125597676D01*
X90190477Y-125597676D02*
X90285715Y-125502438D01*
X90285715Y-125502438D02*
X90380953Y-125454819D01*
X91095239Y-125454819D02*
X91666667Y-125454819D01*
X91380953Y-126454819D02*
X91380953Y-125454819D01*
X92190477Y-125454819D02*
X92380953Y-125454819D01*
X92380953Y-125454819D02*
X92476191Y-125502438D01*
X92476191Y-125502438D02*
X92571429Y-125597676D01*
X92571429Y-125597676D02*
X92619048Y-125788152D01*
X92619048Y-125788152D02*
X92619048Y-126121485D01*
X92619048Y-126121485D02*
X92571429Y-126311961D01*
X92571429Y-126311961D02*
X92476191Y-126407200D01*
X92476191Y-126407200D02*
X92380953Y-126454819D01*
X92380953Y-126454819D02*
X92190477Y-126454819D01*
X92190477Y-126454819D02*
X92095239Y-126407200D01*
X92095239Y-126407200D02*
X92000001Y-126311961D01*
X92000001Y-126311961D02*
X91952382Y-126121485D01*
X91952382Y-126121485D02*
X91952382Y-125788152D01*
X91952382Y-125788152D02*
X92000001Y-125597676D01*
X92000001Y-125597676D02*
X92095239Y-125502438D01*
X92095239Y-125502438D02*
X92190477Y-125454819D01*
X92904763Y-125454819D02*
X93476191Y-125454819D01*
X93190477Y-126454819D02*
X93190477Y-125454819D01*
X94000001Y-125978628D02*
X94000001Y-126454819D01*
X93666668Y-125454819D02*
X94000001Y-125978628D01*
X94000001Y-125978628D02*
X94333334Y-125454819D01*
X94666668Y-126454819D02*
X94666668Y-125454819D01*
X94666668Y-125454819D02*
X95047620Y-125454819D01*
X95047620Y-125454819D02*
X95142858Y-125502438D01*
X95142858Y-125502438D02*
X95190477Y-125550057D01*
X95190477Y-125550057D02*
X95238096Y-125645295D01*
X95238096Y-125645295D02*
X95238096Y-125788152D01*
X95238096Y-125788152D02*
X95190477Y-125883390D01*
X95190477Y-125883390D02*
X95142858Y-125931009D01*
X95142858Y-125931009D02*
X95047620Y-125978628D01*
X95047620Y-125978628D02*
X94666668Y-125978628D01*
X95666668Y-125931009D02*
X96000001Y-125931009D01*
X96142858Y-126454819D02*
X95666668Y-126454819D01*
X95666668Y-126454819D02*
X95666668Y-125454819D01*
X95666668Y-125454819D02*
X96142858Y-125454819D01*
X62799999Y-123639866D02*
X62333332Y-122973200D01*
X61999999Y-123639866D02*
X61999999Y-122239866D01*
X61999999Y-122239866D02*
X62533332Y-122239866D01*
X62533332Y-122239866D02*
X62666666Y-122306533D01*
X62666666Y-122306533D02*
X62733332Y-122373200D01*
X62733332Y-122373200D02*
X62799999Y-122506533D01*
X62799999Y-122506533D02*
X62799999Y-122706533D01*
X62799999Y-122706533D02*
X62733332Y-122839866D01*
X62733332Y-122839866D02*
X62666666Y-122906533D01*
X62666666Y-122906533D02*
X62533332Y-122973200D01*
X62533332Y-122973200D02*
X61999999Y-122973200D01*
X63333332Y-123239866D02*
X63999999Y-123239866D01*
X63199999Y-123639866D02*
X63666666Y-122239866D01*
X63666666Y-122239866D02*
X64133332Y-123639866D01*
X65399999Y-123506533D02*
X65333332Y-123573200D01*
X65333332Y-123573200D02*
X65133332Y-123639866D01*
X65133332Y-123639866D02*
X64999999Y-123639866D01*
X64999999Y-123639866D02*
X64799999Y-123573200D01*
X64799999Y-123573200D02*
X64666666Y-123439866D01*
X64666666Y-123439866D02*
X64599999Y-123306533D01*
X64599999Y-123306533D02*
X64533332Y-123039866D01*
X64533332Y-123039866D02*
X64533332Y-122839866D01*
X64533332Y-122839866D02*
X64599999Y-122573200D01*
X64599999Y-122573200D02*
X64666666Y-122439866D01*
X64666666Y-122439866D02*
X64799999Y-122306533D01*
X64799999Y-122306533D02*
X64999999Y-122239866D01*
X64999999Y-122239866D02*
X65133332Y-122239866D01*
X65133332Y-122239866D02*
X65333332Y-122306533D01*
X65333332Y-122306533D02*
X65399999Y-122373200D01*
X65999999Y-122906533D02*
X66466666Y-122906533D01*
X66666666Y-123639866D02*
X65999999Y-123639866D01*
X65999999Y-123639866D02*
X65999999Y-122239866D01*
X65999999Y-122239866D02*
X66666666Y-122239866D01*
X68066666Y-123506533D02*
X67999999Y-123573200D01*
X67999999Y-123573200D02*
X67799999Y-123639866D01*
X67799999Y-123639866D02*
X67666666Y-123639866D01*
X67666666Y-123639866D02*
X67466666Y-123573200D01*
X67466666Y-123573200D02*
X67333333Y-123439866D01*
X67333333Y-123439866D02*
X67266666Y-123306533D01*
X67266666Y-123306533D02*
X67199999Y-123039866D01*
X67199999Y-123039866D02*
X67199999Y-122839866D01*
X67199999Y-122839866D02*
X67266666Y-122573200D01*
X67266666Y-122573200D02*
X67333333Y-122439866D01*
X67333333Y-122439866D02*
X67466666Y-122306533D01*
X67466666Y-122306533D02*
X67666666Y-122239866D01*
X67666666Y-122239866D02*
X67799999Y-122239866D01*
X67799999Y-122239866D02*
X67999999Y-122306533D01*
X67999999Y-122306533D02*
X68066666Y-122373200D01*
X68599999Y-123239866D02*
X69266666Y-123239866D01*
X68466666Y-123639866D02*
X68933333Y-122239866D01*
X68933333Y-122239866D02*
X69399999Y-123639866D01*
X70666666Y-123639866D02*
X70199999Y-122973200D01*
X69866666Y-123639866D02*
X69866666Y-122239866D01*
X69866666Y-122239866D02*
X70399999Y-122239866D01*
X70399999Y-122239866D02*
X70533333Y-122306533D01*
X70533333Y-122306533D02*
X70599999Y-122373200D01*
X70599999Y-122373200D02*
X70666666Y-122506533D01*
X70666666Y-122506533D02*
X70666666Y-122706533D01*
X70666666Y-122706533D02*
X70599999Y-122839866D01*
X70599999Y-122839866D02*
X70533333Y-122906533D01*
X70533333Y-122906533D02*
X70399999Y-122973200D01*
X70399999Y-122973200D02*
X69866666Y-122973200D01*
X71266666Y-123106533D02*
X72333333Y-123106533D01*
X72866666Y-122239866D02*
X73733332Y-122239866D01*
X73733332Y-122239866D02*
X73266666Y-122773200D01*
X73266666Y-122773200D02*
X73466666Y-122773200D01*
X73466666Y-122773200D02*
X73599999Y-122839866D01*
X73599999Y-122839866D02*
X73666666Y-122906533D01*
X73666666Y-122906533D02*
X73733332Y-123039866D01*
X73733332Y-123039866D02*
X73733332Y-123373200D01*
X73733332Y-123373200D02*
X73666666Y-123506533D01*
X73666666Y-123506533D02*
X73599999Y-123573200D01*
X73599999Y-123573200D02*
X73466666Y-123639866D01*
X73466666Y-123639866D02*
X73066666Y-123639866D01*
X73066666Y-123639866D02*
X72933332Y-123573200D01*
X72933332Y-123573200D02*
X72866666Y-123506533D01*
X74999999Y-122239866D02*
X74333332Y-122239866D01*
X74333332Y-122239866D02*
X74266665Y-122906533D01*
X74266665Y-122906533D02*
X74333332Y-122839866D01*
X74333332Y-122839866D02*
X74466665Y-122773200D01*
X74466665Y-122773200D02*
X74799999Y-122773200D01*
X74799999Y-122773200D02*
X74933332Y-122839866D01*
X74933332Y-122839866D02*
X74999999Y-122906533D01*
X74999999Y-122906533D02*
X75066665Y-123039866D01*
X75066665Y-123039866D02*
X75066665Y-123373200D01*
X75066665Y-123373200D02*
X74999999Y-123506533D01*
X74999999Y-123506533D02*
X74933332Y-123573200D01*
X74933332Y-123573200D02*
X74799999Y-123639866D01*
X74799999Y-123639866D02*
X74466665Y-123639866D01*
X74466665Y-123639866D02*
X74333332Y-123573200D01*
X74333332Y-123573200D02*
X74266665Y-123506533D01*
X77733332Y-122173200D02*
X76533332Y-123973200D01*
X79066666Y-122239866D02*
X79866666Y-122239866D01*
X79466666Y-123639866D02*
X79466666Y-122239866D01*
X80333333Y-122906533D02*
X80800000Y-122906533D01*
X81000000Y-123639866D02*
X80333333Y-123639866D01*
X80333333Y-123639866D02*
X80333333Y-122239866D01*
X80333333Y-122239866D02*
X81000000Y-122239866D01*
X81600000Y-122906533D02*
X82066667Y-122906533D01*
X82266667Y-123639866D02*
X81600000Y-123639866D01*
X81600000Y-123639866D02*
X81600000Y-122239866D01*
X81600000Y-122239866D02*
X82266667Y-122239866D01*
X82866667Y-123639866D02*
X82866667Y-122239866D01*
X82866667Y-122239866D02*
X83666667Y-123639866D01*
X83666667Y-123639866D02*
X83666667Y-122239866D01*
X84266667Y-123573200D02*
X84466667Y-123639866D01*
X84466667Y-123639866D02*
X84800001Y-123639866D01*
X84800001Y-123639866D02*
X84933334Y-123573200D01*
X84933334Y-123573200D02*
X85000001Y-123506533D01*
X85000001Y-123506533D02*
X85066667Y-123373200D01*
X85066667Y-123373200D02*
X85066667Y-123239866D01*
X85066667Y-123239866D02*
X85000001Y-123106533D01*
X85000001Y-123106533D02*
X84933334Y-123039866D01*
X84933334Y-123039866D02*
X84800001Y-122973200D01*
X84800001Y-122973200D02*
X84533334Y-122906533D01*
X84533334Y-122906533D02*
X84400001Y-122839866D01*
X84400001Y-122839866D02*
X84333334Y-122773200D01*
X84333334Y-122773200D02*
X84266667Y-122639866D01*
X84266667Y-122639866D02*
X84266667Y-122506533D01*
X84266667Y-122506533D02*
X84333334Y-122373200D01*
X84333334Y-122373200D02*
X84400001Y-122306533D01*
X84400001Y-122306533D02*
X84533334Y-122239866D01*
X84533334Y-122239866D02*
X84866667Y-122239866D01*
X84866667Y-122239866D02*
X85066667Y-122306533D01*
X85933334Y-122973200D02*
X85933334Y-123639866D01*
X85466667Y-122239866D02*
X85933334Y-122973200D01*
X85933334Y-122973200D02*
X86400000Y-122239866D01*
X88733334Y-123506533D02*
X88666667Y-123573200D01*
X88666667Y-123573200D02*
X88466667Y-123639866D01*
X88466667Y-123639866D02*
X88333334Y-123639866D01*
X88333334Y-123639866D02*
X88133334Y-123573200D01*
X88133334Y-123573200D02*
X88000001Y-123439866D01*
X88000001Y-123439866D02*
X87933334Y-123306533D01*
X87933334Y-123306533D02*
X87866667Y-123039866D01*
X87866667Y-123039866D02*
X87866667Y-122839866D01*
X87866667Y-122839866D02*
X87933334Y-122573200D01*
X87933334Y-122573200D02*
X88000001Y-122439866D01*
X88000001Y-122439866D02*
X88133334Y-122306533D01*
X88133334Y-122306533D02*
X88333334Y-122239866D01*
X88333334Y-122239866D02*
X88466667Y-122239866D01*
X88466667Y-122239866D02*
X88666667Y-122306533D01*
X88666667Y-122306533D02*
X88733334Y-122373200D01*
X89266667Y-123239866D02*
X89933334Y-123239866D01*
X89133334Y-123639866D02*
X89600001Y-122239866D01*
X89600001Y-122239866D02*
X90066667Y-123639866D01*
X91333334Y-123639866D02*
X90866667Y-122973200D01*
X90533334Y-123639866D02*
X90533334Y-122239866D01*
X90533334Y-122239866D02*
X91066667Y-122239866D01*
X91066667Y-122239866D02*
X91200001Y-122306533D01*
X91200001Y-122306533D02*
X91266667Y-122373200D01*
X91266667Y-122373200D02*
X91333334Y-122506533D01*
X91333334Y-122506533D02*
X91333334Y-122706533D01*
X91333334Y-122706533D02*
X91266667Y-122839866D01*
X91266667Y-122839866D02*
X91200001Y-122906533D01*
X91200001Y-122906533D02*
X91066667Y-122973200D01*
X91066667Y-122973200D02*
X90533334Y-122973200D01*
X92733334Y-123639866D02*
X92266667Y-122973200D01*
X91933334Y-123639866D02*
X91933334Y-122239866D01*
X91933334Y-122239866D02*
X92466667Y-122239866D01*
X92466667Y-122239866D02*
X92600001Y-122306533D01*
X92600001Y-122306533D02*
X92666667Y-122373200D01*
X92666667Y-122373200D02*
X92733334Y-122506533D01*
X92733334Y-122506533D02*
X92733334Y-122706533D01*
X92733334Y-122706533D02*
X92666667Y-122839866D01*
X92666667Y-122839866D02*
X92600001Y-122906533D01*
X92600001Y-122906533D02*
X92466667Y-122973200D01*
X92466667Y-122973200D02*
X91933334Y-122973200D01*
X93333334Y-123639866D02*
X93333334Y-122239866D01*
X94000001Y-122906533D02*
X94466668Y-122906533D01*
X94666668Y-123639866D02*
X94000001Y-123639866D01*
X94000001Y-123639866D02*
X94000001Y-122239866D01*
X94000001Y-122239866D02*
X94666668Y-122239866D01*
X96066668Y-123639866D02*
X95600001Y-122973200D01*
X95266668Y-123639866D02*
X95266668Y-122239866D01*
X95266668Y-122239866D02*
X95800001Y-122239866D01*
X95800001Y-122239866D02*
X95933335Y-122306533D01*
X95933335Y-122306533D02*
X96000001Y-122373200D01*
X96000001Y-122373200D02*
X96066668Y-122506533D01*
X96066668Y-122506533D02*
X96066668Y-122706533D01*
X96066668Y-122706533D02*
X96000001Y-122839866D01*
X96000001Y-122839866D02*
X95933335Y-122906533D01*
X95933335Y-122906533D02*
X95800001Y-122973200D01*
X95800001Y-122973200D02*
X95266668Y-122973200D01*
D11*
%TO.C,JP1*%
X80620000Y-28620000D02*
X82000000Y-28620000D01*
X80620000Y-30000000D02*
X80620000Y-28620000D01*
X80620000Y-31270000D02*
X80620000Y-33920000D01*
X80620000Y-31270000D02*
X83380000Y-31270000D01*
X80620000Y-33920000D02*
X83380000Y-33920000D01*
X83380000Y-31270000D02*
X83380000Y-33920000D01*
%TO.C,F1*%
X39785000Y-99545000D02*
X42215000Y-99545000D01*
X39785000Y-102455000D02*
X42215000Y-102455000D01*
%TO.C,R6*%
X34265000Y-74227064D02*
X34265000Y-73772936D01*
X35735000Y-74227064D02*
X35735000Y-73772936D01*
%TO.C,R9*%
X109772936Y-41265000D02*
X110227064Y-41265000D01*
X109772936Y-42735000D02*
X110227064Y-42735000D01*
%TO.C,J7*%
X123620000Y-45620000D02*
X125000000Y-45620000D01*
X123620000Y-47000000D02*
X123620000Y-45620000D01*
X123620000Y-48270000D02*
X123620000Y-56000000D01*
X123620000Y-48270000D02*
X126270000Y-48270000D01*
X123620000Y-56000000D02*
X128920000Y-56000000D01*
X126270000Y-45620000D02*
X128920000Y-45620000D01*
X126270000Y-48270000D02*
X126270000Y-45620000D01*
X128920000Y-45620000D02*
X128920000Y-56000000D01*
%TO.C,C9*%
X144738748Y-86265000D02*
X145261252Y-86265000D01*
X144738748Y-87735000D02*
X145261252Y-87735000D01*
%TO.C,D1*%
X50850000Y-103660000D02*
X50850000Y-97850000D01*
X50850000Y-103660000D02*
X55150000Y-103660000D01*
X55150000Y-103660000D02*
X55150000Y-97850000D01*
%TO.C,C11*%
X34265000Y-66261252D02*
X34265000Y-65738748D01*
X35735000Y-66261252D02*
X35735000Y-65738748D01*
%TO.C,C4*%
X107738748Y-80265000D02*
X108261252Y-80265000D01*
X107738748Y-81735000D02*
X108261252Y-81735000D01*
%TO.C,C14*%
X113738748Y-47265000D02*
X114261252Y-47265000D01*
X113738748Y-48735000D02*
X114261252Y-48735000D01*
%TO.C,C2*%
X95340302Y-109685000D02*
X96140302Y-109685000D01*
X95740302Y-109285000D02*
X95740302Y-110085000D01*
X99750000Y-107920000D02*
X99750000Y-116080000D01*
X99790000Y-107920000D02*
X99790000Y-116080000D01*
X99830000Y-107921000D02*
X99830000Y-116079000D01*
X99870000Y-107922000D02*
X99870000Y-116078000D01*
X99910000Y-107923000D02*
X99910000Y-116077000D01*
X99950000Y-107925000D02*
X99950000Y-116075000D01*
X99990000Y-107927000D02*
X99990000Y-116073000D01*
X100030000Y-107930000D02*
X100030000Y-116070000D01*
X100070000Y-107932000D02*
X100070000Y-116068000D01*
X100110000Y-107936000D02*
X100110000Y-116064000D01*
X100150000Y-107939000D02*
X100150000Y-116061000D01*
X100190000Y-107944000D02*
X100190000Y-116056000D01*
X100230000Y-107948000D02*
X100230000Y-116052000D01*
X100270000Y-107953000D02*
X100270000Y-116047000D01*
X100310000Y-107958000D02*
X100310000Y-116042000D01*
X100350000Y-107964000D02*
X100350000Y-116036000D01*
X100390000Y-107970000D02*
X100390000Y-116030000D01*
X100430000Y-107977000D02*
X100430000Y-116023000D01*
X100470000Y-107983000D02*
X100470000Y-110960000D01*
X100470000Y-113040000D02*
X100470000Y-116017000D01*
X100510000Y-107991000D02*
X100510000Y-110960000D01*
X100510000Y-113040000D02*
X100510000Y-116009000D01*
X100550000Y-107998000D02*
X100550000Y-110960000D01*
X100550000Y-113040000D02*
X100550000Y-116002000D01*
X100590000Y-108007000D02*
X100590000Y-110960000D01*
X100590000Y-113040000D02*
X100590000Y-115993000D01*
X100630000Y-108015000D02*
X100630000Y-110960000D01*
X100630000Y-113040000D02*
X100630000Y-115985000D01*
X100670000Y-108024000D02*
X100670000Y-110960000D01*
X100670000Y-113040000D02*
X100670000Y-115976000D01*
X100710000Y-108033000D02*
X100710000Y-110960000D01*
X100710000Y-113040000D02*
X100710000Y-115967000D01*
X100750000Y-108043000D02*
X100750000Y-110960000D01*
X100750000Y-113040000D02*
X100750000Y-115957000D01*
X100790000Y-108053000D02*
X100790000Y-110960000D01*
X100790000Y-113040000D02*
X100790000Y-115947000D01*
X100830000Y-108064000D02*
X100830000Y-110960000D01*
X100830000Y-113040000D02*
X100830000Y-115936000D01*
X100870000Y-108075000D02*
X100870000Y-110960000D01*
X100870000Y-113040000D02*
X100870000Y-115925000D01*
X100910000Y-108087000D02*
X100910000Y-110960000D01*
X100910000Y-113040000D02*
X100910000Y-115913000D01*
X100950000Y-108099000D02*
X100950000Y-110960000D01*
X100950000Y-113040000D02*
X100950000Y-115901000D01*
X100990000Y-108111000D02*
X100990000Y-110960000D01*
X100990000Y-113040000D02*
X100990000Y-115889000D01*
X101030000Y-108124000D02*
X101030000Y-110960000D01*
X101030000Y-113040000D02*
X101030000Y-115876000D01*
X101070000Y-108137000D02*
X101070000Y-110960000D01*
X101070000Y-113040000D02*
X101070000Y-115863000D01*
X101110000Y-108151000D02*
X101110000Y-110960000D01*
X101110000Y-113040000D02*
X101110000Y-115849000D01*
X101150000Y-108165000D02*
X101150000Y-110960000D01*
X101150000Y-113040000D02*
X101150000Y-115835000D01*
X101190000Y-108180000D02*
X101190000Y-110960000D01*
X101190000Y-113040000D02*
X101190000Y-115820000D01*
X101230000Y-108195000D02*
X101230000Y-110960000D01*
X101230000Y-113040000D02*
X101230000Y-115805000D01*
X101270000Y-108211000D02*
X101270000Y-110960000D01*
X101270000Y-113040000D02*
X101270000Y-115789000D01*
X101310000Y-108227000D02*
X101310000Y-110960000D01*
X101310000Y-113040000D02*
X101310000Y-115773000D01*
X101350000Y-108243000D02*
X101350000Y-110960000D01*
X101350000Y-113040000D02*
X101350000Y-115757000D01*
X101390000Y-108260000D02*
X101390000Y-110960000D01*
X101390000Y-113040000D02*
X101390000Y-115740000D01*
X101430000Y-108278000D02*
X101430000Y-110960000D01*
X101430000Y-113040000D02*
X101430000Y-115722000D01*
X101470000Y-108296000D02*
X101470000Y-110960000D01*
X101470000Y-113040000D02*
X101470000Y-115704000D01*
X101510000Y-108315000D02*
X101510000Y-110960000D01*
X101510000Y-113040000D02*
X101510000Y-115685000D01*
X101550000Y-108334000D02*
X101550000Y-110960000D01*
X101550000Y-113040000D02*
X101550000Y-115666000D01*
X101590000Y-108354000D02*
X101590000Y-110960000D01*
X101590000Y-113040000D02*
X101590000Y-115646000D01*
X101630000Y-108374000D02*
X101630000Y-110960000D01*
X101630000Y-113040000D02*
X101630000Y-115626000D01*
X101670000Y-108395000D02*
X101670000Y-110960000D01*
X101670000Y-113040000D02*
X101670000Y-115605000D01*
X101710000Y-108416000D02*
X101710000Y-110960000D01*
X101710000Y-113040000D02*
X101710000Y-115584000D01*
X101750000Y-108438000D02*
X101750000Y-110960000D01*
X101750000Y-113040000D02*
X101750000Y-115562000D01*
X101790000Y-108461000D02*
X101790000Y-110960000D01*
X101790000Y-113040000D02*
X101790000Y-115539000D01*
X101830000Y-108484000D02*
X101830000Y-110960000D01*
X101830000Y-113040000D02*
X101830000Y-115516000D01*
X101870000Y-108507000D02*
X101870000Y-110960000D01*
X101870000Y-113040000D02*
X101870000Y-115493000D01*
X101910000Y-108532000D02*
X101910000Y-110960000D01*
X101910000Y-113040000D02*
X101910000Y-115468000D01*
X101950000Y-108557000D02*
X101950000Y-110960000D01*
X101950000Y-113040000D02*
X101950000Y-115443000D01*
X101990000Y-108582000D02*
X101990000Y-110960000D01*
X101990000Y-113040000D02*
X101990000Y-115418000D01*
X102030000Y-108608000D02*
X102030000Y-110960000D01*
X102030000Y-113040000D02*
X102030000Y-115392000D01*
X102070000Y-108635000D02*
X102070000Y-110960000D01*
X102070000Y-113040000D02*
X102070000Y-115365000D01*
X102110000Y-108663000D02*
X102110000Y-110960000D01*
X102110000Y-113040000D02*
X102110000Y-115337000D01*
X102150000Y-108691000D02*
X102150000Y-110960000D01*
X102150000Y-113040000D02*
X102150000Y-115309000D01*
X102190000Y-108720000D02*
X102190000Y-110960000D01*
X102190000Y-113040000D02*
X102190000Y-115280000D01*
X102230000Y-108750000D02*
X102230000Y-110960000D01*
X102230000Y-113040000D02*
X102230000Y-115250000D01*
X102270000Y-108781000D02*
X102270000Y-110960000D01*
X102270000Y-113040000D02*
X102270000Y-115219000D01*
X102310000Y-108812000D02*
X102310000Y-110960000D01*
X102310000Y-113040000D02*
X102310000Y-115188000D01*
X102350000Y-108844000D02*
X102350000Y-110960000D01*
X102350000Y-113040000D02*
X102350000Y-115156000D01*
X102390000Y-108877000D02*
X102390000Y-110960000D01*
X102390000Y-113040000D02*
X102390000Y-115123000D01*
X102430000Y-108911000D02*
X102430000Y-110960000D01*
X102430000Y-113040000D02*
X102430000Y-115089000D01*
X102470000Y-108945000D02*
X102470000Y-110960000D01*
X102470000Y-113040000D02*
X102470000Y-115055000D01*
X102510000Y-108981000D02*
X102510000Y-110960000D01*
X102510000Y-113040000D02*
X102510000Y-115019000D01*
X102550000Y-109018000D02*
X102550000Y-114982000D01*
X102590000Y-109055000D02*
X102590000Y-114945000D01*
X102630000Y-109094000D02*
X102630000Y-114906000D01*
X102670000Y-109133000D02*
X102670000Y-114867000D01*
X102710000Y-109174000D02*
X102710000Y-114826000D01*
X102750000Y-109216000D02*
X102750000Y-114784000D01*
X102790000Y-109259000D02*
X102790000Y-114741000D01*
X102830000Y-109304000D02*
X102830000Y-114696000D01*
X102870000Y-109349000D02*
X102870000Y-114651000D01*
X102910000Y-109396000D02*
X102910000Y-114604000D01*
X102950000Y-109445000D02*
X102950000Y-114555000D01*
X102990000Y-109495000D02*
X102990000Y-114505000D01*
X103030000Y-109547000D02*
X103030000Y-114453000D01*
X103070000Y-109600000D02*
X103070000Y-114400000D01*
X103110000Y-109656000D02*
X103110000Y-114344000D01*
X103150000Y-109713000D02*
X103150000Y-114287000D01*
X103190000Y-109773000D02*
X103190000Y-114227000D01*
X103230000Y-109835000D02*
X103230000Y-114165000D01*
X103270000Y-109899000D02*
X103270000Y-114101000D01*
X103310000Y-109966000D02*
X103310000Y-114034000D01*
X103350000Y-110036000D02*
X103350000Y-113964000D01*
X103390000Y-110110000D02*
X103390000Y-113890000D01*
X103430000Y-110187000D02*
X103430000Y-113813000D01*
X103470000Y-110269000D02*
X103470000Y-113731000D01*
X103510000Y-110356000D02*
X103510000Y-113644000D01*
X103550000Y-110448000D02*
X103550000Y-113552000D01*
X103590000Y-110547000D02*
X103590000Y-113453000D01*
X103630000Y-110654000D02*
X103630000Y-113346000D01*
X103670000Y-110772000D02*
X103670000Y-113228000D01*
X103710000Y-110903000D02*
X103710000Y-113097000D01*
X103750000Y-111053000D02*
X103750000Y-112947000D01*
X103790000Y-111232000D02*
X103790000Y-112768000D01*
X103830000Y-111467000D02*
X103830000Y-112533000D01*
X103870000Y-112000000D02*
G75*
G02*
X95630000Y-112000000I-4120000J0D01*
G01*
X95630000Y-112000000D02*
G75*
G02*
X103870000Y-112000000I4120000J0D01*
G01*
%TO.C,R12*%
X124772936Y-35265000D02*
X125227064Y-35265000D01*
X124772936Y-36735000D02*
X125227064Y-36735000D01*
%TO.C,TP2*%
X48200000Y-119000000D02*
G75*
G02*
X45800000Y-119000000I-1200000J0D01*
G01*
X45800000Y-119000000D02*
G75*
G02*
X48200000Y-119000000I1200000J0D01*
G01*
%TO.C,R14*%
X115265000Y-77227064D02*
X115265000Y-76772936D01*
X116735000Y-77227064D02*
X116735000Y-76772936D01*
%TO.C,U2*%
X66730000Y-92650000D02*
X92130000Y-92650000D01*
X66730000Y-118050000D02*
X66730000Y-92650000D01*
X92130000Y-92650000D02*
X92130000Y-118050000D01*
X92130000Y-118050000D02*
X66730000Y-118050000D01*
%TO.C,J1*%
X27340000Y-105680000D02*
X37740000Y-105680000D01*
X27340000Y-108700000D02*
X37740000Y-108700000D01*
X27340000Y-113600000D02*
X37740000Y-113600000D01*
X27340000Y-115100000D02*
X37740000Y-115100000D01*
X27340000Y-115720000D02*
X27340000Y-105680000D01*
X29700000Y-115720000D02*
X27340000Y-115720000D01*
X37740000Y-105680000D02*
X37740000Y-115720000D01*
X37740000Y-115720000D02*
X30300000Y-115720000D01*
X30440000Y-116330000D02*
X29560000Y-116330000D01*
X30000000Y-115720000D01*
X30440000Y-116330000D01*
G36*
X30440000Y-116330000D02*
G01*
X29560000Y-116330000D01*
X30000000Y-115720000D01*
X30440000Y-116330000D01*
G37*
%TO.C,J5*%
X120150000Y-25250000D02*
X120150000Y-26500000D01*
X120450000Y-27800000D02*
X121200000Y-27800000D01*
X121200000Y-27800000D02*
X121200000Y-30750000D01*
X121200000Y-30750000D02*
X126750000Y-30750000D01*
X121400000Y-25250000D02*
X120150000Y-25250000D01*
X132300000Y-27800000D02*
X132300000Y-30750000D01*
X132300000Y-30750000D02*
X126750000Y-30750000D01*
X133050000Y-27800000D02*
X132300000Y-27800000D01*
X120440000Y-25540000D02*
X133060000Y-25540000D01*
X133060000Y-31510000D01*
X120440000Y-31510000D01*
X120440000Y-25540000D01*
X120450000Y-25550000D02*
X122250000Y-25550000D01*
X122250000Y-26300000D01*
X120450000Y-26300000D01*
X120450000Y-25550000D01*
X123750000Y-25550000D02*
X129750000Y-25550000D01*
X129750000Y-26300000D01*
X123750000Y-26300000D01*
X123750000Y-25550000D01*
X131250000Y-25550000D02*
X133050000Y-25550000D01*
X133050000Y-26300000D01*
X131250000Y-26300000D01*
X131250000Y-25550000D01*
%TO.C,J3*%
X27280000Y-51340000D02*
X37320000Y-51340000D01*
X27280000Y-53700000D02*
X27280000Y-51340000D01*
X27280000Y-61740000D02*
X27280000Y-54300000D01*
X27900000Y-51340000D02*
X27900000Y-61740000D01*
X29400000Y-51340000D02*
X29400000Y-61740000D01*
X34300000Y-51340000D02*
X34300000Y-61740000D01*
X37320000Y-51340000D02*
X37320000Y-61740000D01*
X37320000Y-61740000D02*
X27280000Y-61740000D01*
X27280000Y-54000000D02*
X26670000Y-54440000D01*
X26670000Y-53560000D01*
X27280000Y-54000000D01*
G36*
X27280000Y-54000000D02*
G01*
X26670000Y-54440000D01*
X26670000Y-53560000D01*
X27280000Y-54000000D01*
G37*
%TO.C,C5*%
X71738748Y-32265000D02*
X72261252Y-32265000D01*
X71738748Y-33735000D02*
X72261252Y-33735000D01*
%TO.C,R2*%
X139265000Y-101227064D02*
X139265000Y-100772936D01*
X140735000Y-101227064D02*
X140735000Y-100772936D01*
%TO.C,D6*%
X114315000Y-81040000D02*
X114315000Y-82960000D01*
X114315000Y-82960000D02*
X117000000Y-82960000D01*
X117000000Y-81040000D02*
X114315000Y-81040000D01*
%TO.C,TP1*%
X43200000Y-119000000D02*
G75*
G02*
X40800000Y-119000000I-1200000J0D01*
G01*
X40800000Y-119000000D02*
G75*
G02*
X43200000Y-119000000I1200000J0D01*
G01*
%TO.C,U1*%
X47460000Y-24190000D02*
X67780000Y-24190000D01*
X47460000Y-88960000D02*
X47460000Y-24190000D01*
X67780000Y-24190000D02*
X67780000Y-88960000D01*
X67780000Y-88960000D02*
X47460000Y-88960000D01*
%TO.C,C7*%
X132738748Y-86265000D02*
X133261252Y-86265000D01*
X132738748Y-87735000D02*
X133261252Y-87735000D01*
%TO.C,U6*%
X39100000Y-68610000D02*
X40900000Y-68610000D01*
X40100000Y-65390000D02*
X39300000Y-65390000D01*
X40100000Y-65390000D02*
X40900000Y-65390000D01*
X38800000Y-65440000D02*
X38560000Y-65110000D01*
X39040000Y-65110000D01*
X38800000Y-65440000D01*
G36*
X38800000Y-65440000D02*
G01*
X38560000Y-65110000D01*
X39040000Y-65110000D01*
X38800000Y-65440000D01*
G37*
%TO.C,C6*%
X125738748Y-86265000D02*
X126261252Y-86265000D01*
X125738748Y-87735000D02*
X126261252Y-87735000D01*
%TO.C,R13*%
X134772936Y-35265000D02*
X135227064Y-35265000D01*
X134772936Y-36735000D02*
X135227064Y-36735000D01*
%TO.C,TP3*%
X116200000Y-92000000D02*
G75*
G02*
X113800000Y-92000000I-1200000J0D01*
G01*
X113800000Y-92000000D02*
G75*
G02*
X116200000Y-92000000I1200000J0D01*
G01*
%TO.C,TP5*%
X75200000Y-43000000D02*
G75*
G02*
X72800000Y-43000000I-1200000J0D01*
G01*
X72800000Y-43000000D02*
G75*
G02*
X75200000Y-43000000I1200000J0D01*
G01*
%TO.C,U4*%
X129100000Y-92610000D02*
X130900000Y-92610000D01*
X130100000Y-89390000D02*
X129300000Y-89390000D01*
X130100000Y-89390000D02*
X130900000Y-89390000D01*
X128800000Y-89440000D02*
X128560000Y-89110000D01*
X129040000Y-89110000D01*
X128800000Y-89440000D01*
G36*
X128800000Y-89440000D02*
G01*
X128560000Y-89110000D01*
X129040000Y-89110000D01*
X128800000Y-89440000D01*
G37*
%TO.C,R1*%
X128265000Y-101227064D02*
X128265000Y-100772936D01*
X129735000Y-101227064D02*
X129735000Y-100772936D01*
%TO.C,C10*%
X43738748Y-62265000D02*
X44261252Y-62265000D01*
X43738748Y-63735000D02*
X44261252Y-63735000D01*
%TO.C,F2*%
X106545000Y-96785000D02*
X106545000Y-99215000D01*
X109455000Y-96785000D02*
X109455000Y-99215000D01*
%TO.C,D5*%
X28150000Y-68610000D02*
X28150000Y-65950000D01*
X28150000Y-68610000D02*
X29850000Y-68610000D01*
X29850000Y-68610000D02*
X29850000Y-65950000D01*
%TO.C,J2*%
X107340000Y-105680000D02*
X127900000Y-105680000D01*
X107340000Y-108700000D02*
X127900000Y-108700000D01*
X107340000Y-113600000D02*
X127900000Y-113600000D01*
X107340000Y-115100000D02*
X127900000Y-115100000D01*
X107340000Y-115720000D02*
X107340000Y-105680000D01*
X109700000Y-115720000D02*
X107340000Y-115720000D01*
X127900000Y-105680000D02*
X127900000Y-115720000D01*
X127900000Y-115720000D02*
X110300000Y-115720000D01*
X110440000Y-116330000D02*
X109560000Y-116330000D01*
X110000000Y-115720000D01*
X110440000Y-116330000D01*
G36*
X110440000Y-116330000D02*
G01*
X109560000Y-116330000D01*
X110000000Y-115720000D01*
X110440000Y-116330000D01*
G37*
%TO.C,C13*%
X140738748Y-27265000D02*
X141261252Y-27265000D01*
X140738748Y-28735000D02*
X141261252Y-28735000D01*
%TO.C,C15*%
X136738748Y-46265000D02*
X137261252Y-46265000D01*
X136738748Y-47735000D02*
X137261252Y-47735000D01*
%TO.C,R7*%
X108772936Y-34265000D02*
X109227064Y-34265000D01*
X108772936Y-35735000D02*
X109227064Y-35735000D01*
%TO.C,R3*%
X125772936Y-80265000D02*
X126227064Y-80265000D01*
X125772936Y-81735000D02*
X126227064Y-81735000D01*
%TO.C,TP4*%
X115200000Y-70000000D02*
G75*
G02*
X112800000Y-70000000I-1200000J0D01*
G01*
X112800000Y-70000000D02*
G75*
G02*
X115200000Y-70000000I1200000J0D01*
G01*
%TO.C,U5*%
X140100000Y-92610000D02*
X141900000Y-92610000D01*
X141100000Y-89390000D02*
X140300000Y-89390000D01*
X141100000Y-89390000D02*
X141900000Y-89390000D01*
X139800000Y-89440000D02*
X139560000Y-89110000D01*
X140040000Y-89110000D01*
X139800000Y-89440000D01*
G36*
X139800000Y-89440000D02*
G01*
X139560000Y-89110000D01*
X140040000Y-89110000D01*
X139800000Y-89440000D01*
G37*
%TO.C,D4*%
X139150000Y-118610000D02*
X139150000Y-115950000D01*
X139150000Y-118610000D02*
X140850000Y-118610000D01*
X140850000Y-118610000D02*
X140850000Y-115950000D01*
%TO.C,J4*%
X96150000Y-25250000D02*
X96150000Y-26500000D01*
X96450000Y-27800000D02*
X97200000Y-27800000D01*
X97200000Y-27800000D02*
X97200000Y-30750000D01*
X97200000Y-30750000D02*
X102750000Y-30750000D01*
X97400000Y-25250000D02*
X96150000Y-25250000D01*
X108300000Y-27800000D02*
X108300000Y-30750000D01*
X108300000Y-30750000D02*
X102750000Y-30750000D01*
X109050000Y-27800000D02*
X108300000Y-27800000D01*
X96440000Y-25540000D02*
X109060000Y-25540000D01*
X109060000Y-31510000D01*
X96440000Y-31510000D01*
X96440000Y-25540000D01*
X96450000Y-25550000D02*
X98250000Y-25550000D01*
X98250000Y-26300000D01*
X96450000Y-26300000D01*
X96450000Y-25550000D01*
X99750000Y-25550000D02*
X105750000Y-25550000D01*
X105750000Y-26300000D01*
X99750000Y-26300000D01*
X99750000Y-25550000D01*
X107250000Y-25550000D02*
X109050000Y-25550000D01*
X109050000Y-26300000D01*
X107250000Y-26300000D01*
X107250000Y-25550000D01*
%TO.C,D3*%
X129150000Y-118610000D02*
X129150000Y-115950000D01*
X129150000Y-118610000D02*
X130850000Y-118610000D01*
X130850000Y-118610000D02*
X130850000Y-115950000D01*
%TO.C,C1*%
X49170000Y-116533000D02*
X49170000Y-115467000D01*
X49210000Y-116768000D02*
X49210000Y-115232000D01*
X49250000Y-116947000D02*
X49250000Y-115053000D01*
X49290000Y-117097000D02*
X49290000Y-114903000D01*
X49330000Y-117228000D02*
X49330000Y-114772000D01*
X49370000Y-117346000D02*
X49370000Y-114654000D01*
X49410000Y-117453000D02*
X49410000Y-114547000D01*
X49450000Y-117552000D02*
X49450000Y-114448000D01*
X49490000Y-117644000D02*
X49490000Y-114356000D01*
X49530000Y-117731000D02*
X49530000Y-114269000D01*
X49570000Y-117813000D02*
X49570000Y-114187000D01*
X49610000Y-117890000D02*
X49610000Y-114110000D01*
X49650000Y-117964000D02*
X49650000Y-114036000D01*
X49690000Y-118034000D02*
X49690000Y-113966000D01*
X49730000Y-118101000D02*
X49730000Y-113899000D01*
X49770000Y-118165000D02*
X49770000Y-113835000D01*
X49810000Y-118227000D02*
X49810000Y-113773000D01*
X49850000Y-118287000D02*
X49850000Y-113713000D01*
X49890000Y-118344000D02*
X49890000Y-113656000D01*
X49930000Y-118400000D02*
X49930000Y-113600000D01*
X49970000Y-118453000D02*
X49970000Y-113547000D01*
X50010000Y-118505000D02*
X50010000Y-113495000D01*
X50050000Y-118555000D02*
X50050000Y-113445000D01*
X50090000Y-118604000D02*
X50090000Y-113396000D01*
X50130000Y-118651000D02*
X50130000Y-113349000D01*
X50170000Y-118696000D02*
X50170000Y-113304000D01*
X50210000Y-118741000D02*
X50210000Y-113259000D01*
X50250000Y-118784000D02*
X50250000Y-113216000D01*
X50290000Y-118826000D02*
X50290000Y-113174000D01*
X50330000Y-118867000D02*
X50330000Y-113133000D01*
X50370000Y-118906000D02*
X50370000Y-113094000D01*
X50410000Y-118945000D02*
X50410000Y-113055000D01*
X50450000Y-118982000D02*
X50450000Y-113018000D01*
X50490000Y-114960000D02*
X50490000Y-112981000D01*
X50490000Y-119019000D02*
X50490000Y-117040000D01*
X50530000Y-114960000D02*
X50530000Y-112945000D01*
X50530000Y-119055000D02*
X50530000Y-117040000D01*
X50570000Y-114960000D02*
X50570000Y-112911000D01*
X50570000Y-119089000D02*
X50570000Y-117040000D01*
X50610000Y-114960000D02*
X50610000Y-112877000D01*
X50610000Y-119123000D02*
X50610000Y-117040000D01*
X50650000Y-114960000D02*
X50650000Y-112844000D01*
X50650000Y-119156000D02*
X50650000Y-117040000D01*
X50690000Y-114960000D02*
X50690000Y-112812000D01*
X50690000Y-119188000D02*
X50690000Y-117040000D01*
X50730000Y-114960000D02*
X50730000Y-112781000D01*
X50730000Y-119219000D02*
X50730000Y-117040000D01*
X50770000Y-114960000D02*
X50770000Y-112750000D01*
X50770000Y-119250000D02*
X50770000Y-117040000D01*
X50810000Y-114960000D02*
X50810000Y-112720000D01*
X50810000Y-119280000D02*
X50810000Y-117040000D01*
X50850000Y-114960000D02*
X50850000Y-112691000D01*
X50850000Y-119309000D02*
X50850000Y-117040000D01*
X50890000Y-114960000D02*
X50890000Y-112663000D01*
X50890000Y-119337000D02*
X50890000Y-117040000D01*
X50930000Y-114960000D02*
X50930000Y-112635000D01*
X50930000Y-119365000D02*
X50930000Y-117040000D01*
X50970000Y-114960000D02*
X50970000Y-112608000D01*
X50970000Y-119392000D02*
X50970000Y-117040000D01*
X51010000Y-114960000D02*
X51010000Y-112582000D01*
X51010000Y-119418000D02*
X51010000Y-117040000D01*
X51050000Y-114960000D02*
X51050000Y-112557000D01*
X51050000Y-119443000D02*
X51050000Y-117040000D01*
X51090000Y-114960000D02*
X51090000Y-112532000D01*
X51090000Y-119468000D02*
X51090000Y-117040000D01*
X51130000Y-114960000D02*
X51130000Y-112507000D01*
X51130000Y-119493000D02*
X51130000Y-117040000D01*
X51170000Y-114960000D02*
X51170000Y-112484000D01*
X51170000Y-119516000D02*
X51170000Y-117040000D01*
X51210000Y-114960000D02*
X51210000Y-112461000D01*
X51210000Y-119539000D02*
X51210000Y-117040000D01*
X51250000Y-114960000D02*
X51250000Y-112438000D01*
X51250000Y-119562000D02*
X51250000Y-117040000D01*
X51290000Y-114960000D02*
X51290000Y-112416000D01*
X51290000Y-119584000D02*
X51290000Y-117040000D01*
X51330000Y-114960000D02*
X51330000Y-112395000D01*
X51330000Y-119605000D02*
X51330000Y-117040000D01*
X51370000Y-114960000D02*
X51370000Y-112374000D01*
X51370000Y-119626000D02*
X51370000Y-117040000D01*
X51410000Y-114960000D02*
X51410000Y-112354000D01*
X51410000Y-119646000D02*
X51410000Y-117040000D01*
X51450000Y-114960000D02*
X51450000Y-112334000D01*
X51450000Y-119666000D02*
X51450000Y-117040000D01*
X51490000Y-114960000D02*
X51490000Y-112315000D01*
X51490000Y-119685000D02*
X51490000Y-117040000D01*
X51530000Y-114960000D02*
X51530000Y-112296000D01*
X51530000Y-119704000D02*
X51530000Y-117040000D01*
X51570000Y-114960000D02*
X51570000Y-112278000D01*
X51570000Y-119722000D02*
X51570000Y-117040000D01*
X51610000Y-114960000D02*
X51610000Y-112260000D01*
X51610000Y-119740000D02*
X51610000Y-117040000D01*
X51650000Y-114960000D02*
X51650000Y-112243000D01*
X51650000Y-119757000D02*
X51650000Y-117040000D01*
X51690000Y-114960000D02*
X51690000Y-112227000D01*
X51690000Y-119773000D02*
X51690000Y-117040000D01*
X51730000Y-114960000D02*
X51730000Y-112211000D01*
X51730000Y-119789000D02*
X51730000Y-117040000D01*
X51770000Y-114960000D02*
X51770000Y-112195000D01*
X51770000Y-119805000D02*
X51770000Y-117040000D01*
X51810000Y-114960000D02*
X51810000Y-112180000D01*
X51810000Y-119820000D02*
X51810000Y-117040000D01*
X51850000Y-114960000D02*
X51850000Y-112165000D01*
X51850000Y-119835000D02*
X51850000Y-117040000D01*
X51890000Y-114960000D02*
X51890000Y-112151000D01*
X51890000Y-119849000D02*
X51890000Y-117040000D01*
X51930000Y-114960000D02*
X51930000Y-112137000D01*
X51930000Y-119863000D02*
X51930000Y-117040000D01*
X51970000Y-114960000D02*
X51970000Y-112124000D01*
X51970000Y-119876000D02*
X51970000Y-117040000D01*
X52010000Y-114960000D02*
X52010000Y-112111000D01*
X52010000Y-119889000D02*
X52010000Y-117040000D01*
X52050000Y-114960000D02*
X52050000Y-112099000D01*
X52050000Y-119901000D02*
X52050000Y-117040000D01*
X52090000Y-114960000D02*
X52090000Y-112087000D01*
X52090000Y-119913000D02*
X52090000Y-117040000D01*
X52130000Y-114960000D02*
X52130000Y-112075000D01*
X52130000Y-119925000D02*
X52130000Y-117040000D01*
X52170000Y-114960000D02*
X52170000Y-112064000D01*
X52170000Y-119936000D02*
X52170000Y-117040000D01*
X52210000Y-114960000D02*
X52210000Y-112053000D01*
X52210000Y-119947000D02*
X52210000Y-117040000D01*
X52250000Y-114960000D02*
X52250000Y-112043000D01*
X52250000Y-119957000D02*
X52250000Y-117040000D01*
X52290000Y-114960000D02*
X52290000Y-112033000D01*
X52290000Y-119967000D02*
X52290000Y-117040000D01*
X52330000Y-114960000D02*
X52330000Y-112024000D01*
X52330000Y-119976000D02*
X52330000Y-117040000D01*
X52370000Y-114960000D02*
X52370000Y-112015000D01*
X52370000Y-119985000D02*
X52370000Y-117040000D01*
X52410000Y-114960000D02*
X52410000Y-112007000D01*
X52410000Y-119993000D02*
X52410000Y-117040000D01*
X52450000Y-114960000D02*
X52450000Y-111998000D01*
X52450000Y-120002000D02*
X52450000Y-117040000D01*
X52490000Y-114960000D02*
X52490000Y-111991000D01*
X52490000Y-120009000D02*
X52490000Y-117040000D01*
X52530000Y-114960000D02*
X52530000Y-111983000D01*
X52530000Y-120017000D02*
X52530000Y-117040000D01*
X52570000Y-120023000D02*
X52570000Y-111977000D01*
X52610000Y-120030000D02*
X52610000Y-111970000D01*
X52650000Y-120036000D02*
X52650000Y-111964000D01*
X52690000Y-120042000D02*
X52690000Y-111958000D01*
X52730000Y-120047000D02*
X52730000Y-111953000D01*
X52770000Y-120052000D02*
X52770000Y-111948000D01*
X52810000Y-120056000D02*
X52810000Y-111944000D01*
X52850000Y-120061000D02*
X52850000Y-111939000D01*
X52890000Y-120064000D02*
X52890000Y-111936000D01*
X52930000Y-120068000D02*
X52930000Y-111932000D01*
X52970000Y-120070000D02*
X52970000Y-111930000D01*
X53010000Y-120073000D02*
X53010000Y-111927000D01*
X53050000Y-120075000D02*
X53050000Y-111925000D01*
X53090000Y-120077000D02*
X53090000Y-111923000D01*
X53130000Y-120078000D02*
X53130000Y-111922000D01*
X53170000Y-120079000D02*
X53170000Y-111921000D01*
X53210000Y-120080000D02*
X53210000Y-111920000D01*
X53250000Y-120080000D02*
X53250000Y-111920000D01*
X57259698Y-118715000D02*
X57259698Y-117915000D01*
X57659698Y-118315000D02*
X56859698Y-118315000D01*
X57370000Y-116000000D02*
G75*
G02*
X49130000Y-116000000I-4120000J0D01*
G01*
X49130000Y-116000000D02*
G75*
G02*
X57370000Y-116000000I4120000J0D01*
G01*
%TO.C,C3*%
X96738748Y-68265000D02*
X97261252Y-68265000D01*
X96738748Y-69735000D02*
X97261252Y-69735000D01*
%TO.C,J6*%
X96150000Y-44250000D02*
X96150000Y-45500000D01*
X96450000Y-46800000D02*
X97200000Y-46800000D01*
X97200000Y-46800000D02*
X97200000Y-49750000D01*
X97200000Y-49750000D02*
X102750000Y-49750000D01*
X97400000Y-44250000D02*
X96150000Y-44250000D01*
X108300000Y-46800000D02*
X108300000Y-49750000D01*
X108300000Y-49750000D02*
X102750000Y-49750000D01*
X109050000Y-46800000D02*
X108300000Y-46800000D01*
X96440000Y-44540000D02*
X109060000Y-44540000D01*
X109060000Y-50510000D01*
X96440000Y-50510000D01*
X96440000Y-44540000D01*
X96450000Y-44550000D02*
X98250000Y-44550000D01*
X98250000Y-45300000D01*
X96450000Y-45300000D01*
X96450000Y-44550000D01*
X99750000Y-44550000D02*
X105750000Y-44550000D01*
X105750000Y-45300000D01*
X99750000Y-45300000D01*
X99750000Y-44550000D01*
X107250000Y-44550000D02*
X109050000Y-44550000D01*
X109050000Y-45300000D01*
X107250000Y-45300000D01*
X107250000Y-44550000D01*
%TO.C,R4*%
X137772936Y-106265000D02*
X138227064Y-106265000D01*
X137772936Y-107735000D02*
X138227064Y-107735000D01*
%TO.C,R10*%
X138772936Y-56265000D02*
X139227064Y-56265000D01*
X138772936Y-57735000D02*
X139227064Y-57735000D01*
%TO.C,R11*%
X137772936Y-63265000D02*
X138227064Y-63265000D01*
X137772936Y-64735000D02*
X138227064Y-64735000D01*
%TO.C,C12*%
X114738748Y-24265000D02*
X115261252Y-24265000D01*
X114738748Y-25735000D02*
X115261252Y-25735000D01*
%TO.C,R5*%
X39772936Y-58265000D02*
X40227064Y-58265000D01*
X39772936Y-59735000D02*
X40227064Y-59735000D01*
%TO.C,D2*%
X87490000Y-33350000D02*
X87490000Y-36650000D01*
X87490000Y-33350000D02*
X93000000Y-33350000D01*
X87490000Y-36650000D02*
X93000000Y-36650000D01*
%TO.C,U3*%
X96250000Y-76000000D02*
X96250000Y-78450000D01*
X96250000Y-78450000D02*
X98580000Y-78450000D01*
X96580000Y-70270000D02*
X108520000Y-70270000D01*
X96580000Y-78120000D02*
X96580000Y-70270000D01*
X108520000Y-70270000D02*
X108520000Y-78120000D01*
X108520000Y-78120000D02*
X96580000Y-78120000D01*
%TO.C,C8*%
X137738748Y-86265000D02*
X138261252Y-86265000D01*
X137738748Y-87735000D02*
X138261252Y-87735000D01*
%TO.C,R8*%
X100772936Y-34265000D02*
X101227064Y-34265000D01*
X100772936Y-35735000D02*
X101227064Y-35735000D01*
%TD*%
M02*
