%TF.GenerationSoftware,KiCad,Pcbnew,9.0.8+dfsg-1*%
%TF.CreationDate,2026-09-09T08:36:47-04:00*%
%TF.ProjectId,racecar-carrier-reva,72616365-6361-4722-9d63-617272696572,rev?*%
%TF.SameCoordinates,Original*%
%TF.FileFunction,Soldermask,Top*%
%TF.FilePolarity,Negative*%
%FSLAX46Y46*%
G04 Gerber Fmt 4.6, Leading zero omitted, Abs format (unit mm)*
G04 Created by KiCad (PCBNEW 9.0.8+dfsg-1) date 2026-09-09 08:36:47*
%MOMM*%
%LPD*%
G01*
G04 APERTURE LIST*
G04 Aperture macros list*
%AMRoundRect*
0 Rectangle with rounded corners*
0 $1 Rounding radius*
0 $2 $3 $4 $5 $6 $7 $8 $9 X,Y pos of 4 corners*
0 Add a 4 corners polygon primitive as box body*
4,1,4,$2,$3,$4,$5,$6,$7,$8,$9,$2,$3,0*
0 Add four circle primitives for the rounded corners*
1,1,$1+$1,$2,$3*
1,1,$1+$1,$4,$5*
1,1,$1+$1,$6,$7*
1,1,$1+$1,$8,$9*
0 Add four rect primitives between the rounded corners*
20,1,$1+$1,$2,$3,$4,$5,0*
20,1,$1+$1,$4,$5,$6,$7,0*
20,1,$1+$1,$6,$7,$8,$9,0*
20,1,$1+$1,$8,$9,$2,$3,0*%
G04 Aperture macros list end*
%ADD10R,1.700000X1.700000*%
%ADD11C,1.700000*%
%ADD12R,1.960000X3.150000*%
%ADD13RoundRect,0.250000X0.450000X-0.350000X0.450000X0.350000X-0.450000X0.350000X-0.450000X-0.350000X0*%
%ADD14RoundRect,0.250000X-0.350000X-0.450000X0.350000X-0.450000X0.350000X0.450000X-0.350000X0.450000X0*%
%ADD15RoundRect,0.250000X-0.337500X-0.475000X0.337500X-0.475000X0.337500X0.475000X-0.337500X0.475000X0*%
%ADD16RoundRect,0.250000X0.900000X-1.000000X0.900000X1.000000X-0.900000X1.000000X-0.900000X-1.000000X0*%
%ADD17RoundRect,0.250000X0.475000X-0.337500X0.475000X0.337500X-0.475000X0.337500X-0.475000X-0.337500X0*%
%ADD18C,3.200000*%
%ADD19RoundRect,0.250000X-0.550000X-0.550000X0.550000X-0.550000X0.550000X0.550000X-0.550000X0.550000X0*%
%ADD20C,1.600000*%
%ADD21C,2.000000*%
%ADD22R,1.900000X1.900000*%
%ADD23C,1.900000*%
%ADD24RoundRect,0.250000X-1.050000X-1.050000X1.050000X-1.050000X1.050000X1.050000X-1.050000X1.050000X0*%
%ADD25C,2.600000*%
%ADD26RoundRect,0.250000X-0.600000X-0.725000X0.600000X-0.725000X0.600000X0.725000X-0.600000X0.725000X0*%
%ADD27O,1.700000X1.950000*%
%ADD28RoundRect,0.250000X-1.050000X1.050000X-1.050000X-1.050000X1.050000X-1.050000X1.050000X1.050000X0*%
%ADD29RoundRect,0.243750X-0.243750X-0.456250X0.243750X-0.456250X0.243750X0.456250X-0.243750X0.456250X0*%
%ADD30RoundRect,0.162500X-0.617500X-0.162500X0.617500X-0.162500X0.617500X0.162500X-0.617500X0.162500X0*%
%ADD31R,3.150000X1.960000*%
%ADD32RoundRect,0.112500X0.112500X-0.187500X0.112500X0.187500X-0.112500X0.187500X-0.112500X-0.187500X0*%
%ADD33RoundRect,0.250000X0.550000X0.550000X-0.550000X0.550000X-0.550000X-0.550000X0.550000X-0.550000X0*%
%ADD34RoundRect,0.250000X-1.000000X-0.650000X1.000000X-0.650000X1.000000X0.650000X-1.000000X0.650000X0*%
%ADD35R,1.500000X2.500000*%
%ADD36O,1.500000X2.500000*%
G04 APERTURE END LIST*
D10*
%TO.C,JP1*%
X82000000Y-30000000D03*
D11*
X82000000Y-32540000D03*
%TD*%
D12*
%TO.C,F1*%
X38545000Y-101000000D03*
X43455000Y-101000000D03*
%TD*%
D13*
%TO.C,R6*%
X35000000Y-75000000D03*
X35000000Y-73000000D03*
%TD*%
D14*
%TO.C,R9*%
X109000000Y-42000000D03*
X111000000Y-42000000D03*
%TD*%
D10*
%TO.C,J7*%
X125000000Y-47000000D03*
D11*
X127540000Y-47000000D03*
X125000000Y-49540000D03*
X127540000Y-49540000D03*
X125000000Y-52080000D03*
X127540000Y-52080000D03*
X125000000Y-54620000D03*
X127540000Y-54620000D03*
%TD*%
D15*
%TO.C,C9*%
X143962500Y-87000000D03*
X146037500Y-87000000D03*
%TD*%
D16*
%TO.C,D1*%
X53000000Y-102150000D03*
X53000000Y-97850000D03*
%TD*%
D17*
%TO.C,C11*%
X35000000Y-67037500D03*
X35000000Y-64962500D03*
%TD*%
D18*
%TO.C,H4*%
X146000000Y-126000000D03*
%TD*%
D15*
%TO.C,C4*%
X106962500Y-81000000D03*
X109037500Y-81000000D03*
%TD*%
%TO.C,C14*%
X112962500Y-48000000D03*
X115037500Y-48000000D03*
%TD*%
D19*
%TO.C,C2*%
X98000000Y-112000000D03*
D20*
X101500000Y-112000000D03*
%TD*%
D14*
%TO.C,R12*%
X124000000Y-36000000D03*
X126000000Y-36000000D03*
%TD*%
D21*
%TO.C,TP2*%
X47000000Y-119000000D03*
%TD*%
D13*
%TO.C,R14*%
X116000000Y-78000000D03*
X116000000Y-76000000D03*
%TD*%
D22*
%TO.C,U2*%
X68000000Y-99000000D03*
D23*
X70540000Y-99000000D03*
X68000000Y-101540000D03*
X70540000Y-101540000D03*
X68000000Y-104080000D03*
X70540000Y-104080000D03*
X68000000Y-106620000D03*
X70540000Y-106620000D03*
X68000000Y-109160000D03*
X70540000Y-109160000D03*
X68000000Y-111700000D03*
X70540000Y-111700000D03*
%TD*%
D24*
%TO.C,J1*%
X30000000Y-111000000D03*
D25*
X35080000Y-111000000D03*
%TD*%
D26*
%TO.C,J5*%
X123000000Y-28000000D03*
D27*
X125500000Y-28000000D03*
X128000000Y-28000000D03*
X130500000Y-28000000D03*
%TD*%
D28*
%TO.C,J3*%
X32000000Y-54000000D03*
D25*
X32000000Y-59080000D03*
%TD*%
D15*
%TO.C,C5*%
X70962500Y-33000000D03*
X73037500Y-33000000D03*
%TD*%
D13*
%TO.C,R2*%
X140000000Y-102000000D03*
X140000000Y-100000000D03*
%TD*%
D29*
%TO.C,D6*%
X115062500Y-82000000D03*
X116937500Y-82000000D03*
%TD*%
D21*
%TO.C,TP1*%
X42000000Y-119000000D03*
%TD*%
D22*
%TO.C,U1*%
X50000000Y-28000000D03*
D23*
X50000000Y-30540000D03*
X50000000Y-33080000D03*
X50000000Y-35620000D03*
X50000000Y-38160000D03*
X50000000Y-40700000D03*
X50000000Y-43240000D03*
X50000000Y-45780000D03*
X50000000Y-48320000D03*
X50000000Y-50860000D03*
X50000000Y-53400000D03*
X50000000Y-55940000D03*
X50000000Y-58480000D03*
X50000000Y-61020000D03*
X50000000Y-63560000D03*
X50000000Y-66100000D03*
X50000000Y-68640000D03*
X50000000Y-71180000D03*
X50000000Y-73720000D03*
X50000000Y-76260000D03*
X50000000Y-78800000D03*
X50000000Y-81340000D03*
X50000000Y-83880000D03*
X50000000Y-86420000D03*
X65240000Y-28000000D03*
X65240000Y-30540000D03*
X65240000Y-33080000D03*
X65240000Y-35620000D03*
X65240000Y-38160000D03*
X65240000Y-40700000D03*
X65240000Y-43240000D03*
X65240000Y-45780000D03*
X65240000Y-48320000D03*
X65240000Y-50860000D03*
X65240000Y-53400000D03*
X65240000Y-55940000D03*
X65240000Y-58480000D03*
X65240000Y-61020000D03*
X65240000Y-63560000D03*
X65240000Y-66100000D03*
X65240000Y-68640000D03*
X65240000Y-71180000D03*
X65240000Y-73720000D03*
X65240000Y-76260000D03*
X65240000Y-78800000D03*
X65240000Y-81340000D03*
X65240000Y-83880000D03*
X65240000Y-86420000D03*
%TD*%
D15*
%TO.C,C7*%
X131962500Y-87000000D03*
X134037500Y-87000000D03*
%TD*%
D30*
%TO.C,U6*%
X38650000Y-66050000D03*
X38650000Y-67000000D03*
X38650000Y-67950000D03*
X41350000Y-67950000D03*
X41350000Y-67000000D03*
X41350000Y-66050000D03*
%TD*%
D15*
%TO.C,C6*%
X124962500Y-87000000D03*
X127037500Y-87000000D03*
%TD*%
D14*
%TO.C,R13*%
X134000000Y-36000000D03*
X136000000Y-36000000D03*
%TD*%
D21*
%TO.C,TP3*%
X115000000Y-92000000D03*
%TD*%
%TO.C,TP5*%
X74000000Y-43000000D03*
%TD*%
D30*
%TO.C,U4*%
X128650000Y-90050000D03*
X128650000Y-91000000D03*
X128650000Y-91950000D03*
X131350000Y-91950000D03*
X131350000Y-91000000D03*
X131350000Y-90050000D03*
%TD*%
D13*
%TO.C,R1*%
X129000000Y-102000000D03*
X129000000Y-100000000D03*
%TD*%
D18*
%TO.C,H2*%
X146000000Y-24000000D03*
%TD*%
D15*
%TO.C,C10*%
X42962500Y-63000000D03*
X45037500Y-63000000D03*
%TD*%
D31*
%TO.C,F2*%
X108000000Y-95545000D03*
X108000000Y-100455000D03*
%TD*%
D32*
%TO.C,D5*%
X29000000Y-68050000D03*
X29000000Y-65950000D03*
%TD*%
D24*
%TO.C,J2*%
X110000000Y-111000000D03*
D25*
X115080000Y-111000000D03*
X120160000Y-111000000D03*
X125240000Y-111000000D03*
%TD*%
D15*
%TO.C,C13*%
X139962500Y-28000000D03*
X142037500Y-28000000D03*
%TD*%
%TO.C,C15*%
X135962500Y-47000000D03*
X138037500Y-47000000D03*
%TD*%
D14*
%TO.C,R7*%
X108000000Y-35000000D03*
X110000000Y-35000000D03*
%TD*%
%TO.C,R3*%
X125000000Y-81000000D03*
X127000000Y-81000000D03*
%TD*%
D21*
%TO.C,TP4*%
X114000000Y-70000000D03*
%TD*%
D18*
%TO.C,H1*%
X24000000Y-24000000D03*
%TD*%
D30*
%TO.C,U5*%
X139650000Y-90050000D03*
X139650000Y-91000000D03*
X139650000Y-91950000D03*
X142350000Y-91950000D03*
X142350000Y-91000000D03*
X142350000Y-90050000D03*
%TD*%
D32*
%TO.C,D4*%
X140000000Y-118050000D03*
X140000000Y-115950000D03*
%TD*%
D26*
%TO.C,J4*%
X99000000Y-28000000D03*
D27*
X101500000Y-28000000D03*
X104000000Y-28000000D03*
X106500000Y-28000000D03*
%TD*%
D32*
%TO.C,D3*%
X130000000Y-118050000D03*
X130000000Y-115950000D03*
%TD*%
D33*
%TO.C,C1*%
X55000000Y-116000000D03*
D20*
X51500000Y-116000000D03*
%TD*%
D15*
%TO.C,C3*%
X95962500Y-69000000D03*
X98037500Y-69000000D03*
%TD*%
D26*
%TO.C,J6*%
X99000000Y-47000000D03*
D27*
X101500000Y-47000000D03*
X104000000Y-47000000D03*
X106500000Y-47000000D03*
%TD*%
D14*
%TO.C,R4*%
X137000000Y-107000000D03*
X139000000Y-107000000D03*
%TD*%
%TO.C,R10*%
X138000000Y-57000000D03*
X140000000Y-57000000D03*
%TD*%
%TO.C,R11*%
X137000000Y-64000000D03*
X139000000Y-64000000D03*
%TD*%
D15*
%TO.C,C12*%
X113962500Y-25000000D03*
X116037500Y-25000000D03*
%TD*%
D14*
%TO.C,R5*%
X39000000Y-59000000D03*
X41000000Y-59000000D03*
%TD*%
D34*
%TO.C,D2*%
X89000000Y-35000000D03*
X93000000Y-35000000D03*
%TD*%
D35*
%TO.C,U3*%
X100000000Y-76000000D03*
D36*
X102540000Y-76000000D03*
X105080000Y-76000000D03*
%TD*%
D18*
%TO.C,H3*%
X24000000Y-126000000D03*
%TD*%
D15*
%TO.C,C8*%
X136962500Y-87000000D03*
X139037500Y-87000000D03*
%TD*%
D14*
%TO.C,R8*%
X100000000Y-35000000D03*
X102000000Y-35000000D03*
%TD*%
M02*
