%TF.GenerationSoftware,KiCad,Pcbnew,9.0.8+dfsg-1*%
%TF.CreationDate,2026-09-09T08:36:47-04:00*%
%TF.ProjectId,racecar-carrier-reva,72616365-6361-4722-9d63-617272696572,rev?*%
%TF.SameCoordinates,Original*%
%TF.FileFunction,Copper,L2,Bot*%
%TF.FilePolarity,Positive*%
%FSLAX46Y46*%
G04 Gerber Fmt 4.6, Leading zero omitted, Abs format (unit mm)*
G04 Created by KiCad (PCBNEW 9.0.8+dfsg-1) date 2026-09-09 08:36:47*
%MOMM*%
%LPD*%
G01*
G04 APERTURE LIST*
G04 Aperture macros list*
%AMRoundRect*
0 Rectangle with rounded corners*
0 $1 Rounding radius*
0 $2 $3 $4 $5 $6 $7 $8 $9 X,Y pos of 4 corners*
0 Add a 4 corners polygon primitive as box body*
4,1,4,$2,$3,$4,$5,$6,$7,$8,$9,$2,$3,0*
0 Add four circle primitives for the rounded corners*
1,1,$1+$1,$2,$3*
1,1,$1+$1,$4,$5*
1,1,$1+$1,$6,$7*
1,1,$1+$1,$8,$9*
0 Add four rect primitives between the rounded corners*
20,1,$1+$1,$2,$3,$4,$5,0*
20,1,$1+$1,$4,$5,$6,$7,0*
20,1,$1+$1,$6,$7,$8,$9,0*
20,1,$1+$1,$8,$9,$2,$3,0*%
G04 Aperture macros list end*
%TA.AperFunction,ComponentPad*%
%ADD10R,1.700000X1.700000*%
%TD*%
%TA.AperFunction,ComponentPad*%
%ADD11C,1.700000*%
%TD*%
%TA.AperFunction,ComponentPad*%
%ADD12RoundRect,0.250000X-0.550000X-0.550000X0.550000X-0.550000X0.550000X0.550000X-0.550000X0.550000X0*%
%TD*%
%TA.AperFunction,ComponentPad*%
%ADD13C,1.600000*%
%TD*%
%TA.AperFunction,ComponentPad*%
%ADD14C,2.000000*%
%TD*%
%TA.AperFunction,ComponentPad*%
%ADD15R,1.900000X1.900000*%
%TD*%
%TA.AperFunction,ComponentPad*%
%ADD16C,1.900000*%
%TD*%
%TA.AperFunction,ComponentPad*%
%ADD17RoundRect,0.250000X-1.050000X-1.050000X1.050000X-1.050000X1.050000X1.050000X-1.050000X1.050000X0*%
%TD*%
%TA.AperFunction,ComponentPad*%
%ADD18C,2.600000*%
%TD*%
%TA.AperFunction,ComponentPad*%
%ADD19RoundRect,0.250000X-0.600000X-0.725000X0.600000X-0.725000X0.600000X0.725000X-0.600000X0.725000X0*%
%TD*%
%TA.AperFunction,ComponentPad*%
%ADD20O,1.700000X1.950000*%
%TD*%
%TA.AperFunction,ComponentPad*%
%ADD21RoundRect,0.250000X-1.050000X1.050000X-1.050000X-1.050000X1.050000X-1.050000X1.050000X1.050000X0*%
%TD*%
%TA.AperFunction,ComponentPad*%
%ADD22RoundRect,0.250000X0.550000X0.550000X-0.550000X0.550000X-0.550000X-0.550000X0.550000X-0.550000X0*%
%TD*%
%TA.AperFunction,ComponentPad*%
%ADD23R,1.500000X2.500000*%
%TD*%
%TA.AperFunction,ComponentPad*%
%ADD24O,1.500000X2.500000*%
%TD*%
%TA.AperFunction,ViaPad*%
%ADD25C,0.800000*%
%TD*%
%TA.AperFunction,Conductor*%
%ADD26C,0.300000*%
%TD*%
%TA.AperFunction,Conductor*%
%ADD27C,1.600000*%
%TD*%
%TA.AperFunction,Conductor*%
%ADD28C,3.000000*%
%TD*%
%TA.AperFunction,Conductor*%
%ADD29C,2.600000*%
%TD*%
G04 APERTURE END LIST*
D10*
%TO.P,JP1,1*%
%TO.N,+5V_MCU_DIODE*%
X82000000Y-30000000D03*
D11*
%TO.P,JP1,2*%
%TO.N,TEENSY_VIN*%
X82000000Y-32540000D03*
%TD*%
D10*
%TO.P,J7,1*%
%TO.N,+3V3_AUX*%
X125000000Y-47000000D03*
D11*
%TO.P,J7,2*%
%TO.N,GND*%
X127540000Y-47000000D03*
%TO.P,J7,3*%
%TO.N,ETH_CS*%
X125000000Y-49540000D03*
%TO.P,J7,4*%
%TO.N,ETH_MOSI*%
X127540000Y-49540000D03*
%TO.P,J7,5*%
%TO.N,ETH_MISO*%
X125000000Y-52080000D03*
%TO.P,J7,6*%
%TO.N,ETH_SCK*%
X127540000Y-52080000D03*
%TO.P,J7,7*%
%TO.N,ETH_RST*%
X125000000Y-54620000D03*
%TO.P,J7,8*%
%TO.N,ETH_INT*%
X127540000Y-54620000D03*
%TD*%
D12*
%TO.P,C2,1*%
%TO.N,+5V_SCREEN*%
X98000000Y-112000000D03*
D13*
%TO.P,C2,2*%
%TO.N,GND*%
X101500000Y-112000000D03*
%TD*%
D14*
%TO.P,TP2,1*%
%TO.N,VIN_FUSED*%
X47000000Y-119000000D03*
%TD*%
D15*
%TO.P,U2,1*%
%TO.N,+5V_MAIN*%
X68000000Y-99000000D03*
D16*
%TO.P,U2,2*%
X70540000Y-99000000D03*
%TO.P,U2,3*%
%TO.N,GND*%
X68000000Y-101540000D03*
%TO.P,U2,4*%
X70540000Y-101540000D03*
%TO.P,U2,5*%
X68000000Y-104080000D03*
%TO.P,U2,6*%
X70540000Y-104080000D03*
%TO.P,U2,7*%
%TO.N,VIN_FUSED*%
X68000000Y-106620000D03*
%TO.P,U2,8*%
X70540000Y-106620000D03*
%TO.P,U2,9*%
%TO.N,VIN_PROTECTED*%
X68000000Y-109160000D03*
%TO.P,U2,10*%
X70540000Y-109160000D03*
%TO.P,U2,11*%
%TO.N,N/C*%
X68000000Y-111700000D03*
%TO.P,U2,12*%
X70540000Y-111700000D03*
%TD*%
D17*
%TO.P,J1,1*%
%TO.N,VIN_RAW*%
X30000000Y-111000000D03*
D18*
%TO.P,J1,2*%
%TO.N,GND*%
X35080000Y-111000000D03*
%TD*%
D19*
%TO.P,J5,1*%
%TO.N,+3V3_AUX*%
X123000000Y-28000000D03*
D20*
%TO.P,J5,2*%
%TO.N,GND*%
X125500000Y-28000000D03*
%TO.P,J5,3*%
%TO.N,IMU_SDA*%
X128000000Y-28000000D03*
%TO.P,J5,4*%
%TO.N,IMU_SCL*%
X130500000Y-28000000D03*
%TD*%
D21*
%TO.P,J3,1*%
%TO.N,GND*%
X32000000Y-54000000D03*
D18*
%TO.P,J3,2*%
%TO.N,TACH_CABLE*%
X32000000Y-59080000D03*
%TD*%
D14*
%TO.P,TP1,1*%
%TO.N,GND*%
X42000000Y-119000000D03*
%TD*%
D15*
%TO.P,U1,1*%
%TO.N,GND*%
X50000000Y-28000000D03*
D16*
%TO.P,U1,2*%
%TO.N,N/C*%
X50000000Y-30540000D03*
%TO.P,U1,3*%
X50000000Y-33080000D03*
%TO.P,U1,4*%
X50000000Y-35620000D03*
%TO.P,U1,5*%
X50000000Y-38160000D03*
%TO.P,U1,6*%
X50000000Y-40700000D03*
%TO.P,U1,7*%
%TO.N,ETH_INT*%
X50000000Y-43240000D03*
%TO.P,U1,8*%
%TO.N,ETH_RST*%
X50000000Y-45780000D03*
%TO.P,U1,9*%
%TO.N,GPS_RX_MCU*%
X50000000Y-48320000D03*
%TO.P,U1,10*%
%TO.N,GPS_TX_MCU*%
X50000000Y-50860000D03*
%TO.P,U1,11*%
%TO.N,TACH_MCU*%
X50000000Y-53400000D03*
%TO.P,U1,12*%
%TO.N,ETH_CS*%
X50000000Y-55940000D03*
%TO.P,U1,13*%
%TO.N,ETH_MOSI*%
X50000000Y-58480000D03*
%TO.P,U1,14*%
%TO.N,ETH_MISO*%
X50000000Y-61020000D03*
%TO.P,U1,15*%
%TO.N,+3V3_MCU*%
X50000000Y-63560000D03*
%TO.P,U1,16*%
%TO.N,N/C*%
X50000000Y-66100000D03*
%TO.P,U1,17*%
X50000000Y-68640000D03*
%TO.P,U1,18*%
X50000000Y-71180000D03*
%TO.P,U1,19*%
X50000000Y-73720000D03*
%TO.P,U1,20*%
X50000000Y-76260000D03*
%TO.P,U1,21*%
X50000000Y-78800000D03*
%TO.P,U1,22*%
X50000000Y-81340000D03*
%TO.P,U1,23*%
X50000000Y-83880000D03*
%TO.P,U1,24*%
X50000000Y-86420000D03*
%TO.P,U1,25*%
%TO.N,TEENSY_VIN*%
X65240000Y-28000000D03*
%TO.P,U1,26*%
%TO.N,GND*%
X65240000Y-30540000D03*
%TO.P,U1,27*%
%TO.N,+3V3_MCU*%
X65240000Y-33080000D03*
%TO.P,U1,28*%
%TO.N,CAN_RX*%
X65240000Y-35620000D03*
%TO.P,U1,29*%
%TO.N,CAN_TX*%
X65240000Y-38160000D03*
%TO.P,U1,30*%
%TO.N,N/C*%
X65240000Y-40700000D03*
%TO.P,U1,31*%
X65240000Y-43240000D03*
%TO.P,U1,32*%
%TO.N,IMU_SCL*%
X65240000Y-45780000D03*
%TO.P,U1,33*%
%TO.N,IMU_SDA*%
X65240000Y-48320000D03*
%TO.P,U1,34*%
%TO.N,N/C*%
X65240000Y-50860000D03*
%TO.P,U1,35*%
X65240000Y-53400000D03*
%TO.P,U1,36*%
%TO.N,DASH_RX_MCU*%
X65240000Y-55940000D03*
%TO.P,U1,37*%
%TO.N,DASH_TX_MCU*%
X65240000Y-58480000D03*
%TO.P,U1,38*%
%TO.N,ETH_SCK*%
X65240000Y-61020000D03*
%TO.P,U1,39*%
%TO.N,GND*%
X65240000Y-63560000D03*
%TO.P,U1,40*%
%TO.N,N/C*%
X65240000Y-66100000D03*
%TO.P,U1,41*%
X65240000Y-68640000D03*
%TO.P,U1,42*%
X65240000Y-71180000D03*
%TO.P,U1,43*%
X65240000Y-73720000D03*
%TO.P,U1,44*%
X65240000Y-76260000D03*
%TO.P,U1,45*%
X65240000Y-78800000D03*
%TO.P,U1,46*%
X65240000Y-81340000D03*
%TO.P,U1,47*%
X65240000Y-83880000D03*
%TO.P,U1,48*%
X65240000Y-86420000D03*
%TD*%
D14*
%TO.P,TP3,1*%
%TO.N,+5V_MAIN*%
X115000000Y-92000000D03*
%TD*%
%TO.P,TP5,1*%
%TO.N,+3V3_MCU*%
X74000000Y-43000000D03*
%TD*%
D17*
%TO.P,J2,1*%
%TO.N,GND*%
X110000000Y-111000000D03*
D18*
%TO.P,J2,2*%
%TO.N,+5V_SCREEN*%
X115080000Y-111000000D03*
%TO.P,J2,3*%
%TO.N,DASH_RX_CABLE*%
X120160000Y-111000000D03*
%TO.P,J2,4*%
%TO.N,DASH_TX_CABLE*%
X125240000Y-111000000D03*
%TD*%
D14*
%TO.P,TP4,1*%
%TO.N,+3V3_AUX*%
X114000000Y-70000000D03*
%TD*%
D19*
%TO.P,J4,1*%
%TO.N,+3V3_AUX*%
X99000000Y-28000000D03*
D20*
%TO.P,J4,2*%
%TO.N,GND*%
X101500000Y-28000000D03*
%TO.P,J4,3*%
%TO.N,GPS_TX_CABLE*%
X104000000Y-28000000D03*
%TO.P,J4,4*%
%TO.N,GPS_RX_CABLE*%
X106500000Y-28000000D03*
%TD*%
D22*
%TO.P,C1,1*%
%TO.N,VIN_FUSED*%
X55000000Y-116000000D03*
D13*
%TO.P,C1,2*%
%TO.N,GND*%
X51500000Y-116000000D03*
%TD*%
D19*
%TO.P,J6,1*%
%TO.N,+3V3_AUX*%
X99000000Y-47000000D03*
D20*
%TO.P,J6,2*%
%TO.N,GND*%
X101500000Y-47000000D03*
%TO.P,J6,3*%
%TO.N,CAN_TX*%
X104000000Y-47000000D03*
%TO.P,J6,4*%
%TO.N,CAN_RX*%
X106500000Y-47000000D03*
%TD*%
D23*
%TO.P,U3,1*%
%TO.N,VIN_PROTECTED*%
X100000000Y-76000000D03*
D24*
%TO.P,U3,2*%
%TO.N,GND*%
X102540000Y-76000000D03*
%TO.P,U3,3*%
%TO.N,+3V3_AUX*%
X105080000Y-76000000D03*
%TD*%
D25*
%TO.N,GND*%
X42785700Y-61511800D03*
%TO.N,DASH_TX_MCU*%
X102526200Y-58839600D03*
X125935000Y-83781500D03*
%TO.N,DASH_RX_MCU*%
X88198900Y-80181000D03*
%TO.N,IMU_SDA*%
X97266200Y-27424600D03*
%TO.N,IMU_SCL*%
X93956600Y-27433200D03*
%TO.N,GPS_TX_MCU*%
X81055300Y-25383400D03*
%TO.N,+5V_MAIN*%
X92891800Y-36593400D03*
%TO.N,+5V_SCREEN*%
X131911500Y-89072600D03*
%TO.N,DASH_TX_CABLE*%
X127890100Y-100992800D03*
%TO.N,TACH_CABLE*%
X28096700Y-68050000D03*
%TD*%
D26*
%TO.N,GND*%
X102540000Y-76000000D02*
X102020000Y-76000000D01*
D27*
X68000000Y-101540000D02*
X70540000Y-101540000D01*
D26*
X50000000Y-28000000D02*
X35273900Y-42726100D01*
X101500000Y-47000000D02*
X101500000Y-28000000D01*
X102020000Y-76000000D02*
X101500000Y-76000000D01*
X101500000Y-117960000D02*
X101500000Y-112000000D01*
X51099500Y-124000000D02*
X51500000Y-123599500D01*
X40477500Y-124000000D02*
X42000000Y-122477500D01*
D28*
X35080000Y-111000000D02*
X35080000Y-124000000D01*
D26*
X35273900Y-54000000D02*
X42785700Y-61511800D01*
X35273900Y-42726100D02*
X35273900Y-54000000D01*
X102020000Y-76000000D02*
X101500000Y-75480000D01*
X32000000Y-54000000D02*
X35273900Y-54000000D01*
X51500000Y-123599500D02*
X51500000Y-116000000D01*
X42000000Y-122477500D02*
X42000000Y-119000000D01*
X101500000Y-112000000D02*
X101500000Y-76000000D01*
D27*
X70540000Y-101540000D02*
X70540000Y-104080000D01*
D28*
X62000000Y-124000000D02*
X65000000Y-121000000D01*
X65000000Y-104080000D02*
X65000000Y-121000000D01*
X95000000Y-121000000D02*
X97000000Y-119000000D01*
X35080000Y-124000000D02*
X62000000Y-124000000D01*
D26*
X102540000Y-119000000D02*
X101500000Y-117960000D01*
X66648300Y-100188300D02*
X66648300Y-64968300D01*
D28*
X110000000Y-119000000D02*
X110000000Y-111000000D01*
D29*
X68000000Y-104080000D02*
X65000000Y-104080000D01*
D28*
X65000000Y-121000000D02*
X95000000Y-121000000D01*
X97000000Y-119000000D02*
X110000000Y-119000000D01*
D26*
X66648300Y-64968300D02*
X65240000Y-63560000D01*
X68000000Y-101540000D02*
X66648300Y-100188300D01*
X101500000Y-75480000D02*
X101500000Y-47000000D01*
D27*
X70540000Y-104080000D02*
X68000000Y-104080000D01*
D26*
%TO.N,DASH_TX_MCU*%
X125935000Y-83781500D02*
X125777900Y-83781500D01*
X125777900Y-83781500D02*
X102526200Y-60529800D01*
X102526200Y-60529800D02*
X102526200Y-58839600D01*
%TO.N,DASH_RX_MCU*%
X65240000Y-55940000D02*
X88198900Y-78898900D01*
X88198900Y-78898900D02*
X88198900Y-80181000D01*
%TO.N,IMU_SDA*%
X76370800Y-48320000D02*
X97266200Y-27424600D01*
X65240000Y-48320000D02*
X76370800Y-48320000D01*
%TO.N,IMU_SCL*%
X65240000Y-45780000D02*
X75609800Y-45780000D01*
X75609800Y-45780000D02*
X93956600Y-27433200D01*
%TO.N,+3V3_MCU*%
X50000000Y-63560000D02*
X63187800Y-50372200D01*
X63187800Y-50372200D02*
X63187800Y-35132200D01*
X63187800Y-35132200D02*
X65240000Y-33080000D01*
%TO.N,ETH_MOSI*%
X62438900Y-28888600D02*
X62438900Y-46041100D01*
X127676100Y-49540000D02*
X129349200Y-51213100D01*
X128317300Y-56462900D02*
X124282600Y-56462900D01*
X107013200Y-26617900D02*
X93636200Y-26617900D01*
X93517200Y-26736900D02*
X67190000Y-26736900D01*
X129349200Y-55431000D02*
X128317300Y-56462900D01*
X64682200Y-26645300D02*
X62438900Y-28888600D01*
X127540000Y-49540000D02*
X127676100Y-49540000D01*
X124282600Y-56462900D02*
X107751700Y-39932000D01*
X107751700Y-39932000D02*
X107751700Y-27356400D01*
X129349200Y-51213100D02*
X129349200Y-55431000D01*
X62438900Y-46041100D02*
X50000000Y-58480000D01*
X67190000Y-26736900D02*
X67098400Y-26645300D01*
X107751700Y-27356400D02*
X107013200Y-26617900D01*
X67098400Y-26645300D02*
X64682200Y-26645300D01*
X93636200Y-26617900D02*
X93517200Y-26736900D01*
%TO.N,ETH_CS*%
X128088300Y-50813000D02*
X128796000Y-51520700D01*
X128796000Y-51520700D02*
X128796000Y-55201900D01*
X61170100Y-44769900D02*
X50000000Y-55940000D01*
X67324000Y-26090600D02*
X64455600Y-26090600D01*
X128796000Y-55201900D02*
X128101400Y-55896500D01*
X125000000Y-49540000D02*
X126273000Y-50813000D01*
X124496900Y-55896500D02*
X108303400Y-39703000D01*
X107236600Y-26061100D02*
X92634700Y-26061100D01*
X61170100Y-29376100D02*
X61170100Y-44769900D01*
X64455600Y-26090600D02*
X61170100Y-29376100D01*
X108303400Y-39703000D02*
X108303400Y-27127900D01*
X128101400Y-55896500D02*
X124496900Y-55896500D01*
X108303400Y-27127900D02*
X107236600Y-26061100D01*
X92510600Y-26185200D02*
X67418600Y-26185200D01*
X67418600Y-26185200D02*
X67324000Y-26090600D01*
X92634700Y-26061100D02*
X92510600Y-26185200D01*
X126273000Y-50813000D02*
X128088300Y-50813000D01*
%TO.N,GPS_TX_MCU*%
X60066700Y-40793300D02*
X50000000Y-50860000D01*
X60066700Y-29697300D02*
X60066700Y-40793300D01*
X64380600Y-25383400D02*
X60066700Y-29697300D01*
X81055300Y-25383400D02*
X64380600Y-25383400D01*
%TO.N,ETH_RST*%
X59515000Y-36265000D02*
X50000000Y-45780000D01*
X108855100Y-26897400D02*
X106539400Y-24581700D01*
X125000000Y-54620000D02*
X124902500Y-54620000D01*
X124902500Y-54620000D02*
X108855100Y-38572600D01*
X106539400Y-24581700D02*
X64402100Y-24581700D01*
X64402100Y-24581700D02*
X59515000Y-29468800D01*
X59515000Y-29468800D02*
X59515000Y-36265000D01*
X108855100Y-38572600D02*
X108855100Y-26897400D01*
%TO.N,ETH_INT*%
X124433300Y-53350000D02*
X109958500Y-38875200D01*
X109958500Y-27220600D02*
X106767900Y-24030000D01*
X106767900Y-24030000D02*
X64173600Y-24030000D01*
X58047700Y-35192300D02*
X50000000Y-43240000D01*
X58047700Y-30155900D02*
X58047700Y-35192300D01*
X64173600Y-24030000D02*
X58047700Y-30155900D01*
X126270000Y-53350000D02*
X124433300Y-53350000D01*
X127540000Y-54620000D02*
X126270000Y-53350000D01*
X109958500Y-38875200D02*
X109958500Y-27220600D01*
%TO.N,VIN_PROTECTED*%
X70540000Y-109160000D02*
X100000000Y-79700000D01*
X100000000Y-79700000D02*
X100000000Y-76000000D01*
%TO.N,+5V_MAIN*%
X92891800Y-76648200D02*
X92891800Y-36593400D01*
X70540000Y-99000000D02*
X92891800Y-76648200D01*
%TO.N,+3V3_AUX*%
X99000000Y-47000000D02*
X99000000Y-28000000D01*
X128086800Y-48251700D02*
X126955700Y-48251700D01*
X129950900Y-55637900D02*
X129950900Y-50115800D01*
X115588800Y-70000000D02*
X129950900Y-55637900D01*
X129950900Y-50115800D02*
X128086800Y-48251700D01*
X114000000Y-70000000D02*
X115588800Y-70000000D01*
X125000000Y-30000000D02*
X123000000Y-28000000D01*
X125000000Y-47000000D02*
X125000000Y-30000000D01*
X126251700Y-47547700D02*
X126251700Y-47000000D01*
X125000000Y-47000000D02*
X126251700Y-47000000D01*
X126955700Y-48251700D02*
X126251700Y-47547700D01*
%TO.N,+5V_SCREEN*%
X115080000Y-111000000D02*
X131911500Y-94168500D01*
X131911500Y-94168500D02*
X131911500Y-89072600D01*
%TO.N,DASH_TX_CABLE*%
X125240000Y-103642900D02*
X127890100Y-100992800D01*
X125240000Y-111000000D02*
X125240000Y-103642900D01*
%TO.N,TACH_CABLE*%
X32000000Y-59080000D02*
X32000000Y-64146700D01*
X32000000Y-64146700D02*
X28096700Y-68050000D01*
%TD*%
%TA.AperFunction,Conductor*%
%TO.N,GND*%
G36*
X66952803Y-27062412D02*
G01*
X67035412Y-27110107D01*
X67137273Y-27137400D01*
X93201100Y-27137400D01*
X93215270Y-27141561D01*
X93230024Y-27140820D01*
X93248123Y-27151207D01*
X93268139Y-27157085D01*
X93277809Y-27168245D01*
X93290622Y-27175599D01*
X93300231Y-27194121D01*
X93313894Y-27209889D01*
X93316553Y-27225583D01*
X93322798Y-27237619D01*
X93322756Y-27262180D01*
X93324568Y-27272869D01*
X93323972Y-27279284D01*
X93306100Y-27369131D01*
X93306100Y-27471685D01*
X93305568Y-27477413D01*
X93294703Y-27504755D01*
X93286415Y-27532983D01*
X93280639Y-27540149D01*
X93279768Y-27542344D01*
X93277649Y-27543861D01*
X93269781Y-27553625D01*
X75480226Y-45343181D01*
X75418903Y-45376666D01*
X75392545Y-45379500D01*
X66459275Y-45379500D01*
X66392236Y-45359815D01*
X66348790Y-45311795D01*
X66266759Y-45150800D01*
X66155690Y-44997927D01*
X66022073Y-44864310D01*
X65869199Y-44753240D01*
X65700836Y-44667454D01*
X65599860Y-44634645D01*
X65579195Y-44627930D01*
X65521521Y-44588493D01*
X65494323Y-44524134D01*
X65506238Y-44455288D01*
X65553482Y-44403812D01*
X65579194Y-44392069D01*
X65700832Y-44352547D01*
X65869199Y-44266760D01*
X66022073Y-44155690D01*
X66155690Y-44022073D01*
X66266760Y-43869199D01*
X66352547Y-43700832D01*
X66410940Y-43521118D01*
X66417448Y-43480029D01*
X66440500Y-43334486D01*
X66440500Y-43145513D01*
X66410940Y-42958881D01*
X66403190Y-42935030D01*
X66392320Y-42901577D01*
X72749500Y-42901577D01*
X72749500Y-43098422D01*
X72780290Y-43292826D01*
X72841117Y-43480029D01*
X72930476Y-43655405D01*
X73046172Y-43814646D01*
X73185354Y-43953828D01*
X73344595Y-44069524D01*
X73427455Y-44111743D01*
X73519970Y-44158882D01*
X73519972Y-44158882D01*
X73519975Y-44158884D01*
X73620317Y-44191487D01*
X73707173Y-44219709D01*
X73901578Y-44250500D01*
X73901583Y-44250500D01*
X74098422Y-44250500D01*
X74292826Y-44219709D01*
X74480025Y-44158884D01*
X74655405Y-44069524D01*
X74814646Y-43953828D01*
X74953828Y-43814646D01*
X75069524Y-43655405D01*
X75158884Y-43480025D01*
X75219709Y-43292826D01*
X75243041Y-43145513D01*
X75250500Y-43098422D01*
X75250500Y-42901577D01*
X75219709Y-42707173D01*
X75158882Y-42519970D01*
X75069523Y-42344594D01*
X75054786Y-42324310D01*
X74953828Y-42185354D01*
X74814646Y-42046172D01*
X74655405Y-41930476D01*
X74625597Y-41915288D01*
X74480029Y-41841117D01*
X74292826Y-41780290D01*
X74098422Y-41749500D01*
X74098417Y-41749500D01*
X73901583Y-41749500D01*
X73901578Y-41749500D01*
X73707173Y-41780290D01*
X73519970Y-41841117D01*
X73344594Y-41930476D01*
X73270740Y-41984135D01*
X73185354Y-42046172D01*
X73185352Y-42046174D01*
X73185351Y-42046174D01*
X73046174Y-42185351D01*
X73046174Y-42185352D01*
X73046172Y-42185354D01*
X73025912Y-42213240D01*
X72930476Y-42344594D01*
X72841117Y-42519970D01*
X72780290Y-42707173D01*
X72749500Y-42901577D01*
X66392320Y-42901577D01*
X66352545Y-42779163D01*
X66266759Y-42610800D01*
X66155690Y-42457927D01*
X66022073Y-42324310D01*
X65869199Y-42213240D01*
X65700836Y-42127454D01*
X65599860Y-42094645D01*
X65579195Y-42087930D01*
X65521521Y-42048493D01*
X65494323Y-41984134D01*
X65506238Y-41915288D01*
X65553482Y-41863812D01*
X65579194Y-41852069D01*
X65700832Y-41812547D01*
X65869199Y-41726760D01*
X66022073Y-41615690D01*
X66155690Y-41482073D01*
X66266760Y-41329199D01*
X66352547Y-41160832D01*
X66410940Y-40981118D01*
X66416203Y-40947887D01*
X66440500Y-40794486D01*
X66440500Y-40605513D01*
X66410940Y-40418881D01*
X66352545Y-40239163D01*
X66274804Y-40086589D01*
X66266760Y-40070801D01*
X66155690Y-39917927D01*
X66022073Y-39784310D01*
X65869199Y-39673240D01*
X65700836Y-39587454D01*
X65626472Y-39563291D01*
X65579195Y-39547930D01*
X65521521Y-39508493D01*
X65494323Y-39444134D01*
X65506238Y-39375288D01*
X65553482Y-39323812D01*
X65579194Y-39312069D01*
X65700832Y-39272547D01*
X65869199Y-39186760D01*
X66022073Y-39075690D01*
X66155690Y-38942073D01*
X66266760Y-38789199D01*
X66352547Y-38620832D01*
X66410940Y-38441118D01*
X66416390Y-38406707D01*
X66440500Y-38254486D01*
X66440500Y-38065513D01*
X66410940Y-37878881D01*
X66352545Y-37699163D01*
X66266759Y-37530800D01*
X66155690Y-37377927D01*
X66022073Y-37244310D01*
X65869199Y-37133240D01*
X65700836Y-37047454D01*
X65579615Y-37008067D01*
X65579195Y-37007930D01*
X65521521Y-36968493D01*
X65494323Y-36904134D01*
X65506238Y-36835288D01*
X65553482Y-36783812D01*
X65579194Y-36772069D01*
X65700832Y-36732547D01*
X65869199Y-36646760D01*
X66022073Y-36535690D01*
X66155690Y-36402073D01*
X66266760Y-36249199D01*
X66352547Y-36080832D01*
X66410940Y-35901118D01*
X66440500Y-35714486D01*
X66440500Y-35525513D01*
X66410940Y-35338881D01*
X66352545Y-35159163D01*
X66292889Y-35042083D01*
X66266760Y-34990801D01*
X66155690Y-34837927D01*
X66022073Y-34704310D01*
X65869199Y-34593240D01*
X65844570Y-34580691D01*
X65700836Y-34507454D01*
X65626472Y-34483291D01*
X65579195Y-34467930D01*
X65521521Y-34428493D01*
X65494323Y-34364134D01*
X65506238Y-34295288D01*
X65553482Y-34243812D01*
X65579194Y-34232069D01*
X65700832Y-34192547D01*
X65869199Y-34106760D01*
X66022073Y-33995690D01*
X66155690Y-33862073D01*
X66266760Y-33709199D01*
X66352547Y-33540832D01*
X66410940Y-33361118D01*
X66427442Y-33256928D01*
X66440500Y-33174486D01*
X66440500Y-32985513D01*
X66410940Y-32798881D01*
X66352545Y-32619163D01*
X66294280Y-32504812D01*
X66289313Y-32495065D01*
X66268079Y-32453389D01*
X80899500Y-32453389D01*
X80899500Y-32626611D01*
X80926598Y-32797701D01*
X80980127Y-32962445D01*
X81058768Y-33116788D01*
X81160586Y-33256928D01*
X81283072Y-33379414D01*
X81423212Y-33481232D01*
X81577555Y-33559873D01*
X81742299Y-33613402D01*
X81913389Y-33640500D01*
X81913390Y-33640500D01*
X82086610Y-33640500D01*
X82086611Y-33640500D01*
X82257701Y-33613402D01*
X82422445Y-33559873D01*
X82576788Y-33481232D01*
X82716928Y-33379414D01*
X82839414Y-33256928D01*
X82941232Y-33116788D01*
X83019873Y-32962445D01*
X83073402Y-32797701D01*
X83100500Y-32626611D01*
X83100500Y-32453389D01*
X83073402Y-32282299D01*
X83019873Y-32117555D01*
X82941232Y-31963212D01*
X82839414Y-31823072D01*
X82716928Y-31700586D01*
X82576788Y-31598768D01*
X82422445Y-31520127D01*
X82257701Y-31466598D01*
X82257699Y-31466597D01*
X82257698Y-31466597D01*
X82126271Y-31445781D01*
X82086611Y-31439500D01*
X81913389Y-31439500D01*
X81873728Y-31445781D01*
X81742302Y-31466597D01*
X81577552Y-31520128D01*
X81423211Y-31598768D01*
X81349192Y-31652547D01*
X81283072Y-31700586D01*
X81283070Y-31700588D01*
X81283069Y-31700588D01*
X81160588Y-31823069D01*
X81160588Y-31823070D01*
X81160586Y-31823072D01*
X81130333Y-31864712D01*
X81058768Y-31963211D01*
X80980128Y-32117552D01*
X80926597Y-32282302D01*
X80899910Y-32450800D01*
X80899500Y-32453389D01*
X66268079Y-32453389D01*
X66266760Y-32450801D01*
X66155690Y-32297927D01*
X66022073Y-32164310D01*
X65869199Y-32053240D01*
X65700836Y-31967454D01*
X65521118Y-31909059D01*
X65334486Y-31879500D01*
X65334481Y-31879500D01*
X65145519Y-31879500D01*
X65145514Y-31879500D01*
X64958881Y-31909059D01*
X64779163Y-31967454D01*
X64610800Y-32053240D01*
X64523579Y-32116610D01*
X64457927Y-32164310D01*
X64457925Y-32164312D01*
X64457924Y-32164312D01*
X64324312Y-32297924D01*
X64324312Y-32297925D01*
X64324310Y-32297927D01*
X64276610Y-32363579D01*
X64213240Y-32450800D01*
X64127454Y-32619163D01*
X64069059Y-32798881D01*
X64039500Y-32985513D01*
X64039500Y-33174486D01*
X64069060Y-33361119D01*
X64069060Y-33361122D01*
X64124895Y-33532961D01*
X64126890Y-33602802D01*
X64094645Y-33658960D01*
X63051081Y-34702525D01*
X62989758Y-34736010D01*
X62920066Y-34731026D01*
X62864133Y-34689154D01*
X62839716Y-34623690D01*
X62839400Y-34614844D01*
X62839400Y-29105854D01*
X62859085Y-29038815D01*
X62875714Y-29018177D01*
X63834590Y-28059301D01*
X63895911Y-28025818D01*
X63965602Y-28030802D01*
X64021536Y-28072674D01*
X64044742Y-28127586D01*
X64069059Y-28281118D01*
X64127454Y-28460836D01*
X64171584Y-28547445D01*
X64213240Y-28629199D01*
X64324310Y-28782073D01*
X64457927Y-28915690D01*
X64610801Y-29026760D01*
X64688267Y-29066231D01*
X64779163Y-29112545D01*
X64779165Y-29112545D01*
X64779168Y-29112547D01*
X64875497Y-29143846D01*
X64958881Y-29170940D01*
X65145514Y-29200500D01*
X65145519Y-29200500D01*
X65334486Y-29200500D01*
X65521118Y-29170940D01*
X65527713Y-29168797D01*
X65661518Y-29125321D01*
X80899500Y-29125321D01*
X80899500Y-30874678D01*
X80914032Y-30947735D01*
X80914033Y-30947739D01*
X80914034Y-30947740D01*
X80969399Y-31030601D01*
X81052260Y-31085966D01*
X81052264Y-31085967D01*
X81125321Y-31100499D01*
X81125324Y-31100500D01*
X81125326Y-31100500D01*
X82874676Y-31100500D01*
X82874677Y-31100499D01*
X82947740Y-31085966D01*
X83030601Y-31030601D01*
X83085966Y-30947740D01*
X83100500Y-30874674D01*
X83100500Y-29125326D01*
X83100500Y-29125323D01*
X83100499Y-29125321D01*
X83085967Y-29052264D01*
X83085966Y-29052260D01*
X83076982Y-29038815D01*
X83030601Y-28969399D01*
X82975235Y-28932405D01*
X82947739Y-28914033D01*
X82947735Y-28914032D01*
X82874677Y-28899500D01*
X82874674Y-28899500D01*
X81125326Y-28899500D01*
X81125323Y-28899500D01*
X81052264Y-28914032D01*
X81052260Y-28914033D01*
X80969399Y-28969399D01*
X80914033Y-29052260D01*
X80914032Y-29052264D01*
X80899500Y-29125321D01*
X65661518Y-29125321D01*
X65700832Y-29112547D01*
X65869199Y-29026760D01*
X66022073Y-28915690D01*
X66155690Y-28782073D01*
X66266760Y-28629199D01*
X66352547Y-28460832D01*
X66410940Y-28281118D01*
X66435257Y-28127586D01*
X66440500Y-28094486D01*
X66440500Y-27905513D01*
X66410940Y-27718881D01*
X66353579Y-27542344D01*
X66352547Y-27539168D01*
X66352545Y-27539165D01*
X66352545Y-27539163D01*
X66266759Y-27370800D01*
X66173677Y-27242684D01*
X66150198Y-27176880D01*
X66166023Y-27108826D01*
X66216129Y-27060131D01*
X66273996Y-27045800D01*
X66890804Y-27045800D01*
X66952803Y-27062412D01*
G37*
%TD.AperFunction*%
%TA.AperFunction,Conductor*%
G36*
X149343039Y-20619685D02*
G01*
X149388794Y-20672489D01*
X149400000Y-20724000D01*
X149400000Y-129276000D01*
X149380315Y-129343039D01*
X149327511Y-129388794D01*
X149276000Y-129400000D01*
X20724000Y-129400000D01*
X20656961Y-129380315D01*
X20611206Y-129327511D01*
X20600000Y-129276000D01*
X20600000Y-125878711D01*
X22149500Y-125878711D01*
X22149500Y-126121288D01*
X22181161Y-126361785D01*
X22243947Y-126596104D01*
X22336773Y-126820205D01*
X22336776Y-126820212D01*
X22458064Y-127030289D01*
X22458066Y-127030292D01*
X22458067Y-127030293D01*
X22605733Y-127222736D01*
X22605739Y-127222743D01*
X22777256Y-127394260D01*
X22777262Y-127394265D01*
X22969711Y-127541936D01*
X23179788Y-127663224D01*
X23403900Y-127756054D01*
X23638211Y-127818838D01*
X23818586Y-127842584D01*
X23878711Y-127850500D01*
X23878712Y-127850500D01*
X24121289Y-127850500D01*
X24169388Y-127844167D01*
X24361789Y-127818838D01*
X24596100Y-127756054D01*
X24820212Y-127663224D01*
X25030289Y-127541936D01*
X25222738Y-127394265D01*
X25394265Y-127222738D01*
X25541936Y-127030289D01*
X25663224Y-126820212D01*
X25756054Y-126596100D01*
X25818838Y-126361789D01*
X25850500Y-126121288D01*
X25850500Y-125878712D01*
X25850500Y-125878711D01*
X144149500Y-125878711D01*
X144149500Y-126121288D01*
X144181161Y-126361785D01*
X144243947Y-126596104D01*
X144336773Y-126820205D01*
X144336776Y-126820212D01*
X144458064Y-127030289D01*
X144458066Y-127030292D01*
X144458067Y-127030293D01*
X144605733Y-127222736D01*
X144605739Y-127222743D01*
X144777256Y-127394260D01*
X144777262Y-127394265D01*
X144969711Y-127541936D01*
X145179788Y-127663224D01*
X145403900Y-127756054D01*
X145638211Y-127818838D01*
X145818586Y-127842584D01*
X145878711Y-127850500D01*
X145878712Y-127850500D01*
X146121289Y-127850500D01*
X146169388Y-127844167D01*
X146361789Y-127818838D01*
X146596100Y-127756054D01*
X146820212Y-127663224D01*
X147030289Y-127541936D01*
X147222738Y-127394265D01*
X147394265Y-127222738D01*
X147541936Y-127030289D01*
X147663224Y-126820212D01*
X147756054Y-126596100D01*
X147818838Y-126361789D01*
X147850500Y-126121288D01*
X147850500Y-125878712D01*
X147818838Y-125638211D01*
X147756054Y-125403900D01*
X147663224Y-125179788D01*
X147541936Y-124969711D01*
X147394265Y-124777262D01*
X147394260Y-124777256D01*
X147222743Y-124605739D01*
X147222736Y-124605733D01*
X147030293Y-124458067D01*
X147030292Y-124458066D01*
X147030289Y-124458064D01*
X146820212Y-124336776D01*
X146820205Y-124336773D01*
X146596104Y-124243947D01*
X146361785Y-124181161D01*
X146121289Y-124149500D01*
X146121288Y-124149500D01*
X145878712Y-124149500D01*
X145878711Y-124149500D01*
X145638214Y-124181161D01*
X145403895Y-124243947D01*
X145179794Y-124336773D01*
X145179785Y-124336777D01*
X144969706Y-124458067D01*
X144777263Y-124605733D01*
X144777256Y-124605739D01*
X144605739Y-124777256D01*
X144605733Y-124777263D01*
X144458067Y-124969706D01*
X144336777Y-125179785D01*
X144336773Y-125179794D01*
X144243947Y-125403895D01*
X144181161Y-125638214D01*
X144149500Y-125878711D01*
X25850500Y-125878711D01*
X25818838Y-125638211D01*
X25756054Y-125403900D01*
X25663224Y-125179788D01*
X25541936Y-124969711D01*
X25394265Y-124777262D01*
X25394260Y-124777256D01*
X25222743Y-124605739D01*
X25222736Y-124605733D01*
X25030293Y-124458067D01*
X25030292Y-124458066D01*
X25030289Y-124458064D01*
X24820212Y-124336776D01*
X24820205Y-124336773D01*
X24596104Y-124243947D01*
X24361785Y-124181161D01*
X24121289Y-124149500D01*
X24121288Y-124149500D01*
X23878712Y-124149500D01*
X23878711Y-124149500D01*
X23638214Y-124181161D01*
X23403895Y-124243947D01*
X23179794Y-124336773D01*
X23179785Y-124336777D01*
X22969706Y-124458067D01*
X22777263Y-124605733D01*
X22777256Y-124605739D01*
X22605739Y-124777256D01*
X22605733Y-124777263D01*
X22458067Y-124969706D01*
X22336777Y-125179785D01*
X22336773Y-125179794D01*
X22243947Y-125403895D01*
X22181161Y-125638214D01*
X22149500Y-125878711D01*
X20600000Y-125878711D01*
X20600000Y-118901577D01*
X45749500Y-118901577D01*
X45749500Y-119098422D01*
X45780290Y-119292826D01*
X45841117Y-119480029D01*
X45930476Y-119655405D01*
X46046172Y-119814646D01*
X46185354Y-119953828D01*
X46344595Y-120069524D01*
X46427455Y-120111743D01*
X46519970Y-120158882D01*
X46519972Y-120158882D01*
X46519975Y-120158884D01*
X46620317Y-120191487D01*
X46707173Y-120219709D01*
X46901578Y-120250500D01*
X46901583Y-120250500D01*
X47098422Y-120250500D01*
X47292826Y-120219709D01*
X47480025Y-120158884D01*
X47655405Y-120069524D01*
X47814646Y-119953828D01*
X47953828Y-119814646D01*
X48069524Y-119655405D01*
X48158884Y-119480025D01*
X48219709Y-119292826D01*
X48250500Y-119098422D01*
X48250500Y-118901577D01*
X48219709Y-118707173D01*
X48158882Y-118519970D01*
X48069523Y-118344594D01*
X47953828Y-118185354D01*
X47814646Y-118046172D01*
X47655405Y-117930476D01*
X47480029Y-117841117D01*
X47292826Y-117780290D01*
X47098422Y-117749500D01*
X47098417Y-117749500D01*
X46901583Y-117749500D01*
X46901578Y-117749500D01*
X46707173Y-117780290D01*
X46519970Y-117841117D01*
X46344594Y-117930476D01*
X46253741Y-117996485D01*
X46185354Y-118046172D01*
X46185352Y-118046174D01*
X46185351Y-118046174D01*
X46046174Y-118185351D01*
X46046174Y-118185352D01*
X46046172Y-118185354D01*
X45996485Y-118253741D01*
X45930476Y-118344594D01*
X45841117Y-118519970D01*
X45780290Y-118707173D01*
X45749500Y-118901577D01*
X20600000Y-118901577D01*
X20600000Y-115402135D01*
X53949500Y-115402135D01*
X53949500Y-116597870D01*
X53949501Y-116597876D01*
X53955908Y-116657483D01*
X54006202Y-116792328D01*
X54006206Y-116792335D01*
X54092452Y-116907544D01*
X54092455Y-116907547D01*
X54207664Y-116993793D01*
X54207671Y-116993797D01*
X54342517Y-117044091D01*
X54342516Y-117044091D01*
X54349444Y-117044835D01*
X54402127Y-117050500D01*
X55597872Y-117050499D01*
X55657483Y-117044091D01*
X55792331Y-116993796D01*
X55907546Y-116907546D01*
X55993796Y-116792331D01*
X56044091Y-116657483D01*
X56050500Y-116597873D01*
X56050499Y-115402128D01*
X56044091Y-115342517D01*
X55993796Y-115207669D01*
X55993795Y-115207668D01*
X55993793Y-115207664D01*
X55907547Y-115092455D01*
X55907544Y-115092452D01*
X55792335Y-115006206D01*
X55792328Y-115006202D01*
X55657482Y-114955908D01*
X55657483Y-114955908D01*
X55597883Y-114949501D01*
X55597881Y-114949500D01*
X55597873Y-114949500D01*
X55597864Y-114949500D01*
X54402129Y-114949500D01*
X54402123Y-114949501D01*
X54342516Y-114955908D01*
X54207671Y-115006202D01*
X54207664Y-115006206D01*
X54092455Y-115092452D01*
X54092452Y-115092455D01*
X54006206Y-115207664D01*
X54006202Y-115207671D01*
X53955908Y-115342517D01*
X53949501Y-115402116D01*
X53949501Y-115402123D01*
X53949500Y-115402135D01*
X20600000Y-115402135D01*
X20600000Y-109902135D01*
X28449500Y-109902135D01*
X28449500Y-112097870D01*
X28449501Y-112097876D01*
X28455908Y-112157483D01*
X28506202Y-112292328D01*
X28506206Y-112292335D01*
X28592452Y-112407544D01*
X28592455Y-112407547D01*
X28707664Y-112493793D01*
X28707671Y-112493797D01*
X28842517Y-112544091D01*
X28842516Y-112544091D01*
X28849444Y-112544835D01*
X28902127Y-112550500D01*
X31097872Y-112550499D01*
X31157483Y-112544091D01*
X31292331Y-112493796D01*
X31407546Y-112407546D01*
X31493796Y-112292331D01*
X31544091Y-112157483D01*
X31550500Y-112097873D01*
X31550499Y-109902128D01*
X31544091Y-109842517D01*
X31534702Y-109817345D01*
X31493797Y-109707671D01*
X31493793Y-109707664D01*
X31407547Y-109592455D01*
X31407544Y-109592452D01*
X31292335Y-109506206D01*
X31292328Y-109506202D01*
X31157482Y-109455908D01*
X31157483Y-109455908D01*
X31097883Y-109449501D01*
X31097881Y-109449500D01*
X31097873Y-109449500D01*
X31097864Y-109449500D01*
X28902129Y-109449500D01*
X28902123Y-109449501D01*
X28842516Y-109455908D01*
X28707671Y-109506202D01*
X28707664Y-109506206D01*
X28592455Y-109592452D01*
X28592452Y-109592455D01*
X28506206Y-109707664D01*
X28506202Y-109707671D01*
X28455908Y-109842517D01*
X28449501Y-109902116D01*
X28449501Y-109902123D01*
X28449500Y-109902135D01*
X20600000Y-109902135D01*
X20600000Y-106525513D01*
X66799500Y-106525513D01*
X66799500Y-106714486D01*
X66829059Y-106901118D01*
X66887454Y-107080836D01*
X66947793Y-107199257D01*
X66973240Y-107249199D01*
X67084310Y-107402073D01*
X67217927Y-107535690D01*
X67370801Y-107646760D01*
X67420742Y-107672206D01*
X67539163Y-107732545D01*
X67539165Y-107732545D01*
X67539168Y-107732547D01*
X67628734Y-107761649D01*
X67660803Y-107772069D01*
X67718478Y-107811507D01*
X67745676Y-107875866D01*
X67733761Y-107944712D01*
X67686516Y-107996188D01*
X67660803Y-108007931D01*
X67539163Y-108047454D01*
X67370800Y-108133240D01*
X67283579Y-108196610D01*
X67217927Y-108244310D01*
X67217925Y-108244312D01*
X67217924Y-108244312D01*
X67084312Y-108377924D01*
X67084312Y-108377925D01*
X67084310Y-108377927D01*
X67036610Y-108443579D01*
X66973240Y-108530800D01*
X66887454Y-108699163D01*
X66829059Y-108878881D01*
X66799500Y-109065513D01*
X66799500Y-109254486D01*
X66829059Y-109441118D01*
X66887454Y-109620836D01*
X66973240Y-109789199D01*
X67084310Y-109942073D01*
X67217927Y-110075690D01*
X67370801Y-110186760D01*
X67371981Y-110187361D01*
X67539163Y-110272545D01*
X67539165Y-110272545D01*
X67539168Y-110272547D01*
X67628734Y-110301649D01*
X67660803Y-110312069D01*
X67718478Y-110351507D01*
X67745676Y-110415866D01*
X67733761Y-110484712D01*
X67686516Y-110536188D01*
X67660803Y-110547931D01*
X67539163Y-110587454D01*
X67370800Y-110673240D01*
X67283579Y-110736610D01*
X67217927Y-110784310D01*
X67217925Y-110784312D01*
X67217924Y-110784312D01*
X67084312Y-110917924D01*
X67084312Y-110917925D01*
X67084310Y-110917927D01*
X67036610Y-110983579D01*
X66973240Y-111070800D01*
X66887454Y-111239163D01*
X66829059Y-111418881D01*
X66799500Y-111605513D01*
X66799500Y-111794486D01*
X66829059Y-111981118D01*
X66887454Y-112160836D01*
X66971664Y-112326106D01*
X66973240Y-112329199D01*
X67084310Y-112482073D01*
X67217927Y-112615690D01*
X67370801Y-112726760D01*
X67450347Y-112767290D01*
X67539163Y-112812545D01*
X67539165Y-112812545D01*
X67539168Y-112812547D01*
X67635497Y-112843846D01*
X67718881Y-112870940D01*
X67905514Y-112900500D01*
X67905519Y-112900500D01*
X68094486Y-112900500D01*
X68281118Y-112870940D01*
X68460832Y-112812547D01*
X68629199Y-112726760D01*
X68782073Y-112615690D01*
X68915690Y-112482073D01*
X69026760Y-112329199D01*
X69112547Y-112160832D01*
X69152069Y-112039195D01*
X69191507Y-111981521D01*
X69255866Y-111954323D01*
X69324712Y-111966238D01*
X69376188Y-112013482D01*
X69387931Y-112039196D01*
X69427454Y-112160836D01*
X69511664Y-112326106D01*
X69513240Y-112329199D01*
X69624310Y-112482073D01*
X69757927Y-112615690D01*
X69910801Y-112726760D01*
X69990347Y-112767290D01*
X70079163Y-112812545D01*
X70079165Y-112812545D01*
X70079168Y-112812547D01*
X70175497Y-112843846D01*
X70258881Y-112870940D01*
X70445514Y-112900500D01*
X70445519Y-112900500D01*
X70634486Y-112900500D01*
X70821118Y-112870940D01*
X71000832Y-112812547D01*
X71169199Y-112726760D01*
X71322073Y-112615690D01*
X71455690Y-112482073D01*
X71566760Y-112329199D01*
X71652547Y-112160832D01*
X71710940Y-111981118D01*
X71737624Y-111812642D01*
X71740500Y-111794486D01*
X71740500Y-111605513D01*
X71710940Y-111418883D01*
X71710940Y-111418881D01*
X71705499Y-111402135D01*
X96949500Y-111402135D01*
X96949500Y-112597870D01*
X96949501Y-112597876D01*
X96955908Y-112657483D01*
X97006202Y-112792328D01*
X97006206Y-112792335D01*
X97092452Y-112907544D01*
X97092455Y-112907547D01*
X97207664Y-112993793D01*
X97207671Y-112993797D01*
X97342517Y-113044091D01*
X97342516Y-113044091D01*
X97349444Y-113044835D01*
X97402127Y-113050500D01*
X98597872Y-113050499D01*
X98657483Y-113044091D01*
X98792331Y-112993796D01*
X98907546Y-112907546D01*
X98993796Y-112792331D01*
X99044091Y-112657483D01*
X99050500Y-112597873D01*
X99050499Y-111402128D01*
X99044091Y-111342517D01*
X99005544Y-111239168D01*
X98993797Y-111207671D01*
X98993793Y-111207664D01*
X98907547Y-111092455D01*
X98907544Y-111092452D01*
X98792335Y-111006206D01*
X98792328Y-111006202D01*
X98746964Y-110989283D01*
X98657482Y-110955908D01*
X98657483Y-110955908D01*
X98597883Y-110949501D01*
X98597881Y-110949500D01*
X98597873Y-110949500D01*
X98597864Y-110949500D01*
X97402129Y-110949500D01*
X97402123Y-110949501D01*
X97342516Y-110955908D01*
X97207671Y-111006202D01*
X97207664Y-111006206D01*
X97092455Y-111092452D01*
X97092452Y-111092455D01*
X97006206Y-111207664D01*
X97006202Y-111207671D01*
X96955908Y-111342517D01*
X96951178Y-111386516D01*
X96949501Y-111402123D01*
X96949500Y-111402135D01*
X71705499Y-111402135D01*
X71652545Y-111239163D01*
X71577793Y-111092455D01*
X71566760Y-111070801D01*
X71455690Y-110917927D01*
X71415736Y-110877973D01*
X113529500Y-110877973D01*
X113529500Y-111122026D01*
X113564422Y-111342517D01*
X113567679Y-111363076D01*
X113594517Y-111445676D01*
X113643097Y-111595187D01*
X113753896Y-111812642D01*
X113897339Y-112010076D01*
X113897343Y-112010081D01*
X114069918Y-112182656D01*
X114069923Y-112182660D01*
X114220879Y-112292335D01*
X114267361Y-112326106D01*
X114484815Y-112436904D01*
X114716924Y-112512321D01*
X114957973Y-112550500D01*
X114957974Y-112550500D01*
X115202026Y-112550500D01*
X115202027Y-112550500D01*
X115443076Y-112512321D01*
X115675185Y-112436904D01*
X115892639Y-112326106D01*
X116090083Y-112182655D01*
X116262655Y-112010083D01*
X116406106Y-111812639D01*
X116516904Y-111595185D01*
X116592321Y-111363076D01*
X116630500Y-111122027D01*
X116630500Y-110877973D01*
X118609500Y-110877973D01*
X118609500Y-111122026D01*
X118644422Y-111342517D01*
X118647679Y-111363076D01*
X118674517Y-111445676D01*
X118723097Y-111595187D01*
X118833896Y-111812642D01*
X118977339Y-112010076D01*
X118977343Y-112010081D01*
X119149918Y-112182656D01*
X119149923Y-112182660D01*
X119300879Y-112292335D01*
X119347361Y-112326106D01*
X119564815Y-112436904D01*
X119796924Y-112512321D01*
X120037973Y-112550500D01*
X120037974Y-112550500D01*
X120282026Y-112550500D01*
X120282027Y-112550500D01*
X120523076Y-112512321D01*
X120755185Y-112436904D01*
X120972639Y-112326106D01*
X121170083Y-112182655D01*
X121342655Y-112010083D01*
X121486106Y-111812639D01*
X121596904Y-111595185D01*
X121672321Y-111363076D01*
X121710500Y-111122027D01*
X121710500Y-110877973D01*
X123689500Y-110877973D01*
X123689500Y-111122026D01*
X123724422Y-111342517D01*
X123727679Y-111363076D01*
X123754517Y-111445676D01*
X123803097Y-111595187D01*
X123913896Y-111812642D01*
X124057339Y-112010076D01*
X124057343Y-112010081D01*
X124229918Y-112182656D01*
X124229923Y-112182660D01*
X124380879Y-112292335D01*
X124427361Y-112326106D01*
X124644815Y-112436904D01*
X124876924Y-112512321D01*
X125117973Y-112550500D01*
X125117974Y-112550500D01*
X125362026Y-112550500D01*
X125362027Y-112550500D01*
X125603076Y-112512321D01*
X125835185Y-112436904D01*
X126052639Y-112326106D01*
X126250083Y-112182655D01*
X126422655Y-112010083D01*
X126566106Y-111812639D01*
X126676904Y-111595185D01*
X126752321Y-111363076D01*
X126790500Y-111122027D01*
X126790500Y-110877973D01*
X126752321Y-110636924D01*
X126676904Y-110404815D01*
X126566106Y-110187361D01*
X126484973Y-110075690D01*
X126422660Y-109989923D01*
X126422656Y-109989918D01*
X126250081Y-109817343D01*
X126250076Y-109817339D01*
X126052642Y-109673896D01*
X126052641Y-109673895D01*
X126052639Y-109673894D01*
X125958267Y-109625809D01*
X125835189Y-109563097D01*
X125726181Y-109527678D01*
X125668506Y-109488240D01*
X125641308Y-109423881D01*
X125640500Y-109409747D01*
X125640500Y-103860154D01*
X125660185Y-103793115D01*
X125676814Y-103772478D01*
X127769673Y-101679618D01*
X127830996Y-101646134D01*
X127857354Y-101643300D01*
X127954171Y-101643300D01*
X128038715Y-101626482D01*
X128079844Y-101618301D01*
X128198227Y-101569265D01*
X128304769Y-101498076D01*
X128395376Y-101407469D01*
X128466565Y-101300927D01*
X128515601Y-101182544D01*
X128533496Y-101092583D01*
X128540600Y-101056871D01*
X128540600Y-100928728D01*
X128515602Y-100803061D01*
X128515601Y-100803060D01*
X128515601Y-100803056D01*
X128466565Y-100684673D01*
X128466564Y-100684672D01*
X128466561Y-100684666D01*
X128395376Y-100578131D01*
X128395373Y-100578127D01*
X128304772Y-100487526D01*
X128304768Y-100487523D01*
X128198233Y-100416338D01*
X128198224Y-100416333D01*
X128079844Y-100367299D01*
X128079838Y-100367297D01*
X127954171Y-100342300D01*
X127954169Y-100342300D01*
X127826031Y-100342300D01*
X127826029Y-100342300D01*
X127700361Y-100367297D01*
X127700355Y-100367299D01*
X127581975Y-100416333D01*
X127581966Y-100416338D01*
X127475431Y-100487523D01*
X127475427Y-100487526D01*
X127384826Y-100578127D01*
X127384823Y-100578131D01*
X127313638Y-100684666D01*
X127313633Y-100684675D01*
X127264599Y-100803055D01*
X127264597Y-100803061D01*
X127239600Y-100928728D01*
X127239600Y-101025544D01*
X127219915Y-101092583D01*
X127203281Y-101113225D01*
X124919522Y-103396984D01*
X124919518Y-103396990D01*
X124866792Y-103488312D01*
X124866793Y-103488313D01*
X124839500Y-103590173D01*
X124839500Y-109409747D01*
X124819815Y-109476786D01*
X124767011Y-109522541D01*
X124753819Y-109527678D01*
X124644810Y-109563097D01*
X124427357Y-109673896D01*
X124229923Y-109817339D01*
X124229918Y-109817343D01*
X124057343Y-109989918D01*
X124057339Y-109989923D01*
X123913896Y-110187357D01*
X123803097Y-110404812D01*
X123727678Y-110636927D01*
X123689500Y-110877973D01*
X121710500Y-110877973D01*
X121672321Y-110636924D01*
X121596904Y-110404815D01*
X121486106Y-110187361D01*
X121404973Y-110075690D01*
X121342660Y-109989923D01*
X121342656Y-109989918D01*
X121170081Y-109817343D01*
X121170076Y-109817339D01*
X120972642Y-109673896D01*
X120972641Y-109673895D01*
X120972639Y-109673894D01*
X120755185Y-109563096D01*
X120523076Y-109487679D01*
X120523074Y-109487678D01*
X120523072Y-109487678D01*
X120322491Y-109455909D01*
X120282027Y-109449500D01*
X120037973Y-109449500D01*
X119997515Y-109455908D01*
X119796927Y-109487678D01*
X119564812Y-109563097D01*
X119347357Y-109673896D01*
X119149923Y-109817339D01*
X119149918Y-109817343D01*
X118977343Y-109989918D01*
X118977339Y-109989923D01*
X118833896Y-110187357D01*
X118723097Y-110404812D01*
X118647678Y-110636927D01*
X118609500Y-110877973D01*
X116630500Y-110877973D01*
X116592321Y-110636924D01*
X116516904Y-110404815D01*
X116464869Y-110302692D01*
X116451974Y-110234024D01*
X116478250Y-110169283D01*
X116487665Y-110158726D01*
X132147203Y-94499187D01*
X132147208Y-94499184D01*
X132157411Y-94488980D01*
X132157413Y-94488980D01*
X132231980Y-94414413D01*
X132284707Y-94323087D01*
X132312001Y-94221227D01*
X132312001Y-94115773D01*
X132312001Y-94108178D01*
X132312000Y-94108160D01*
X132312000Y-89643407D01*
X132331685Y-89576368D01*
X132348314Y-89555730D01*
X132416776Y-89487269D01*
X132487965Y-89380727D01*
X132537001Y-89262344D01*
X132562000Y-89136669D01*
X132562000Y-89008531D01*
X132562000Y-89008528D01*
X132537002Y-88882861D01*
X132537001Y-88882860D01*
X132537001Y-88882856D01*
X132487965Y-88764473D01*
X132487964Y-88764472D01*
X132487961Y-88764466D01*
X132416776Y-88657931D01*
X132416773Y-88657927D01*
X132326172Y-88567326D01*
X132326168Y-88567323D01*
X132219633Y-88496138D01*
X132219624Y-88496133D01*
X132101244Y-88447099D01*
X132101238Y-88447097D01*
X131975571Y-88422100D01*
X131975569Y-88422100D01*
X131847431Y-88422100D01*
X131847429Y-88422100D01*
X131721761Y-88447097D01*
X131721755Y-88447099D01*
X131603375Y-88496133D01*
X131603366Y-88496138D01*
X131496831Y-88567323D01*
X131496827Y-88567326D01*
X131406226Y-88657927D01*
X131406223Y-88657931D01*
X131335038Y-88764466D01*
X131335033Y-88764475D01*
X131285999Y-88882855D01*
X131285997Y-88882861D01*
X131261000Y-89008528D01*
X131261000Y-89008531D01*
X131261000Y-89136669D01*
X131261000Y-89136671D01*
X131260999Y-89136671D01*
X131285997Y-89262338D01*
X131285999Y-89262344D01*
X131335033Y-89380724D01*
X131335038Y-89380733D01*
X131406222Y-89487267D01*
X131406223Y-89487268D01*
X131406224Y-89487269D01*
X131474682Y-89555727D01*
X131508166Y-89617048D01*
X131511000Y-89643407D01*
X131511000Y-93951244D01*
X131491315Y-94018283D01*
X131474681Y-94038925D01*
X115921281Y-109592324D01*
X115859958Y-109625809D01*
X115790266Y-109620825D01*
X115777306Y-109615128D01*
X115675190Y-109563098D01*
X115675187Y-109563097D01*
X115675185Y-109563096D01*
X115443076Y-109487679D01*
X115443074Y-109487678D01*
X115443072Y-109487678D01*
X115242491Y-109455909D01*
X115202027Y-109449500D01*
X114957973Y-109449500D01*
X114917515Y-109455908D01*
X114716927Y-109487678D01*
X114484812Y-109563097D01*
X114267357Y-109673896D01*
X114069923Y-109817339D01*
X114069918Y-109817343D01*
X113897343Y-109989918D01*
X113897339Y-109989923D01*
X113753896Y-110187357D01*
X113643097Y-110404812D01*
X113567678Y-110636927D01*
X113529500Y-110877973D01*
X71415736Y-110877973D01*
X71322073Y-110784310D01*
X71169199Y-110673240D01*
X71000836Y-110587454D01*
X70926472Y-110563291D01*
X70879195Y-110547930D01*
X70821521Y-110508493D01*
X70794323Y-110444134D01*
X70806238Y-110375288D01*
X70853482Y-110323812D01*
X70879194Y-110312069D01*
X71000832Y-110272547D01*
X71169199Y-110186760D01*
X71322073Y-110075690D01*
X71455690Y-109942073D01*
X71566760Y-109789199D01*
X71652547Y-109620832D01*
X71710940Y-109441118D01*
X71715909Y-109409747D01*
X71740500Y-109254486D01*
X71740500Y-109065513D01*
X71710940Y-108878881D01*
X71692069Y-108820803D01*
X71655102Y-108707034D01*
X71653107Y-108637197D01*
X71685351Y-108581040D01*
X88364813Y-91901577D01*
X113749500Y-91901577D01*
X113749500Y-92098422D01*
X113780290Y-92292826D01*
X113841117Y-92480029D01*
X113930476Y-92655405D01*
X114046172Y-92814646D01*
X114185354Y-92953828D01*
X114344595Y-93069524D01*
X114427455Y-93111743D01*
X114519970Y-93158882D01*
X114519972Y-93158882D01*
X114519975Y-93158884D01*
X114620317Y-93191487D01*
X114707173Y-93219709D01*
X114901578Y-93250500D01*
X114901583Y-93250500D01*
X115098422Y-93250500D01*
X115292826Y-93219709D01*
X115480025Y-93158884D01*
X115655405Y-93069524D01*
X115814646Y-92953828D01*
X115953828Y-92814646D01*
X116069524Y-92655405D01*
X116158884Y-92480025D01*
X116219709Y-92292826D01*
X116250500Y-92098422D01*
X116250500Y-91901577D01*
X116219709Y-91707173D01*
X116158882Y-91519970D01*
X116069523Y-91344594D01*
X115953828Y-91185354D01*
X115814646Y-91046172D01*
X115655405Y-90930476D01*
X115480029Y-90841117D01*
X115292826Y-90780290D01*
X115098422Y-90749500D01*
X115098417Y-90749500D01*
X114901583Y-90749500D01*
X114901578Y-90749500D01*
X114707173Y-90780290D01*
X114519970Y-90841117D01*
X114344594Y-90930476D01*
X114253741Y-90996485D01*
X114185354Y-91046172D01*
X114185352Y-91046174D01*
X114185351Y-91046174D01*
X114046174Y-91185351D01*
X114046174Y-91185352D01*
X114046172Y-91185354D01*
X113996485Y-91253741D01*
X113930476Y-91344594D01*
X113841117Y-91519970D01*
X113780290Y-91707173D01*
X113749500Y-91901577D01*
X88364813Y-91901577D01*
X100235703Y-80030687D01*
X100235708Y-80030684D01*
X100245911Y-80020480D01*
X100245913Y-80020480D01*
X100320480Y-79945913D01*
X100373207Y-79854587D01*
X100380664Y-79826759D01*
X100382339Y-79820510D01*
X100390014Y-79791861D01*
X100400501Y-79752727D01*
X100400501Y-79647273D01*
X100400501Y-79639678D01*
X100400500Y-79639660D01*
X100400500Y-77624500D01*
X100420185Y-77557461D01*
X100472989Y-77511706D01*
X100524500Y-77500500D01*
X100774676Y-77500500D01*
X100774677Y-77500499D01*
X100847740Y-77485966D01*
X100930601Y-77430601D01*
X100985966Y-77347740D01*
X101000500Y-77274674D01*
X101000500Y-76598543D01*
X104079499Y-76598543D01*
X104117947Y-76791829D01*
X104117948Y-76791833D01*
X104117949Y-76791835D01*
X104128121Y-76816394D01*
X104193364Y-76973907D01*
X104193371Y-76973920D01*
X104302860Y-77137781D01*
X104302863Y-77137785D01*
X104442214Y-77277136D01*
X104442218Y-77277139D01*
X104606079Y-77386628D01*
X104606092Y-77386635D01*
X104788160Y-77462049D01*
X104788165Y-77462051D01*
X104788169Y-77462051D01*
X104788170Y-77462052D01*
X104981456Y-77500500D01*
X104981459Y-77500500D01*
X105178543Y-77500500D01*
X105308582Y-77474632D01*
X105371835Y-77462051D01*
X105553914Y-77386632D01*
X105717782Y-77277139D01*
X105857139Y-77137782D01*
X105966632Y-76973914D01*
X106042051Y-76791835D01*
X106080500Y-76598541D01*
X106080500Y-75401459D01*
X106080500Y-75401456D01*
X106042052Y-75208170D01*
X106042051Y-75208169D01*
X106042051Y-75208165D01*
X106016904Y-75147454D01*
X105966635Y-75026092D01*
X105966628Y-75026079D01*
X105857139Y-74862218D01*
X105857136Y-74862214D01*
X105717785Y-74722863D01*
X105717781Y-74722860D01*
X105553920Y-74613371D01*
X105553907Y-74613364D01*
X105371839Y-74537950D01*
X105371829Y-74537947D01*
X105178543Y-74499500D01*
X105178541Y-74499500D01*
X104981459Y-74499500D01*
X104981457Y-74499500D01*
X104788170Y-74537947D01*
X104788160Y-74537950D01*
X104606092Y-74613364D01*
X104606079Y-74613371D01*
X104442218Y-74722860D01*
X104442214Y-74722863D01*
X104302863Y-74862214D01*
X104302860Y-74862218D01*
X104193371Y-75026079D01*
X104193364Y-75026092D01*
X104117950Y-75208160D01*
X104117947Y-75208170D01*
X104079500Y-75401456D01*
X104079500Y-75401459D01*
X104079500Y-76598541D01*
X104079500Y-76598543D01*
X104079499Y-76598543D01*
X101000500Y-76598543D01*
X101000500Y-74725326D01*
X101000500Y-74725323D01*
X101000499Y-74725321D01*
X100985967Y-74652264D01*
X100985966Y-74652260D01*
X100974892Y-74635687D01*
X100930601Y-74569399D01*
X100847740Y-74514034D01*
X100847739Y-74514033D01*
X100847735Y-74514032D01*
X100774677Y-74499500D01*
X100774674Y-74499500D01*
X99225326Y-74499500D01*
X99225323Y-74499500D01*
X99152264Y-74514032D01*
X99152260Y-74514033D01*
X99069399Y-74569399D01*
X99014033Y-74652260D01*
X99014032Y-74652264D01*
X98999500Y-74725321D01*
X98999500Y-77274678D01*
X99014032Y-77347735D01*
X99014033Y-77347739D01*
X99014034Y-77347740D01*
X99069399Y-77430601D01*
X99116470Y-77462052D01*
X99152260Y-77485966D01*
X99152264Y-77485967D01*
X99225321Y-77500499D01*
X99225324Y-77500500D01*
X99225326Y-77500500D01*
X99475500Y-77500500D01*
X99542539Y-77520185D01*
X99588294Y-77572989D01*
X99599500Y-77624500D01*
X99599500Y-79482744D01*
X99579815Y-79549783D01*
X99563181Y-79570425D01*
X71790372Y-107343233D01*
X71729049Y-107376718D01*
X71659357Y-107371734D01*
X71603424Y-107329862D01*
X71579007Y-107264398D01*
X71592205Y-107199259D01*
X71652547Y-107080832D01*
X71710940Y-106901118D01*
X71715184Y-106874323D01*
X71740500Y-106714486D01*
X71740500Y-106525513D01*
X71710940Y-106338881D01*
X71652545Y-106159163D01*
X71566759Y-105990800D01*
X71455690Y-105837927D01*
X71322073Y-105704310D01*
X71169199Y-105593240D01*
X71000836Y-105507454D01*
X70821118Y-105449059D01*
X70634486Y-105419500D01*
X70634481Y-105419500D01*
X70445519Y-105419500D01*
X70445514Y-105419500D01*
X70258881Y-105449059D01*
X70079163Y-105507454D01*
X69910800Y-105593240D01*
X69823579Y-105656610D01*
X69757927Y-105704310D01*
X69757925Y-105704312D01*
X69757924Y-105704312D01*
X69624312Y-105837924D01*
X69624312Y-105837925D01*
X69624310Y-105837927D01*
X69576610Y-105903579D01*
X69513240Y-105990800D01*
X69427454Y-106159163D01*
X69387931Y-106280803D01*
X69348493Y-106338478D01*
X69284134Y-106365676D01*
X69215288Y-106353761D01*
X69163812Y-106306516D01*
X69152069Y-106280803D01*
X69112545Y-106159163D01*
X69026759Y-105990800D01*
X68915690Y-105837927D01*
X68782073Y-105704310D01*
X68629199Y-105593240D01*
X68460836Y-105507454D01*
X68281118Y-105449059D01*
X68094486Y-105419500D01*
X68094481Y-105419500D01*
X67905519Y-105419500D01*
X67905514Y-105419500D01*
X67718881Y-105449059D01*
X67539163Y-105507454D01*
X67370800Y-105593240D01*
X67283579Y-105656610D01*
X67217927Y-105704310D01*
X67217925Y-105704312D01*
X67217924Y-105704312D01*
X67084312Y-105837924D01*
X67084312Y-105837925D01*
X67084310Y-105837927D01*
X67036610Y-105903579D01*
X66973240Y-105990800D01*
X66887454Y-106159163D01*
X66829059Y-106338881D01*
X66799500Y-106525513D01*
X20600000Y-106525513D01*
X20600000Y-68114071D01*
X27446199Y-68114071D01*
X27471197Y-68239738D01*
X27471199Y-68239744D01*
X27520233Y-68358124D01*
X27520238Y-68358133D01*
X27591423Y-68464668D01*
X27591426Y-68464672D01*
X27682027Y-68555273D01*
X27682031Y-68555276D01*
X27788566Y-68626461D01*
X27788572Y-68626464D01*
X27788573Y-68626465D01*
X27906956Y-68675501D01*
X27906960Y-68675501D01*
X27906961Y-68675502D01*
X28032628Y-68700500D01*
X28032631Y-68700500D01*
X28160771Y-68700500D01*
X28245315Y-68683682D01*
X28286444Y-68675501D01*
X28404827Y-68626465D01*
X28511369Y-68555276D01*
X28601976Y-68464669D01*
X28673165Y-68358127D01*
X28722201Y-68239744D01*
X28747200Y-68114069D01*
X28747200Y-68017254D01*
X28766885Y-67950215D01*
X28783519Y-67929573D01*
X30518611Y-66194481D01*
X32320480Y-64392613D01*
X32373207Y-64301288D01*
X32400500Y-64199427D01*
X32400500Y-64093973D01*
X32400500Y-60670252D01*
X32420185Y-60603213D01*
X32472989Y-60557458D01*
X32486178Y-60552322D01*
X32595185Y-60516904D01*
X32812639Y-60406106D01*
X33010083Y-60262655D01*
X33182655Y-60090083D01*
X33326106Y-59892639D01*
X33436904Y-59675185D01*
X33512321Y-59443076D01*
X33550500Y-59202027D01*
X33550500Y-58957973D01*
X33512321Y-58716924D01*
X33436904Y-58484815D01*
X33326106Y-58267361D01*
X33269246Y-58189100D01*
X33182660Y-58069923D01*
X33182656Y-58069918D01*
X33010081Y-57897343D01*
X33010076Y-57897339D01*
X32812642Y-57753896D01*
X32812641Y-57753895D01*
X32812639Y-57753894D01*
X32595185Y-57643096D01*
X32363076Y-57567679D01*
X32363074Y-57567678D01*
X32363072Y-57567678D01*
X32194769Y-57541021D01*
X32122027Y-57529500D01*
X31877973Y-57529500D01*
X31822093Y-57538350D01*
X31636927Y-57567678D01*
X31404812Y-57643097D01*
X31187357Y-57753896D01*
X30989923Y-57897339D01*
X30989918Y-57897343D01*
X30817343Y-58069918D01*
X30817339Y-58069923D01*
X30673896Y-58267357D01*
X30563097Y-58484812D01*
X30487678Y-58716927D01*
X30478396Y-58775531D01*
X30449500Y-58957973D01*
X30449500Y-59202027D01*
X30459011Y-59262074D01*
X30482504Y-59410407D01*
X30487679Y-59443076D01*
X30563096Y-59675185D01*
X30655321Y-59856188D01*
X30673896Y-59892642D01*
X30817339Y-60090076D01*
X30817343Y-60090081D01*
X30989918Y-60262656D01*
X30989923Y-60262660D01*
X31129279Y-60363907D01*
X31187361Y-60406106D01*
X31404815Y-60516904D01*
X31513818Y-60552321D01*
X31571494Y-60591759D01*
X31598692Y-60656117D01*
X31599500Y-60670252D01*
X31599500Y-63929444D01*
X31579815Y-63996483D01*
X31563181Y-64017125D01*
X28217125Y-67363181D01*
X28155802Y-67396666D01*
X28129444Y-67399500D01*
X28032629Y-67399500D01*
X27906961Y-67424497D01*
X27906955Y-67424499D01*
X27788575Y-67473533D01*
X27788566Y-67473538D01*
X27682031Y-67544723D01*
X27682027Y-67544726D01*
X27591426Y-67635327D01*
X27591423Y-67635331D01*
X27520238Y-67741866D01*
X27520233Y-67741875D01*
X27471199Y-67860255D01*
X27471197Y-67860261D01*
X27446200Y-67985928D01*
X27446200Y-67985931D01*
X27446200Y-68114069D01*
X27446200Y-68114071D01*
X27446199Y-68114071D01*
X20600000Y-68114071D01*
X20600000Y-30445513D01*
X48799500Y-30445513D01*
X48799500Y-30634486D01*
X48829059Y-30821118D01*
X48887454Y-31000836D01*
X48938236Y-31100500D01*
X48973240Y-31169199D01*
X49084310Y-31322073D01*
X49217927Y-31455690D01*
X49370801Y-31566760D01*
X49450347Y-31607290D01*
X49539163Y-31652545D01*
X49539165Y-31652545D01*
X49539168Y-31652547D01*
X49628734Y-31681649D01*
X49660803Y-31692069D01*
X49718478Y-31731507D01*
X49745676Y-31795866D01*
X49733761Y-31864712D01*
X49686516Y-31916188D01*
X49660803Y-31927931D01*
X49539163Y-31967454D01*
X49370800Y-32053240D01*
X49283579Y-32116610D01*
X49217927Y-32164310D01*
X49217925Y-32164312D01*
X49217924Y-32164312D01*
X49084312Y-32297924D01*
X49084312Y-32297925D01*
X49084310Y-32297927D01*
X49036610Y-32363579D01*
X48973240Y-32450800D01*
X48887454Y-32619163D01*
X48829059Y-32798881D01*
X48799500Y-32985513D01*
X48799500Y-33174486D01*
X48829059Y-33361118D01*
X48887454Y-33540836D01*
X48916252Y-33597354D01*
X48973240Y-33709199D01*
X49084310Y-33862073D01*
X49217927Y-33995690D01*
X49370801Y-34106760D01*
X49450347Y-34147290D01*
X49539163Y-34192545D01*
X49539165Y-34192545D01*
X49539168Y-34192547D01*
X49628734Y-34221649D01*
X49660803Y-34232069D01*
X49718478Y-34271507D01*
X49745676Y-34335866D01*
X49733761Y-34404712D01*
X49686516Y-34456188D01*
X49660803Y-34467931D01*
X49539163Y-34507454D01*
X49370800Y-34593240D01*
X49328890Y-34623690D01*
X49217927Y-34704310D01*
X49217925Y-34704312D01*
X49217924Y-34704312D01*
X49084312Y-34837924D01*
X49084312Y-34837925D01*
X49084310Y-34837927D01*
X49049174Y-34886287D01*
X48973240Y-34990800D01*
X48887454Y-35159163D01*
X48829059Y-35338881D01*
X48799500Y-35525513D01*
X48799500Y-35714486D01*
X48829059Y-35901118D01*
X48887454Y-36080836D01*
X48973240Y-36249199D01*
X49084310Y-36402073D01*
X49217927Y-36535690D01*
X49370801Y-36646760D01*
X49391819Y-36657469D01*
X49539163Y-36732545D01*
X49539165Y-36732545D01*
X49539168Y-36732547D01*
X49628734Y-36761649D01*
X49660803Y-36772069D01*
X49718478Y-36811507D01*
X49745676Y-36875866D01*
X49733761Y-36944712D01*
X49686516Y-36996188D01*
X49660803Y-37007931D01*
X49539163Y-37047454D01*
X49370800Y-37133240D01*
X49283579Y-37196610D01*
X49217927Y-37244310D01*
X49217925Y-37244312D01*
X49217924Y-37244312D01*
X49084312Y-37377924D01*
X49084312Y-37377925D01*
X49084310Y-37377927D01*
X49036610Y-37443579D01*
X48973240Y-37530800D01*
X48887454Y-37699163D01*
X48829059Y-37878881D01*
X48799500Y-38065513D01*
X48799500Y-38254486D01*
X48829059Y-38441118D01*
X48887454Y-38620836D01*
X48973240Y-38789199D01*
X49084310Y-38942073D01*
X49217927Y-39075690D01*
X49370801Y-39186760D01*
X49395752Y-39199473D01*
X49539163Y-39272545D01*
X49539165Y-39272545D01*
X49539168Y-39272547D01*
X49628734Y-39301649D01*
X49660803Y-39312069D01*
X49718478Y-39351507D01*
X49745676Y-39415866D01*
X49733761Y-39484712D01*
X49686516Y-39536188D01*
X49660803Y-39547931D01*
X49539163Y-39587454D01*
X49370800Y-39673240D01*
X49283579Y-39736610D01*
X49217927Y-39784310D01*
X49217925Y-39784312D01*
X49217924Y-39784312D01*
X49084312Y-39917924D01*
X49084312Y-39917925D01*
X49084310Y-39917927D01*
X49036610Y-39983579D01*
X48973240Y-40070800D01*
X48887454Y-40239163D01*
X48829059Y-40418881D01*
X48799500Y-40605513D01*
X48799500Y-40794486D01*
X48829059Y-40981118D01*
X48887454Y-41160836D01*
X48947794Y-41279258D01*
X48973240Y-41329199D01*
X49084310Y-41482073D01*
X49217927Y-41615690D01*
X49370801Y-41726760D01*
X49415431Y-41749500D01*
X49539163Y-41812545D01*
X49539165Y-41812545D01*
X49539168Y-41812547D01*
X49627094Y-41841116D01*
X49660803Y-41852069D01*
X49718478Y-41891507D01*
X49745676Y-41955866D01*
X49733761Y-42024712D01*
X49686516Y-42076188D01*
X49660803Y-42087931D01*
X49539163Y-42127454D01*
X49370800Y-42213240D01*
X49283579Y-42276610D01*
X49217927Y-42324310D01*
X49217925Y-42324312D01*
X49217924Y-42324312D01*
X49084312Y-42457924D01*
X49084312Y-42457925D01*
X49084310Y-42457927D01*
X49039233Y-42519970D01*
X48973240Y-42610800D01*
X48887454Y-42779163D01*
X48829059Y-42958881D01*
X48799500Y-43145513D01*
X48799500Y-43334486D01*
X48829059Y-43521118D01*
X48887454Y-43700836D01*
X48945444Y-43814646D01*
X48973240Y-43869199D01*
X49084310Y-44022073D01*
X49217927Y-44155690D01*
X49370801Y-44266760D01*
X49420742Y-44292206D01*
X49539163Y-44352545D01*
X49539165Y-44352545D01*
X49539168Y-44352547D01*
X49628734Y-44381649D01*
X49660803Y-44392069D01*
X49718478Y-44431507D01*
X49745676Y-44495866D01*
X49733761Y-44564712D01*
X49686516Y-44616188D01*
X49660803Y-44627931D01*
X49539163Y-44667454D01*
X49370800Y-44753240D01*
X49283579Y-44816610D01*
X49217927Y-44864310D01*
X49217925Y-44864312D01*
X49217924Y-44864312D01*
X49084312Y-44997924D01*
X49084312Y-44997925D01*
X49084310Y-44997927D01*
X49071316Y-45015812D01*
X48973240Y-45150800D01*
X48887454Y-45319163D01*
X48829059Y-45498881D01*
X48799500Y-45685513D01*
X48799500Y-45874486D01*
X48829059Y-46061118D01*
X48887454Y-46240836D01*
X48916689Y-46298212D01*
X48973240Y-46409199D01*
X49084310Y-46562073D01*
X49217927Y-46695690D01*
X49370801Y-46806760D01*
X49446656Y-46845410D01*
X49539163Y-46892545D01*
X49539165Y-46892545D01*
X49539168Y-46892547D01*
X49628734Y-46921649D01*
X49660803Y-46932069D01*
X49718478Y-46971507D01*
X49745676Y-47035866D01*
X49733761Y-47104712D01*
X49686516Y-47156188D01*
X49660803Y-47167931D01*
X49539163Y-47207454D01*
X49370800Y-47293240D01*
X49319593Y-47330445D01*
X49217927Y-47404310D01*
X49217925Y-47404312D01*
X49217924Y-47404312D01*
X49084312Y-47537924D01*
X49084312Y-47537925D01*
X49084310Y-47537927D01*
X49036610Y-47603579D01*
X48973240Y-47690800D01*
X48887454Y-47859163D01*
X48829059Y-48038881D01*
X48799500Y-48225513D01*
X48799500Y-48414486D01*
X48829059Y-48601118D01*
X48887454Y-48780836D01*
X48908975Y-48823072D01*
X48973240Y-48949199D01*
X49084310Y-49102073D01*
X49217927Y-49235690D01*
X49370801Y-49346760D01*
X49420742Y-49372206D01*
X49539163Y-49432545D01*
X49539165Y-49432545D01*
X49539168Y-49432547D01*
X49603313Y-49453389D01*
X49660803Y-49472069D01*
X49718478Y-49511507D01*
X49745676Y-49575866D01*
X49733761Y-49644712D01*
X49686516Y-49696188D01*
X49660803Y-49707931D01*
X49539163Y-49747454D01*
X49370800Y-49833240D01*
X49283579Y-49896610D01*
X49217927Y-49944310D01*
X49217925Y-49944312D01*
X49217924Y-49944312D01*
X49084312Y-50077924D01*
X49084312Y-50077925D01*
X49084310Y-50077927D01*
X49056076Y-50116788D01*
X48973240Y-50230800D01*
X48887454Y-50399163D01*
X48829059Y-50578881D01*
X48799500Y-50765513D01*
X48799500Y-50954486D01*
X48829059Y-51141118D01*
X48887454Y-51320836D01*
X48973240Y-51489199D01*
X49084310Y-51642073D01*
X49217927Y-51775690D01*
X49370801Y-51886760D01*
X49450347Y-51927290D01*
X49539163Y-51972545D01*
X49539165Y-51972545D01*
X49539168Y-51972547D01*
X49603313Y-51993389D01*
X49660803Y-52012069D01*
X49718478Y-52051507D01*
X49745676Y-52115866D01*
X49733761Y-52184712D01*
X49686516Y-52236188D01*
X49660803Y-52247931D01*
X49539163Y-52287454D01*
X49370800Y-52373240D01*
X49283579Y-52436610D01*
X49217927Y-52484310D01*
X49217925Y-52484312D01*
X49217924Y-52484312D01*
X49084312Y-52617924D01*
X49084312Y-52617925D01*
X49084310Y-52617927D01*
X49056076Y-52656788D01*
X48973240Y-52770800D01*
X48887454Y-52939163D01*
X48829059Y-53118881D01*
X48799500Y-53305513D01*
X48799500Y-53494486D01*
X48829059Y-53681118D01*
X48887454Y-53860836D01*
X48931554Y-53947386D01*
X48973240Y-54029199D01*
X49084310Y-54182073D01*
X49217927Y-54315690D01*
X49370801Y-54426760D01*
X49420742Y-54452206D01*
X49539163Y-54512545D01*
X49539165Y-54512545D01*
X49539168Y-54512547D01*
X49603313Y-54533389D01*
X49660803Y-54552069D01*
X49718478Y-54591507D01*
X49745676Y-54655866D01*
X49733761Y-54724712D01*
X49686516Y-54776188D01*
X49660803Y-54787931D01*
X49539163Y-54827454D01*
X49370800Y-54913240D01*
X49283579Y-54976610D01*
X49217927Y-55024310D01*
X49217925Y-55024312D01*
X49217924Y-55024312D01*
X49084312Y-55157924D01*
X49084312Y-55157925D01*
X49084310Y-55157927D01*
X49056076Y-55196788D01*
X48973240Y-55310800D01*
X48887454Y-55479163D01*
X48829059Y-55658881D01*
X48799500Y-55845513D01*
X48799500Y-56034486D01*
X48829059Y-56221118D01*
X48887454Y-56400836D01*
X48947642Y-56518960D01*
X48973240Y-56569199D01*
X49084310Y-56722073D01*
X49217927Y-56855690D01*
X49370801Y-56966760D01*
X49420742Y-56992206D01*
X49539163Y-57052545D01*
X49539165Y-57052545D01*
X49539168Y-57052547D01*
X49588583Y-57068603D01*
X49660803Y-57092069D01*
X49718478Y-57131507D01*
X49745676Y-57195866D01*
X49733761Y-57264712D01*
X49686516Y-57316188D01*
X49660803Y-57327931D01*
X49539163Y-57367454D01*
X49370800Y-57453240D01*
X49283579Y-57516610D01*
X49217927Y-57564310D01*
X49217925Y-57564312D01*
X49217924Y-57564312D01*
X49084312Y-57697924D01*
X49084312Y-57697925D01*
X49084310Y-57697927D01*
X49065308Y-57724081D01*
X48973240Y-57850800D01*
X48887454Y-58019163D01*
X48829059Y-58198881D01*
X48799500Y-58385513D01*
X48799500Y-58574486D01*
X48829059Y-58761118D01*
X48887454Y-58940836D01*
X48973240Y-59109199D01*
X49084310Y-59262073D01*
X49217927Y-59395690D01*
X49370801Y-59506760D01*
X49450347Y-59547290D01*
X49539163Y-59592545D01*
X49539165Y-59592545D01*
X49539168Y-59592547D01*
X49628734Y-59621649D01*
X49660803Y-59632069D01*
X49718478Y-59671507D01*
X49745676Y-59735866D01*
X49733761Y-59804712D01*
X49686516Y-59856188D01*
X49660803Y-59867931D01*
X49539163Y-59907454D01*
X49370800Y-59993240D01*
X49283579Y-60056610D01*
X49217927Y-60104310D01*
X49217925Y-60104312D01*
X49217924Y-60104312D01*
X49084312Y-60237924D01*
X49084312Y-60237925D01*
X49084310Y-60237927D01*
X49036610Y-60303579D01*
X48973240Y-60390800D01*
X48887454Y-60559163D01*
X48829059Y-60738881D01*
X48799500Y-60925513D01*
X48799500Y-61114486D01*
X48829059Y-61301118D01*
X48887454Y-61480836D01*
X48947793Y-61599257D01*
X48973240Y-61649199D01*
X49084310Y-61802073D01*
X49217927Y-61935690D01*
X49370801Y-62046760D01*
X49420742Y-62072206D01*
X49539163Y-62132545D01*
X49539165Y-62132545D01*
X49539168Y-62132547D01*
X49628734Y-62161649D01*
X49660803Y-62172069D01*
X49718478Y-62211507D01*
X49745676Y-62275866D01*
X49733761Y-62344712D01*
X49686516Y-62396188D01*
X49660803Y-62407931D01*
X49539163Y-62447454D01*
X49370800Y-62533240D01*
X49283579Y-62596610D01*
X49217927Y-62644310D01*
X49217925Y-62644312D01*
X49217924Y-62644312D01*
X49084312Y-62777924D01*
X49084312Y-62777925D01*
X49084310Y-62777927D01*
X49036610Y-62843579D01*
X48973240Y-62930800D01*
X48887454Y-63099163D01*
X48829059Y-63278881D01*
X48799500Y-63465513D01*
X48799500Y-63654486D01*
X48829059Y-63841118D01*
X48887454Y-64020836D01*
X48973240Y-64189199D01*
X49084310Y-64342073D01*
X49217927Y-64475690D01*
X49370801Y-64586760D01*
X49450347Y-64627290D01*
X49539163Y-64672545D01*
X49539165Y-64672545D01*
X49539168Y-64672547D01*
X49628734Y-64701649D01*
X49660803Y-64712069D01*
X49718478Y-64751507D01*
X49745676Y-64815866D01*
X49733761Y-64884712D01*
X49686516Y-64936188D01*
X49660803Y-64947931D01*
X49539163Y-64987454D01*
X49370800Y-65073240D01*
X49283579Y-65136610D01*
X49217927Y-65184310D01*
X49217925Y-65184312D01*
X49217924Y-65184312D01*
X49084312Y-65317924D01*
X49084312Y-65317925D01*
X49084310Y-65317927D01*
X49036610Y-65383579D01*
X48973240Y-65470800D01*
X48887454Y-65639163D01*
X48829059Y-65818881D01*
X48799500Y-66005513D01*
X48799500Y-66194486D01*
X48829059Y-66381118D01*
X48887454Y-66560836D01*
X48973240Y-66729199D01*
X49084310Y-66882073D01*
X49217927Y-67015690D01*
X49370801Y-67126760D01*
X49450347Y-67167290D01*
X49539163Y-67212545D01*
X49539165Y-67212545D01*
X49539168Y-67212547D01*
X49628734Y-67241649D01*
X49660803Y-67252069D01*
X49718478Y-67291507D01*
X49745676Y-67355866D01*
X49733761Y-67424712D01*
X49686516Y-67476188D01*
X49660803Y-67487931D01*
X49539163Y-67527454D01*
X49370800Y-67613240D01*
X49340395Y-67635331D01*
X49217927Y-67724310D01*
X49217925Y-67724312D01*
X49217924Y-67724312D01*
X49084312Y-67857924D01*
X49084312Y-67857925D01*
X49084310Y-67857927D01*
X49036610Y-67923579D01*
X48973240Y-68010800D01*
X48887454Y-68179163D01*
X48829059Y-68358881D01*
X48799500Y-68545513D01*
X48799500Y-68734486D01*
X48829059Y-68921118D01*
X48887454Y-69100836D01*
X48973240Y-69269199D01*
X49084310Y-69422073D01*
X49217927Y-69555690D01*
X49370801Y-69666760D01*
X49450116Y-69707173D01*
X49539163Y-69752545D01*
X49539165Y-69752545D01*
X49539168Y-69752547D01*
X49628734Y-69781649D01*
X49660803Y-69792069D01*
X49718478Y-69831507D01*
X49745676Y-69895866D01*
X49733761Y-69964712D01*
X49686516Y-70016188D01*
X49660803Y-70027931D01*
X49539163Y-70067454D01*
X49370800Y-70153240D01*
X49301869Y-70203322D01*
X49217927Y-70264310D01*
X49217925Y-70264312D01*
X49217924Y-70264312D01*
X49084312Y-70397924D01*
X49084312Y-70397925D01*
X49084310Y-70397927D01*
X49066353Y-70422643D01*
X48973240Y-70550800D01*
X48887454Y-70719163D01*
X48829059Y-70898881D01*
X48799500Y-71085513D01*
X48799500Y-71274486D01*
X48829059Y-71461118D01*
X48887454Y-71640836D01*
X48973240Y-71809199D01*
X49084310Y-71962073D01*
X49217927Y-72095690D01*
X49370801Y-72206760D01*
X49450347Y-72247290D01*
X49539163Y-72292545D01*
X49539165Y-72292545D01*
X49539168Y-72292547D01*
X49628734Y-72321649D01*
X49660803Y-72332069D01*
X49718478Y-72371507D01*
X49745676Y-72435866D01*
X49733761Y-72504712D01*
X49686516Y-72556188D01*
X49660803Y-72567931D01*
X49539163Y-72607454D01*
X49370800Y-72693240D01*
X49283579Y-72756610D01*
X49217927Y-72804310D01*
X49217925Y-72804312D01*
X49217924Y-72804312D01*
X49084312Y-72937924D01*
X49084312Y-72937925D01*
X49084310Y-72937927D01*
X49036610Y-73003579D01*
X48973240Y-73090800D01*
X48887454Y-73259163D01*
X48829059Y-73438881D01*
X48799500Y-73625513D01*
X48799500Y-73814486D01*
X48829059Y-74001118D01*
X48887454Y-74180836D01*
X48973240Y-74349199D01*
X49084310Y-74502073D01*
X49217927Y-74635690D01*
X49370801Y-74746760D01*
X49450347Y-74787290D01*
X49539163Y-74832545D01*
X49539165Y-74832545D01*
X49539168Y-74832547D01*
X49628734Y-74861649D01*
X49660803Y-74872069D01*
X49718478Y-74911507D01*
X49745676Y-74975866D01*
X49733761Y-75044712D01*
X49686516Y-75096188D01*
X49660803Y-75107931D01*
X49539163Y-75147454D01*
X49370800Y-75233240D01*
X49283579Y-75296610D01*
X49217927Y-75344310D01*
X49217925Y-75344312D01*
X49217924Y-75344312D01*
X49084312Y-75477924D01*
X49084312Y-75477925D01*
X49084310Y-75477927D01*
X49036610Y-75543579D01*
X48973240Y-75630800D01*
X48887454Y-75799163D01*
X48829059Y-75978881D01*
X48799500Y-76165513D01*
X48799500Y-76354486D01*
X48829059Y-76541118D01*
X48887454Y-76720836D01*
X48973240Y-76889199D01*
X49084310Y-77042073D01*
X49217927Y-77175690D01*
X49370801Y-77286760D01*
X49450347Y-77327290D01*
X49539163Y-77372545D01*
X49539165Y-77372545D01*
X49539168Y-77372547D01*
X49628734Y-77401649D01*
X49660803Y-77412069D01*
X49718478Y-77451507D01*
X49745676Y-77515866D01*
X49733761Y-77584712D01*
X49686516Y-77636188D01*
X49660803Y-77647931D01*
X49539163Y-77687454D01*
X49370800Y-77773240D01*
X49283579Y-77836610D01*
X49217927Y-77884310D01*
X49217925Y-77884312D01*
X49217924Y-77884312D01*
X49084312Y-78017924D01*
X49084312Y-78017925D01*
X49084310Y-78017927D01*
X49036610Y-78083579D01*
X48973240Y-78170800D01*
X48887454Y-78339163D01*
X48829059Y-78518881D01*
X48799500Y-78705513D01*
X48799500Y-78894486D01*
X48829059Y-79081118D01*
X48887454Y-79260836D01*
X48973240Y-79429199D01*
X49084310Y-79582073D01*
X49217927Y-79715690D01*
X49370801Y-79826760D01*
X49425407Y-79854583D01*
X49539163Y-79912545D01*
X49539165Y-79912545D01*
X49539168Y-79912547D01*
X49628734Y-79941649D01*
X49660803Y-79952069D01*
X49718478Y-79991507D01*
X49745676Y-80055866D01*
X49733761Y-80124712D01*
X49686516Y-80176188D01*
X49660803Y-80187931D01*
X49539163Y-80227454D01*
X49370800Y-80313240D01*
X49291662Y-80370738D01*
X49217927Y-80424310D01*
X49217925Y-80424312D01*
X49217924Y-80424312D01*
X49084312Y-80557924D01*
X49084312Y-80557925D01*
X49084310Y-80557927D01*
X49056889Y-80595669D01*
X48973240Y-80710800D01*
X48887454Y-80879163D01*
X48829059Y-81058881D01*
X48799500Y-81245513D01*
X48799500Y-81434486D01*
X48829059Y-81621118D01*
X48887454Y-81800836D01*
X48973240Y-81969199D01*
X49084310Y-82122073D01*
X49217927Y-82255690D01*
X49370801Y-82366760D01*
X49450347Y-82407290D01*
X49539163Y-82452545D01*
X49539165Y-82452545D01*
X49539168Y-82452547D01*
X49628734Y-82481649D01*
X49660803Y-82492069D01*
X49718478Y-82531507D01*
X49745676Y-82595866D01*
X49733761Y-82664712D01*
X49686516Y-82716188D01*
X49660803Y-82727931D01*
X49539163Y-82767454D01*
X49370800Y-82853240D01*
X49283579Y-82916610D01*
X49217927Y-82964310D01*
X49217925Y-82964312D01*
X49217924Y-82964312D01*
X49084312Y-83097924D01*
X49084312Y-83097925D01*
X49084310Y-83097927D01*
X49042118Y-83155999D01*
X48973240Y-83250800D01*
X48887454Y-83419163D01*
X48829059Y-83598881D01*
X48799500Y-83785513D01*
X48799500Y-83974486D01*
X48829059Y-84161118D01*
X48887454Y-84340836D01*
X48921168Y-84407002D01*
X48973240Y-84509199D01*
X49084310Y-84662073D01*
X49217927Y-84795690D01*
X49370801Y-84906760D01*
X49450347Y-84947290D01*
X49539163Y-84992545D01*
X49539165Y-84992545D01*
X49539168Y-84992547D01*
X49628734Y-85021649D01*
X49660803Y-85032069D01*
X49718478Y-85071507D01*
X49745676Y-85135866D01*
X49733761Y-85204712D01*
X49686516Y-85256188D01*
X49660803Y-85267931D01*
X49539163Y-85307454D01*
X49370800Y-85393240D01*
X49283579Y-85456610D01*
X49217927Y-85504310D01*
X49217925Y-85504312D01*
X49217924Y-85504312D01*
X49084312Y-85637924D01*
X49084312Y-85637925D01*
X49084310Y-85637927D01*
X49036610Y-85703579D01*
X48973240Y-85790800D01*
X48887454Y-85959163D01*
X48829059Y-86138881D01*
X48799500Y-86325513D01*
X48799500Y-86514486D01*
X48829059Y-86701118D01*
X48887454Y-86880836D01*
X48973240Y-87049199D01*
X49084310Y-87202073D01*
X49217927Y-87335690D01*
X49370801Y-87446760D01*
X49450347Y-87487290D01*
X49539163Y-87532545D01*
X49539165Y-87532545D01*
X49539168Y-87532547D01*
X49635497Y-87563846D01*
X49718881Y-87590940D01*
X49905514Y-87620500D01*
X49905519Y-87620500D01*
X50094486Y-87620500D01*
X50281118Y-87590940D01*
X50460832Y-87532547D01*
X50629199Y-87446760D01*
X50782073Y-87335690D01*
X50915690Y-87202073D01*
X51026760Y-87049199D01*
X51112547Y-86880832D01*
X51170940Y-86701118D01*
X51200500Y-86514486D01*
X51200500Y-86325513D01*
X51170940Y-86138881D01*
X51112545Y-85959163D01*
X51026759Y-85790800D01*
X50915690Y-85637927D01*
X50782073Y-85504310D01*
X50629199Y-85393240D01*
X50460836Y-85307454D01*
X50386472Y-85283291D01*
X50339195Y-85267930D01*
X50281521Y-85228493D01*
X50254323Y-85164134D01*
X50266238Y-85095288D01*
X50313482Y-85043812D01*
X50339194Y-85032069D01*
X50460832Y-84992547D01*
X50629199Y-84906760D01*
X50782073Y-84795690D01*
X50915690Y-84662073D01*
X51026760Y-84509199D01*
X51112547Y-84340832D01*
X51170940Y-84161118D01*
X51182263Y-84089627D01*
X51200500Y-83974486D01*
X51200500Y-83785513D01*
X51170940Y-83598881D01*
X51112545Y-83419163D01*
X51067290Y-83330347D01*
X51026760Y-83250801D01*
X50915690Y-83097927D01*
X50782073Y-82964310D01*
X50629199Y-82853240D01*
X50460836Y-82767454D01*
X50386472Y-82743291D01*
X50339195Y-82727930D01*
X50281521Y-82688493D01*
X50254323Y-82624134D01*
X50266238Y-82555288D01*
X50313482Y-82503812D01*
X50339194Y-82492069D01*
X50460832Y-82452547D01*
X50629199Y-82366760D01*
X50782073Y-82255690D01*
X50915690Y-82122073D01*
X51026760Y-81969199D01*
X51112547Y-81800832D01*
X51170940Y-81621118D01*
X51200500Y-81434486D01*
X51200500Y-81245513D01*
X51170940Y-81058881D01*
X51112545Y-80879163D01*
X51026759Y-80710800D01*
X51008939Y-80686273D01*
X50915690Y-80557927D01*
X50782073Y-80424310D01*
X50629199Y-80313240D01*
X50460836Y-80227454D01*
X50386472Y-80203291D01*
X50339195Y-80187930D01*
X50281521Y-80148493D01*
X50254323Y-80084134D01*
X50266238Y-80015288D01*
X50313482Y-79963812D01*
X50339194Y-79952069D01*
X50460832Y-79912547D01*
X50629199Y-79826760D01*
X50782073Y-79715690D01*
X50915690Y-79582073D01*
X51026760Y-79429199D01*
X51112547Y-79260832D01*
X51170940Y-79081118D01*
X51189865Y-78961629D01*
X51200500Y-78894486D01*
X51200500Y-78705513D01*
X51170940Y-78518881D01*
X51112545Y-78339163D01*
X51026759Y-78170800D01*
X50915690Y-78017927D01*
X50782073Y-77884310D01*
X50629199Y-77773240D01*
X50460836Y-77687454D01*
X50386472Y-77663291D01*
X50339195Y-77647930D01*
X50281521Y-77608493D01*
X50254323Y-77544134D01*
X50266238Y-77475288D01*
X50313482Y-77423812D01*
X50339194Y-77412069D01*
X50460832Y-77372547D01*
X50629199Y-77286760D01*
X50782073Y-77175690D01*
X50915690Y-77042073D01*
X51026760Y-76889199D01*
X51112547Y-76720832D01*
X51170940Y-76541118D01*
X51180255Y-76482307D01*
X51200500Y-76354486D01*
X51200500Y-76165513D01*
X51170940Y-75978881D01*
X51112545Y-75799163D01*
X51026759Y-75630800D01*
X50915690Y-75477927D01*
X50782073Y-75344310D01*
X50629199Y-75233240D01*
X50460836Y-75147454D01*
X50386472Y-75123291D01*
X50339195Y-75107930D01*
X50281521Y-75068493D01*
X50254323Y-75004134D01*
X50266238Y-74935288D01*
X50313482Y-74883812D01*
X50339194Y-74872069D01*
X50460832Y-74832547D01*
X50629199Y-74746760D01*
X50782073Y-74635690D01*
X50915690Y-74502073D01*
X51026760Y-74349199D01*
X51112547Y-74180832D01*
X51170940Y-74001118D01*
X51200500Y-73814486D01*
X51200500Y-73625513D01*
X51170940Y-73438881D01*
X51112545Y-73259163D01*
X51026759Y-73090800D01*
X50915690Y-72937927D01*
X50782073Y-72804310D01*
X50629199Y-72693240D01*
X50460836Y-72607454D01*
X50386472Y-72583291D01*
X50339195Y-72567930D01*
X50281521Y-72528493D01*
X50254323Y-72464134D01*
X50266238Y-72395288D01*
X50313482Y-72343812D01*
X50339194Y-72332069D01*
X50460832Y-72292547D01*
X50629199Y-72206760D01*
X50782073Y-72095690D01*
X50915690Y-71962073D01*
X51026760Y-71809199D01*
X51112547Y-71640832D01*
X51170940Y-71461118D01*
X51200500Y-71274486D01*
X51200500Y-71085513D01*
X51170940Y-70898881D01*
X51112545Y-70719163D01*
X51026759Y-70550800D01*
X50915690Y-70397927D01*
X50782073Y-70264310D01*
X50629199Y-70153240D01*
X50460836Y-70067454D01*
X50386472Y-70043291D01*
X50339195Y-70027930D01*
X50281521Y-69988493D01*
X50254323Y-69924134D01*
X50266238Y-69855288D01*
X50313482Y-69803812D01*
X50339194Y-69792069D01*
X50460832Y-69752547D01*
X50629199Y-69666760D01*
X50782073Y-69555690D01*
X50915690Y-69422073D01*
X51026760Y-69269199D01*
X51112547Y-69100832D01*
X51170940Y-68921118D01*
X51193245Y-68780290D01*
X51200500Y-68734486D01*
X51200500Y-68545513D01*
X51170940Y-68358881D01*
X51132229Y-68239744D01*
X51112547Y-68179168D01*
X51112545Y-68179165D01*
X51112545Y-68179163D01*
X51026759Y-68010800D01*
X50915690Y-67857927D01*
X50782073Y-67724310D01*
X50629199Y-67613240D01*
X50460836Y-67527454D01*
X50386472Y-67503291D01*
X50339195Y-67487930D01*
X50281521Y-67448493D01*
X50254323Y-67384134D01*
X50266238Y-67315288D01*
X50313482Y-67263812D01*
X50339194Y-67252069D01*
X50460832Y-67212547D01*
X50629199Y-67126760D01*
X50782073Y-67015690D01*
X50915690Y-66882073D01*
X51026760Y-66729199D01*
X51112547Y-66560832D01*
X51170940Y-66381118D01*
X51200500Y-66194486D01*
X51200500Y-66005513D01*
X64039500Y-66005513D01*
X64039500Y-66194486D01*
X64069059Y-66381118D01*
X64127454Y-66560836D01*
X64213240Y-66729199D01*
X64324310Y-66882073D01*
X64457927Y-67015690D01*
X64610801Y-67126760D01*
X64690347Y-67167290D01*
X64779163Y-67212545D01*
X64779165Y-67212545D01*
X64779168Y-67212547D01*
X64868734Y-67241649D01*
X64900803Y-67252069D01*
X64958478Y-67291507D01*
X64985676Y-67355866D01*
X64973761Y-67424712D01*
X64926516Y-67476188D01*
X64900803Y-67487931D01*
X64779163Y-67527454D01*
X64610800Y-67613240D01*
X64580395Y-67635331D01*
X64457927Y-67724310D01*
X64457925Y-67724312D01*
X64457924Y-67724312D01*
X64324312Y-67857924D01*
X64324312Y-67857925D01*
X64324310Y-67857927D01*
X64276610Y-67923579D01*
X64213240Y-68010800D01*
X64127454Y-68179163D01*
X64069059Y-68358881D01*
X64039500Y-68545513D01*
X64039500Y-68734486D01*
X64069059Y-68921118D01*
X64127454Y-69100836D01*
X64213240Y-69269199D01*
X64324310Y-69422073D01*
X64457927Y-69555690D01*
X64610801Y-69666760D01*
X64690116Y-69707173D01*
X64779163Y-69752545D01*
X64779165Y-69752545D01*
X64779168Y-69752547D01*
X64868734Y-69781649D01*
X64900803Y-69792069D01*
X64958478Y-69831507D01*
X64985676Y-69895866D01*
X64973761Y-69964712D01*
X64926516Y-70016188D01*
X64900803Y-70027931D01*
X64779163Y-70067454D01*
X64610800Y-70153240D01*
X64541869Y-70203322D01*
X64457927Y-70264310D01*
X64457925Y-70264312D01*
X64457924Y-70264312D01*
X64324312Y-70397924D01*
X64324312Y-70397925D01*
X64324310Y-70397927D01*
X64306353Y-70422643D01*
X64213240Y-70550800D01*
X64127454Y-70719163D01*
X64069059Y-70898881D01*
X64039500Y-71085513D01*
X64039500Y-71274486D01*
X64069059Y-71461118D01*
X64127454Y-71640836D01*
X64213240Y-71809199D01*
X64324310Y-71962073D01*
X64457927Y-72095690D01*
X64610801Y-72206760D01*
X64690347Y-72247290D01*
X64779163Y-72292545D01*
X64779165Y-72292545D01*
X64779168Y-72292547D01*
X64868734Y-72321649D01*
X64900803Y-72332069D01*
X64958478Y-72371507D01*
X64985676Y-72435866D01*
X64973761Y-72504712D01*
X64926516Y-72556188D01*
X64900803Y-72567931D01*
X64779163Y-72607454D01*
X64610800Y-72693240D01*
X64523579Y-72756610D01*
X64457927Y-72804310D01*
X64457925Y-72804312D01*
X64457924Y-72804312D01*
X64324312Y-72937924D01*
X64324312Y-72937925D01*
X64324310Y-72937927D01*
X64276610Y-73003579D01*
X64213240Y-73090800D01*
X64127454Y-73259163D01*
X64069059Y-73438881D01*
X64039500Y-73625513D01*
X64039500Y-73814486D01*
X64069059Y-74001118D01*
X64127454Y-74180836D01*
X64213240Y-74349199D01*
X64324310Y-74502073D01*
X64457927Y-74635690D01*
X64610801Y-74746760D01*
X64690347Y-74787290D01*
X64779163Y-74832545D01*
X64779165Y-74832545D01*
X64779168Y-74832547D01*
X64868734Y-74861649D01*
X64900803Y-74872069D01*
X64958478Y-74911507D01*
X64985676Y-74975866D01*
X64973761Y-75044712D01*
X64926516Y-75096188D01*
X64900803Y-75107931D01*
X64779163Y-75147454D01*
X64610800Y-75233240D01*
X64523579Y-75296610D01*
X64457927Y-75344310D01*
X64457925Y-75344312D01*
X64457924Y-75344312D01*
X64324312Y-75477924D01*
X64324312Y-75477925D01*
X64324310Y-75477927D01*
X64276610Y-75543579D01*
X64213240Y-75630800D01*
X64127454Y-75799163D01*
X64069059Y-75978881D01*
X64039500Y-76165513D01*
X64039500Y-76354486D01*
X64069059Y-76541118D01*
X64127454Y-76720836D01*
X64213240Y-76889199D01*
X64324310Y-77042073D01*
X64457927Y-77175690D01*
X64610801Y-77286760D01*
X64690347Y-77327290D01*
X64779163Y-77372545D01*
X64779165Y-77372545D01*
X64779168Y-77372547D01*
X64868734Y-77401649D01*
X64900803Y-77412069D01*
X64958478Y-77451507D01*
X64985676Y-77515866D01*
X64973761Y-77584712D01*
X64926516Y-77636188D01*
X64900803Y-77647931D01*
X64779163Y-77687454D01*
X64610800Y-77773240D01*
X64523579Y-77836610D01*
X64457927Y-77884310D01*
X64457925Y-77884312D01*
X64457924Y-77884312D01*
X64324312Y-78017924D01*
X64324312Y-78017925D01*
X64324310Y-78017927D01*
X64276610Y-78083579D01*
X64213240Y-78170800D01*
X64127454Y-78339163D01*
X64069059Y-78518881D01*
X64039500Y-78705513D01*
X64039500Y-78894486D01*
X64069059Y-79081118D01*
X64127454Y-79260836D01*
X64213240Y-79429199D01*
X64324310Y-79582073D01*
X64457927Y-79715690D01*
X64610801Y-79826760D01*
X64665407Y-79854583D01*
X64779163Y-79912545D01*
X64779165Y-79912545D01*
X64779168Y-79912547D01*
X64868734Y-79941649D01*
X64900803Y-79952069D01*
X64958478Y-79991507D01*
X64985676Y-80055866D01*
X64973761Y-80124712D01*
X64926516Y-80176188D01*
X64900803Y-80187931D01*
X64779163Y-80227454D01*
X64610800Y-80313240D01*
X64531662Y-80370738D01*
X64457927Y-80424310D01*
X64457925Y-80424312D01*
X64457924Y-80424312D01*
X64324312Y-80557924D01*
X64324312Y-80557925D01*
X64324310Y-80557927D01*
X64296889Y-80595669D01*
X64213240Y-80710800D01*
X64127454Y-80879163D01*
X64069059Y-81058881D01*
X64039500Y-81245513D01*
X64039500Y-81434486D01*
X64069059Y-81621118D01*
X64127454Y-81800836D01*
X64213240Y-81969199D01*
X64324310Y-82122073D01*
X64457927Y-82255690D01*
X64610801Y-82366760D01*
X64690347Y-82407290D01*
X64779163Y-82452545D01*
X64779165Y-82452545D01*
X64779168Y-82452547D01*
X64868734Y-82481649D01*
X64900803Y-82492069D01*
X64958478Y-82531507D01*
X64985676Y-82595866D01*
X64973761Y-82664712D01*
X64926516Y-82716188D01*
X64900803Y-82727931D01*
X64779163Y-82767454D01*
X64610800Y-82853240D01*
X64523579Y-82916610D01*
X64457927Y-82964310D01*
X64457925Y-82964312D01*
X64457924Y-82964312D01*
X64324312Y-83097924D01*
X64324312Y-83097925D01*
X64324310Y-83097927D01*
X64282118Y-83155999D01*
X64213240Y-83250800D01*
X64127454Y-83419163D01*
X64069059Y-83598881D01*
X64039500Y-83785513D01*
X64039500Y-83974486D01*
X64069059Y-84161118D01*
X64127454Y-84340836D01*
X64161168Y-84407002D01*
X64213240Y-84509199D01*
X64324310Y-84662073D01*
X64457927Y-84795690D01*
X64610801Y-84906760D01*
X64690347Y-84947290D01*
X64779163Y-84992545D01*
X64779165Y-84992545D01*
X64779168Y-84992547D01*
X64868734Y-85021649D01*
X64900803Y-85032069D01*
X64958478Y-85071507D01*
X64985676Y-85135866D01*
X64973761Y-85204712D01*
X64926516Y-85256188D01*
X64900803Y-85267931D01*
X64779163Y-85307454D01*
X64610800Y-85393240D01*
X64523579Y-85456610D01*
X64457927Y-85504310D01*
X64457925Y-85504312D01*
X64457924Y-85504312D01*
X64324312Y-85637924D01*
X64324312Y-85637925D01*
X64324310Y-85637927D01*
X64276610Y-85703579D01*
X64213240Y-85790800D01*
X64127454Y-85959163D01*
X64069059Y-86138881D01*
X64039500Y-86325513D01*
X64039500Y-86514486D01*
X64069059Y-86701118D01*
X64127454Y-86880836D01*
X64213240Y-87049199D01*
X64324310Y-87202073D01*
X64457927Y-87335690D01*
X64610801Y-87446760D01*
X64690347Y-87487290D01*
X64779163Y-87532545D01*
X64779165Y-87532545D01*
X64779168Y-87532547D01*
X64875497Y-87563846D01*
X64958881Y-87590940D01*
X65145514Y-87620500D01*
X65145519Y-87620500D01*
X65334486Y-87620500D01*
X65521118Y-87590940D01*
X65700832Y-87532547D01*
X65869199Y-87446760D01*
X66022073Y-87335690D01*
X66155690Y-87202073D01*
X66266760Y-87049199D01*
X66352547Y-86880832D01*
X66410940Y-86701118D01*
X66440500Y-86514486D01*
X66440500Y-86325513D01*
X66410940Y-86138881D01*
X66352545Y-85959163D01*
X66266759Y-85790800D01*
X66155690Y-85637927D01*
X66022073Y-85504310D01*
X65869199Y-85393240D01*
X65700836Y-85307454D01*
X65626472Y-85283291D01*
X65579195Y-85267930D01*
X65521521Y-85228493D01*
X65494323Y-85164134D01*
X65506238Y-85095288D01*
X65553482Y-85043812D01*
X65579194Y-85032069D01*
X65700832Y-84992547D01*
X65869199Y-84906760D01*
X66022073Y-84795690D01*
X66155690Y-84662073D01*
X66266760Y-84509199D01*
X66352547Y-84340832D01*
X66410940Y-84161118D01*
X66422263Y-84089627D01*
X66440500Y-83974486D01*
X66440500Y-83785513D01*
X66410940Y-83598881D01*
X66352545Y-83419163D01*
X66307290Y-83330347D01*
X66266760Y-83250801D01*
X66155690Y-83097927D01*
X66022073Y-82964310D01*
X65869199Y-82853240D01*
X65700836Y-82767454D01*
X65626472Y-82743291D01*
X65579195Y-82727930D01*
X65521521Y-82688493D01*
X65494323Y-82624134D01*
X65506238Y-82555288D01*
X65553482Y-82503812D01*
X65579194Y-82492069D01*
X65700832Y-82452547D01*
X65869199Y-82366760D01*
X66022073Y-82255690D01*
X66155690Y-82122073D01*
X66266760Y-81969199D01*
X66352547Y-81800832D01*
X66410940Y-81621118D01*
X66440500Y-81434486D01*
X66440500Y-81245513D01*
X66410940Y-81058881D01*
X66352545Y-80879163D01*
X66266759Y-80710800D01*
X66248939Y-80686273D01*
X66155690Y-80557927D01*
X66022073Y-80424310D01*
X65869199Y-80313240D01*
X65700836Y-80227454D01*
X65626472Y-80203291D01*
X65579195Y-80187930D01*
X65521521Y-80148493D01*
X65494323Y-80084134D01*
X65506238Y-80015288D01*
X65553482Y-79963812D01*
X65579194Y-79952069D01*
X65700832Y-79912547D01*
X65869199Y-79826760D01*
X66022073Y-79715690D01*
X66155690Y-79582073D01*
X66266760Y-79429199D01*
X66352547Y-79260832D01*
X66410940Y-79081118D01*
X66429865Y-78961629D01*
X66440500Y-78894486D01*
X66440500Y-78705513D01*
X66410940Y-78518881D01*
X66352545Y-78339163D01*
X66266759Y-78170800D01*
X66155690Y-78017927D01*
X66022073Y-77884310D01*
X65869199Y-77773240D01*
X65700836Y-77687454D01*
X65626472Y-77663291D01*
X65579195Y-77647930D01*
X65521521Y-77608493D01*
X65494323Y-77544134D01*
X65506238Y-77475288D01*
X65553482Y-77423812D01*
X65579194Y-77412069D01*
X65700832Y-77372547D01*
X65869199Y-77286760D01*
X66022073Y-77175690D01*
X66155690Y-77042073D01*
X66266760Y-76889199D01*
X66352547Y-76720832D01*
X66410940Y-76541118D01*
X66420255Y-76482307D01*
X66440500Y-76354486D01*
X66440500Y-76165513D01*
X66410940Y-75978881D01*
X66352545Y-75799163D01*
X66266759Y-75630800D01*
X66155690Y-75477927D01*
X66022073Y-75344310D01*
X65869199Y-75233240D01*
X65700836Y-75147454D01*
X65626472Y-75123291D01*
X65579195Y-75107930D01*
X65521521Y-75068493D01*
X65494323Y-75004134D01*
X65506238Y-74935288D01*
X65553482Y-74883812D01*
X65579194Y-74872069D01*
X65700832Y-74832547D01*
X65869199Y-74746760D01*
X66022073Y-74635690D01*
X66155690Y-74502073D01*
X66266760Y-74349199D01*
X66352547Y-74180832D01*
X66410940Y-74001118D01*
X66440500Y-73814486D01*
X66440500Y-73625513D01*
X66410940Y-73438881D01*
X66352545Y-73259163D01*
X66266759Y-73090800D01*
X66155690Y-72937927D01*
X66022073Y-72804310D01*
X65869199Y-72693240D01*
X65700836Y-72607454D01*
X65626472Y-72583291D01*
X65579195Y-72567930D01*
X65521521Y-72528493D01*
X65494323Y-72464134D01*
X65506238Y-72395288D01*
X65553482Y-72343812D01*
X65579194Y-72332069D01*
X65700832Y-72292547D01*
X65869199Y-72206760D01*
X66022073Y-72095690D01*
X66155690Y-71962073D01*
X66266760Y-71809199D01*
X66352547Y-71640832D01*
X66410940Y-71461118D01*
X66440500Y-71274486D01*
X66440500Y-71085513D01*
X66410940Y-70898881D01*
X66352545Y-70719163D01*
X66266759Y-70550800D01*
X66155690Y-70397927D01*
X66022073Y-70264310D01*
X65869199Y-70153240D01*
X65700836Y-70067454D01*
X65626472Y-70043291D01*
X65579195Y-70027930D01*
X65521521Y-69988493D01*
X65494323Y-69924134D01*
X65506238Y-69855288D01*
X65553482Y-69803812D01*
X65579194Y-69792069D01*
X65700832Y-69752547D01*
X65869199Y-69666760D01*
X66022073Y-69555690D01*
X66155690Y-69422073D01*
X66266760Y-69269199D01*
X66352547Y-69100832D01*
X66410940Y-68921118D01*
X66433245Y-68780290D01*
X66440500Y-68734486D01*
X66440500Y-68545513D01*
X66410940Y-68358881D01*
X66372229Y-68239744D01*
X66352547Y-68179168D01*
X66352545Y-68179165D01*
X66352545Y-68179163D01*
X66266759Y-68010800D01*
X66155690Y-67857927D01*
X66022073Y-67724310D01*
X65869199Y-67613240D01*
X65700836Y-67527454D01*
X65626472Y-67503291D01*
X65579195Y-67487930D01*
X65521521Y-67448493D01*
X65494323Y-67384134D01*
X65506238Y-67315288D01*
X65553482Y-67263812D01*
X65579194Y-67252069D01*
X65700832Y-67212547D01*
X65869199Y-67126760D01*
X66022073Y-67015690D01*
X66155690Y-66882073D01*
X66266760Y-66729199D01*
X66352547Y-66560832D01*
X66410940Y-66381118D01*
X66440500Y-66194486D01*
X66440500Y-66005513D01*
X66410940Y-65818881D01*
X66352545Y-65639163D01*
X66266759Y-65470800D01*
X66155690Y-65317927D01*
X66022073Y-65184310D01*
X65869199Y-65073240D01*
X65700836Y-64987454D01*
X65521118Y-64929059D01*
X65334486Y-64899500D01*
X65334481Y-64899500D01*
X65145519Y-64899500D01*
X65145514Y-64899500D01*
X64958881Y-64929059D01*
X64779163Y-64987454D01*
X64610800Y-65073240D01*
X64523579Y-65136610D01*
X64457927Y-65184310D01*
X64457925Y-65184312D01*
X64457924Y-65184312D01*
X64324312Y-65317924D01*
X64324312Y-65317925D01*
X64324310Y-65317927D01*
X64276610Y-65383579D01*
X64213240Y-65470800D01*
X64127454Y-65639163D01*
X64069059Y-65818881D01*
X64039500Y-66005513D01*
X51200500Y-66005513D01*
X51170940Y-65818881D01*
X51112545Y-65639163D01*
X51026759Y-65470800D01*
X50915690Y-65317927D01*
X50782073Y-65184310D01*
X50629199Y-65073240D01*
X50460836Y-64987454D01*
X50386472Y-64963291D01*
X50339195Y-64947930D01*
X50281521Y-64908493D01*
X50254323Y-64844134D01*
X50266238Y-64775288D01*
X50313482Y-64723812D01*
X50339194Y-64712069D01*
X50460832Y-64672547D01*
X50629199Y-64586760D01*
X50782073Y-64475690D01*
X50915690Y-64342073D01*
X51026760Y-64189199D01*
X51112547Y-64020832D01*
X51170940Y-63841118D01*
X51200500Y-63654486D01*
X51200500Y-63465513D01*
X51170940Y-63278881D01*
X51158510Y-63240628D01*
X51115102Y-63107034D01*
X51113107Y-63037197D01*
X51145351Y-62981040D01*
X63423503Y-50702887D01*
X63423508Y-50702884D01*
X63433711Y-50692680D01*
X63433713Y-50692680D01*
X63508280Y-50618113D01*
X63561007Y-50526787D01*
X63563817Y-50516301D01*
X63588301Y-50424927D01*
X63588301Y-50319473D01*
X63588301Y-50311878D01*
X63588300Y-50311860D01*
X63588300Y-35349454D01*
X63607985Y-35282415D01*
X63624614Y-35261777D01*
X63989630Y-34896762D01*
X64050952Y-34863278D01*
X64120644Y-34868262D01*
X64176577Y-34910134D01*
X64200994Y-34975598D01*
X64187795Y-35040739D01*
X64127454Y-35159163D01*
X64069059Y-35338881D01*
X64039500Y-35525513D01*
X64039500Y-35714486D01*
X64069059Y-35901118D01*
X64127454Y-36080836D01*
X64213240Y-36249199D01*
X64324310Y-36402073D01*
X64457927Y-36535690D01*
X64610801Y-36646760D01*
X64631819Y-36657469D01*
X64779163Y-36732545D01*
X64779165Y-36732545D01*
X64779168Y-36732547D01*
X64868734Y-36761649D01*
X64900803Y-36772069D01*
X64958478Y-36811507D01*
X64985676Y-36875866D01*
X64973761Y-36944712D01*
X64926516Y-36996188D01*
X64900803Y-37007931D01*
X64779163Y-37047454D01*
X64610800Y-37133240D01*
X64523579Y-37196610D01*
X64457927Y-37244310D01*
X64457925Y-37244312D01*
X64457924Y-37244312D01*
X64324312Y-37377924D01*
X64324312Y-37377925D01*
X64324310Y-37377927D01*
X64276610Y-37443579D01*
X64213240Y-37530800D01*
X64127454Y-37699163D01*
X64069059Y-37878881D01*
X64039500Y-38065513D01*
X64039500Y-38254486D01*
X64069059Y-38441118D01*
X64127454Y-38620836D01*
X64213240Y-38789199D01*
X64324310Y-38942073D01*
X64457927Y-39075690D01*
X64610801Y-39186760D01*
X64635752Y-39199473D01*
X64779163Y-39272545D01*
X64779165Y-39272545D01*
X64779168Y-39272547D01*
X64868734Y-39301649D01*
X64900803Y-39312069D01*
X64958478Y-39351507D01*
X64985676Y-39415866D01*
X64973761Y-39484712D01*
X64926516Y-39536188D01*
X64900803Y-39547931D01*
X64779163Y-39587454D01*
X64610800Y-39673240D01*
X64523579Y-39736610D01*
X64457927Y-39784310D01*
X64457925Y-39784312D01*
X64457924Y-39784312D01*
X64324312Y-39917924D01*
X64324312Y-39917925D01*
X64324310Y-39917927D01*
X64276610Y-39983579D01*
X64213240Y-40070800D01*
X64127454Y-40239163D01*
X64069059Y-40418881D01*
X64039500Y-40605513D01*
X64039500Y-40794486D01*
X64069059Y-40981118D01*
X64127454Y-41160836D01*
X64187794Y-41279258D01*
X64213240Y-41329199D01*
X64324310Y-41482073D01*
X64457927Y-41615690D01*
X64610801Y-41726760D01*
X64655431Y-41749500D01*
X64779163Y-41812545D01*
X64779165Y-41812545D01*
X64779168Y-41812547D01*
X64867094Y-41841116D01*
X64900803Y-41852069D01*
X64958478Y-41891507D01*
X64985676Y-41955866D01*
X64973761Y-42024712D01*
X64926516Y-42076188D01*
X64900803Y-42087931D01*
X64779163Y-42127454D01*
X64610800Y-42213240D01*
X64523579Y-42276610D01*
X64457927Y-42324310D01*
X64457925Y-42324312D01*
X64457924Y-42324312D01*
X64324312Y-42457924D01*
X64324312Y-42457925D01*
X64324310Y-42457927D01*
X64279233Y-42519970D01*
X64213240Y-42610800D01*
X64127454Y-42779163D01*
X64069059Y-42958881D01*
X64039500Y-43145513D01*
X64039500Y-43334486D01*
X64069059Y-43521118D01*
X64127454Y-43700836D01*
X64185444Y-43814646D01*
X64213240Y-43869199D01*
X64324310Y-44022073D01*
X64457927Y-44155690D01*
X64610801Y-44266760D01*
X64660742Y-44292206D01*
X64779163Y-44352545D01*
X64779165Y-44352545D01*
X64779168Y-44352547D01*
X64868734Y-44381649D01*
X64900803Y-44392069D01*
X64958478Y-44431507D01*
X64985676Y-44495866D01*
X64973761Y-44564712D01*
X64926516Y-44616188D01*
X64900803Y-44627931D01*
X64779163Y-44667454D01*
X64610800Y-44753240D01*
X64523579Y-44816610D01*
X64457927Y-44864310D01*
X64457925Y-44864312D01*
X64457924Y-44864312D01*
X64324312Y-44997924D01*
X64324312Y-44997925D01*
X64324310Y-44997927D01*
X64311316Y-45015812D01*
X64213240Y-45150800D01*
X64127454Y-45319163D01*
X64069059Y-45498881D01*
X64039500Y-45685513D01*
X64039500Y-45874486D01*
X64069059Y-46061118D01*
X64127454Y-46240836D01*
X64156689Y-46298212D01*
X64213240Y-46409199D01*
X64324310Y-46562073D01*
X64457927Y-46695690D01*
X64610801Y-46806760D01*
X64686656Y-46845410D01*
X64779163Y-46892545D01*
X64779165Y-46892545D01*
X64779168Y-46892547D01*
X64868734Y-46921649D01*
X64900803Y-46932069D01*
X64958478Y-46971507D01*
X64985676Y-47035866D01*
X64973761Y-47104712D01*
X64926516Y-47156188D01*
X64900803Y-47167931D01*
X64779163Y-47207454D01*
X64610800Y-47293240D01*
X64559593Y-47330445D01*
X64457927Y-47404310D01*
X64457925Y-47404312D01*
X64457924Y-47404312D01*
X64324312Y-47537924D01*
X64324312Y-47537925D01*
X64324310Y-47537927D01*
X64276610Y-47603579D01*
X64213240Y-47690800D01*
X64127454Y-47859163D01*
X64069059Y-48038881D01*
X64039500Y-48225513D01*
X64039500Y-48414486D01*
X64069059Y-48601118D01*
X64127454Y-48780836D01*
X64148975Y-48823072D01*
X64213240Y-48949199D01*
X64324310Y-49102073D01*
X64457927Y-49235690D01*
X64610801Y-49346760D01*
X64660742Y-49372206D01*
X64779163Y-49432545D01*
X64779165Y-49432545D01*
X64779168Y-49432547D01*
X64843313Y-49453389D01*
X64900803Y-49472069D01*
X64958478Y-49511507D01*
X64985676Y-49575866D01*
X64973761Y-49644712D01*
X64926516Y-49696188D01*
X64900803Y-49707931D01*
X64779163Y-49747454D01*
X64610800Y-49833240D01*
X64523579Y-49896610D01*
X64457927Y-49944310D01*
X64457925Y-49944312D01*
X64457924Y-49944312D01*
X64324312Y-50077924D01*
X64324312Y-50077925D01*
X64324310Y-50077927D01*
X64296076Y-50116788D01*
X64213240Y-50230800D01*
X64127454Y-50399163D01*
X64069059Y-50578881D01*
X64039500Y-50765513D01*
X64039500Y-50954486D01*
X64069059Y-51141118D01*
X64127454Y-51320836D01*
X64213240Y-51489199D01*
X64324310Y-51642073D01*
X64457927Y-51775690D01*
X64610801Y-51886760D01*
X64690347Y-51927290D01*
X64779163Y-51972545D01*
X64779165Y-51972545D01*
X64779168Y-51972547D01*
X64843313Y-51993389D01*
X64900803Y-52012069D01*
X64958478Y-52051507D01*
X64985676Y-52115866D01*
X64973761Y-52184712D01*
X64926516Y-52236188D01*
X64900803Y-52247931D01*
X64779163Y-52287454D01*
X64610800Y-52373240D01*
X64523579Y-52436610D01*
X64457927Y-52484310D01*
X64457925Y-52484312D01*
X64457924Y-52484312D01*
X64324312Y-52617924D01*
X64324312Y-52617925D01*
X64324310Y-52617927D01*
X64296076Y-52656788D01*
X64213240Y-52770800D01*
X64127454Y-52939163D01*
X64069059Y-53118881D01*
X64039500Y-53305513D01*
X64039500Y-53494486D01*
X64069059Y-53681118D01*
X64127454Y-53860836D01*
X64171554Y-53947386D01*
X64213240Y-54029199D01*
X64324310Y-54182073D01*
X64457927Y-54315690D01*
X64610801Y-54426760D01*
X64660742Y-54452206D01*
X64779163Y-54512545D01*
X64779165Y-54512545D01*
X64779168Y-54512547D01*
X64843313Y-54533389D01*
X64900803Y-54552069D01*
X64958478Y-54591507D01*
X64985676Y-54655866D01*
X64973761Y-54724712D01*
X64926516Y-54776188D01*
X64900803Y-54787931D01*
X64779163Y-54827454D01*
X64610800Y-54913240D01*
X64523579Y-54976610D01*
X64457927Y-55024310D01*
X64457925Y-55024312D01*
X64457924Y-55024312D01*
X64324312Y-55157924D01*
X64324312Y-55157925D01*
X64324310Y-55157927D01*
X64296076Y-55196788D01*
X64213240Y-55310800D01*
X64127454Y-55479163D01*
X64069059Y-55658881D01*
X64039500Y-55845513D01*
X64039500Y-56034486D01*
X64069059Y-56221118D01*
X64127454Y-56400836D01*
X64187642Y-56518960D01*
X64213240Y-56569199D01*
X64324310Y-56722073D01*
X64457927Y-56855690D01*
X64610801Y-56966760D01*
X64660742Y-56992206D01*
X64779163Y-57052545D01*
X64779165Y-57052545D01*
X64779168Y-57052547D01*
X64828583Y-57068603D01*
X64900803Y-57092069D01*
X64958478Y-57131507D01*
X64985676Y-57195866D01*
X64973761Y-57264712D01*
X64926516Y-57316188D01*
X64900803Y-57327931D01*
X64779163Y-57367454D01*
X64610800Y-57453240D01*
X64523579Y-57516610D01*
X64457927Y-57564310D01*
X64457925Y-57564312D01*
X64457924Y-57564312D01*
X64324312Y-57697924D01*
X64324312Y-57697925D01*
X64324310Y-57697927D01*
X64305308Y-57724081D01*
X64213240Y-57850800D01*
X64127454Y-58019163D01*
X64069059Y-58198881D01*
X64039500Y-58385513D01*
X64039500Y-58574486D01*
X64069059Y-58761118D01*
X64127454Y-58940836D01*
X64213240Y-59109199D01*
X64324310Y-59262073D01*
X64457927Y-59395690D01*
X64610801Y-59506760D01*
X64690347Y-59547290D01*
X64779163Y-59592545D01*
X64779165Y-59592545D01*
X64779168Y-59592547D01*
X64868734Y-59621649D01*
X64900803Y-59632069D01*
X64958478Y-59671507D01*
X64985676Y-59735866D01*
X64973761Y-59804712D01*
X64926516Y-59856188D01*
X64900803Y-59867931D01*
X64779163Y-59907454D01*
X64610800Y-59993240D01*
X64523579Y-60056610D01*
X64457927Y-60104310D01*
X64457925Y-60104312D01*
X64457924Y-60104312D01*
X64324312Y-60237924D01*
X64324312Y-60237925D01*
X64324310Y-60237927D01*
X64276610Y-60303579D01*
X64213240Y-60390800D01*
X64127454Y-60559163D01*
X64069059Y-60738881D01*
X64039500Y-60925513D01*
X64039500Y-61114486D01*
X64069059Y-61301118D01*
X64127454Y-61480836D01*
X64187793Y-61599257D01*
X64213240Y-61649199D01*
X64324310Y-61802073D01*
X64457927Y-61935690D01*
X64610801Y-62046760D01*
X64660742Y-62072206D01*
X64779163Y-62132545D01*
X64779165Y-62132545D01*
X64779168Y-62132547D01*
X64875497Y-62163846D01*
X64958881Y-62190940D01*
X65145514Y-62220500D01*
X65145519Y-62220500D01*
X65334486Y-62220500D01*
X65521118Y-62190940D01*
X65700832Y-62132547D01*
X65869199Y-62046760D01*
X66022073Y-61935690D01*
X66155690Y-61802073D01*
X66266760Y-61649199D01*
X66352547Y-61480832D01*
X66410940Y-61301118D01*
X66440500Y-61114486D01*
X66440500Y-60925513D01*
X66410940Y-60738881D01*
X66366858Y-60603213D01*
X66352547Y-60559168D01*
X66352545Y-60559165D01*
X66352545Y-60559163D01*
X66274558Y-60406106D01*
X66266760Y-60390801D01*
X66155690Y-60237927D01*
X66022073Y-60104310D01*
X65869199Y-59993240D01*
X65700836Y-59907454D01*
X65626472Y-59883291D01*
X65579195Y-59867930D01*
X65521521Y-59828493D01*
X65494323Y-59764134D01*
X65506238Y-59695288D01*
X65553482Y-59643812D01*
X65579194Y-59632069D01*
X65700832Y-59592547D01*
X65869199Y-59506760D01*
X66022073Y-59395690D01*
X66155690Y-59262073D01*
X66266760Y-59109199D01*
X66352547Y-58940832D01*
X66410940Y-58761118D01*
X66417940Y-58716924D01*
X66440500Y-58574486D01*
X66440500Y-58385513D01*
X66410940Y-58198881D01*
X66352545Y-58019163D01*
X66292205Y-57900740D01*
X66279309Y-57832071D01*
X66305585Y-57767330D01*
X66362692Y-57727073D01*
X66432497Y-57724081D01*
X66490371Y-57756764D01*
X87762081Y-79028473D01*
X87795566Y-79089796D01*
X87798400Y-79116154D01*
X87798400Y-79610192D01*
X87778715Y-79677231D01*
X87762081Y-79697873D01*
X87693626Y-79766327D01*
X87693623Y-79766331D01*
X87622438Y-79872866D01*
X87622433Y-79872875D01*
X87573399Y-79991255D01*
X87573397Y-79991261D01*
X87548400Y-80116928D01*
X87548400Y-80116931D01*
X87548400Y-80245069D01*
X87548400Y-80245071D01*
X87548399Y-80245071D01*
X87573397Y-80370738D01*
X87573399Y-80370744D01*
X87622433Y-80489124D01*
X87622438Y-80489133D01*
X87693623Y-80595668D01*
X87693626Y-80595672D01*
X87784227Y-80686273D01*
X87784231Y-80686276D01*
X87890766Y-80757461D01*
X87890773Y-80757465D01*
X87949392Y-80781746D01*
X88003794Y-80825585D01*
X88025860Y-80891879D01*
X88008582Y-80959578D01*
X87989620Y-80983987D01*
X71118960Y-97854645D01*
X71057637Y-97888130D01*
X70992961Y-97884895D01*
X70821120Y-97829060D01*
X70634486Y-97799500D01*
X70634481Y-97799500D01*
X70445519Y-97799500D01*
X70445514Y-97799500D01*
X70258881Y-97829059D01*
X70079163Y-97887454D01*
X69910800Y-97973240D01*
X69839118Y-98025321D01*
X69757927Y-98084310D01*
X69757925Y-98084312D01*
X69757924Y-98084312D01*
X69624312Y-98217924D01*
X69624312Y-98217925D01*
X69624310Y-98217927D01*
X69576610Y-98283579D01*
X69513240Y-98370800D01*
X69434985Y-98524385D01*
X69387010Y-98575181D01*
X69319189Y-98591976D01*
X69253054Y-98569439D01*
X69209603Y-98514723D01*
X69200500Y-98468090D01*
X69200500Y-98025323D01*
X69200499Y-98025321D01*
X69185967Y-97952264D01*
X69185966Y-97952260D01*
X69130601Y-97869399D01*
X69047740Y-97814034D01*
X69047739Y-97814033D01*
X69047735Y-97814032D01*
X68974677Y-97799500D01*
X68974674Y-97799500D01*
X67025326Y-97799500D01*
X67025323Y-97799500D01*
X66952264Y-97814032D01*
X66952260Y-97814033D01*
X66869399Y-97869399D01*
X66814033Y-97952260D01*
X66814032Y-97952264D01*
X66799500Y-98025321D01*
X66799500Y-99974678D01*
X66814032Y-100047735D01*
X66814033Y-100047739D01*
X66814034Y-100047740D01*
X66869399Y-100130601D01*
X66929772Y-100170940D01*
X66952260Y-100185966D01*
X66952264Y-100185967D01*
X67025321Y-100200499D01*
X67025324Y-100200500D01*
X67025326Y-100200500D01*
X68974676Y-100200500D01*
X68974677Y-100200499D01*
X69047740Y-100185966D01*
X69130601Y-100130601D01*
X69185966Y-100047740D01*
X69200500Y-99974674D01*
X69200500Y-99531909D01*
X69220185Y-99464870D01*
X69272989Y-99419115D01*
X69342147Y-99409171D01*
X69405703Y-99438196D01*
X69434984Y-99475613D01*
X69513240Y-99629199D01*
X69624310Y-99782073D01*
X69757927Y-99915690D01*
X69910801Y-100026760D01*
X69951967Y-100047735D01*
X70079163Y-100112545D01*
X70079165Y-100112545D01*
X70079168Y-100112547D01*
X70175497Y-100143846D01*
X70258881Y-100170940D01*
X70445514Y-100200500D01*
X70445519Y-100200500D01*
X70634486Y-100200500D01*
X70821118Y-100170940D01*
X71000832Y-100112547D01*
X71169199Y-100026760D01*
X71322073Y-99915690D01*
X71455690Y-99782073D01*
X71566760Y-99629199D01*
X71652547Y-99460832D01*
X71710940Y-99281118D01*
X71740500Y-99094486D01*
X71740500Y-98905513D01*
X71710940Y-98718881D01*
X71664248Y-98575181D01*
X71655102Y-98547034D01*
X71653107Y-98477197D01*
X71685351Y-98421040D01*
X93127503Y-76978887D01*
X93127508Y-76978884D01*
X93137711Y-76968680D01*
X93137713Y-76968680D01*
X93212280Y-76894113D01*
X93265007Y-76802787D01*
X93267942Y-76791835D01*
X93292301Y-76700927D01*
X93292301Y-76595473D01*
X93292301Y-76587878D01*
X93292300Y-76587860D01*
X93292300Y-37164207D01*
X93311985Y-37097168D01*
X93328614Y-37076530D01*
X93397076Y-37008069D01*
X93468265Y-36901527D01*
X93517301Y-36783144D01*
X93542300Y-36657469D01*
X93542300Y-36529331D01*
X93542300Y-36529328D01*
X93517302Y-36403661D01*
X93517301Y-36403660D01*
X93517301Y-36403656D01*
X93468265Y-36285273D01*
X93468264Y-36285272D01*
X93468261Y-36285266D01*
X93397076Y-36178731D01*
X93397073Y-36178727D01*
X93306472Y-36088126D01*
X93306468Y-36088123D01*
X93199933Y-36016938D01*
X93199924Y-36016933D01*
X93081544Y-35967899D01*
X93081538Y-35967897D01*
X92955871Y-35942900D01*
X92955869Y-35942900D01*
X92827731Y-35942900D01*
X92827729Y-35942900D01*
X92702061Y-35967897D01*
X92702055Y-35967899D01*
X92583675Y-36016933D01*
X92583666Y-36016938D01*
X92477131Y-36088123D01*
X92477127Y-36088126D01*
X92386526Y-36178727D01*
X92386523Y-36178731D01*
X92315338Y-36285266D01*
X92315333Y-36285275D01*
X92266299Y-36403655D01*
X92266297Y-36403661D01*
X92241300Y-36529328D01*
X92241300Y-36529331D01*
X92241300Y-36657469D01*
X92241300Y-36657471D01*
X92241299Y-36657471D01*
X92266297Y-36783138D01*
X92266299Y-36783144D01*
X92315333Y-36901524D01*
X92315338Y-36901533D01*
X92386522Y-37008067D01*
X92386523Y-37008068D01*
X92386524Y-37008069D01*
X92454982Y-37076527D01*
X92488466Y-37137848D01*
X92491300Y-37164207D01*
X92491300Y-76430945D01*
X92471615Y-76497984D01*
X92454981Y-76518626D01*
X89001887Y-79971719D01*
X88940564Y-80005204D01*
X88870872Y-80000220D01*
X88814939Y-79958348D01*
X88799645Y-79931490D01*
X88775368Y-79872879D01*
X88775361Y-79872866D01*
X88704176Y-79766331D01*
X88704173Y-79766327D01*
X88635719Y-79697873D01*
X88602234Y-79636550D01*
X88599400Y-79610192D01*
X88599400Y-78961629D01*
X88599401Y-78961616D01*
X88599401Y-78846175D01*
X88599401Y-78846173D01*
X88572107Y-78744312D01*
X88545743Y-78698650D01*
X88519380Y-78652987D01*
X88444813Y-78578420D01*
X88444810Y-78578418D01*
X77411115Y-67544723D01*
X66385353Y-56518960D01*
X66351868Y-56457637D01*
X66355102Y-56392966D01*
X66410940Y-56221118D01*
X66419385Y-56167793D01*
X66440500Y-56034486D01*
X66440500Y-55845513D01*
X66410940Y-55658881D01*
X66355104Y-55487038D01*
X66352547Y-55479168D01*
X66352545Y-55479165D01*
X66352545Y-55479163D01*
X66266759Y-55310800D01*
X66155690Y-55157927D01*
X66022073Y-55024310D01*
X65869199Y-54913240D01*
X65799450Y-54877701D01*
X65700836Y-54827454D01*
X65599860Y-54794645D01*
X65579195Y-54787930D01*
X65521521Y-54748493D01*
X65494323Y-54684134D01*
X65506238Y-54615288D01*
X65553482Y-54563812D01*
X65579194Y-54552069D01*
X65700832Y-54512547D01*
X65869199Y-54426760D01*
X66022073Y-54315690D01*
X66155690Y-54182073D01*
X66266760Y-54029199D01*
X66352547Y-53860832D01*
X66410940Y-53681118D01*
X66417785Y-53637900D01*
X66440500Y-53494486D01*
X66440500Y-53305513D01*
X66410940Y-53118881D01*
X66352545Y-52939163D01*
X66280072Y-52796928D01*
X66266760Y-52770801D01*
X66155690Y-52617927D01*
X66022073Y-52484310D01*
X65869199Y-52373240D01*
X65799450Y-52337701D01*
X65700836Y-52287454D01*
X65626472Y-52263291D01*
X65579195Y-52247930D01*
X65521521Y-52208493D01*
X65494323Y-52144134D01*
X65506238Y-52075288D01*
X65553482Y-52023812D01*
X65579194Y-52012069D01*
X65700832Y-51972547D01*
X65869199Y-51886760D01*
X66022073Y-51775690D01*
X66155690Y-51642073D01*
X66266760Y-51489199D01*
X66352547Y-51320832D01*
X66410940Y-51141118D01*
X66412150Y-51133477D01*
X66440500Y-50954486D01*
X66440500Y-50765513D01*
X66410940Y-50578881D01*
X66379211Y-50481231D01*
X66352547Y-50399168D01*
X66352545Y-50399165D01*
X66352545Y-50399163D01*
X66292690Y-50281692D01*
X66266760Y-50230801D01*
X66155690Y-50077927D01*
X66022073Y-49944310D01*
X65869199Y-49833240D01*
X65799450Y-49797701D01*
X65700836Y-49747454D01*
X65599860Y-49714645D01*
X65579195Y-49707930D01*
X65521521Y-49668493D01*
X65494323Y-49604134D01*
X65506238Y-49535288D01*
X65553482Y-49483812D01*
X65579194Y-49472069D01*
X65700832Y-49432547D01*
X65869199Y-49346760D01*
X66022073Y-49235690D01*
X66155690Y-49102073D01*
X66266760Y-48949199D01*
X66348790Y-48788204D01*
X66396764Y-48737409D01*
X66459275Y-48720500D01*
X76423525Y-48720500D01*
X76423527Y-48720500D01*
X76525388Y-48693207D01*
X76616713Y-48640480D01*
X97145773Y-28111418D01*
X97207096Y-28077934D01*
X97233454Y-28075100D01*
X97330271Y-28075100D01*
X97414815Y-28058282D01*
X97455944Y-28050101D01*
X97574327Y-28001065D01*
X97680869Y-27929876D01*
X97687815Y-27922930D01*
X97749137Y-27889442D01*
X97818828Y-27894423D01*
X97874764Y-27936292D01*
X97899184Y-28001755D01*
X97899500Y-28010607D01*
X97899500Y-28772870D01*
X97899501Y-28772876D01*
X97905908Y-28832483D01*
X97956202Y-28967328D01*
X97956206Y-28967335D01*
X98042452Y-29082544D01*
X98042455Y-29082547D01*
X98157664Y-29168793D01*
X98157671Y-29168797D01*
X98163417Y-29170940D01*
X98292517Y-29219091D01*
X98352127Y-29225500D01*
X98475500Y-29225499D01*
X98542539Y-29245183D01*
X98588294Y-29297987D01*
X98599500Y-29349499D01*
X98599500Y-45650500D01*
X98579815Y-45717539D01*
X98527011Y-45763294D01*
X98475501Y-45774500D01*
X98352130Y-45774500D01*
X98352123Y-45774501D01*
X98292516Y-45780908D01*
X98157671Y-45831202D01*
X98157664Y-45831206D01*
X98042455Y-45917452D01*
X98042452Y-45917455D01*
X97956206Y-46032664D01*
X97956202Y-46032671D01*
X97905908Y-46167517D01*
X97902695Y-46197409D01*
X97899501Y-46227123D01*
X97899500Y-46227135D01*
X97899500Y-47772870D01*
X97899501Y-47772876D01*
X97905908Y-47832483D01*
X97956202Y-47967328D01*
X97956206Y-47967335D01*
X98042452Y-48082544D01*
X98042455Y-48082547D01*
X98157664Y-48168793D01*
X98157671Y-48168797D01*
X98292517Y-48219091D01*
X98292516Y-48219091D01*
X98299444Y-48219835D01*
X98352127Y-48225500D01*
X99647872Y-48225499D01*
X99707483Y-48219091D01*
X99842331Y-48168796D01*
X99957546Y-48082546D01*
X100043796Y-47967331D01*
X100094091Y-47832483D01*
X100100500Y-47772873D01*
X100100499Y-46788389D01*
X102899500Y-46788389D01*
X102899500Y-47211611D01*
X102926598Y-47382701D01*
X102980127Y-47547445D01*
X103058768Y-47701788D01*
X103160586Y-47841928D01*
X103283072Y-47964414D01*
X103423212Y-48066232D01*
X103577555Y-48144873D01*
X103742299Y-48198402D01*
X103913389Y-48225500D01*
X103913390Y-48225500D01*
X104086610Y-48225500D01*
X104086611Y-48225500D01*
X104257701Y-48198402D01*
X104422445Y-48144873D01*
X104576788Y-48066232D01*
X104716928Y-47964414D01*
X104839414Y-47841928D01*
X104941232Y-47701788D01*
X105019873Y-47547445D01*
X105073402Y-47382701D01*
X105100500Y-47211611D01*
X105100500Y-46788389D01*
X105399500Y-46788389D01*
X105399500Y-47211611D01*
X105426598Y-47382701D01*
X105480127Y-47547445D01*
X105558768Y-47701788D01*
X105660586Y-47841928D01*
X105783072Y-47964414D01*
X105923212Y-48066232D01*
X106077555Y-48144873D01*
X106242299Y-48198402D01*
X106413389Y-48225500D01*
X106413390Y-48225500D01*
X106586610Y-48225500D01*
X106586611Y-48225500D01*
X106757701Y-48198402D01*
X106922445Y-48144873D01*
X107076788Y-48066232D01*
X107216928Y-47964414D01*
X107339414Y-47841928D01*
X107441232Y-47701788D01*
X107519873Y-47547445D01*
X107573402Y-47382701D01*
X107600500Y-47211611D01*
X107600500Y-46788389D01*
X107573402Y-46617299D01*
X107519873Y-46452555D01*
X107441232Y-46298212D01*
X107339414Y-46158072D01*
X107216928Y-46035586D01*
X107076788Y-45933768D01*
X106922445Y-45855127D01*
X106757701Y-45801598D01*
X106757699Y-45801597D01*
X106757698Y-45801597D01*
X106626271Y-45780781D01*
X106586611Y-45774500D01*
X106413389Y-45774500D01*
X106373728Y-45780781D01*
X106242302Y-45801597D01*
X106077552Y-45855128D01*
X105923211Y-45933768D01*
X105874170Y-45969399D01*
X105783072Y-46035586D01*
X105783070Y-46035588D01*
X105783069Y-46035588D01*
X105660588Y-46158069D01*
X105660588Y-46158070D01*
X105660586Y-46158072D01*
X105653725Y-46167516D01*
X105558768Y-46298211D01*
X105480128Y-46452552D01*
X105426597Y-46617302D01*
X105414182Y-46695690D01*
X105399500Y-46788389D01*
X105100500Y-46788389D01*
X105073402Y-46617299D01*
X105019873Y-46452555D01*
X104941232Y-46298212D01*
X104839414Y-46158072D01*
X104716928Y-46035586D01*
X104576788Y-45933768D01*
X104422445Y-45855127D01*
X104257701Y-45801598D01*
X104257699Y-45801597D01*
X104257698Y-45801597D01*
X104126271Y-45780781D01*
X104086611Y-45774500D01*
X103913389Y-45774500D01*
X103873728Y-45780781D01*
X103742302Y-45801597D01*
X103577552Y-45855128D01*
X103423211Y-45933768D01*
X103374170Y-45969399D01*
X103283072Y-46035586D01*
X103283070Y-46035588D01*
X103283069Y-46035588D01*
X103160588Y-46158069D01*
X103160588Y-46158070D01*
X103160586Y-46158072D01*
X103153725Y-46167516D01*
X103058768Y-46298211D01*
X102980128Y-46452552D01*
X102926597Y-46617302D01*
X102914182Y-46695690D01*
X102899500Y-46788389D01*
X100100499Y-46788389D01*
X100100499Y-46227128D01*
X100094091Y-46167517D01*
X100090568Y-46158072D01*
X100043797Y-46032671D01*
X100043793Y-46032664D01*
X99957547Y-45917455D01*
X99957544Y-45917452D01*
X99842335Y-45831206D01*
X99842328Y-45831202D01*
X99707482Y-45780908D01*
X99707483Y-45780908D01*
X99647883Y-45774501D01*
X99647881Y-45774500D01*
X99647873Y-45774500D01*
X99647865Y-45774500D01*
X99524500Y-45774500D01*
X99457461Y-45754815D01*
X99411706Y-45702011D01*
X99400500Y-45650500D01*
X99400500Y-29349499D01*
X99420185Y-29282460D01*
X99472989Y-29236705D01*
X99524500Y-29225499D01*
X99647871Y-29225499D01*
X99647872Y-29225499D01*
X99707483Y-29219091D01*
X99842331Y-29168796D01*
X99957546Y-29082546D01*
X100043796Y-28967331D01*
X100094091Y-28832483D01*
X100100500Y-28772873D01*
X100100499Y-27227128D01*
X100094091Y-27167517D01*
X100094091Y-27167516D01*
X100093262Y-27159804D01*
X100095503Y-27159563D01*
X100098633Y-27101150D01*
X100139499Y-27044477D01*
X100204516Y-27018894D01*
X100215571Y-27018400D01*
X103018700Y-27018400D01*
X103085739Y-27038085D01*
X103131494Y-27090889D01*
X103141438Y-27160047D01*
X103119018Y-27215284D01*
X103102792Y-27237619D01*
X103058768Y-27298211D01*
X102980128Y-27452552D01*
X102926597Y-27617302D01*
X102910509Y-27718881D01*
X102899500Y-27788389D01*
X102899500Y-28211611D01*
X102926598Y-28382701D01*
X102980127Y-28547445D01*
X103058768Y-28701788D01*
X103160586Y-28841928D01*
X103283072Y-28964414D01*
X103423212Y-29066232D01*
X103577555Y-29144873D01*
X103742299Y-29198402D01*
X103913389Y-29225500D01*
X103913390Y-29225500D01*
X104086610Y-29225500D01*
X104086611Y-29225500D01*
X104257701Y-29198402D01*
X104422445Y-29144873D01*
X104576788Y-29066232D01*
X104716928Y-28964414D01*
X104839414Y-28841928D01*
X104941232Y-28701788D01*
X105019873Y-28547445D01*
X105073402Y-28382701D01*
X105100500Y-28211611D01*
X105100500Y-27788389D01*
X105073402Y-27617299D01*
X105019873Y-27452555D01*
X104941232Y-27298212D01*
X104880981Y-27215284D01*
X104857502Y-27149480D01*
X104873327Y-27081426D01*
X104923433Y-27032731D01*
X104981300Y-27018400D01*
X105518700Y-27018400D01*
X105585739Y-27038085D01*
X105631494Y-27090889D01*
X105641438Y-27160047D01*
X105619018Y-27215284D01*
X105602792Y-27237619D01*
X105558768Y-27298211D01*
X105480128Y-27452552D01*
X105426597Y-27617302D01*
X105410509Y-27718881D01*
X105399500Y-27788389D01*
X105399500Y-28211611D01*
X105426598Y-28382701D01*
X105480127Y-28547445D01*
X105558768Y-28701788D01*
X105660586Y-28841928D01*
X105783072Y-28964414D01*
X105923212Y-29066232D01*
X106077555Y-29144873D01*
X106242299Y-29198402D01*
X106413389Y-29225500D01*
X106413390Y-29225500D01*
X106586610Y-29225500D01*
X106586611Y-29225500D01*
X106757701Y-29198402D01*
X106922445Y-29144873D01*
X107076788Y-29066232D01*
X107154316Y-29009904D01*
X107220120Y-28986425D01*
X107288174Y-29002250D01*
X107336869Y-29052355D01*
X107351200Y-29110223D01*
X107351200Y-39984726D01*
X107378493Y-40086589D01*
X107404856Y-40132250D01*
X107431220Y-40177913D01*
X124036687Y-56783380D01*
X124128012Y-56836107D01*
X124229873Y-56863400D01*
X127859646Y-56863400D01*
X127926685Y-56883085D01*
X127972440Y-56935889D01*
X127982384Y-57005047D01*
X127953359Y-57068603D01*
X127947327Y-57075080D01*
X121556894Y-63465513D01*
X115459226Y-69563181D01*
X115432298Y-69577884D01*
X115406480Y-69594477D01*
X115400279Y-69595368D01*
X115397903Y-69596666D01*
X115371545Y-69599500D01*
X115274679Y-69599500D01*
X115207640Y-69579815D01*
X115161885Y-69527011D01*
X115160118Y-69522954D01*
X115158883Y-69519973D01*
X115109001Y-69422074D01*
X115069524Y-69344595D01*
X114953828Y-69185354D01*
X114814646Y-69046172D01*
X114655405Y-68930476D01*
X114637039Y-68921118D01*
X114480029Y-68841117D01*
X114292826Y-68780290D01*
X114098422Y-68749500D01*
X114098417Y-68749500D01*
X113901583Y-68749500D01*
X113901578Y-68749500D01*
X113707173Y-68780290D01*
X113519970Y-68841117D01*
X113344594Y-68930476D01*
X113253741Y-68996485D01*
X113185354Y-69046172D01*
X113185352Y-69046174D01*
X113185351Y-69046174D01*
X113046174Y-69185351D01*
X113046174Y-69185352D01*
X113046172Y-69185354D01*
X112996485Y-69253741D01*
X112930476Y-69344594D01*
X112841117Y-69519970D01*
X112780290Y-69707173D01*
X112748737Y-69906395D01*
X112746658Y-69906065D01*
X112724848Y-69963134D01*
X112668580Y-70004554D01*
X112598850Y-70008977D01*
X112538501Y-69975708D01*
X102963019Y-60400226D01*
X102929534Y-60338903D01*
X102926700Y-60312545D01*
X102926700Y-59410407D01*
X102946385Y-59343368D01*
X102963014Y-59322730D01*
X103031476Y-59254269D01*
X103102665Y-59147727D01*
X103151701Y-59029344D01*
X103176700Y-58903669D01*
X103176700Y-58775531D01*
X103176700Y-58775528D01*
X103151702Y-58649861D01*
X103151701Y-58649860D01*
X103151701Y-58649856D01*
X103102665Y-58531473D01*
X103102664Y-58531472D01*
X103102661Y-58531466D01*
X103031476Y-58424931D01*
X103031473Y-58424927D01*
X102940872Y-58334326D01*
X102940868Y-58334323D01*
X102834333Y-58263138D01*
X102834324Y-58263133D01*
X102715944Y-58214099D01*
X102715938Y-58214097D01*
X102590271Y-58189100D01*
X102590269Y-58189100D01*
X102462131Y-58189100D01*
X102462129Y-58189100D01*
X102336461Y-58214097D01*
X102336455Y-58214099D01*
X102218075Y-58263133D01*
X102218066Y-58263138D01*
X102111531Y-58334323D01*
X102111527Y-58334326D01*
X102020926Y-58424927D01*
X102020923Y-58424931D01*
X101949738Y-58531466D01*
X101949733Y-58531475D01*
X101900699Y-58649855D01*
X101900697Y-58649861D01*
X101875700Y-58775528D01*
X101875700Y-58775531D01*
X101875700Y-58903669D01*
X101875700Y-58903671D01*
X101875699Y-58903671D01*
X101900697Y-59029338D01*
X101900699Y-59029344D01*
X101949733Y-59147724D01*
X101949738Y-59147733D01*
X102020922Y-59254267D01*
X102020923Y-59254268D01*
X102020924Y-59254269D01*
X102089382Y-59322727D01*
X102122866Y-59384048D01*
X102125700Y-59410407D01*
X102125700Y-60582526D01*
X102152993Y-60684389D01*
X102179356Y-60730050D01*
X102205720Y-60775713D01*
X102205722Y-60775715D01*
X125260117Y-83830110D01*
X125293602Y-83891433D01*
X125294053Y-83893598D01*
X125309497Y-83971240D01*
X125309498Y-83971242D01*
X125358533Y-84089624D01*
X125358538Y-84089633D01*
X125429723Y-84196168D01*
X125429726Y-84196172D01*
X125520327Y-84286773D01*
X125520331Y-84286776D01*
X125626866Y-84357961D01*
X125626872Y-84357964D01*
X125626873Y-84357965D01*
X125745256Y-84407001D01*
X125745260Y-84407001D01*
X125745261Y-84407002D01*
X125870928Y-84432000D01*
X125870931Y-84432000D01*
X125999071Y-84432000D01*
X126083615Y-84415182D01*
X126124744Y-84407001D01*
X126243127Y-84357965D01*
X126349669Y-84286776D01*
X126440276Y-84196169D01*
X126511465Y-84089627D01*
X126560501Y-83971244D01*
X126576377Y-83891433D01*
X126585500Y-83845571D01*
X126585500Y-83717428D01*
X126560502Y-83591761D01*
X126560501Y-83591760D01*
X126560501Y-83591756D01*
X126511465Y-83473373D01*
X126511464Y-83473372D01*
X126511461Y-83473366D01*
X126440276Y-83366831D01*
X126440273Y-83366827D01*
X126349672Y-83276226D01*
X126349668Y-83276223D01*
X126243133Y-83205038D01*
X126243124Y-83205033D01*
X126124744Y-83155999D01*
X126124738Y-83155997D01*
X125999071Y-83131000D01*
X125999069Y-83131000D01*
X125870931Y-83131000D01*
X125870926Y-83131000D01*
X125788187Y-83147458D01*
X125718595Y-83141231D01*
X125676315Y-83113522D01*
X114024291Y-71461498D01*
X113990806Y-71400175D01*
X113995790Y-71330483D01*
X114037662Y-71274550D01*
X114093933Y-71253336D01*
X114093605Y-71251263D01*
X114292826Y-71219709D01*
X114480025Y-71158884D01*
X114655405Y-71069524D01*
X114814646Y-70953828D01*
X114953828Y-70814646D01*
X115069524Y-70655405D01*
X115158884Y-70480025D01*
X115158886Y-70480018D01*
X115160118Y-70477046D01*
X115160890Y-70476087D01*
X115161096Y-70475684D01*
X115161180Y-70475727D01*
X115203960Y-70422643D01*
X115270255Y-70400579D01*
X115274679Y-70400500D01*
X115641525Y-70400500D01*
X115641527Y-70400500D01*
X115743388Y-70373207D01*
X115834713Y-70320480D01*
X130186603Y-55968587D01*
X130186608Y-55968584D01*
X130196811Y-55958380D01*
X130196813Y-55958380D01*
X130271380Y-55883813D01*
X130324107Y-55792487D01*
X130335095Y-55751480D01*
X130351401Y-55690627D01*
X130351401Y-55585173D01*
X130351401Y-55577578D01*
X130351400Y-55577560D01*
X130351400Y-50178529D01*
X130351401Y-50178516D01*
X130351401Y-50063076D01*
X130351401Y-50063074D01*
X130324107Y-49961213D01*
X130312148Y-49940500D01*
X130271380Y-49869887D01*
X130196813Y-49795320D01*
X130196810Y-49795318D01*
X128332713Y-47931220D01*
X128287050Y-47904856D01*
X128241389Y-47878493D01*
X128190457Y-47864846D01*
X128139527Y-47851200D01*
X128139526Y-47851200D01*
X127172955Y-47851200D01*
X127105916Y-47831515D01*
X127085274Y-47814881D01*
X126688519Y-47418126D01*
X126655034Y-47356803D01*
X126652200Y-47330445D01*
X126652200Y-46947275D01*
X126652200Y-46947273D01*
X126624907Y-46845413D01*
X126572180Y-46754087D01*
X126497613Y-46679520D01*
X126406287Y-46626793D01*
X126304427Y-46599500D01*
X126304426Y-46599500D01*
X126224500Y-46599500D01*
X126157461Y-46579815D01*
X126111706Y-46527011D01*
X126100500Y-46475500D01*
X126100500Y-46125323D01*
X126100499Y-46125321D01*
X126085967Y-46052264D01*
X126085966Y-46052260D01*
X126072876Y-46032669D01*
X126030601Y-45969399D01*
X125952860Y-45917455D01*
X125947739Y-45914033D01*
X125947735Y-45914032D01*
X125874677Y-45899500D01*
X125874674Y-45899500D01*
X125524500Y-45899500D01*
X125457461Y-45879815D01*
X125411706Y-45827011D01*
X125400500Y-45775500D01*
X125400500Y-29947275D01*
X125400499Y-29947271D01*
X125394822Y-29926082D01*
X125391733Y-29914555D01*
X125373207Y-29845412D01*
X125320480Y-29754087D01*
X124136818Y-28570425D01*
X124103333Y-28509102D01*
X124100499Y-28482744D01*
X124100499Y-27788389D01*
X126899500Y-27788389D01*
X126899500Y-28211611D01*
X126926598Y-28382701D01*
X126980127Y-28547445D01*
X127058768Y-28701788D01*
X127160586Y-28841928D01*
X127283072Y-28964414D01*
X127423212Y-29066232D01*
X127577555Y-29144873D01*
X127742299Y-29198402D01*
X127913389Y-29225500D01*
X127913390Y-29225500D01*
X128086610Y-29225500D01*
X128086611Y-29225500D01*
X128257701Y-29198402D01*
X128422445Y-29144873D01*
X128576788Y-29066232D01*
X128716928Y-28964414D01*
X128839414Y-28841928D01*
X128941232Y-28701788D01*
X129019873Y-28547445D01*
X129073402Y-28382701D01*
X129100500Y-28211611D01*
X129100500Y-27788389D01*
X129399500Y-27788389D01*
X129399500Y-28211611D01*
X129426598Y-28382701D01*
X129480127Y-28547445D01*
X129558768Y-28701788D01*
X129660586Y-28841928D01*
X129783072Y-28964414D01*
X129923212Y-29066232D01*
X130077555Y-29144873D01*
X130242299Y-29198402D01*
X130413389Y-29225500D01*
X130413390Y-29225500D01*
X130586610Y-29225500D01*
X130586611Y-29225500D01*
X130757701Y-29198402D01*
X130922445Y-29144873D01*
X131076788Y-29066232D01*
X131216928Y-28964414D01*
X131339414Y-28841928D01*
X131441232Y-28701788D01*
X131519873Y-28547445D01*
X131573402Y-28382701D01*
X131600500Y-28211611D01*
X131600500Y-27788389D01*
X131573402Y-27617299D01*
X131519873Y-27452555D01*
X131441232Y-27298212D01*
X131339414Y-27158072D01*
X131216928Y-27035586D01*
X131076788Y-26933768D01*
X130922445Y-26855127D01*
X130757701Y-26801598D01*
X130757699Y-26801597D01*
X130757698Y-26801597D01*
X130626271Y-26780781D01*
X130586611Y-26774500D01*
X130413389Y-26774500D01*
X130373728Y-26780781D01*
X130242302Y-26801597D01*
X130077552Y-26855128D01*
X129923211Y-26933768D01*
X129866892Y-26974687D01*
X129783072Y-27035586D01*
X129783070Y-27035588D01*
X129783069Y-27035588D01*
X129660588Y-27158069D01*
X129660588Y-27158070D01*
X129660586Y-27158072D01*
X129637496Y-27189853D01*
X129558768Y-27298211D01*
X129480128Y-27452552D01*
X129426597Y-27617302D01*
X129410509Y-27718881D01*
X129399500Y-27788389D01*
X129100500Y-27788389D01*
X129073402Y-27617299D01*
X129019873Y-27452555D01*
X128941232Y-27298212D01*
X128839414Y-27158072D01*
X128716928Y-27035586D01*
X128576788Y-26933768D01*
X128422445Y-26855127D01*
X128257701Y-26801598D01*
X128257699Y-26801597D01*
X128257698Y-26801597D01*
X128126271Y-26780781D01*
X128086611Y-26774500D01*
X127913389Y-26774500D01*
X127873728Y-26780781D01*
X127742302Y-26801597D01*
X127577552Y-26855128D01*
X127423211Y-26933768D01*
X127366892Y-26974687D01*
X127283072Y-27035586D01*
X127283070Y-27035588D01*
X127283069Y-27035588D01*
X127160588Y-27158069D01*
X127160588Y-27158070D01*
X127160586Y-27158072D01*
X127137496Y-27189853D01*
X127058768Y-27298211D01*
X126980128Y-27452552D01*
X126926597Y-27617302D01*
X126910509Y-27718881D01*
X126899500Y-27788389D01*
X124100499Y-27788389D01*
X124100499Y-27227129D01*
X124100498Y-27227123D01*
X124100497Y-27227116D01*
X124095299Y-27178757D01*
X124094091Y-27167516D01*
X124043797Y-27032671D01*
X124043793Y-27032664D01*
X123957547Y-26917455D01*
X123957544Y-26917452D01*
X123842335Y-26831206D01*
X123842328Y-26831202D01*
X123707482Y-26780908D01*
X123707483Y-26780908D01*
X123647883Y-26774501D01*
X123647881Y-26774500D01*
X123647873Y-26774500D01*
X123647864Y-26774500D01*
X122352129Y-26774500D01*
X122352123Y-26774501D01*
X122292516Y-26780908D01*
X122157671Y-26831202D01*
X122157664Y-26831206D01*
X122042455Y-26917452D01*
X122042452Y-26917455D01*
X121956206Y-27032664D01*
X121956202Y-27032671D01*
X121905908Y-27167517D01*
X121901353Y-27209889D01*
X121899501Y-27227123D01*
X121899500Y-27227135D01*
X121899500Y-28772870D01*
X121899501Y-28772876D01*
X121905908Y-28832483D01*
X121956202Y-28967328D01*
X121956206Y-28967335D01*
X122042452Y-29082544D01*
X122042455Y-29082547D01*
X122157664Y-29168793D01*
X122157671Y-29168797D01*
X122292517Y-29219091D01*
X122292516Y-29219091D01*
X122299444Y-29219835D01*
X122352127Y-29225500D01*
X123607744Y-29225499D01*
X123674783Y-29245184D01*
X123695425Y-29261818D01*
X124563181Y-30129574D01*
X124596666Y-30190897D01*
X124599500Y-30217255D01*
X124599500Y-45775500D01*
X124579815Y-45842539D01*
X124527011Y-45888294D01*
X124475500Y-45899500D01*
X124125323Y-45899500D01*
X124052264Y-45914032D01*
X124052260Y-45914033D01*
X123969399Y-45969399D01*
X123914033Y-46052260D01*
X123914032Y-46052264D01*
X123899500Y-46125321D01*
X123899500Y-47874678D01*
X123914032Y-47947735D01*
X123914033Y-47947739D01*
X123914034Y-47947740D01*
X123969399Y-48030601D01*
X124047139Y-48082544D01*
X124052260Y-48085966D01*
X124052264Y-48085967D01*
X124125321Y-48100499D01*
X124125324Y-48100500D01*
X124125326Y-48100500D01*
X125874676Y-48100500D01*
X125874677Y-48100499D01*
X125947740Y-48085966D01*
X126028478Y-48032019D01*
X126095154Y-48011142D01*
X126162534Y-48029627D01*
X126185048Y-48047441D01*
X126635219Y-48497612D01*
X126635220Y-48497613D01*
X126709787Y-48572180D01*
X126723064Y-48579845D01*
X126771278Y-48630410D01*
X126784502Y-48699017D01*
X126758534Y-48763882D01*
X126748746Y-48774911D01*
X126700586Y-48823072D01*
X126598768Y-48963211D01*
X126520128Y-49117552D01*
X126466597Y-49282302D01*
X126439500Y-49453389D01*
X126439500Y-49626610D01*
X126466220Y-49795318D01*
X126466598Y-49797701D01*
X126515590Y-49948483D01*
X126520128Y-49962447D01*
X126598768Y-50116788D01*
X126670570Y-50215614D01*
X126674802Y-50227475D01*
X126683046Y-50236989D01*
X126686319Y-50259753D01*
X126694050Y-50281420D01*
X126691198Y-50293684D01*
X126692990Y-50306147D01*
X126683434Y-50327070D01*
X126678225Y-50349474D01*
X126669195Y-50358248D01*
X126663965Y-50369703D01*
X126644612Y-50382140D01*
X126628119Y-50398169D01*
X126614373Y-50401573D01*
X126605187Y-50407477D01*
X126570252Y-50412500D01*
X126490255Y-50412500D01*
X126423216Y-50392815D01*
X126402574Y-50376181D01*
X126065993Y-50039600D01*
X126032508Y-49978277D01*
X126035742Y-49913603D01*
X126073402Y-49797701D01*
X126100500Y-49626611D01*
X126100500Y-49453389D01*
X126073402Y-49282299D01*
X126019873Y-49117555D01*
X125941232Y-48963212D01*
X125839414Y-48823072D01*
X125716928Y-48700586D01*
X125576788Y-48598768D01*
X125422445Y-48520127D01*
X125257701Y-48466598D01*
X125257699Y-48466597D01*
X125257698Y-48466597D01*
X125126271Y-48445781D01*
X125086611Y-48439500D01*
X124913389Y-48439500D01*
X124873728Y-48445781D01*
X124742302Y-48466597D01*
X124742299Y-48466598D01*
X124646849Y-48497612D01*
X124577552Y-48520128D01*
X124423211Y-48598768D01*
X124353255Y-48649595D01*
X124283072Y-48700586D01*
X124283070Y-48700588D01*
X124283069Y-48700588D01*
X124160588Y-48823069D01*
X124160588Y-48823070D01*
X124160586Y-48823072D01*
X124116859Y-48883256D01*
X124058768Y-48963211D01*
X123980128Y-49117552D01*
X123926597Y-49282302D01*
X123899500Y-49453389D01*
X123899500Y-49626610D01*
X123926220Y-49795318D01*
X123926598Y-49797701D01*
X123975590Y-49948483D01*
X123980128Y-49962447D01*
X124058768Y-50116788D01*
X124160586Y-50256928D01*
X124283072Y-50379414D01*
X124423212Y-50481232D01*
X124577555Y-50559873D01*
X124742299Y-50613402D01*
X124913389Y-50640500D01*
X124913390Y-50640500D01*
X125086610Y-50640500D01*
X125086611Y-50640500D01*
X125257701Y-50613402D01*
X125373602Y-50575742D01*
X125443442Y-50573748D01*
X125499600Y-50605993D01*
X126027087Y-51133480D01*
X126118412Y-51186207D01*
X126220273Y-51213500D01*
X126325727Y-51213500D01*
X126565893Y-51213500D01*
X126632932Y-51233185D01*
X126678687Y-51285989D01*
X126688631Y-51355147D01*
X126666211Y-51410383D01*
X126632075Y-51457368D01*
X126598768Y-51503211D01*
X126520128Y-51657552D01*
X126466597Y-51822302D01*
X126439500Y-51993389D01*
X126439500Y-52166610D01*
X126458639Y-52287454D01*
X126466598Y-52337701D01*
X126514235Y-52484312D01*
X126520128Y-52502447D01*
X126598768Y-52656788D01*
X126700586Y-52796928D01*
X126823072Y-52919414D01*
X126963212Y-53021232D01*
X127117555Y-53099873D01*
X127282299Y-53153402D01*
X127453389Y-53180500D01*
X127453390Y-53180500D01*
X127626610Y-53180500D01*
X127626611Y-53180500D01*
X127797701Y-53153402D01*
X127962445Y-53099873D01*
X128116788Y-53021232D01*
X128198615Y-52961780D01*
X128264420Y-52938301D01*
X128332474Y-52954126D01*
X128381169Y-53004231D01*
X128395500Y-53062099D01*
X128395500Y-53637900D01*
X128375815Y-53704939D01*
X128323011Y-53750694D01*
X128253853Y-53760638D01*
X128198615Y-53738218D01*
X128116791Y-53678770D01*
X128116790Y-53678769D01*
X128116788Y-53678768D01*
X127962445Y-53600127D01*
X127797701Y-53546598D01*
X127797699Y-53546597D01*
X127797698Y-53546597D01*
X127666271Y-53525781D01*
X127626611Y-53519500D01*
X127453389Y-53519500D01*
X127421192Y-53524599D01*
X127282301Y-53546597D01*
X127282297Y-53546598D01*
X127166397Y-53584256D01*
X127096556Y-53586251D01*
X127040399Y-53554006D01*
X126515915Y-53029522D01*
X126515913Y-53029520D01*
X126470250Y-53003156D01*
X126424589Y-52976793D01*
X126368561Y-52961781D01*
X126322727Y-52949500D01*
X126322726Y-52949500D01*
X125971928Y-52949500D01*
X125904889Y-52929815D01*
X125859134Y-52877011D01*
X125849190Y-52807853D01*
X125871610Y-52752614D01*
X125941232Y-52656788D01*
X126019873Y-52502445D01*
X126073402Y-52337701D01*
X126100500Y-52166611D01*
X126100500Y-51993389D01*
X126073402Y-51822299D01*
X126019873Y-51657555D01*
X125941232Y-51503212D01*
X125839414Y-51363072D01*
X125716928Y-51240586D01*
X125576788Y-51138768D01*
X125422445Y-51060127D01*
X125257701Y-51006598D01*
X125257699Y-51006597D01*
X125257698Y-51006597D01*
X125126271Y-50985781D01*
X125086611Y-50979500D01*
X124913389Y-50979500D01*
X124873728Y-50985781D01*
X124742302Y-51006597D01*
X124577552Y-51060128D01*
X124423211Y-51138768D01*
X124357919Y-51186206D01*
X124283072Y-51240586D01*
X124283070Y-51240588D01*
X124283069Y-51240588D01*
X124160588Y-51363069D01*
X124160588Y-51363070D01*
X124160586Y-51363072D01*
X124126210Y-51410386D01*
X124058768Y-51503211D01*
X123980128Y-51657552D01*
X123926597Y-51822302D01*
X123902510Y-51974380D01*
X123872581Y-52037515D01*
X123813269Y-52074446D01*
X123743406Y-52073448D01*
X123692356Y-52042663D01*
X110395319Y-38745626D01*
X110361834Y-38684303D01*
X110359000Y-38657945D01*
X110359000Y-27167876D01*
X110359000Y-27167873D01*
X110336610Y-27084310D01*
X110336610Y-27084309D01*
X110336610Y-27084308D01*
X110331707Y-27066013D01*
X110331707Y-27066012D01*
X110294854Y-27002181D01*
X110294853Y-27002179D01*
X110288460Y-26991107D01*
X110278980Y-26974687D01*
X110204413Y-26900120D01*
X110204410Y-26900118D01*
X108751761Y-25447469D01*
X107266627Y-23962334D01*
X107183004Y-23878711D01*
X144149500Y-23878711D01*
X144149500Y-24121288D01*
X144181161Y-24361785D01*
X144243947Y-24596104D01*
X144336773Y-24820205D01*
X144336776Y-24820212D01*
X144458064Y-25030289D01*
X144458066Y-25030292D01*
X144458067Y-25030293D01*
X144605733Y-25222736D01*
X144605739Y-25222743D01*
X144777256Y-25394260D01*
X144777263Y-25394266D01*
X144848489Y-25448919D01*
X144969711Y-25541936D01*
X145179788Y-25663224D01*
X145403900Y-25756054D01*
X145638211Y-25818838D01*
X145818586Y-25842584D01*
X145878711Y-25850500D01*
X145878712Y-25850500D01*
X146121289Y-25850500D01*
X146169388Y-25844167D01*
X146361789Y-25818838D01*
X146596100Y-25756054D01*
X146820212Y-25663224D01*
X147030289Y-25541936D01*
X147222738Y-25394265D01*
X147394265Y-25222738D01*
X147541936Y-25030289D01*
X147663224Y-24820212D01*
X147756054Y-24596100D01*
X147818838Y-24361789D01*
X147850500Y-24121288D01*
X147850500Y-23878712D01*
X147818838Y-23638211D01*
X147756054Y-23403900D01*
X147663224Y-23179788D01*
X147541936Y-22969711D01*
X147394265Y-22777262D01*
X147394260Y-22777256D01*
X147222743Y-22605739D01*
X147222736Y-22605733D01*
X147030293Y-22458067D01*
X147030292Y-22458066D01*
X147030289Y-22458064D01*
X146820212Y-22336776D01*
X146820205Y-22336773D01*
X146596104Y-22243947D01*
X146361785Y-22181161D01*
X146121289Y-22149500D01*
X146121288Y-22149500D01*
X145878712Y-22149500D01*
X145878711Y-22149500D01*
X145638214Y-22181161D01*
X145403895Y-22243947D01*
X145179794Y-22336773D01*
X145179785Y-22336777D01*
X144969706Y-22458067D01*
X144777263Y-22605733D01*
X144777256Y-22605739D01*
X144605739Y-22777256D01*
X144605733Y-22777263D01*
X144458067Y-22969706D01*
X144336777Y-23179785D01*
X144336773Y-23179794D01*
X144243947Y-23403895D01*
X144181161Y-23638214D01*
X144149500Y-23878711D01*
X107183004Y-23878711D01*
X107013815Y-23709522D01*
X107013814Y-23709521D01*
X107013813Y-23709520D01*
X106968150Y-23683156D01*
X106922489Y-23656793D01*
X106871557Y-23643146D01*
X106820627Y-23629500D01*
X64226327Y-23629500D01*
X64120873Y-23629500D01*
X64019010Y-23656793D01*
X63927687Y-23709520D01*
X63927684Y-23709522D01*
X57727222Y-29909984D01*
X57727218Y-29909990D01*
X57674492Y-30001312D01*
X57674493Y-30001313D01*
X57647200Y-30103173D01*
X57647200Y-34975044D01*
X57627515Y-35042083D01*
X57610881Y-35062725D01*
X51250372Y-41423234D01*
X51189049Y-41456719D01*
X51119357Y-41451735D01*
X51063424Y-41409863D01*
X51039007Y-41344399D01*
X51052206Y-41279258D01*
X51112545Y-41160836D01*
X51112545Y-41160835D01*
X51112547Y-41160832D01*
X51170940Y-40981118D01*
X51176203Y-40947887D01*
X51200500Y-40794486D01*
X51200500Y-40605513D01*
X51170940Y-40418881D01*
X51112545Y-40239163D01*
X51034804Y-40086589D01*
X51026760Y-40070801D01*
X50915690Y-39917927D01*
X50782073Y-39784310D01*
X50629199Y-39673240D01*
X50460836Y-39587454D01*
X50386472Y-39563291D01*
X50339195Y-39547930D01*
X50281521Y-39508493D01*
X50254323Y-39444134D01*
X50266238Y-39375288D01*
X50313482Y-39323812D01*
X50339194Y-39312069D01*
X50460832Y-39272547D01*
X50629199Y-39186760D01*
X50782073Y-39075690D01*
X50915690Y-38942073D01*
X51026760Y-38789199D01*
X51112547Y-38620832D01*
X51170940Y-38441118D01*
X51176390Y-38406707D01*
X51200500Y-38254486D01*
X51200500Y-38065513D01*
X51170940Y-37878881D01*
X51112545Y-37699163D01*
X51026759Y-37530800D01*
X50915690Y-37377927D01*
X50782073Y-37244310D01*
X50629199Y-37133240D01*
X50460836Y-37047454D01*
X50339615Y-37008067D01*
X50339195Y-37007930D01*
X50281521Y-36968493D01*
X50254323Y-36904134D01*
X50266238Y-36835288D01*
X50313482Y-36783812D01*
X50339194Y-36772069D01*
X50460832Y-36732547D01*
X50629199Y-36646760D01*
X50782073Y-36535690D01*
X50915690Y-36402073D01*
X51026760Y-36249199D01*
X51112547Y-36080832D01*
X51170940Y-35901118D01*
X51200500Y-35714486D01*
X51200500Y-35525513D01*
X51170940Y-35338881D01*
X51112545Y-35159163D01*
X51052889Y-35042083D01*
X51026760Y-34990801D01*
X50915690Y-34837927D01*
X50782073Y-34704310D01*
X50629199Y-34593240D01*
X50604570Y-34580691D01*
X50460836Y-34507454D01*
X50386472Y-34483291D01*
X50339195Y-34467930D01*
X50281521Y-34428493D01*
X50254323Y-34364134D01*
X50266238Y-34295288D01*
X50313482Y-34243812D01*
X50339194Y-34232069D01*
X50460832Y-34192547D01*
X50629199Y-34106760D01*
X50782073Y-33995690D01*
X50915690Y-33862073D01*
X51026760Y-33709199D01*
X51112547Y-33540832D01*
X51170940Y-33361118D01*
X51187442Y-33256928D01*
X51200500Y-33174486D01*
X51200500Y-32985513D01*
X51170940Y-32798881D01*
X51112545Y-32619163D01*
X51054280Y-32504812D01*
X51026760Y-32450801D01*
X50915690Y-32297927D01*
X50782073Y-32164310D01*
X50629199Y-32053240D01*
X50460836Y-31967454D01*
X50386472Y-31943291D01*
X50339195Y-31927930D01*
X50281521Y-31888493D01*
X50254323Y-31824134D01*
X50266238Y-31755288D01*
X50313482Y-31703812D01*
X50339194Y-31692069D01*
X50460832Y-31652547D01*
X50629199Y-31566760D01*
X50782073Y-31455690D01*
X50915690Y-31322073D01*
X51026760Y-31169199D01*
X51112547Y-31000832D01*
X51170940Y-30821118D01*
X51200500Y-30634486D01*
X51200500Y-30445513D01*
X51170940Y-30258881D01*
X51128925Y-30129574D01*
X51112547Y-30079168D01*
X51112545Y-30079165D01*
X51112545Y-30079163D01*
X51067290Y-29990347D01*
X51026760Y-29910801D01*
X50915690Y-29757927D01*
X50782073Y-29624310D01*
X50629199Y-29513240D01*
X50614348Y-29505673D01*
X50460836Y-29427454D01*
X50281118Y-29369059D01*
X50094486Y-29339500D01*
X50094481Y-29339500D01*
X49905519Y-29339500D01*
X49905514Y-29339500D01*
X49718881Y-29369059D01*
X49539163Y-29427454D01*
X49370800Y-29513240D01*
X49331227Y-29541992D01*
X49217927Y-29624310D01*
X49217925Y-29624312D01*
X49217924Y-29624312D01*
X49084312Y-29757924D01*
X49084312Y-29757925D01*
X49084310Y-29757927D01*
X49036610Y-29823579D01*
X48973240Y-29910800D01*
X48887454Y-30079163D01*
X48829059Y-30258881D01*
X48799500Y-30445513D01*
X20600000Y-30445513D01*
X20600000Y-23878711D01*
X22149500Y-23878711D01*
X22149500Y-24121288D01*
X22181161Y-24361785D01*
X22243947Y-24596104D01*
X22336773Y-24820205D01*
X22336776Y-24820212D01*
X22458064Y-25030289D01*
X22458066Y-25030292D01*
X22458067Y-25030293D01*
X22605733Y-25222736D01*
X22605739Y-25222743D01*
X22777256Y-25394260D01*
X22777263Y-25394266D01*
X22848489Y-25448919D01*
X22969711Y-25541936D01*
X23179788Y-25663224D01*
X23403900Y-25756054D01*
X23638211Y-25818838D01*
X23818586Y-25842584D01*
X23878711Y-25850500D01*
X23878712Y-25850500D01*
X24121289Y-25850500D01*
X24169388Y-25844167D01*
X24361789Y-25818838D01*
X24596100Y-25756054D01*
X24820212Y-25663224D01*
X25030289Y-25541936D01*
X25222738Y-25394265D01*
X25394265Y-25222738D01*
X25541936Y-25030289D01*
X25663224Y-24820212D01*
X25756054Y-24596100D01*
X25818838Y-24361789D01*
X25850500Y-24121288D01*
X25850500Y-23878712D01*
X25818838Y-23638211D01*
X25756054Y-23403900D01*
X25663224Y-23179788D01*
X25541936Y-22969711D01*
X25394265Y-22777262D01*
X25394260Y-22777256D01*
X25222743Y-22605739D01*
X25222736Y-22605733D01*
X25030293Y-22458067D01*
X25030292Y-22458066D01*
X25030289Y-22458064D01*
X24820212Y-22336776D01*
X24820205Y-22336773D01*
X24596104Y-22243947D01*
X24361785Y-22181161D01*
X24121289Y-22149500D01*
X24121288Y-22149500D01*
X23878712Y-22149500D01*
X23878711Y-22149500D01*
X23638214Y-22181161D01*
X23403895Y-22243947D01*
X23179794Y-22336773D01*
X23179785Y-22336777D01*
X22969706Y-22458067D01*
X22777263Y-22605733D01*
X22777256Y-22605739D01*
X22605739Y-22777256D01*
X22605733Y-22777263D01*
X22458067Y-22969706D01*
X22336777Y-23179785D01*
X22336773Y-23179794D01*
X22243947Y-23403895D01*
X22181161Y-23638214D01*
X22149500Y-23878711D01*
X20600000Y-23878711D01*
X20600000Y-20724000D01*
X20619685Y-20656961D01*
X20672489Y-20611206D01*
X20724000Y-20600000D01*
X149276000Y-20600000D01*
X149343039Y-20619685D01*
G37*
%TD.AperFunction*%
%TD*%
M02*
