#VRML V2.0 utf8
# Simplified VISUAL module model, NOT a mechanical or component-layout reference.
Shape { appearance Appearance { material Material { diffuseColor 0.035 0.04 0.045 specularColor 0.25 0.25 0.25 shininess 0.3 } } geometry IndexedFaceSet { solid TRUE coord Coordinate { point [ -0.500000 -5.500000 0.759843, 1.500000 -5.500000 0.759843, 1.500000 0.500000 0.759843, -0.500000 0.500000 0.759843, -0.500000 -5.500000 1.759843, 1.500000 -5.500000 1.759843, 1.500000 0.500000 1.759843, -0.500000 0.500000 1.759843 ] } coordIndex [ 0, 3, 2, 1, -1, 4, 5, 6, 7, -1, 0, 1, 5, 4, -1, 1, 2, 6, 5, -1, 2, 3, 7, 6, -1, 3, 0, 4, 7, -1 ] } }
Shape { appearance Appearance { material Material { diffuseColor 0.76 0.58 0.19 specularColor 0.25 0.25 0.25 shininess 0.3 } } geometry IndexedFaceSet { solid TRUE coord Coordinate { point [ -0.125984 -0.125984 -0.511811, 0.125984 -0.125984 -0.511811, 0.125984 0.125984 -0.511811, -0.125984 0.125984 -0.511811, -0.125984 -0.125984 3.031496, 0.125984 -0.125984 3.031496, 0.125984 0.125984 3.031496, -0.125984 0.125984 3.031496 ] } coordIndex [ 0, 3, 2, 1, -1, 4, 5, 6, 7, -1, 0, 1, 5, 4, -1, 1, 2, 6, 5, -1, 2, 3, 7, 6, -1, 3, 0, 4, 7, -1 ] } }
Shape { appearance Appearance { material Material { diffuseColor 0.76 0.58 0.19 specularColor 0.25 0.25 0.25 shininess 0.3 } } geometry IndexedFaceSet { solid TRUE coord Coordinate { point [ 0.874016 -0.125984 -0.511811, 1.125984 -0.125984 -0.511811, 1.125984 0.125984 -0.511811, 0.874016 0.125984 -0.511811, 0.874016 -0.125984 3.031496, 1.125984 -0.125984 3.031496, 1.125984 0.125984 3.031496, 0.874016 0.125984 3.031496 ] } coordIndex [ 0, 3, 2, 1, -1, 4, 5, 6, 7, -1, 0, 1, 5, 4, -1, 1, 2, 6, 5, -1, 2, 3, 7, 6, -1, 3, 0, 4, 7, -1 ] } }
Shape { appearance Appearance { material Material { diffuseColor 0.76 0.58 0.19 specularColor 0.25 0.25 0.25 shininess 0.3 } } geometry IndexedFaceSet { solid TRUE coord Coordinate { point [ -0.125984 -1.125984 -0.511811, 0.125984 -1.125984 -0.511811, 0.125984 -0.874016 -0.511811, -0.125984 -0.874016 -0.511811, -0.125984 -1.125984 3.031496, 0.125984 -1.125984 3.031496, 0.125984 -0.874016 3.031496, -0.125984 -0.874016 3.031496 ] } coordIndex [ 0, 3, 2, 1, -1, 4, 5, 6, 7, -1, 0, 1, 5, 4, -1, 1, 2, 6, 5, -1, 2, 3, 7, 6, -1, 3, 0, 4, 7, -1 ] } }
Shape { appearance Appearance { material Material { diffuseColor 0.76 0.58 0.19 specularColor 0.25 0.25 0.25 shininess 0.3 } } geometry IndexedFaceSet { solid TRUE coord Coordinate { point [ 0.874016 -1.125984 -0.511811, 1.125984 -1.125984 -0.511811, 1.125984 -0.874016 -0.511811, 0.874016 -0.874016 -0.511811, 0.874016 -1.125984 3.031496, 1.125984 -1.125984 3.031496, 1.125984 -0.874016 3.031496, 0.874016 -0.874016 3.031496 ] } coordIndex [ 0, 3, 2, 1, -1, 4, 5, 6, 7, -1, 0, 1, 5, 4, -1, 1, 2, 6, 5, -1, 2, 3, 7, 6, -1, 3, 0, 4, 7, -1 ] } }
Shape { appearance Appearance { material Material { diffuseColor 0.76 0.58 0.19 specularColor 0.25 0.25 0.25 shininess 0.3 } } geometry IndexedFaceSet { solid TRUE coord Coordinate { point [ -0.125984 -2.125984 -0.511811, 0.125984 -2.125984 -0.511811, 0.125984 -1.874016 -0.511811, -0.125984 -1.874016 -0.511811, -0.125984 -2.125984 3.031496, 0.125984 -2.125984 3.031496, 0.125984 -1.874016 3.031496, -0.125984 -1.874016 3.031496 ] } coordIndex [ 0, 3, 2, 1, -1, 4, 5, 6, 7, -1, 0, 1, 5, 4, -1, 1, 2, 6, 5, -1, 2, 3, 7, 6, -1, 3, 0, 4, 7, -1 ] } }
Shape { appearance Appearance { material Material { diffuseColor 0.76 0.58 0.19 specularColor 0.25 0.25 0.25 shininess 0.3 } } geometry IndexedFaceSet { solid TRUE coord Coordinate { point [ 0.874016 -2.125984 -0.511811, 1.125984 -2.125984 -0.511811, 1.125984 -1.874016 -0.511811, 0.874016 -1.874016 -0.511811, 0.874016 -2.125984 3.031496, 1.125984 -2.125984 3.031496, 1.125984 -1.874016 3.031496, 0.874016 -1.874016 3.031496 ] } coordIndex [ 0, 3, 2, 1, -1, 4, 5, 6, 7, -1, 0, 1, 5, 4, -1, 1, 2, 6, 5, -1, 2, 3, 7, 6, -1, 3, 0, 4, 7, -1 ] } }
Shape { appearance Appearance { material Material { diffuseColor 0.76 0.58 0.19 specularColor 0.25 0.25 0.25 shininess 0.3 } } geometry IndexedFaceSet { solid TRUE coord Coordinate { point [ -0.125984 -3.125984 -0.511811, 0.125984 -3.125984 -0.511811, 0.125984 -2.874016 -0.511811, -0.125984 -2.874016 -0.511811, -0.125984 -3.125984 3.031496, 0.125984 -3.125984 3.031496, 0.125984 -2.874016 3.031496, -0.125984 -2.874016 3.031496 ] } coordIndex [ 0, 3, 2, 1, -1, 4, 5, 6, 7, -1, 0, 1, 5, 4, -1, 1, 2, 6, 5, -1, 2, 3, 7, 6, -1, 3, 0, 4, 7, -1 ] } }
Shape { appearance Appearance { material Material { diffuseColor 0.76 0.58 0.19 specularColor 0.25 0.25 0.25 shininess 0.3 } } geometry IndexedFaceSet { solid TRUE coord Coordinate { point [ 0.874016 -3.125984 -0.511811, 1.125984 -3.125984 -0.511811, 1.125984 -2.874016 -0.511811, 0.874016 -2.874016 -0.511811, 0.874016 -3.125984 3.031496, 1.125984 -3.125984 3.031496, 1.125984 -2.874016 3.031496, 0.874016 -2.874016 3.031496 ] } coordIndex [ 0, 3, 2, 1, -1, 4, 5, 6, 7, -1, 0, 1, 5, 4, -1, 1, 2, 6, 5, -1, 2, 3, 7, 6, -1, 3, 0, 4, 7, -1 ] } }
Shape { appearance Appearance { material Material { diffuseColor 0.76 0.58 0.19 specularColor 0.25 0.25 0.25 shininess 0.3 } } geometry IndexedFaceSet { solid TRUE coord Coordinate { point [ -0.125984 -4.125984 -0.511811, 0.125984 -4.125984 -0.511811, 0.125984 -3.874016 -0.511811, -0.125984 -3.874016 -0.511811, -0.125984 -4.125984 3.031496, 0.125984 -4.125984 3.031496, 0.125984 -3.874016 3.031496, -0.125984 -3.874016 3.031496 ] } coordIndex [ 0, 3, 2, 1, -1, 4, 5, 6, 7, -1, 0, 1, 5, 4, -1, 1, 2, 6, 5, -1, 2, 3, 7, 6, -1, 3, 0, 4, 7, -1 ] } }
Shape { appearance Appearance { material Material { diffuseColor 0.76 0.58 0.19 specularColor 0.25 0.25 0.25 shininess 0.3 } } geometry IndexedFaceSet { solid TRUE coord Coordinate { point [ 0.874016 -4.125984 -0.511811, 1.125984 -4.125984 -0.511811, 1.125984 -3.874016 -0.511811, 0.874016 -3.874016 -0.511811, 0.874016 -4.125984 3.031496, 1.125984 -4.125984 3.031496, 1.125984 -3.874016 3.031496, 0.874016 -3.874016 3.031496 ] } coordIndex [ 0, 3, 2, 1, -1, 4, 5, 6, 7, -1, 0, 1, 5, 4, -1, 1, 2, 6, 5, -1, 2, 3, 7, 6, -1, 3, 0, 4, 7, -1 ] } }
Shape { appearance Appearance { material Material { diffuseColor 0.76 0.58 0.19 specularColor 0.25 0.25 0.25 shininess 0.3 } } geometry IndexedFaceSet { solid TRUE coord Coordinate { point [ -0.125984 -5.125984 -0.511811, 0.125984 -5.125984 -0.511811, 0.125984 -4.874016 -0.511811, -0.125984 -4.874016 -0.511811, -0.125984 -5.125984 3.031496, 0.125984 -5.125984 3.031496, 0.125984 -4.874016 3.031496, -0.125984 -4.874016 3.031496 ] } coordIndex [ 0, 3, 2, 1, -1, 4, 5, 6, 7, -1, 0, 1, 5, 4, -1, 1, 2, 6, 5, -1, 2, 3, 7, 6, -1, 3, 0, 4, 7, -1 ] } }
Shape { appearance Appearance { material Material { diffuseColor 0.76 0.58 0.19 specularColor 0.25 0.25 0.25 shininess 0.3 } } geometry IndexedFaceSet { solid TRUE coord Coordinate { point [ 0.874016 -5.125984 -0.511811, 1.125984 -5.125984 -0.511811, 1.125984 -4.874016 -0.511811, 0.874016 -4.874016 -0.511811, 0.874016 -5.125984 3.031496, 1.125984 -5.125984 3.031496, 1.125984 -4.874016 3.031496, 0.874016 -4.874016 3.031496 ] } coordIndex [ 0, 3, 2, 1, -1, 4, 5, 6, 7, -1, 0, 1, 5, 4, -1, 1, 2, 6, 5, -1, 2, 3, 7, 6, -1, 3, 0, 4, 7, -1 ] } }
Shape { appearance Appearance { material Material { diffuseColor 0.025 0.27 0.12 specularColor 0.25 0.25 0.25 shininess 0.3 } } geometry IndexedFaceSet { solid TRUE coord Coordinate { point [ -0.500000 -7.500000 1.968504, 9.500000 -7.500000 1.968504, 9.500000 2.500000 1.968504, -0.500000 2.500000 1.968504, -0.500000 -7.500000 2.598425, 9.500000 -7.500000 2.598425, 9.500000 2.500000 2.598425, -0.500000 2.500000 2.598425 ] } coordIndex [ 0, 3, 2, 1, -1, 4, 5, 6, 7, -1, 0, 1, 5, 4, -1, 1, 2, 6, 5, -1, 2, 3, 7, 6, -1, 3, 0, 4, 7, -1 ] } }
Shape { appearance Appearance { material Material { diffuseColor 0.76 0.58 0.19 specularColor 0.25 0.25 0.25 shininess 0.3 } } geometry IndexedFaceSet { solid TRUE coord Coordinate { point [ 0.362205 0.000000 2.598425, 0.355245 0.070663 2.598425, 0.334634 0.138610 2.598425, 0.301162 0.201230 2.598425, 0.256117 0.256117 2.598425, 0.201230 0.301162 2.598425, 0.138610 0.334634 2.598425, 0.070663 0.355245 2.598425, 0.000000 0.362205 2.598425, -0.070663 0.355245 2.598425, -0.138610 0.334634 2.598425, -0.201230 0.301162 2.598425, -0.256117 0.256117 2.598425, -0.301162 0.201230 2.598425, -0.334634 0.138610 2.598425, -0.355245 0.070663 2.598425, -0.362205 0.000000 2.598425, -0.355245 -0.070663 2.598425, -0.334634 -0.138610 2.598425, -0.301162 -0.201230 2.598425, -0.256117 -0.256117 2.598425, -0.201230 -0.301162 2.598425, -0.138610 -0.334634 2.598425, -0.070663 -0.355245 2.598425, -0.000000 -0.362205 2.598425, 0.070663 -0.355245 2.598425, 0.138610 -0.334634 2.598425, 0.201230 -0.301162 2.598425, 0.256117 -0.256117 2.598425, 0.301162 -0.201230 2.598425, 0.334634 -0.138610 2.598425, 0.355245 -0.070663 2.598425, 0.362205 0.000000 2.637795, 0.355245 0.070663 2.637795, 0.334634 0.138610 2.637795, 0.301162 0.201230 2.637795, 0.256117 0.256117 2.637795, 0.201230 0.301162 2.637795, 0.138610 0.334634 2.637795, 0.070663 0.355245 2.637795, 0.000000 0.362205 2.637795, -0.070663 0.355245 2.637795, -0.138610 0.334634 2.637795, -0.201230 0.301162 2.637795, -0.256117 0.256117 2.637795, -0.301162 0.201230 2.637795, -0.334634 0.138610 2.637795, -0.355245 0.070663 2.637795, -0.362205 0.000000 2.637795, -0.355245 -0.070663 2.637795, -0.334634 -0.138610 2.637795, -0.301162 -0.201230 2.637795, -0.256117 -0.256117 2.637795, -0.201230 -0.301162 2.637795, -0.138610 -0.334634 2.637795, -0.070663 -0.355245 2.637795, -0.000000 -0.362205 2.637795, 0.070663 -0.355245 2.637795, 0.138610 -0.334634 2.637795, 0.201230 -0.301162 2.637795, 0.256117 -0.256117 2.637795, 0.301162 -0.201230 2.637795, 0.334634 -0.138610 2.637795, 0.355245 -0.070663 2.637795 ] } coordIndex [ 31, 30, 29, 28, 27, 26, 25, 24, 23, 22, 21, 20, 19, 18, 17, 16, 15, 14, 13, 12, 11, 10, 9, 8, 7, 6, 5, 4, 3, 2, 1, 0, -1, 32, 33, 34, 35, 36, 37, 38, 39, 40, 41, 42, 43, 44, 45, 46, 47, 48, 49, 50, 51, 52, 53, 54, 55, 56, 57, 58, 59, 60, 61, 62, 63, -1, 0, 1, 33, 32, -1, 1, 2, 34, 33, -1, 2, 3, 35, 34, -1, 3, 4, 36, 35, -1, 4, 5, 37, 36, -1, 5, 6, 38, 37, -1, 6, 7, 39, 38, -1, 7, 8, 40, 39, -1, 8, 9, 41, 40, -1, 9, 10, 42, 41, -1, 10, 11, 43, 42, -1, 11, 12, 44, 43, -1, 12, 13, 45, 44, -1, 13, 14, 46, 45, -1, 14, 15, 47, 46, -1, 15, 16, 48, 47, -1, 16, 17, 49, 48, -1, 17, 18, 50, 49, -1, 18, 19, 51, 50, -1, 19, 20, 52, 51, -1, 20, 21, 53, 52, -1, 21, 22, 54, 53, -1, 22, 23, 55, 54, -1, 23, 24, 56, 55, -1, 24, 25, 57, 56, -1, 25, 26, 58, 57, -1, 26, 27, 59, 58, -1, 27, 28, 60, 59, -1, 28, 29, 61, 60, -1, 29, 30, 62, 61, -1, 30, 31, 63, 62, -1, 31, 0, 32, 63, -1 ] } }
Shape { appearance Appearance { material Material { diffuseColor 0.035 0.04 0.045 specularColor 0.25 0.25 0.25 shininess 0.3 } } geometry IndexedFaceSet { solid TRUE coord Coordinate { point [ 0.133858 0.000000 2.641732, 0.131286 0.026114 2.641732, 0.123669 0.051225 2.641732, 0.111299 0.074368 2.641732, 0.094652 0.094652 2.641732, 0.074368 0.111299 2.641732, 0.051225 0.123669 2.641732, 0.026114 0.131286 2.641732, 0.000000 0.133858 2.641732, -0.026114 0.131286 2.641732, -0.051225 0.123669 2.641732, -0.074368 0.111299 2.641732, -0.094652 0.094652 2.641732, -0.111299 0.074368 2.641732, -0.123669 0.051225 2.641732, -0.131286 0.026114 2.641732, -0.133858 0.000000 2.641732, -0.131286 -0.026114 2.641732, -0.123669 -0.051225 2.641732, -0.111299 -0.074368 2.641732, -0.094652 -0.094652 2.641732, -0.074368 -0.111299 2.641732, -0.051225 -0.123669 2.641732, -0.026114 -0.131286 2.641732, -0.000000 -0.133858 2.641732, 0.026114 -0.131286 2.641732, 0.051225 -0.123669 2.641732, 0.074368 -0.111299 2.641732, 0.094652 -0.094652 2.641732, 0.111299 -0.074368 2.641732, 0.123669 -0.051225 2.641732, 0.131286 -0.026114 2.641732, 0.133858 0.000000 2.657480, 0.131286 0.026114 2.657480, 0.123669 0.051225 2.657480, 0.111299 0.074368 2.657480, 0.094652 0.094652 2.657480, 0.074368 0.111299 2.657480, 0.051225 0.123669 2.657480, 0.026114 0.131286 2.657480, 0.000000 0.133858 2.657480, -0.026114 0.131286 2.657480, -0.051225 0.123669 2.657480, -0.074368 0.111299 2.657480, -0.094652 0.094652 2.657480, -0.111299 0.074368 2.657480, -0.123669 0.051225 2.657480, -0.131286 0.026114 2.657480, -0.133858 0.000000 2.657480, -0.131286 -0.026114 2.657480, -0.123669 -0.051225 2.657480, -0.111299 -0.074368 2.657480, -0.094652 -0.094652 2.657480, -0.074368 -0.111299 2.657480, -0.051225 -0.123669 2.657480, -0.026114 -0.131286 2.657480, -0.000000 -0.133858 2.657480, 0.026114 -0.131286 2.657480, 0.051225 -0.123669 2.657480, 0.074368 -0.111299 2.657480, 0.094652 -0.094652 2.657480, 0.111299 -0.074368 2.657480, 0.123669 -0.051225 2.657480, 0.131286 -0.026114 2.657480 ] } coordIndex [ 31, 30, 29, 28, 27, 26, 25, 24, 23, 22, 21, 20, 19, 18, 17, 16, 15, 14, 13, 12, 11, 10, 9, 8, 7, 6, 5, 4, 3, 2, 1, 0, -1, 32, 33, 34, 35, 36, 37, 38, 39, 40, 41, 42, 43, 44, 45, 46, 47, 48, 49, 50, 51, 52, 53, 54, 55, 56, 57, 58, 59, 60, 61, 62, 63, -1, 0, 1, 33, 32, -1, 1, 2, 34, 33, -1, 2, 3, 35, 34, -1, 3, 4, 36, 35, -1, 4, 5, 37, 36, -1, 5, 6, 38, 37, -1, 6, 7, 39, 38, -1, 7, 8, 40, 39, -1, 8, 9, 41, 40, -1, 9, 10, 42, 41, -1, 10, 11, 43, 42, -1, 11, 12, 44, 43, -1, 12, 13, 45, 44, -1, 13, 14, 46, 45, -1, 14, 15, 47, 46, -1, 15, 16, 48, 47, -1, 16, 17, 49, 48, -1, 17, 18, 50, 49, -1, 18, 19, 51, 50, -1, 19, 20, 52, 51, -1, 20, 21, 53, 52, -1, 21, 22, 54, 53, -1, 22, 23, 55, 54, -1, 23, 24, 56, 55, -1, 24, 25, 57, 56, -1, 25, 26, 58, 57, -1, 26, 27, 59, 58, -1, 27, 28, 60, 59, -1, 28, 29, 61, 60, -1, 29, 30, 62, 61, -1, 30, 31, 63, 62, -1, 31, 0, 32, 63, -1 ] } }
Shape { appearance Appearance { material Material { diffuseColor 0.76 0.58 0.19 specularColor 0.25 0.25 0.25 shininess 0.3 } } geometry IndexedFaceSet { solid TRUE coord Coordinate { point [ 1.362205 0.000000 2.598425, 1.355245 0.070663 2.598425, 1.334634 0.138610 2.598425, 1.301162 0.201230 2.598425, 1.256117 0.256117 2.598425, 1.201230 0.301162 2.598425, 1.138610 0.334634 2.598425, 1.070663 0.355245 2.598425, 1.000000 0.362205 2.598425, 0.929337 0.355245 2.598425, 0.861390 0.334634 2.598425, 0.798770 0.301162 2.598425, 0.743883 0.256117 2.598425, 0.698838 0.201230 2.598425, 0.665366 0.138610 2.598425, 0.644755 0.070663 2.598425, 0.637795 0.000000 2.598425, 0.644755 -0.070663 2.598425, 0.665366 -0.138610 2.598425, 0.698838 -0.201230 2.598425, 0.743883 -0.256117 2.598425, 0.798770 -0.301162 2.598425, 0.861390 -0.334634 2.598425, 0.929337 -0.355245 2.598425, 1.000000 -0.362205 2.598425, 1.070663 -0.355245 2.598425, 1.138610 -0.334634 2.598425, 1.201230 -0.301162 2.598425, 1.256117 -0.256117 2.598425, 1.301162 -0.201230 2.598425, 1.334634 -0.138610 2.598425, 1.355245 -0.070663 2.598425, 1.362205 0.000000 2.637795, 1.355245 0.070663 2.637795, 1.334634 0.138610 2.637795, 1.301162 0.201230 2.637795, 1.256117 0.256117 2.637795, 1.201230 0.301162 2.637795, 1.138610 0.334634 2.637795, 1.070663 0.355245 2.637795, 1.000000 0.362205 2.637795, 0.929337 0.355245 2.637795, 0.861390 0.334634 2.637795, 0.798770 0.301162 2.637795, 0.743883 0.256117 2.637795, 0.698838 0.201230 2.637795, 0.665366 0.138610 2.637795, 0.644755 0.070663 2.637795, 0.637795 0.000000 2.637795, 0.644755 -0.070663 2.637795, 0.665366 -0.138610 2.637795, 0.698838 -0.201230 2.637795, 0.743883 -0.256117 2.637795, 0.798770 -0.301162 2.637795, 0.861390 -0.334634 2.637795, 0.929337 -0.355245 2.637795, 1.000000 -0.362205 2.637795, 1.070663 -0.355245 2.637795, 1.138610 -0.334634 2.637795, 1.201230 -0.301162 2.637795, 1.256117 -0.256117 2.637795, 1.301162 -0.201230 2.637795, 1.334634 -0.138610 2.637795, 1.355245 -0.070663 2.637795 ] } coordIndex [ 31, 30, 29, 28, 27, 26, 25, 24, 23, 22, 21, 20, 19, 18, 17, 16, 15, 14, 13, 12, 11, 10, 9, 8, 7, 6, 5, 4, 3, 2, 1, 0, -1, 32, 33, 34, 35, 36, 37, 38, 39, 40, 41, 42, 43, 44, 45, 46, 47, 48, 49, 50, 51, 52, 53, 54, 55, 56, 57, 58, 59, 60, 61, 62, 63, -1, 0, 1, 33, 32, -1, 1, 2, 34, 33, -1, 2, 3, 35, 34, -1, 3, 4, 36, 35, -1, 4, 5, 37, 36, -1, 5, 6, 38, 37, -1, 6, 7, 39, 38, -1, 7, 8, 40, 39, -1, 8, 9, 41, 40, -1, 9, 10, 42, 41, -1, 10, 11, 43, 42, -1, 11, 12, 44, 43, -1, 12, 13, 45, 44, -1, 13, 14, 46, 45, -1, 14, 15, 47, 46, -1, 15, 16, 48, 47, -1, 16, 17, 49, 48, -1, 17, 18, 50, 49, -1, 18, 19, 51, 50, -1, 19, 20, 52, 51, -1, 20, 21, 53, 52, -1, 21, 22, 54, 53, -1, 22, 23, 55, 54, -1, 23, 24, 56, 55, -1, 24, 25, 57, 56, -1, 25, 26, 58, 57, -1, 26, 27, 59, 58, -1, 27, 28, 60, 59, -1, 28, 29, 61, 60, -1, 29, 30, 62, 61, -1, 30, 31, 63, 62, -1, 31, 0, 32, 63, -1 ] } }
Shape { appearance Appearance { material Material { diffuseColor 0.035 0.04 0.045 specularColor 0.25 0.25 0.25 shininess 0.3 } } geometry IndexedFaceSet { solid TRUE coord Coordinate { point [ 1.133858 0.000000 2.641732, 1.131286 0.026114 2.641732, 1.123669 0.051225 2.641732, 1.111299 0.074368 2.641732, 1.094652 0.094652 2.641732, 1.074368 0.111299 2.641732, 1.051225 0.123669 2.641732, 1.026114 0.131286 2.641732, 1.000000 0.133858 2.641732, 0.973886 0.131286 2.641732, 0.948775 0.123669 2.641732, 0.925632 0.111299 2.641732, 0.905348 0.094652 2.641732, 0.888701 0.074368 2.641732, 0.876331 0.051225 2.641732, 0.868714 0.026114 2.641732, 0.866142 0.000000 2.641732, 0.868714 -0.026114 2.641732, 0.876331 -0.051225 2.641732, 0.888701 -0.074368 2.641732, 0.905348 -0.094652 2.641732, 0.925632 -0.111299 2.641732, 0.948775 -0.123669 2.641732, 0.973886 -0.131286 2.641732, 1.000000 -0.133858 2.641732, 1.026114 -0.131286 2.641732, 1.051225 -0.123669 2.641732, 1.074368 -0.111299 2.641732, 1.094652 -0.094652 2.641732, 1.111299 -0.074368 2.641732, 1.123669 -0.051225 2.641732, 1.131286 -0.026114 2.641732, 1.133858 0.000000 2.657480, 1.131286 0.026114 2.657480, 1.123669 0.051225 2.657480, 1.111299 0.074368 2.657480, 1.094652 0.094652 2.657480, 1.074368 0.111299 2.657480, 1.051225 0.123669 2.657480, 1.026114 0.131286 2.657480, 1.000000 0.133858 2.657480, 0.973886 0.131286 2.657480, 0.948775 0.123669 2.657480, 0.925632 0.111299 2.657480, 0.905348 0.094652 2.657480, 0.888701 0.074368 2.657480, 0.876331 0.051225 2.657480, 0.868714 0.026114 2.657480, 0.866142 0.000000 2.657480, 0.868714 -0.026114 2.657480, 0.876331 -0.051225 2.657480, 0.888701 -0.074368 2.657480, 0.905348 -0.094652 2.657480, 0.925632 -0.111299 2.657480, 0.948775 -0.123669 2.657480, 0.973886 -0.131286 2.657480, 1.000000 -0.133858 2.657480, 1.026114 -0.131286 2.657480, 1.051225 -0.123669 2.657480, 1.074368 -0.111299 2.657480, 1.094652 -0.094652 2.657480, 1.111299 -0.074368 2.657480, 1.123669 -0.051225 2.657480, 1.131286 -0.026114 2.657480 ] } coordIndex [ 31, 30, 29, 28, 27, 26, 25, 24, 23, 22, 21, 20, 19, 18, 17, 16, 15, 14, 13, 12, 11, 10, 9, 8, 7, 6, 5, 4, 3, 2, 1, 0, -1, 32, 33, 34, 35, 36, 37, 38, 39, 40, 41, 42, 43, 44, 45, 46, 47, 48, 49, 50, 51, 52, 53, 54, 55, 56, 57, 58, 59, 60, 61, 62, 63, -1, 0, 1, 33, 32, -1, 1, 2, 34, 33, -1, 2, 3, 35, 34, -1, 3, 4, 36, 35, -1, 4, 5, 37, 36, -1, 5, 6, 38, 37, -1, 6, 7, 39, 38, -1, 7, 8, 40, 39, -1, 8, 9, 41, 40, -1, 9, 10, 42, 41, -1, 10, 11, 43, 42, -1, 11, 12, 44, 43, -1, 12, 13, 45, 44, -1, 13, 14, 46, 45, -1, 14, 15, 47, 46, -1, 15, 16, 48, 47, -1, 16, 17, 49, 48, -1, 17, 18, 50, 49, -1, 18, 19, 51, 50, -1, 19, 20, 52, 51, -1, 20, 21, 53, 52, -1, 21, 22, 54, 53, -1, 22, 23, 55, 54, -1, 23, 24, 56, 55, -1, 24, 25, 57, 56, -1, 25, 26, 58, 57, -1, 26, 27, 59, 58, -1, 27, 28, 60, 59, -1, 28, 29, 61, 60, -1, 29, 30, 62, 61, -1, 30, 31, 63, 62, -1, 31, 0, 32, 63, -1 ] } }
Shape { appearance Appearance { material Material { diffuseColor 0.76 0.58 0.19 specularColor 0.25 0.25 0.25 shininess 0.3 } } geometry IndexedFaceSet { solid TRUE coord Coordinate { point [ 0.362205 -1.000000 2.598425, 0.355245 -0.929337 2.598425, 0.334634 -0.861390 2.598425, 0.301162 -0.798770 2.598425, 0.256117 -0.743883 2.598425, 0.201230 -0.698838 2.598425, 0.138610 -0.665366 2.598425, 0.070663 -0.644755 2.598425, 0.000000 -0.637795 2.598425, -0.070663 -0.644755 2.598425, -0.138610 -0.665366 2.598425, -0.201230 -0.698838 2.598425, -0.256117 -0.743883 2.598425, -0.301162 -0.798770 2.598425, -0.334634 -0.861390 2.598425, -0.355245 -0.929337 2.598425, -0.362205 -1.000000 2.598425, -0.355245 -1.070663 2.598425, -0.334634 -1.138610 2.598425, -0.301162 -1.201230 2.598425, -0.256117 -1.256117 2.598425, -0.201230 -1.301162 2.598425, -0.138610 -1.334634 2.598425, -0.070663 -1.355245 2.598425, -0.000000 -1.362205 2.598425, 0.070663 -1.355245 2.598425, 0.138610 -1.334634 2.598425, 0.201230 -1.301162 2.598425, 0.256117 -1.256117 2.598425, 0.301162 -1.201230 2.598425, 0.334634 -1.138610 2.598425, 0.355245 -1.070663 2.598425, 0.362205 -1.000000 2.637795, 0.355245 -0.929337 2.637795, 0.334634 -0.861390 2.637795, 0.301162 -0.798770 2.637795, 0.256117 -0.743883 2.637795, 0.201230 -0.698838 2.637795, 0.138610 -0.665366 2.637795, 0.070663 -0.644755 2.637795, 0.000000 -0.637795 2.637795, -0.070663 -0.644755 2.637795, -0.138610 -0.665366 2.637795, -0.201230 -0.698838 2.637795, -0.256117 -0.743883 2.637795, -0.301162 -0.798770 2.637795, -0.334634 -0.861390 2.637795, -0.355245 -0.929337 2.637795, -0.362205 -1.000000 2.637795, -0.355245 -1.070663 2.637795, -0.334634 -1.138610 2.637795, -0.301162 -1.201230 2.637795, -0.256117 -1.256117 2.637795, -0.201230 -1.301162 2.637795, -0.138610 -1.334634 2.637795, -0.070663 -1.355245 2.637795, -0.000000 -1.362205 2.637795, 0.070663 -1.355245 2.637795, 0.138610 -1.334634 2.637795, 0.201230 -1.301162 2.637795, 0.256117 -1.256117 2.637795, 0.301162 -1.201230 2.637795, 0.334634 -1.138610 2.637795, 0.355245 -1.070663 2.637795 ] } coordIndex [ 31, 30, 29, 28, 27, 26, 25, 24, 23, 22, 21, 20, 19, 18, 17, 16, 15, 14, 13, 12, 11, 10, 9, 8, 7, 6, 5, 4, 3, 2, 1, 0, -1, 32, 33, 34, 35, 36, 37, 38, 39, 40, 41, 42, 43, 44, 45, 46, 47, 48, 49, 50, 51, 52, 53, 54, 55, 56, 57, 58, 59, 60, 61, 62, 63, -1, 0, 1, 33, 32, -1, 1, 2, 34, 33, -1, 2, 3, 35, 34, -1, 3, 4, 36, 35, -1, 4, 5, 37, 36, -1, 5, 6, 38, 37, -1, 6, 7, 39, 38, -1, 7, 8, 40, 39, -1, 8, 9, 41, 40, -1, 9, 10, 42, 41, -1, 10, 11, 43, 42, -1, 11, 12, 44, 43, -1, 12, 13, 45, 44, -1, 13, 14, 46, 45, -1, 14, 15, 47, 46, -1, 15, 16, 48, 47, -1, 16, 17, 49, 48, -1, 17, 18, 50, 49, -1, 18, 19, 51, 50, -1, 19, 20, 52, 51, -1, 20, 21, 53, 52, -1, 21, 22, 54, 53, -1, 22, 23, 55, 54, -1, 23, 24, 56, 55, -1, 24, 25, 57, 56, -1, 25, 26, 58, 57, -1, 26, 27, 59, 58, -1, 27, 28, 60, 59, -1, 28, 29, 61, 60, -1, 29, 30, 62, 61, -1, 30, 31, 63, 62, -1, 31, 0, 32, 63, -1 ] } }
Shape { appearance Appearance { material Material { diffuseColor 0.035 0.04 0.045 specularColor 0.25 0.25 0.25 shininess 0.3 } } geometry IndexedFaceSet { solid TRUE coord Coordinate { point [ 0.133858 -1.000000 2.641732, 0.131286 -0.973886 2.641732, 0.123669 -0.948775 2.641732, 0.111299 -0.925632 2.641732, 0.094652 -0.905348 2.641732, 0.074368 -0.888701 2.641732, 0.051225 -0.876331 2.641732, 0.026114 -0.868714 2.641732, 0.000000 -0.866142 2.641732, -0.026114 -0.868714 2.641732, -0.051225 -0.876331 2.641732, -0.074368 -0.888701 2.641732, -0.094652 -0.905348 2.641732, -0.111299 -0.925632 2.641732, -0.123669 -0.948775 2.641732, -0.131286 -0.973886 2.641732, -0.133858 -1.000000 2.641732, -0.131286 -1.026114 2.641732, -0.123669 -1.051225 2.641732, -0.111299 -1.074368 2.641732, -0.094652 -1.094652 2.641732, -0.074368 -1.111299 2.641732, -0.051225 -1.123669 2.641732, -0.026114 -1.131286 2.641732, -0.000000 -1.133858 2.641732, 0.026114 -1.131286 2.641732, 0.051225 -1.123669 2.641732, 0.074368 -1.111299 2.641732, 0.094652 -1.094652 2.641732, 0.111299 -1.074368 2.641732, 0.123669 -1.051225 2.641732, 0.131286 -1.026114 2.641732, 0.133858 -1.000000 2.657480, 0.131286 -0.973886 2.657480, 0.123669 -0.948775 2.657480, 0.111299 -0.925632 2.657480, 0.094652 -0.905348 2.657480, 0.074368 -0.888701 2.657480, 0.051225 -0.876331 2.657480, 0.026114 -0.868714 2.657480, 0.000000 -0.866142 2.657480, -0.026114 -0.868714 2.657480, -0.051225 -0.876331 2.657480, -0.074368 -0.888701 2.657480, -0.094652 -0.905348 2.657480, -0.111299 -0.925632 2.657480, -0.123669 -0.948775 2.657480, -0.131286 -0.973886 2.657480, -0.133858 -1.000000 2.657480, -0.131286 -1.026114 2.657480, -0.123669 -1.051225 2.657480, -0.111299 -1.074368 2.657480, -0.094652 -1.094652 2.657480, -0.074368 -1.111299 2.657480, -0.051225 -1.123669 2.657480, -0.026114 -1.131286 2.657480, -0.000000 -1.133858 2.657480, 0.026114 -1.131286 2.657480, 0.051225 -1.123669 2.657480, 0.074368 -1.111299 2.657480, 0.094652 -1.094652 2.657480, 0.111299 -1.074368 2.657480, 0.123669 -1.051225 2.657480, 0.131286 -1.026114 2.657480 ] } coordIndex [ 31, 30, 29, 28, 27, 26, 25, 24, 23, 22, 21, 20, 19, 18, 17, 16, 15, 14, 13, 12, 11, 10, 9, 8, 7, 6, 5, 4, 3, 2, 1, 0, -1, 32, 33, 34, 35, 36, 37, 38, 39, 40, 41, 42, 43, 44, 45, 46, 47, 48, 49, 50, 51, 52, 53, 54, 55, 56, 57, 58, 59, 60, 61, 62, 63, -1, 0, 1, 33, 32, -1, 1, 2, 34, 33, -1, 2, 3, 35, 34, -1, 3, 4, 36, 35, -1, 4, 5, 37, 36, -1, 5, 6, 38, 37, -1, 6, 7, 39, 38, -1, 7, 8, 40, 39, -1, 8, 9, 41, 40, -1, 9, 10, 42, 41, -1, 10, 11, 43, 42, -1, 11, 12, 44, 43, -1, 12, 13, 45, 44, -1, 13, 14, 46, 45, -1, 14, 15, 47, 46, -1, 15, 16, 48, 47, -1, 16, 17, 49, 48, -1, 17, 18, 50, 49, -1, 18, 19, 51, 50, -1, 19, 20, 52, 51, -1, 20, 21, 53, 52, -1, 21, 22, 54, 53, -1, 22, 23, 55, 54, -1, 23, 24, 56, 55, -1, 24, 25, 57, 56, -1, 25, 26, 58, 57, -1, 26, 27, 59, 58, -1, 27, 28, 60, 59, -1, 28, 29, 61, 60, -1, 29, 30, 62, 61, -1, 30, 31, 63, 62, -1, 31, 0, 32, 63, -1 ] } }
Shape { appearance Appearance { material Material { diffuseColor 0.76 0.58 0.19 specularColor 0.25 0.25 0.25 shininess 0.3 } } geometry IndexedFaceSet { solid TRUE coord Coordinate { point [ 1.362205 -1.000000 2.598425, 1.355245 -0.929337 2.598425, 1.334634 -0.861390 2.598425, 1.301162 -0.798770 2.598425, 1.256117 -0.743883 2.598425, 1.201230 -0.698838 2.598425, 1.138610 -0.665366 2.598425, 1.070663 -0.644755 2.598425, 1.000000 -0.637795 2.598425, 0.929337 -0.644755 2.598425, 0.861390 -0.665366 2.598425, 0.798770 -0.698838 2.598425, 0.743883 -0.743883 2.598425, 0.698838 -0.798770 2.598425, 0.665366 -0.861390 2.598425, 0.644755 -0.929337 2.598425, 0.637795 -1.000000 2.598425, 0.644755 -1.070663 2.598425, 0.665366 -1.138610 2.598425, 0.698838 -1.201230 2.598425, 0.743883 -1.256117 2.598425, 0.798770 -1.301162 2.598425, 0.861390 -1.334634 2.598425, 0.929337 -1.355245 2.598425, 1.000000 -1.362205 2.598425, 1.070663 -1.355245 2.598425, 1.138610 -1.334634 2.598425, 1.201230 -1.301162 2.598425, 1.256117 -1.256117 2.598425, 1.301162 -1.201230 2.598425, 1.334634 -1.138610 2.598425, 1.355245 -1.070663 2.598425, 1.362205 -1.000000 2.637795, 1.355245 -0.929337 2.637795, 1.334634 -0.861390 2.637795, 1.301162 -0.798770 2.637795, 1.256117 -0.743883 2.637795, 1.201230 -0.698838 2.637795, 1.138610 -0.665366 2.637795, 1.070663 -0.644755 2.637795, 1.000000 -0.637795 2.637795, 0.929337 -0.644755 2.637795, 0.861390 -0.665366 2.637795, 0.798770 -0.698838 2.637795, 0.743883 -0.743883 2.637795, 0.698838 -0.798770 2.637795, 0.665366 -0.861390 2.637795, 0.644755 -0.929337 2.637795, 0.637795 -1.000000 2.637795, 0.644755 -1.070663 2.637795, 0.665366 -1.138610 2.637795, 0.698838 -1.201230 2.637795, 0.743883 -1.256117 2.637795, 0.798770 -1.301162 2.637795, 0.861390 -1.334634 2.637795, 0.929337 -1.355245 2.637795, 1.000000 -1.362205 2.637795, 1.070663 -1.355245 2.637795, 1.138610 -1.334634 2.637795, 1.201230 -1.301162 2.637795, 1.256117 -1.256117 2.637795, 1.301162 -1.201230 2.637795, 1.334634 -1.138610 2.637795, 1.355245 -1.070663 2.637795 ] } coordIndex [ 31, 30, 29, 28, 27, 26, 25, 24, 23, 22, 21, 20, 19, 18, 17, 16, 15, 14, 13, 12, 11, 10, 9, 8, 7, 6, 5, 4, 3, 2, 1, 0, -1, 32, 33, 34, 35, 36, 37, 38, 39, 40, 41, 42, 43, 44, 45, 46, 47, 48, 49, 50, 51, 52, 53, 54, 55, 56, 57, 58, 59, 60, 61, 62, 63, -1, 0, 1, 33, 32, -1, 1, 2, 34, 33, -1, 2, 3, 35, 34, -1, 3, 4, 36, 35, -1, 4, 5, 37, 36, -1, 5, 6, 38, 37, -1, 6, 7, 39, 38, -1, 7, 8, 40, 39, -1, 8, 9, 41, 40, -1, 9, 10, 42, 41, -1, 10, 11, 43, 42, -1, 11, 12, 44, 43, -1, 12, 13, 45, 44, -1, 13, 14, 46, 45, -1, 14, 15, 47, 46, -1, 15, 16, 48, 47, -1, 16, 17, 49, 48, -1, 17, 18, 50, 49, -1, 18, 19, 51, 50, -1, 19, 20, 52, 51, -1, 20, 21, 53, 52, -1, 21, 22, 54, 53, -1, 22, 23, 55, 54, -1, 23, 24, 56, 55, -1, 24, 25, 57, 56, -1, 25, 26, 58, 57, -1, 26, 27, 59, 58, -1, 27, 28, 60, 59, -1, 28, 29, 61, 60, -1, 29, 30, 62, 61, -1, 30, 31, 63, 62, -1, 31, 0, 32, 63, -1 ] } }
Shape { appearance Appearance { material Material { diffuseColor 0.035 0.04 0.045 specularColor 0.25 0.25 0.25 shininess 0.3 } } geometry IndexedFaceSet { solid TRUE coord Coordinate { point [ 1.133858 -1.000000 2.641732, 1.131286 -0.973886 2.641732, 1.123669 -0.948775 2.641732, 1.111299 -0.925632 2.641732, 1.094652 -0.905348 2.641732, 1.074368 -0.888701 2.641732, 1.051225 -0.876331 2.641732, 1.026114 -0.868714 2.641732, 1.000000 -0.866142 2.641732, 0.973886 -0.868714 2.641732, 0.948775 -0.876331 2.641732, 0.925632 -0.888701 2.641732, 0.905348 -0.905348 2.641732, 0.888701 -0.925632 2.641732, 0.876331 -0.948775 2.641732, 0.868714 -0.973886 2.641732, 0.866142 -1.000000 2.641732, 0.868714 -1.026114 2.641732, 0.876331 -1.051225 2.641732, 0.888701 -1.074368 2.641732, 0.905348 -1.094652 2.641732, 0.925632 -1.111299 2.641732, 0.948775 -1.123669 2.641732, 0.973886 -1.131286 2.641732, 1.000000 -1.133858 2.641732, 1.026114 -1.131286 2.641732, 1.051225 -1.123669 2.641732, 1.074368 -1.111299 2.641732, 1.094652 -1.094652 2.641732, 1.111299 -1.074368 2.641732, 1.123669 -1.051225 2.641732, 1.131286 -1.026114 2.641732, 1.133858 -1.000000 2.657480, 1.131286 -0.973886 2.657480, 1.123669 -0.948775 2.657480, 1.111299 -0.925632 2.657480, 1.094652 -0.905348 2.657480, 1.074368 -0.888701 2.657480, 1.051225 -0.876331 2.657480, 1.026114 -0.868714 2.657480, 1.000000 -0.866142 2.657480, 0.973886 -0.868714 2.657480, 0.948775 -0.876331 2.657480, 0.925632 -0.888701 2.657480, 0.905348 -0.905348 2.657480, 0.888701 -0.925632 2.657480, 0.876331 -0.948775 2.657480, 0.868714 -0.973886 2.657480, 0.866142 -1.000000 2.657480, 0.868714 -1.026114 2.657480, 0.876331 -1.051225 2.657480, 0.888701 -1.074368 2.657480, 0.905348 -1.094652 2.657480, 0.925632 -1.111299 2.657480, 0.948775 -1.123669 2.657480, 0.973886 -1.131286 2.657480, 1.000000 -1.133858 2.657480, 1.026114 -1.131286 2.657480, 1.051225 -1.123669 2.657480, 1.074368 -1.111299 2.657480, 1.094652 -1.094652 2.657480, 1.111299 -1.074368 2.657480, 1.123669 -1.051225 2.657480, 1.131286 -1.026114 2.657480 ] } coordIndex [ 31, 30, 29, 28, 27, 26, 25, 24, 23, 22, 21, 20, 19, 18, 17, 16, 15, 14, 13, 12, 11, 10, 9, 8, 7, 6, 5, 4, 3, 2, 1, 0, -1, 32, 33, 34, 35, 36, 37, 38, 39, 40, 41, 42, 43, 44, 45, 46, 47, 48, 49, 50, 51, 52, 53, 54, 55, 56, 57, 58, 59, 60, 61, 62, 63, -1, 0, 1, 33, 32, -1, 1, 2, 34, 33, -1, 2, 3, 35, 34, -1, 3, 4, 36, 35, -1, 4, 5, 37, 36, -1, 5, 6, 38, 37, -1, 6, 7, 39, 38, -1, 7, 8, 40, 39, -1, 8, 9, 41, 40, -1, 9, 10, 42, 41, -1, 10, 11, 43, 42, -1, 11, 12, 44, 43, -1, 12, 13, 45, 44, -1, 13, 14, 46, 45, -1, 14, 15, 47, 46, -1, 15, 16, 48, 47, -1, 16, 17, 49, 48, -1, 17, 18, 50, 49, -1, 18, 19, 51, 50, -1, 19, 20, 52, 51, -1, 20, 21, 53, 52, -1, 21, 22, 54, 53, -1, 22, 23, 55, 54, -1, 23, 24, 56, 55, -1, 24, 25, 57, 56, -1, 25, 26, 58, 57, -1, 26, 27, 59, 58, -1, 27, 28, 60, 59, -1, 28, 29, 61, 60, -1, 29, 30, 62, 61, -1, 30, 31, 63, 62, -1, 31, 0, 32, 63, -1 ] } }
Shape { appearance Appearance { material Material { diffuseColor 0.76 0.58 0.19 specularColor 0.25 0.25 0.25 shininess 0.3 } } geometry IndexedFaceSet { solid TRUE coord Coordinate { point [ 0.362205 -2.000000 2.598425, 0.355245 -1.929337 2.598425, 0.334634 -1.861390 2.598425, 0.301162 -1.798770 2.598425, 0.256117 -1.743883 2.598425, 0.201230 -1.698838 2.598425, 0.138610 -1.665366 2.598425, 0.070663 -1.644755 2.598425, 0.000000 -1.637795 2.598425, -0.070663 -1.644755 2.598425, -0.138610 -1.665366 2.598425, -0.201230 -1.698838 2.598425, -0.256117 -1.743883 2.598425, -0.301162 -1.798770 2.598425, -0.334634 -1.861390 2.598425, -0.355245 -1.929337 2.598425, -0.362205 -2.000000 2.598425, -0.355245 -2.070663 2.598425, -0.334634 -2.138610 2.598425, -0.301162 -2.201230 2.598425, -0.256117 -2.256117 2.598425, -0.201230 -2.301162 2.598425, -0.138610 -2.334634 2.598425, -0.070663 -2.355245 2.598425, -0.000000 -2.362205 2.598425, 0.070663 -2.355245 2.598425, 0.138610 -2.334634 2.598425, 0.201230 -2.301162 2.598425, 0.256117 -2.256117 2.598425, 0.301162 -2.201230 2.598425, 0.334634 -2.138610 2.598425, 0.355245 -2.070663 2.598425, 0.362205 -2.000000 2.637795, 0.355245 -1.929337 2.637795, 0.334634 -1.861390 2.637795, 0.301162 -1.798770 2.637795, 0.256117 -1.743883 2.637795, 0.201230 -1.698838 2.637795, 0.138610 -1.665366 2.637795, 0.070663 -1.644755 2.637795, 0.000000 -1.637795 2.637795, -0.070663 -1.644755 2.637795, -0.138610 -1.665366 2.637795, -0.201230 -1.698838 2.637795, -0.256117 -1.743883 2.637795, -0.301162 -1.798770 2.637795, -0.334634 -1.861390 2.637795, -0.355245 -1.929337 2.637795, -0.362205 -2.000000 2.637795, -0.355245 -2.070663 2.637795, -0.334634 -2.138610 2.637795, -0.301162 -2.201230 2.637795, -0.256117 -2.256117 2.637795, -0.201230 -2.301162 2.637795, -0.138610 -2.334634 2.637795, -0.070663 -2.355245 2.637795, -0.000000 -2.362205 2.637795, 0.070663 -2.355245 2.637795, 0.138610 -2.334634 2.637795, 0.201230 -2.301162 2.637795, 0.256117 -2.256117 2.637795, 0.301162 -2.201230 2.637795, 0.334634 -2.138610 2.637795, 0.355245 -2.070663 2.637795 ] } coordIndex [ 31, 30, 29, 28, 27, 26, 25, 24, 23, 22, 21, 20, 19, 18, 17, 16, 15, 14, 13, 12, 11, 10, 9, 8, 7, 6, 5, 4, 3, 2, 1, 0, -1, 32, 33, 34, 35, 36, 37, 38, 39, 40, 41, 42, 43, 44, 45, 46, 47, 48, 49, 50, 51, 52, 53, 54, 55, 56, 57, 58, 59, 60, 61, 62, 63, -1, 0, 1, 33, 32, -1, 1, 2, 34, 33, -1, 2, 3, 35, 34, -1, 3, 4, 36, 35, -1, 4, 5, 37, 36, -1, 5, 6, 38, 37, -1, 6, 7, 39, 38, -1, 7, 8, 40, 39, -1, 8, 9, 41, 40, -1, 9, 10, 42, 41, -1, 10, 11, 43, 42, -1, 11, 12, 44, 43, -1, 12, 13, 45, 44, -1, 13, 14, 46, 45, -1, 14, 15, 47, 46, -1, 15, 16, 48, 47, -1, 16, 17, 49, 48, -1, 17, 18, 50, 49, -1, 18, 19, 51, 50, -1, 19, 20, 52, 51, -1, 20, 21, 53, 52, -1, 21, 22, 54, 53, -1, 22, 23, 55, 54, -1, 23, 24, 56, 55, -1, 24, 25, 57, 56, -1, 25, 26, 58, 57, -1, 26, 27, 59, 58, -1, 27, 28, 60, 59, -1, 28, 29, 61, 60, -1, 29, 30, 62, 61, -1, 30, 31, 63, 62, -1, 31, 0, 32, 63, -1 ] } }
Shape { appearance Appearance { material Material { diffuseColor 0.035 0.04 0.045 specularColor 0.25 0.25 0.25 shininess 0.3 } } geometry IndexedFaceSet { solid TRUE coord Coordinate { point [ 0.133858 -2.000000 2.641732, 0.131286 -1.973886 2.641732, 0.123669 -1.948775 2.641732, 0.111299 -1.925632 2.641732, 0.094652 -1.905348 2.641732, 0.074368 -1.888701 2.641732, 0.051225 -1.876331 2.641732, 0.026114 -1.868714 2.641732, 0.000000 -1.866142 2.641732, -0.026114 -1.868714 2.641732, -0.051225 -1.876331 2.641732, -0.074368 -1.888701 2.641732, -0.094652 -1.905348 2.641732, -0.111299 -1.925632 2.641732, -0.123669 -1.948775 2.641732, -0.131286 -1.973886 2.641732, -0.133858 -2.000000 2.641732, -0.131286 -2.026114 2.641732, -0.123669 -2.051225 2.641732, -0.111299 -2.074368 2.641732, -0.094652 -2.094652 2.641732, -0.074368 -2.111299 2.641732, -0.051225 -2.123669 2.641732, -0.026114 -2.131286 2.641732, -0.000000 -2.133858 2.641732, 0.026114 -2.131286 2.641732, 0.051225 -2.123669 2.641732, 0.074368 -2.111299 2.641732, 0.094652 -2.094652 2.641732, 0.111299 -2.074368 2.641732, 0.123669 -2.051225 2.641732, 0.131286 -2.026114 2.641732, 0.133858 -2.000000 2.657480, 0.131286 -1.973886 2.657480, 0.123669 -1.948775 2.657480, 0.111299 -1.925632 2.657480, 0.094652 -1.905348 2.657480, 0.074368 -1.888701 2.657480, 0.051225 -1.876331 2.657480, 0.026114 -1.868714 2.657480, 0.000000 -1.866142 2.657480, -0.026114 -1.868714 2.657480, -0.051225 -1.876331 2.657480, -0.074368 -1.888701 2.657480, -0.094652 -1.905348 2.657480, -0.111299 -1.925632 2.657480, -0.123669 -1.948775 2.657480, -0.131286 -1.973886 2.657480, -0.133858 -2.000000 2.657480, -0.131286 -2.026114 2.657480, -0.123669 -2.051225 2.657480, -0.111299 -2.074368 2.657480, -0.094652 -2.094652 2.657480, -0.074368 -2.111299 2.657480, -0.051225 -2.123669 2.657480, -0.026114 -2.131286 2.657480, -0.000000 -2.133858 2.657480, 0.026114 -2.131286 2.657480, 0.051225 -2.123669 2.657480, 0.074368 -2.111299 2.657480, 0.094652 -2.094652 2.657480, 0.111299 -2.074368 2.657480, 0.123669 -2.051225 2.657480, 0.131286 -2.026114 2.657480 ] } coordIndex [ 31, 30, 29, 28, 27, 26, 25, 24, 23, 22, 21, 20, 19, 18, 17, 16, 15, 14, 13, 12, 11, 10, 9, 8, 7, 6, 5, 4, 3, 2, 1, 0, -1, 32, 33, 34, 35, 36, 37, 38, 39, 40, 41, 42, 43, 44, 45, 46, 47, 48, 49, 50, 51, 52, 53, 54, 55, 56, 57, 58, 59, 60, 61, 62, 63, -1, 0, 1, 33, 32, -1, 1, 2, 34, 33, -1, 2, 3, 35, 34, -1, 3, 4, 36, 35, -1, 4, 5, 37, 36, -1, 5, 6, 38, 37, -1, 6, 7, 39, 38, -1, 7, 8, 40, 39, -1, 8, 9, 41, 40, -1, 9, 10, 42, 41, -1, 10, 11, 43, 42, -1, 11, 12, 44, 43, -1, 12, 13, 45, 44, -1, 13, 14, 46, 45, -1, 14, 15, 47, 46, -1, 15, 16, 48, 47, -1, 16, 17, 49, 48, -1, 17, 18, 50, 49, -1, 18, 19, 51, 50, -1, 19, 20, 52, 51, -1, 20, 21, 53, 52, -1, 21, 22, 54, 53, -1, 22, 23, 55, 54, -1, 23, 24, 56, 55, -1, 24, 25, 57, 56, -1, 25, 26, 58, 57, -1, 26, 27, 59, 58, -1, 27, 28, 60, 59, -1, 28, 29, 61, 60, -1, 29, 30, 62, 61, -1, 30, 31, 63, 62, -1, 31, 0, 32, 63, -1 ] } }
Shape { appearance Appearance { material Material { diffuseColor 0.76 0.58 0.19 specularColor 0.25 0.25 0.25 shininess 0.3 } } geometry IndexedFaceSet { solid TRUE coord Coordinate { point [ 1.362205 -2.000000 2.598425, 1.355245 -1.929337 2.598425, 1.334634 -1.861390 2.598425, 1.301162 -1.798770 2.598425, 1.256117 -1.743883 2.598425, 1.201230 -1.698838 2.598425, 1.138610 -1.665366 2.598425, 1.070663 -1.644755 2.598425, 1.000000 -1.637795 2.598425, 0.929337 -1.644755 2.598425, 0.861390 -1.665366 2.598425, 0.798770 -1.698838 2.598425, 0.743883 -1.743883 2.598425, 0.698838 -1.798770 2.598425, 0.665366 -1.861390 2.598425, 0.644755 -1.929337 2.598425, 0.637795 -2.000000 2.598425, 0.644755 -2.070663 2.598425, 0.665366 -2.138610 2.598425, 0.698838 -2.201230 2.598425, 0.743883 -2.256117 2.598425, 0.798770 -2.301162 2.598425, 0.861390 -2.334634 2.598425, 0.929337 -2.355245 2.598425, 1.000000 -2.362205 2.598425, 1.070663 -2.355245 2.598425, 1.138610 -2.334634 2.598425, 1.201230 -2.301162 2.598425, 1.256117 -2.256117 2.598425, 1.301162 -2.201230 2.598425, 1.334634 -2.138610 2.598425, 1.355245 -2.070663 2.598425, 1.362205 -2.000000 2.637795, 1.355245 -1.929337 2.637795, 1.334634 -1.861390 2.637795, 1.301162 -1.798770 2.637795, 1.256117 -1.743883 2.637795, 1.201230 -1.698838 2.637795, 1.138610 -1.665366 2.637795, 1.070663 -1.644755 2.637795, 1.000000 -1.637795 2.637795, 0.929337 -1.644755 2.637795, 0.861390 -1.665366 2.637795, 0.798770 -1.698838 2.637795, 0.743883 -1.743883 2.637795, 0.698838 -1.798770 2.637795, 0.665366 -1.861390 2.637795, 0.644755 -1.929337 2.637795, 0.637795 -2.000000 2.637795, 0.644755 -2.070663 2.637795, 0.665366 -2.138610 2.637795, 0.698838 -2.201230 2.637795, 0.743883 -2.256117 2.637795, 0.798770 -2.301162 2.637795, 0.861390 -2.334634 2.637795, 0.929337 -2.355245 2.637795, 1.000000 -2.362205 2.637795, 1.070663 -2.355245 2.637795, 1.138610 -2.334634 2.637795, 1.201230 -2.301162 2.637795, 1.256117 -2.256117 2.637795, 1.301162 -2.201230 2.637795, 1.334634 -2.138610 2.637795, 1.355245 -2.070663 2.637795 ] } coordIndex [ 31, 30, 29, 28, 27, 26, 25, 24, 23, 22, 21, 20, 19, 18, 17, 16, 15, 14, 13, 12, 11, 10, 9, 8, 7, 6, 5, 4, 3, 2, 1, 0, -1, 32, 33, 34, 35, 36, 37, 38, 39, 40, 41, 42, 43, 44, 45, 46, 47, 48, 49, 50, 51, 52, 53, 54, 55, 56, 57, 58, 59, 60, 61, 62, 63, -1, 0, 1, 33, 32, -1, 1, 2, 34, 33, -1, 2, 3, 35, 34, -1, 3, 4, 36, 35, -1, 4, 5, 37, 36, -1, 5, 6, 38, 37, -1, 6, 7, 39, 38, -1, 7, 8, 40, 39, -1, 8, 9, 41, 40, -1, 9, 10, 42, 41, -1, 10, 11, 43, 42, -1, 11, 12, 44, 43, -1, 12, 13, 45, 44, -1, 13, 14, 46, 45, -1, 14, 15, 47, 46, -1, 15, 16, 48, 47, -1, 16, 17, 49, 48, -1, 17, 18, 50, 49, -1, 18, 19, 51, 50, -1, 19, 20, 52, 51, -1, 20, 21, 53, 52, -1, 21, 22, 54, 53, -1, 22, 23, 55, 54, -1, 23, 24, 56, 55, -1, 24, 25, 57, 56, -1, 25, 26, 58, 57, -1, 26, 27, 59, 58, -1, 27, 28, 60, 59, -1, 28, 29, 61, 60, -1, 29, 30, 62, 61, -1, 30, 31, 63, 62, -1, 31, 0, 32, 63, -1 ] } }
Shape { appearance Appearance { material Material { diffuseColor 0.035 0.04 0.045 specularColor 0.25 0.25 0.25 shininess 0.3 } } geometry IndexedFaceSet { solid TRUE coord Coordinate { point [ 1.133858 -2.000000 2.641732, 1.131286 -1.973886 2.641732, 1.123669 -1.948775 2.641732, 1.111299 -1.925632 2.641732, 1.094652 -1.905348 2.641732, 1.074368 -1.888701 2.641732, 1.051225 -1.876331 2.641732, 1.026114 -1.868714 2.641732, 1.000000 -1.866142 2.641732, 0.973886 -1.868714 2.641732, 0.948775 -1.876331 2.641732, 0.925632 -1.888701 2.641732, 0.905348 -1.905348 2.641732, 0.888701 -1.925632 2.641732, 0.876331 -1.948775 2.641732, 0.868714 -1.973886 2.641732, 0.866142 -2.000000 2.641732, 0.868714 -2.026114 2.641732, 0.876331 -2.051225 2.641732, 0.888701 -2.074368 2.641732, 0.905348 -2.094652 2.641732, 0.925632 -2.111299 2.641732, 0.948775 -2.123669 2.641732, 0.973886 -2.131286 2.641732, 1.000000 -2.133858 2.641732, 1.026114 -2.131286 2.641732, 1.051225 -2.123669 2.641732, 1.074368 -2.111299 2.641732, 1.094652 -2.094652 2.641732, 1.111299 -2.074368 2.641732, 1.123669 -2.051225 2.641732, 1.131286 -2.026114 2.641732, 1.133858 -2.000000 2.657480, 1.131286 -1.973886 2.657480, 1.123669 -1.948775 2.657480, 1.111299 -1.925632 2.657480, 1.094652 -1.905348 2.657480, 1.074368 -1.888701 2.657480, 1.051225 -1.876331 2.657480, 1.026114 -1.868714 2.657480, 1.000000 -1.866142 2.657480, 0.973886 -1.868714 2.657480, 0.948775 -1.876331 2.657480, 0.925632 -1.888701 2.657480, 0.905348 -1.905348 2.657480, 0.888701 -1.925632 2.657480, 0.876331 -1.948775 2.657480, 0.868714 -1.973886 2.657480, 0.866142 -2.000000 2.657480, 0.868714 -2.026114 2.657480, 0.876331 -2.051225 2.657480, 0.888701 -2.074368 2.657480, 0.905348 -2.094652 2.657480, 0.925632 -2.111299 2.657480, 0.948775 -2.123669 2.657480, 0.973886 -2.131286 2.657480, 1.000000 -2.133858 2.657480, 1.026114 -2.131286 2.657480, 1.051225 -2.123669 2.657480, 1.074368 -2.111299 2.657480, 1.094652 -2.094652 2.657480, 1.111299 -2.074368 2.657480, 1.123669 -2.051225 2.657480, 1.131286 -2.026114 2.657480 ] } coordIndex [ 31, 30, 29, 28, 27, 26, 25, 24, 23, 22, 21, 20, 19, 18, 17, 16, 15, 14, 13, 12, 11, 10, 9, 8, 7, 6, 5, 4, 3, 2, 1, 0, -1, 32, 33, 34, 35, 36, 37, 38, 39, 40, 41, 42, 43, 44, 45, 46, 47, 48, 49, 50, 51, 52, 53, 54, 55, 56, 57, 58, 59, 60, 61, 62, 63, -1, 0, 1, 33, 32, -1, 1, 2, 34, 33, -1, 2, 3, 35, 34, -1, 3, 4, 36, 35, -1, 4, 5, 37, 36, -1, 5, 6, 38, 37, -1, 6, 7, 39, 38, -1, 7, 8, 40, 39, -1, 8, 9, 41, 40, -1, 9, 10, 42, 41, -1, 10, 11, 43, 42, -1, 11, 12, 44, 43, -1, 12, 13, 45, 44, -1, 13, 14, 46, 45, -1, 14, 15, 47, 46, -1, 15, 16, 48, 47, -1, 16, 17, 49, 48, -1, 17, 18, 50, 49, -1, 18, 19, 51, 50, -1, 19, 20, 52, 51, -1, 20, 21, 53, 52, -1, 21, 22, 54, 53, -1, 22, 23, 55, 54, -1, 23, 24, 56, 55, -1, 24, 25, 57, 56, -1, 25, 26, 58, 57, -1, 26, 27, 59, 58, -1, 27, 28, 60, 59, -1, 28, 29, 61, 60, -1, 29, 30, 62, 61, -1, 30, 31, 63, 62, -1, 31, 0, 32, 63, -1 ] } }
Shape { appearance Appearance { material Material { diffuseColor 0.76 0.58 0.19 specularColor 0.25 0.25 0.25 shininess 0.3 } } geometry IndexedFaceSet { solid TRUE coord Coordinate { point [ 0.362205 -3.000000 2.598425, 0.355245 -2.929337 2.598425, 0.334634 -2.861390 2.598425, 0.301162 -2.798770 2.598425, 0.256117 -2.743883 2.598425, 0.201230 -2.698838 2.598425, 0.138610 -2.665366 2.598425, 0.070663 -2.644755 2.598425, 0.000000 -2.637795 2.598425, -0.070663 -2.644755 2.598425, -0.138610 -2.665366 2.598425, -0.201230 -2.698838 2.598425, -0.256117 -2.743883 2.598425, -0.301162 -2.798770 2.598425, -0.334634 -2.861390 2.598425, -0.355245 -2.929337 2.598425, -0.362205 -3.000000 2.598425, -0.355245 -3.070663 2.598425, -0.334634 -3.138610 2.598425, -0.301162 -3.201230 2.598425, -0.256117 -3.256117 2.598425, -0.201230 -3.301162 2.598425, -0.138610 -3.334634 2.598425, -0.070663 -3.355245 2.598425, -0.000000 -3.362205 2.598425, 0.070663 -3.355245 2.598425, 0.138610 -3.334634 2.598425, 0.201230 -3.301162 2.598425, 0.256117 -3.256117 2.598425, 0.301162 -3.201230 2.598425, 0.334634 -3.138610 2.598425, 0.355245 -3.070663 2.598425, 0.362205 -3.000000 2.637795, 0.355245 -2.929337 2.637795, 0.334634 -2.861390 2.637795, 0.301162 -2.798770 2.637795, 0.256117 -2.743883 2.637795, 0.201230 -2.698838 2.637795, 0.138610 -2.665366 2.637795, 0.070663 -2.644755 2.637795, 0.000000 -2.637795 2.637795, -0.070663 -2.644755 2.637795, -0.138610 -2.665366 2.637795, -0.201230 -2.698838 2.637795, -0.256117 -2.743883 2.637795, -0.301162 -2.798770 2.637795, -0.334634 -2.861390 2.637795, -0.355245 -2.929337 2.637795, -0.362205 -3.000000 2.637795, -0.355245 -3.070663 2.637795, -0.334634 -3.138610 2.637795, -0.301162 -3.201230 2.637795, -0.256117 -3.256117 2.637795, -0.201230 -3.301162 2.637795, -0.138610 -3.334634 2.637795, -0.070663 -3.355245 2.637795, -0.000000 -3.362205 2.637795, 0.070663 -3.355245 2.637795, 0.138610 -3.334634 2.637795, 0.201230 -3.301162 2.637795, 0.256117 -3.256117 2.637795, 0.301162 -3.201230 2.637795, 0.334634 -3.138610 2.637795, 0.355245 -3.070663 2.637795 ] } coordIndex [ 31, 30, 29, 28, 27, 26, 25, 24, 23, 22, 21, 20, 19, 18, 17, 16, 15, 14, 13, 12, 11, 10, 9, 8, 7, 6, 5, 4, 3, 2, 1, 0, -1, 32, 33, 34, 35, 36, 37, 38, 39, 40, 41, 42, 43, 44, 45, 46, 47, 48, 49, 50, 51, 52, 53, 54, 55, 56, 57, 58, 59, 60, 61, 62, 63, -1, 0, 1, 33, 32, -1, 1, 2, 34, 33, -1, 2, 3, 35, 34, -1, 3, 4, 36, 35, -1, 4, 5, 37, 36, -1, 5, 6, 38, 37, -1, 6, 7, 39, 38, -1, 7, 8, 40, 39, -1, 8, 9, 41, 40, -1, 9, 10, 42, 41, -1, 10, 11, 43, 42, -1, 11, 12, 44, 43, -1, 12, 13, 45, 44, -1, 13, 14, 46, 45, -1, 14, 15, 47, 46, -1, 15, 16, 48, 47, -1, 16, 17, 49, 48, -1, 17, 18, 50, 49, -1, 18, 19, 51, 50, -1, 19, 20, 52, 51, -1, 20, 21, 53, 52, -1, 21, 22, 54, 53, -1, 22, 23, 55, 54, -1, 23, 24, 56, 55, -1, 24, 25, 57, 56, -1, 25, 26, 58, 57, -1, 26, 27, 59, 58, -1, 27, 28, 60, 59, -1, 28, 29, 61, 60, -1, 29, 30, 62, 61, -1, 30, 31, 63, 62, -1, 31, 0, 32, 63, -1 ] } }
Shape { appearance Appearance { material Material { diffuseColor 0.035 0.04 0.045 specularColor 0.25 0.25 0.25 shininess 0.3 } } geometry IndexedFaceSet { solid TRUE coord Coordinate { point [ 0.133858 -3.000000 2.641732, 0.131286 -2.973886 2.641732, 0.123669 -2.948775 2.641732, 0.111299 -2.925632 2.641732, 0.094652 -2.905348 2.641732, 0.074368 -2.888701 2.641732, 0.051225 -2.876331 2.641732, 0.026114 -2.868714 2.641732, 0.000000 -2.866142 2.641732, -0.026114 -2.868714 2.641732, -0.051225 -2.876331 2.641732, -0.074368 -2.888701 2.641732, -0.094652 -2.905348 2.641732, -0.111299 -2.925632 2.641732, -0.123669 -2.948775 2.641732, -0.131286 -2.973886 2.641732, -0.133858 -3.000000 2.641732, -0.131286 -3.026114 2.641732, -0.123669 -3.051225 2.641732, -0.111299 -3.074368 2.641732, -0.094652 -3.094652 2.641732, -0.074368 -3.111299 2.641732, -0.051225 -3.123669 2.641732, -0.026114 -3.131286 2.641732, -0.000000 -3.133858 2.641732, 0.026114 -3.131286 2.641732, 0.051225 -3.123669 2.641732, 0.074368 -3.111299 2.641732, 0.094652 -3.094652 2.641732, 0.111299 -3.074368 2.641732, 0.123669 -3.051225 2.641732, 0.131286 -3.026114 2.641732, 0.133858 -3.000000 2.657480, 0.131286 -2.973886 2.657480, 0.123669 -2.948775 2.657480, 0.111299 -2.925632 2.657480, 0.094652 -2.905348 2.657480, 0.074368 -2.888701 2.657480, 0.051225 -2.876331 2.657480, 0.026114 -2.868714 2.657480, 0.000000 -2.866142 2.657480, -0.026114 -2.868714 2.657480, -0.051225 -2.876331 2.657480, -0.074368 -2.888701 2.657480, -0.094652 -2.905348 2.657480, -0.111299 -2.925632 2.657480, -0.123669 -2.948775 2.657480, -0.131286 -2.973886 2.657480, -0.133858 -3.000000 2.657480, -0.131286 -3.026114 2.657480, -0.123669 -3.051225 2.657480, -0.111299 -3.074368 2.657480, -0.094652 -3.094652 2.657480, -0.074368 -3.111299 2.657480, -0.051225 -3.123669 2.657480, -0.026114 -3.131286 2.657480, -0.000000 -3.133858 2.657480, 0.026114 -3.131286 2.657480, 0.051225 -3.123669 2.657480, 0.074368 -3.111299 2.657480, 0.094652 -3.094652 2.657480, 0.111299 -3.074368 2.657480, 0.123669 -3.051225 2.657480, 0.131286 -3.026114 2.657480 ] } coordIndex [ 31, 30, 29, 28, 27, 26, 25, 24, 23, 22, 21, 20, 19, 18, 17, 16, 15, 14, 13, 12, 11, 10, 9, 8, 7, 6, 5, 4, 3, 2, 1, 0, -1, 32, 33, 34, 35, 36, 37, 38, 39, 40, 41, 42, 43, 44, 45, 46, 47, 48, 49, 50, 51, 52, 53, 54, 55, 56, 57, 58, 59, 60, 61, 62, 63, -1, 0, 1, 33, 32, -1, 1, 2, 34, 33, -1, 2, 3, 35, 34, -1, 3, 4, 36, 35, -1, 4, 5, 37, 36, -1, 5, 6, 38, 37, -1, 6, 7, 39, 38, -1, 7, 8, 40, 39, -1, 8, 9, 41, 40, -1, 9, 10, 42, 41, -1, 10, 11, 43, 42, -1, 11, 12, 44, 43, -1, 12, 13, 45, 44, -1, 13, 14, 46, 45, -1, 14, 15, 47, 46, -1, 15, 16, 48, 47, -1, 16, 17, 49, 48, -1, 17, 18, 50, 49, -1, 18, 19, 51, 50, -1, 19, 20, 52, 51, -1, 20, 21, 53, 52, -1, 21, 22, 54, 53, -1, 22, 23, 55, 54, -1, 23, 24, 56, 55, -1, 24, 25, 57, 56, -1, 25, 26, 58, 57, -1, 26, 27, 59, 58, -1, 27, 28, 60, 59, -1, 28, 29, 61, 60, -1, 29, 30, 62, 61, -1, 30, 31, 63, 62, -1, 31, 0, 32, 63, -1 ] } }
Shape { appearance Appearance { material Material { diffuseColor 0.76 0.58 0.19 specularColor 0.25 0.25 0.25 shininess 0.3 } } geometry IndexedFaceSet { solid TRUE coord Coordinate { point [ 1.362205 -3.000000 2.598425, 1.355245 -2.929337 2.598425, 1.334634 -2.861390 2.598425, 1.301162 -2.798770 2.598425, 1.256117 -2.743883 2.598425, 1.201230 -2.698838 2.598425, 1.138610 -2.665366 2.598425, 1.070663 -2.644755 2.598425, 1.000000 -2.637795 2.598425, 0.929337 -2.644755 2.598425, 0.861390 -2.665366 2.598425, 0.798770 -2.698838 2.598425, 0.743883 -2.743883 2.598425, 0.698838 -2.798770 2.598425, 0.665366 -2.861390 2.598425, 0.644755 -2.929337 2.598425, 0.637795 -3.000000 2.598425, 0.644755 -3.070663 2.598425, 0.665366 -3.138610 2.598425, 0.698838 -3.201230 2.598425, 0.743883 -3.256117 2.598425, 0.798770 -3.301162 2.598425, 0.861390 -3.334634 2.598425, 0.929337 -3.355245 2.598425, 1.000000 -3.362205 2.598425, 1.070663 -3.355245 2.598425, 1.138610 -3.334634 2.598425, 1.201230 -3.301162 2.598425, 1.256117 -3.256117 2.598425, 1.301162 -3.201230 2.598425, 1.334634 -3.138610 2.598425, 1.355245 -3.070663 2.598425, 1.362205 -3.000000 2.637795, 1.355245 -2.929337 2.637795, 1.334634 -2.861390 2.637795, 1.301162 -2.798770 2.637795, 1.256117 -2.743883 2.637795, 1.201230 -2.698838 2.637795, 1.138610 -2.665366 2.637795, 1.070663 -2.644755 2.637795, 1.000000 -2.637795 2.637795, 0.929337 -2.644755 2.637795, 0.861390 -2.665366 2.637795, 0.798770 -2.698838 2.637795, 0.743883 -2.743883 2.637795, 0.698838 -2.798770 2.637795, 0.665366 -2.861390 2.637795, 0.644755 -2.929337 2.637795, 0.637795 -3.000000 2.637795, 0.644755 -3.070663 2.637795, 0.665366 -3.138610 2.637795, 0.698838 -3.201230 2.637795, 0.743883 -3.256117 2.637795, 0.798770 -3.301162 2.637795, 0.861390 -3.334634 2.637795, 0.929337 -3.355245 2.637795, 1.000000 -3.362205 2.637795, 1.070663 -3.355245 2.637795, 1.138610 -3.334634 2.637795, 1.201230 -3.301162 2.637795, 1.256117 -3.256117 2.637795, 1.301162 -3.201230 2.637795, 1.334634 -3.138610 2.637795, 1.355245 -3.070663 2.637795 ] } coordIndex [ 31, 30, 29, 28, 27, 26, 25, 24, 23, 22, 21, 20, 19, 18, 17, 16, 15, 14, 13, 12, 11, 10, 9, 8, 7, 6, 5, 4, 3, 2, 1, 0, -1, 32, 33, 34, 35, 36, 37, 38, 39, 40, 41, 42, 43, 44, 45, 46, 47, 48, 49, 50, 51, 52, 53, 54, 55, 56, 57, 58, 59, 60, 61, 62, 63, -1, 0, 1, 33, 32, -1, 1, 2, 34, 33, -1, 2, 3, 35, 34, -1, 3, 4, 36, 35, -1, 4, 5, 37, 36, -1, 5, 6, 38, 37, -1, 6, 7, 39, 38, -1, 7, 8, 40, 39, -1, 8, 9, 41, 40, -1, 9, 10, 42, 41, -1, 10, 11, 43, 42, -1, 11, 12, 44, 43, -1, 12, 13, 45, 44, -1, 13, 14, 46, 45, -1, 14, 15, 47, 46, -1, 15, 16, 48, 47, -1, 16, 17, 49, 48, -1, 17, 18, 50, 49, -1, 18, 19, 51, 50, -1, 19, 20, 52, 51, -1, 20, 21, 53, 52, -1, 21, 22, 54, 53, -1, 22, 23, 55, 54, -1, 23, 24, 56, 55, -1, 24, 25, 57, 56, -1, 25, 26, 58, 57, -1, 26, 27, 59, 58, -1, 27, 28, 60, 59, -1, 28, 29, 61, 60, -1, 29, 30, 62, 61, -1, 30, 31, 63, 62, -1, 31, 0, 32, 63, -1 ] } }
Shape { appearance Appearance { material Material { diffuseColor 0.035 0.04 0.045 specularColor 0.25 0.25 0.25 shininess 0.3 } } geometry IndexedFaceSet { solid TRUE coord Coordinate { point [ 1.133858 -3.000000 2.641732, 1.131286 -2.973886 2.641732, 1.123669 -2.948775 2.641732, 1.111299 -2.925632 2.641732, 1.094652 -2.905348 2.641732, 1.074368 -2.888701 2.641732, 1.051225 -2.876331 2.641732, 1.026114 -2.868714 2.641732, 1.000000 -2.866142 2.641732, 0.973886 -2.868714 2.641732, 0.948775 -2.876331 2.641732, 0.925632 -2.888701 2.641732, 0.905348 -2.905348 2.641732, 0.888701 -2.925632 2.641732, 0.876331 -2.948775 2.641732, 0.868714 -2.973886 2.641732, 0.866142 -3.000000 2.641732, 0.868714 -3.026114 2.641732, 0.876331 -3.051225 2.641732, 0.888701 -3.074368 2.641732, 0.905348 -3.094652 2.641732, 0.925632 -3.111299 2.641732, 0.948775 -3.123669 2.641732, 0.973886 -3.131286 2.641732, 1.000000 -3.133858 2.641732, 1.026114 -3.131286 2.641732, 1.051225 -3.123669 2.641732, 1.074368 -3.111299 2.641732, 1.094652 -3.094652 2.641732, 1.111299 -3.074368 2.641732, 1.123669 -3.051225 2.641732, 1.131286 -3.026114 2.641732, 1.133858 -3.000000 2.657480, 1.131286 -2.973886 2.657480, 1.123669 -2.948775 2.657480, 1.111299 -2.925632 2.657480, 1.094652 -2.905348 2.657480, 1.074368 -2.888701 2.657480, 1.051225 -2.876331 2.657480, 1.026114 -2.868714 2.657480, 1.000000 -2.866142 2.657480, 0.973886 -2.868714 2.657480, 0.948775 -2.876331 2.657480, 0.925632 -2.888701 2.657480, 0.905348 -2.905348 2.657480, 0.888701 -2.925632 2.657480, 0.876331 -2.948775 2.657480, 0.868714 -2.973886 2.657480, 0.866142 -3.000000 2.657480, 0.868714 -3.026114 2.657480, 0.876331 -3.051225 2.657480, 0.888701 -3.074368 2.657480, 0.905348 -3.094652 2.657480, 0.925632 -3.111299 2.657480, 0.948775 -3.123669 2.657480, 0.973886 -3.131286 2.657480, 1.000000 -3.133858 2.657480, 1.026114 -3.131286 2.657480, 1.051225 -3.123669 2.657480, 1.074368 -3.111299 2.657480, 1.094652 -3.094652 2.657480, 1.111299 -3.074368 2.657480, 1.123669 -3.051225 2.657480, 1.131286 -3.026114 2.657480 ] } coordIndex [ 31, 30, 29, 28, 27, 26, 25, 24, 23, 22, 21, 20, 19, 18, 17, 16, 15, 14, 13, 12, 11, 10, 9, 8, 7, 6, 5, 4, 3, 2, 1, 0, -1, 32, 33, 34, 35, 36, 37, 38, 39, 40, 41, 42, 43, 44, 45, 46, 47, 48, 49, 50, 51, 52, 53, 54, 55, 56, 57, 58, 59, 60, 61, 62, 63, -1, 0, 1, 33, 32, -1, 1, 2, 34, 33, -1, 2, 3, 35, 34, -1, 3, 4, 36, 35, -1, 4, 5, 37, 36, -1, 5, 6, 38, 37, -1, 6, 7, 39, 38, -1, 7, 8, 40, 39, -1, 8, 9, 41, 40, -1, 9, 10, 42, 41, -1, 10, 11, 43, 42, -1, 11, 12, 44, 43, -1, 12, 13, 45, 44, -1, 13, 14, 46, 45, -1, 14, 15, 47, 46, -1, 15, 16, 48, 47, -1, 16, 17, 49, 48, -1, 17, 18, 50, 49, -1, 18, 19, 51, 50, -1, 19, 20, 52, 51, -1, 20, 21, 53, 52, -1, 21, 22, 54, 53, -1, 22, 23, 55, 54, -1, 23, 24, 56, 55, -1, 24, 25, 57, 56, -1, 25, 26, 58, 57, -1, 26, 27, 59, 58, -1, 27, 28, 60, 59, -1, 28, 29, 61, 60, -1, 29, 30, 62, 61, -1, 30, 31, 63, 62, -1, 31, 0, 32, 63, -1 ] } }
Shape { appearance Appearance { material Material { diffuseColor 0.76 0.58 0.19 specularColor 0.25 0.25 0.25 shininess 0.3 } } geometry IndexedFaceSet { solid TRUE coord Coordinate { point [ 0.362205 -4.000000 2.598425, 0.355245 -3.929337 2.598425, 0.334634 -3.861390 2.598425, 0.301162 -3.798770 2.598425, 0.256117 -3.743883 2.598425, 0.201230 -3.698838 2.598425, 0.138610 -3.665366 2.598425, 0.070663 -3.644755 2.598425, 0.000000 -3.637795 2.598425, -0.070663 -3.644755 2.598425, -0.138610 -3.665366 2.598425, -0.201230 -3.698838 2.598425, -0.256117 -3.743883 2.598425, -0.301162 -3.798770 2.598425, -0.334634 -3.861390 2.598425, -0.355245 -3.929337 2.598425, -0.362205 -4.000000 2.598425, -0.355245 -4.070663 2.598425, -0.334634 -4.138610 2.598425, -0.301162 -4.201230 2.598425, -0.256117 -4.256117 2.598425, -0.201230 -4.301162 2.598425, -0.138610 -4.334634 2.598425, -0.070663 -4.355245 2.598425, -0.000000 -4.362205 2.598425, 0.070663 -4.355245 2.598425, 0.138610 -4.334634 2.598425, 0.201230 -4.301162 2.598425, 0.256117 -4.256117 2.598425, 0.301162 -4.201230 2.598425, 0.334634 -4.138610 2.598425, 0.355245 -4.070663 2.598425, 0.362205 -4.000000 2.637795, 0.355245 -3.929337 2.637795, 0.334634 -3.861390 2.637795, 0.301162 -3.798770 2.637795, 0.256117 -3.743883 2.637795, 0.201230 -3.698838 2.637795, 0.138610 -3.665366 2.637795, 0.070663 -3.644755 2.637795, 0.000000 -3.637795 2.637795, -0.070663 -3.644755 2.637795, -0.138610 -3.665366 2.637795, -0.201230 -3.698838 2.637795, -0.256117 -3.743883 2.637795, -0.301162 -3.798770 2.637795, -0.334634 -3.861390 2.637795, -0.355245 -3.929337 2.637795, -0.362205 -4.000000 2.637795, -0.355245 -4.070663 2.637795, -0.334634 -4.138610 2.637795, -0.301162 -4.201230 2.637795, -0.256117 -4.256117 2.637795, -0.201230 -4.301162 2.637795, -0.138610 -4.334634 2.637795, -0.070663 -4.355245 2.637795, -0.000000 -4.362205 2.637795, 0.070663 -4.355245 2.637795, 0.138610 -4.334634 2.637795, 0.201230 -4.301162 2.637795, 0.256117 -4.256117 2.637795, 0.301162 -4.201230 2.637795, 0.334634 -4.138610 2.637795, 0.355245 -4.070663 2.637795 ] } coordIndex [ 31, 30, 29, 28, 27, 26, 25, 24, 23, 22, 21, 20, 19, 18, 17, 16, 15, 14, 13, 12, 11, 10, 9, 8, 7, 6, 5, 4, 3, 2, 1, 0, -1, 32, 33, 34, 35, 36, 37, 38, 39, 40, 41, 42, 43, 44, 45, 46, 47, 48, 49, 50, 51, 52, 53, 54, 55, 56, 57, 58, 59, 60, 61, 62, 63, -1, 0, 1, 33, 32, -1, 1, 2, 34, 33, -1, 2, 3, 35, 34, -1, 3, 4, 36, 35, -1, 4, 5, 37, 36, -1, 5, 6, 38, 37, -1, 6, 7, 39, 38, -1, 7, 8, 40, 39, -1, 8, 9, 41, 40, -1, 9, 10, 42, 41, -1, 10, 11, 43, 42, -1, 11, 12, 44, 43, -1, 12, 13, 45, 44, -1, 13, 14, 46, 45, -1, 14, 15, 47, 46, -1, 15, 16, 48, 47, -1, 16, 17, 49, 48, -1, 17, 18, 50, 49, -1, 18, 19, 51, 50, -1, 19, 20, 52, 51, -1, 20, 21, 53, 52, -1, 21, 22, 54, 53, -1, 22, 23, 55, 54, -1, 23, 24, 56, 55, -1, 24, 25, 57, 56, -1, 25, 26, 58, 57, -1, 26, 27, 59, 58, -1, 27, 28, 60, 59, -1, 28, 29, 61, 60, -1, 29, 30, 62, 61, -1, 30, 31, 63, 62, -1, 31, 0, 32, 63, -1 ] } }
Shape { appearance Appearance { material Material { diffuseColor 0.035 0.04 0.045 specularColor 0.25 0.25 0.25 shininess 0.3 } } geometry IndexedFaceSet { solid TRUE coord Coordinate { point [ 0.133858 -4.000000 2.641732, 0.131286 -3.973886 2.641732, 0.123669 -3.948775 2.641732, 0.111299 -3.925632 2.641732, 0.094652 -3.905348 2.641732, 0.074368 -3.888701 2.641732, 0.051225 -3.876331 2.641732, 0.026114 -3.868714 2.641732, 0.000000 -3.866142 2.641732, -0.026114 -3.868714 2.641732, -0.051225 -3.876331 2.641732, -0.074368 -3.888701 2.641732, -0.094652 -3.905348 2.641732, -0.111299 -3.925632 2.641732, -0.123669 -3.948775 2.641732, -0.131286 -3.973886 2.641732, -0.133858 -4.000000 2.641732, -0.131286 -4.026114 2.641732, -0.123669 -4.051225 2.641732, -0.111299 -4.074368 2.641732, -0.094652 -4.094652 2.641732, -0.074368 -4.111299 2.641732, -0.051225 -4.123669 2.641732, -0.026114 -4.131286 2.641732, -0.000000 -4.133858 2.641732, 0.026114 -4.131286 2.641732, 0.051225 -4.123669 2.641732, 0.074368 -4.111299 2.641732, 0.094652 -4.094652 2.641732, 0.111299 -4.074368 2.641732, 0.123669 -4.051225 2.641732, 0.131286 -4.026114 2.641732, 0.133858 -4.000000 2.657480, 0.131286 -3.973886 2.657480, 0.123669 -3.948775 2.657480, 0.111299 -3.925632 2.657480, 0.094652 -3.905348 2.657480, 0.074368 -3.888701 2.657480, 0.051225 -3.876331 2.657480, 0.026114 -3.868714 2.657480, 0.000000 -3.866142 2.657480, -0.026114 -3.868714 2.657480, -0.051225 -3.876331 2.657480, -0.074368 -3.888701 2.657480, -0.094652 -3.905348 2.657480, -0.111299 -3.925632 2.657480, -0.123669 -3.948775 2.657480, -0.131286 -3.973886 2.657480, -0.133858 -4.000000 2.657480, -0.131286 -4.026114 2.657480, -0.123669 -4.051225 2.657480, -0.111299 -4.074368 2.657480, -0.094652 -4.094652 2.657480, -0.074368 -4.111299 2.657480, -0.051225 -4.123669 2.657480, -0.026114 -4.131286 2.657480, -0.000000 -4.133858 2.657480, 0.026114 -4.131286 2.657480, 0.051225 -4.123669 2.657480, 0.074368 -4.111299 2.657480, 0.094652 -4.094652 2.657480, 0.111299 -4.074368 2.657480, 0.123669 -4.051225 2.657480, 0.131286 -4.026114 2.657480 ] } coordIndex [ 31, 30, 29, 28, 27, 26, 25, 24, 23, 22, 21, 20, 19, 18, 17, 16, 15, 14, 13, 12, 11, 10, 9, 8, 7, 6, 5, 4, 3, 2, 1, 0, -1, 32, 33, 34, 35, 36, 37, 38, 39, 40, 41, 42, 43, 44, 45, 46, 47, 48, 49, 50, 51, 52, 53, 54, 55, 56, 57, 58, 59, 60, 61, 62, 63, -1, 0, 1, 33, 32, -1, 1, 2, 34, 33, -1, 2, 3, 35, 34, -1, 3, 4, 36, 35, -1, 4, 5, 37, 36, -1, 5, 6, 38, 37, -1, 6, 7, 39, 38, -1, 7, 8, 40, 39, -1, 8, 9, 41, 40, -1, 9, 10, 42, 41, -1, 10, 11, 43, 42, -1, 11, 12, 44, 43, -1, 12, 13, 45, 44, -1, 13, 14, 46, 45, -1, 14, 15, 47, 46, -1, 15, 16, 48, 47, -1, 16, 17, 49, 48, -1, 17, 18, 50, 49, -1, 18, 19, 51, 50, -1, 19, 20, 52, 51, -1, 20, 21, 53, 52, -1, 21, 22, 54, 53, -1, 22, 23, 55, 54, -1, 23, 24, 56, 55, -1, 24, 25, 57, 56, -1, 25, 26, 58, 57, -1, 26, 27, 59, 58, -1, 27, 28, 60, 59, -1, 28, 29, 61, 60, -1, 29, 30, 62, 61, -1, 30, 31, 63, 62, -1, 31, 0, 32, 63, -1 ] } }
Shape { appearance Appearance { material Material { diffuseColor 0.76 0.58 0.19 specularColor 0.25 0.25 0.25 shininess 0.3 } } geometry IndexedFaceSet { solid TRUE coord Coordinate { point [ 1.362205 -4.000000 2.598425, 1.355245 -3.929337 2.598425, 1.334634 -3.861390 2.598425, 1.301162 -3.798770 2.598425, 1.256117 -3.743883 2.598425, 1.201230 -3.698838 2.598425, 1.138610 -3.665366 2.598425, 1.070663 -3.644755 2.598425, 1.000000 -3.637795 2.598425, 0.929337 -3.644755 2.598425, 0.861390 -3.665366 2.598425, 0.798770 -3.698838 2.598425, 0.743883 -3.743883 2.598425, 0.698838 -3.798770 2.598425, 0.665366 -3.861390 2.598425, 0.644755 -3.929337 2.598425, 0.637795 -4.000000 2.598425, 0.644755 -4.070663 2.598425, 0.665366 -4.138610 2.598425, 0.698838 -4.201230 2.598425, 0.743883 -4.256117 2.598425, 0.798770 -4.301162 2.598425, 0.861390 -4.334634 2.598425, 0.929337 -4.355245 2.598425, 1.000000 -4.362205 2.598425, 1.070663 -4.355245 2.598425, 1.138610 -4.334634 2.598425, 1.201230 -4.301162 2.598425, 1.256117 -4.256117 2.598425, 1.301162 -4.201230 2.598425, 1.334634 -4.138610 2.598425, 1.355245 -4.070663 2.598425, 1.362205 -4.000000 2.637795, 1.355245 -3.929337 2.637795, 1.334634 -3.861390 2.637795, 1.301162 -3.798770 2.637795, 1.256117 -3.743883 2.637795, 1.201230 -3.698838 2.637795, 1.138610 -3.665366 2.637795, 1.070663 -3.644755 2.637795, 1.000000 -3.637795 2.637795, 0.929337 -3.644755 2.637795, 0.861390 -3.665366 2.637795, 0.798770 -3.698838 2.637795, 0.743883 -3.743883 2.637795, 0.698838 -3.798770 2.637795, 0.665366 -3.861390 2.637795, 0.644755 -3.929337 2.637795, 0.637795 -4.000000 2.637795, 0.644755 -4.070663 2.637795, 0.665366 -4.138610 2.637795, 0.698838 -4.201230 2.637795, 0.743883 -4.256117 2.637795, 0.798770 -4.301162 2.637795, 0.861390 -4.334634 2.637795, 0.929337 -4.355245 2.637795, 1.000000 -4.362205 2.637795, 1.070663 -4.355245 2.637795, 1.138610 -4.334634 2.637795, 1.201230 -4.301162 2.637795, 1.256117 -4.256117 2.637795, 1.301162 -4.201230 2.637795, 1.334634 -4.138610 2.637795, 1.355245 -4.070663 2.637795 ] } coordIndex [ 31, 30, 29, 28, 27, 26, 25, 24, 23, 22, 21, 20, 19, 18, 17, 16, 15, 14, 13, 12, 11, 10, 9, 8, 7, 6, 5, 4, 3, 2, 1, 0, -1, 32, 33, 34, 35, 36, 37, 38, 39, 40, 41, 42, 43, 44, 45, 46, 47, 48, 49, 50, 51, 52, 53, 54, 55, 56, 57, 58, 59, 60, 61, 62, 63, -1, 0, 1, 33, 32, -1, 1, 2, 34, 33, -1, 2, 3, 35, 34, -1, 3, 4, 36, 35, -1, 4, 5, 37, 36, -1, 5, 6, 38, 37, -1, 6, 7, 39, 38, -1, 7, 8, 40, 39, -1, 8, 9, 41, 40, -1, 9, 10, 42, 41, -1, 10, 11, 43, 42, -1, 11, 12, 44, 43, -1, 12, 13, 45, 44, -1, 13, 14, 46, 45, -1, 14, 15, 47, 46, -1, 15, 16, 48, 47, -1, 16, 17, 49, 48, -1, 17, 18, 50, 49, -1, 18, 19, 51, 50, -1, 19, 20, 52, 51, -1, 20, 21, 53, 52, -1, 21, 22, 54, 53, -1, 22, 23, 55, 54, -1, 23, 24, 56, 55, -1, 24, 25, 57, 56, -1, 25, 26, 58, 57, -1, 26, 27, 59, 58, -1, 27, 28, 60, 59, -1, 28, 29, 61, 60, -1, 29, 30, 62, 61, -1, 30, 31, 63, 62, -1, 31, 0, 32, 63, -1 ] } }
Shape { appearance Appearance { material Material { diffuseColor 0.035 0.04 0.045 specularColor 0.25 0.25 0.25 shininess 0.3 } } geometry IndexedFaceSet { solid TRUE coord Coordinate { point [ 1.133858 -4.000000 2.641732, 1.131286 -3.973886 2.641732, 1.123669 -3.948775 2.641732, 1.111299 -3.925632 2.641732, 1.094652 -3.905348 2.641732, 1.074368 -3.888701 2.641732, 1.051225 -3.876331 2.641732, 1.026114 -3.868714 2.641732, 1.000000 -3.866142 2.641732, 0.973886 -3.868714 2.641732, 0.948775 -3.876331 2.641732, 0.925632 -3.888701 2.641732, 0.905348 -3.905348 2.641732, 0.888701 -3.925632 2.641732, 0.876331 -3.948775 2.641732, 0.868714 -3.973886 2.641732, 0.866142 -4.000000 2.641732, 0.868714 -4.026114 2.641732, 0.876331 -4.051225 2.641732, 0.888701 -4.074368 2.641732, 0.905348 -4.094652 2.641732, 0.925632 -4.111299 2.641732, 0.948775 -4.123669 2.641732, 0.973886 -4.131286 2.641732, 1.000000 -4.133858 2.641732, 1.026114 -4.131286 2.641732, 1.051225 -4.123669 2.641732, 1.074368 -4.111299 2.641732, 1.094652 -4.094652 2.641732, 1.111299 -4.074368 2.641732, 1.123669 -4.051225 2.641732, 1.131286 -4.026114 2.641732, 1.133858 -4.000000 2.657480, 1.131286 -3.973886 2.657480, 1.123669 -3.948775 2.657480, 1.111299 -3.925632 2.657480, 1.094652 -3.905348 2.657480, 1.074368 -3.888701 2.657480, 1.051225 -3.876331 2.657480, 1.026114 -3.868714 2.657480, 1.000000 -3.866142 2.657480, 0.973886 -3.868714 2.657480, 0.948775 -3.876331 2.657480, 0.925632 -3.888701 2.657480, 0.905348 -3.905348 2.657480, 0.888701 -3.925632 2.657480, 0.876331 -3.948775 2.657480, 0.868714 -3.973886 2.657480, 0.866142 -4.000000 2.657480, 0.868714 -4.026114 2.657480, 0.876331 -4.051225 2.657480, 0.888701 -4.074368 2.657480, 0.905348 -4.094652 2.657480, 0.925632 -4.111299 2.657480, 0.948775 -4.123669 2.657480, 0.973886 -4.131286 2.657480, 1.000000 -4.133858 2.657480, 1.026114 -4.131286 2.657480, 1.051225 -4.123669 2.657480, 1.074368 -4.111299 2.657480, 1.094652 -4.094652 2.657480, 1.111299 -4.074368 2.657480, 1.123669 -4.051225 2.657480, 1.131286 -4.026114 2.657480 ] } coordIndex [ 31, 30, 29, 28, 27, 26, 25, 24, 23, 22, 21, 20, 19, 18, 17, 16, 15, 14, 13, 12, 11, 10, 9, 8, 7, 6, 5, 4, 3, 2, 1, 0, -1, 32, 33, 34, 35, 36, 37, 38, 39, 40, 41, 42, 43, 44, 45, 46, 47, 48, 49, 50, 51, 52, 53, 54, 55, 56, 57, 58, 59, 60, 61, 62, 63, -1, 0, 1, 33, 32, -1, 1, 2, 34, 33, -1, 2, 3, 35, 34, -1, 3, 4, 36, 35, -1, 4, 5, 37, 36, -1, 5, 6, 38, 37, -1, 6, 7, 39, 38, -1, 7, 8, 40, 39, -1, 8, 9, 41, 40, -1, 9, 10, 42, 41, -1, 10, 11, 43, 42, -1, 11, 12, 44, 43, -1, 12, 13, 45, 44, -1, 13, 14, 46, 45, -1, 14, 15, 47, 46, -1, 15, 16, 48, 47, -1, 16, 17, 49, 48, -1, 17, 18, 50, 49, -1, 18, 19, 51, 50, -1, 19, 20, 52, 51, -1, 20, 21, 53, 52, -1, 21, 22, 54, 53, -1, 22, 23, 55, 54, -1, 23, 24, 56, 55, -1, 24, 25, 57, 56, -1, 25, 26, 58, 57, -1, 26, 27, 59, 58, -1, 27, 28, 60, 59, -1, 28, 29, 61, 60, -1, 29, 30, 62, 61, -1, 30, 31, 63, 62, -1, 31, 0, 32, 63, -1 ] } }
Shape { appearance Appearance { material Material { diffuseColor 0.76 0.58 0.19 specularColor 0.25 0.25 0.25 shininess 0.3 } } geometry IndexedFaceSet { solid TRUE coord Coordinate { point [ 0.362205 -5.000000 2.598425, 0.355245 -4.929337 2.598425, 0.334634 -4.861390 2.598425, 0.301162 -4.798770 2.598425, 0.256117 -4.743883 2.598425, 0.201230 -4.698838 2.598425, 0.138610 -4.665366 2.598425, 0.070663 -4.644755 2.598425, 0.000000 -4.637795 2.598425, -0.070663 -4.644755 2.598425, -0.138610 -4.665366 2.598425, -0.201230 -4.698838 2.598425, -0.256117 -4.743883 2.598425, -0.301162 -4.798770 2.598425, -0.334634 -4.861390 2.598425, -0.355245 -4.929337 2.598425, -0.362205 -5.000000 2.598425, -0.355245 -5.070663 2.598425, -0.334634 -5.138610 2.598425, -0.301162 -5.201230 2.598425, -0.256117 -5.256117 2.598425, -0.201230 -5.301162 2.598425, -0.138610 -5.334634 2.598425, -0.070663 -5.355245 2.598425, -0.000000 -5.362205 2.598425, 0.070663 -5.355245 2.598425, 0.138610 -5.334634 2.598425, 0.201230 -5.301162 2.598425, 0.256117 -5.256117 2.598425, 0.301162 -5.201230 2.598425, 0.334634 -5.138610 2.598425, 0.355245 -5.070663 2.598425, 0.362205 -5.000000 2.637795, 0.355245 -4.929337 2.637795, 0.334634 -4.861390 2.637795, 0.301162 -4.798770 2.637795, 0.256117 -4.743883 2.637795, 0.201230 -4.698838 2.637795, 0.138610 -4.665366 2.637795, 0.070663 -4.644755 2.637795, 0.000000 -4.637795 2.637795, -0.070663 -4.644755 2.637795, -0.138610 -4.665366 2.637795, -0.201230 -4.698838 2.637795, -0.256117 -4.743883 2.637795, -0.301162 -4.798770 2.637795, -0.334634 -4.861390 2.637795, -0.355245 -4.929337 2.637795, -0.362205 -5.000000 2.637795, -0.355245 -5.070663 2.637795, -0.334634 -5.138610 2.637795, -0.301162 -5.201230 2.637795, -0.256117 -5.256117 2.637795, -0.201230 -5.301162 2.637795, -0.138610 -5.334634 2.637795, -0.070663 -5.355245 2.637795, -0.000000 -5.362205 2.637795, 0.070663 -5.355245 2.637795, 0.138610 -5.334634 2.637795, 0.201230 -5.301162 2.637795, 0.256117 -5.256117 2.637795, 0.301162 -5.201230 2.637795, 0.334634 -5.138610 2.637795, 0.355245 -5.070663 2.637795 ] } coordIndex [ 31, 30, 29, 28, 27, 26, 25, 24, 23, 22, 21, 20, 19, 18, 17, 16, 15, 14, 13, 12, 11, 10, 9, 8, 7, 6, 5, 4, 3, 2, 1, 0, -1, 32, 33, 34, 35, 36, 37, 38, 39, 40, 41, 42, 43, 44, 45, 46, 47, 48, 49, 50, 51, 52, 53, 54, 55, 56, 57, 58, 59, 60, 61, 62, 63, -1, 0, 1, 33, 32, -1, 1, 2, 34, 33, -1, 2, 3, 35, 34, -1, 3, 4, 36, 35, -1, 4, 5, 37, 36, -1, 5, 6, 38, 37, -1, 6, 7, 39, 38, -1, 7, 8, 40, 39, -1, 8, 9, 41, 40, -1, 9, 10, 42, 41, -1, 10, 11, 43, 42, -1, 11, 12, 44, 43, -1, 12, 13, 45, 44, -1, 13, 14, 46, 45, -1, 14, 15, 47, 46, -1, 15, 16, 48, 47, -1, 16, 17, 49, 48, -1, 17, 18, 50, 49, -1, 18, 19, 51, 50, -1, 19, 20, 52, 51, -1, 20, 21, 53, 52, -1, 21, 22, 54, 53, -1, 22, 23, 55, 54, -1, 23, 24, 56, 55, -1, 24, 25, 57, 56, -1, 25, 26, 58, 57, -1, 26, 27, 59, 58, -1, 27, 28, 60, 59, -1, 28, 29, 61, 60, -1, 29, 30, 62, 61, -1, 30, 31, 63, 62, -1, 31, 0, 32, 63, -1 ] } }
Shape { appearance Appearance { material Material { diffuseColor 0.035 0.04 0.045 specularColor 0.25 0.25 0.25 shininess 0.3 } } geometry IndexedFaceSet { solid TRUE coord Coordinate { point [ 0.133858 -5.000000 2.641732, 0.131286 -4.973886 2.641732, 0.123669 -4.948775 2.641732, 0.111299 -4.925632 2.641732, 0.094652 -4.905348 2.641732, 0.074368 -4.888701 2.641732, 0.051225 -4.876331 2.641732, 0.026114 -4.868714 2.641732, 0.000000 -4.866142 2.641732, -0.026114 -4.868714 2.641732, -0.051225 -4.876331 2.641732, -0.074368 -4.888701 2.641732, -0.094652 -4.905348 2.641732, -0.111299 -4.925632 2.641732, -0.123669 -4.948775 2.641732, -0.131286 -4.973886 2.641732, -0.133858 -5.000000 2.641732, -0.131286 -5.026114 2.641732, -0.123669 -5.051225 2.641732, -0.111299 -5.074368 2.641732, -0.094652 -5.094652 2.641732, -0.074368 -5.111299 2.641732, -0.051225 -5.123669 2.641732, -0.026114 -5.131286 2.641732, -0.000000 -5.133858 2.641732, 0.026114 -5.131286 2.641732, 0.051225 -5.123669 2.641732, 0.074368 -5.111299 2.641732, 0.094652 -5.094652 2.641732, 0.111299 -5.074368 2.641732, 0.123669 -5.051225 2.641732, 0.131286 -5.026114 2.641732, 0.133858 -5.000000 2.657480, 0.131286 -4.973886 2.657480, 0.123669 -4.948775 2.657480, 0.111299 -4.925632 2.657480, 0.094652 -4.905348 2.657480, 0.074368 -4.888701 2.657480, 0.051225 -4.876331 2.657480, 0.026114 -4.868714 2.657480, 0.000000 -4.866142 2.657480, -0.026114 -4.868714 2.657480, -0.051225 -4.876331 2.657480, -0.074368 -4.888701 2.657480, -0.094652 -4.905348 2.657480, -0.111299 -4.925632 2.657480, -0.123669 -4.948775 2.657480, -0.131286 -4.973886 2.657480, -0.133858 -5.000000 2.657480, -0.131286 -5.026114 2.657480, -0.123669 -5.051225 2.657480, -0.111299 -5.074368 2.657480, -0.094652 -5.094652 2.657480, -0.074368 -5.111299 2.657480, -0.051225 -5.123669 2.657480, -0.026114 -5.131286 2.657480, -0.000000 -5.133858 2.657480, 0.026114 -5.131286 2.657480, 0.051225 -5.123669 2.657480, 0.074368 -5.111299 2.657480, 0.094652 -5.094652 2.657480, 0.111299 -5.074368 2.657480, 0.123669 -5.051225 2.657480, 0.131286 -5.026114 2.657480 ] } coordIndex [ 31, 30, 29, 28, 27, 26, 25, 24, 23, 22, 21, 20, 19, 18, 17, 16, 15, 14, 13, 12, 11, 10, 9, 8, 7, 6, 5, 4, 3, 2, 1, 0, -1, 32, 33, 34, 35, 36, 37, 38, 39, 40, 41, 42, 43, 44, 45, 46, 47, 48, 49, 50, 51, 52, 53, 54, 55, 56, 57, 58, 59, 60, 61, 62, 63, -1, 0, 1, 33, 32, -1, 1, 2, 34, 33, -1, 2, 3, 35, 34, -1, 3, 4, 36, 35, -1, 4, 5, 37, 36, -1, 5, 6, 38, 37, -1, 6, 7, 39, 38, -1, 7, 8, 40, 39, -1, 8, 9, 41, 40, -1, 9, 10, 42, 41, -1, 10, 11, 43, 42, -1, 11, 12, 44, 43, -1, 12, 13, 45, 44, -1, 13, 14, 46, 45, -1, 14, 15, 47, 46, -1, 15, 16, 48, 47, -1, 16, 17, 49, 48, -1, 17, 18, 50, 49, -1, 18, 19, 51, 50, -1, 19, 20, 52, 51, -1, 20, 21, 53, 52, -1, 21, 22, 54, 53, -1, 22, 23, 55, 54, -1, 23, 24, 56, 55, -1, 24, 25, 57, 56, -1, 25, 26, 58, 57, -1, 26, 27, 59, 58, -1, 27, 28, 60, 59, -1, 28, 29, 61, 60, -1, 29, 30, 62, 61, -1, 30, 31, 63, 62, -1, 31, 0, 32, 63, -1 ] } }
Shape { appearance Appearance { material Material { diffuseColor 0.76 0.58 0.19 specularColor 0.25 0.25 0.25 shininess 0.3 } } geometry IndexedFaceSet { solid TRUE coord Coordinate { point [ 1.362205 -5.000000 2.598425, 1.355245 -4.929337 2.598425, 1.334634 -4.861390 2.598425, 1.301162 -4.798770 2.598425, 1.256117 -4.743883 2.598425, 1.201230 -4.698838 2.598425, 1.138610 -4.665366 2.598425, 1.070663 -4.644755 2.598425, 1.000000 -4.637795 2.598425, 0.929337 -4.644755 2.598425, 0.861390 -4.665366 2.598425, 0.798770 -4.698838 2.598425, 0.743883 -4.743883 2.598425, 0.698838 -4.798770 2.598425, 0.665366 -4.861390 2.598425, 0.644755 -4.929337 2.598425, 0.637795 -5.000000 2.598425, 0.644755 -5.070663 2.598425, 0.665366 -5.138610 2.598425, 0.698838 -5.201230 2.598425, 0.743883 -5.256117 2.598425, 0.798770 -5.301162 2.598425, 0.861390 -5.334634 2.598425, 0.929337 -5.355245 2.598425, 1.000000 -5.362205 2.598425, 1.070663 -5.355245 2.598425, 1.138610 -5.334634 2.598425, 1.201230 -5.301162 2.598425, 1.256117 -5.256117 2.598425, 1.301162 -5.201230 2.598425, 1.334634 -5.138610 2.598425, 1.355245 -5.070663 2.598425, 1.362205 -5.000000 2.637795, 1.355245 -4.929337 2.637795, 1.334634 -4.861390 2.637795, 1.301162 -4.798770 2.637795, 1.256117 -4.743883 2.637795, 1.201230 -4.698838 2.637795, 1.138610 -4.665366 2.637795, 1.070663 -4.644755 2.637795, 1.000000 -4.637795 2.637795, 0.929337 -4.644755 2.637795, 0.861390 -4.665366 2.637795, 0.798770 -4.698838 2.637795, 0.743883 -4.743883 2.637795, 0.698838 -4.798770 2.637795, 0.665366 -4.861390 2.637795, 0.644755 -4.929337 2.637795, 0.637795 -5.000000 2.637795, 0.644755 -5.070663 2.637795, 0.665366 -5.138610 2.637795, 0.698838 -5.201230 2.637795, 0.743883 -5.256117 2.637795, 0.798770 -5.301162 2.637795, 0.861390 -5.334634 2.637795, 0.929337 -5.355245 2.637795, 1.000000 -5.362205 2.637795, 1.070663 -5.355245 2.637795, 1.138610 -5.334634 2.637795, 1.201230 -5.301162 2.637795, 1.256117 -5.256117 2.637795, 1.301162 -5.201230 2.637795, 1.334634 -5.138610 2.637795, 1.355245 -5.070663 2.637795 ] } coordIndex [ 31, 30, 29, 28, 27, 26, 25, 24, 23, 22, 21, 20, 19, 18, 17, 16, 15, 14, 13, 12, 11, 10, 9, 8, 7, 6, 5, 4, 3, 2, 1, 0, -1, 32, 33, 34, 35, 36, 37, 38, 39, 40, 41, 42, 43, 44, 45, 46, 47, 48, 49, 50, 51, 52, 53, 54, 55, 56, 57, 58, 59, 60, 61, 62, 63, -1, 0, 1, 33, 32, -1, 1, 2, 34, 33, -1, 2, 3, 35, 34, -1, 3, 4, 36, 35, -1, 4, 5, 37, 36, -1, 5, 6, 38, 37, -1, 6, 7, 39, 38, -1, 7, 8, 40, 39, -1, 8, 9, 41, 40, -1, 9, 10, 42, 41, -1, 10, 11, 43, 42, -1, 11, 12, 44, 43, -1, 12, 13, 45, 44, -1, 13, 14, 46, 45, -1, 14, 15, 47, 46, -1, 15, 16, 48, 47, -1, 16, 17, 49, 48, -1, 17, 18, 50, 49, -1, 18, 19, 51, 50, -1, 19, 20, 52, 51, -1, 20, 21, 53, 52, -1, 21, 22, 54, 53, -1, 22, 23, 55, 54, -1, 23, 24, 56, 55, -1, 24, 25, 57, 56, -1, 25, 26, 58, 57, -1, 26, 27, 59, 58, -1, 27, 28, 60, 59, -1, 28, 29, 61, 60, -1, 29, 30, 62, 61, -1, 30, 31, 63, 62, -1, 31, 0, 32, 63, -1 ] } }
Shape { appearance Appearance { material Material { diffuseColor 0.035 0.04 0.045 specularColor 0.25 0.25 0.25 shininess 0.3 } } geometry IndexedFaceSet { solid TRUE coord Coordinate { point [ 1.133858 -5.000000 2.641732, 1.131286 -4.973886 2.641732, 1.123669 -4.948775 2.641732, 1.111299 -4.925632 2.641732, 1.094652 -4.905348 2.641732, 1.074368 -4.888701 2.641732, 1.051225 -4.876331 2.641732, 1.026114 -4.868714 2.641732, 1.000000 -4.866142 2.641732, 0.973886 -4.868714 2.641732, 0.948775 -4.876331 2.641732, 0.925632 -4.888701 2.641732, 0.905348 -4.905348 2.641732, 0.888701 -4.925632 2.641732, 0.876331 -4.948775 2.641732, 0.868714 -4.973886 2.641732, 0.866142 -5.000000 2.641732, 0.868714 -5.026114 2.641732, 0.876331 -5.051225 2.641732, 0.888701 -5.074368 2.641732, 0.905348 -5.094652 2.641732, 0.925632 -5.111299 2.641732, 0.948775 -5.123669 2.641732, 0.973886 -5.131286 2.641732, 1.000000 -5.133858 2.641732, 1.026114 -5.131286 2.641732, 1.051225 -5.123669 2.641732, 1.074368 -5.111299 2.641732, 1.094652 -5.094652 2.641732, 1.111299 -5.074368 2.641732, 1.123669 -5.051225 2.641732, 1.131286 -5.026114 2.641732, 1.133858 -5.000000 2.657480, 1.131286 -4.973886 2.657480, 1.123669 -4.948775 2.657480, 1.111299 -4.925632 2.657480, 1.094652 -4.905348 2.657480, 1.074368 -4.888701 2.657480, 1.051225 -4.876331 2.657480, 1.026114 -4.868714 2.657480, 1.000000 -4.866142 2.657480, 0.973886 -4.868714 2.657480, 0.948775 -4.876331 2.657480, 0.925632 -4.888701 2.657480, 0.905348 -4.905348 2.657480, 0.888701 -4.925632 2.657480, 0.876331 -4.948775 2.657480, 0.868714 -4.973886 2.657480, 0.866142 -5.000000 2.657480, 0.868714 -5.026114 2.657480, 0.876331 -5.051225 2.657480, 0.888701 -5.074368 2.657480, 0.905348 -5.094652 2.657480, 0.925632 -5.111299 2.657480, 0.948775 -5.123669 2.657480, 0.973886 -5.131286 2.657480, 1.000000 -5.133858 2.657480, 1.026114 -5.131286 2.657480, 1.051225 -5.123669 2.657480, 1.074368 -5.111299 2.657480, 1.094652 -5.094652 2.657480, 1.111299 -5.074368 2.657480, 1.123669 -5.051225 2.657480, 1.131286 -5.026114 2.657480 ] } coordIndex [ 31, 30, 29, 28, 27, 26, 25, 24, 23, 22, 21, 20, 19, 18, 17, 16, 15, 14, 13, 12, 11, 10, 9, 8, 7, 6, 5, 4, 3, 2, 1, 0, -1, 32, 33, 34, 35, 36, 37, 38, 39, 40, 41, 42, 43, 44, 45, 46, 47, 48, 49, 50, 51, 52, 53, 54, 55, 56, 57, 58, 59, 60, 61, 62, 63, -1, 0, 1, 33, 32, -1, 1, 2, 34, 33, -1, 2, 3, 35, 34, -1, 3, 4, 36, 35, -1, 4, 5, 37, 36, -1, 5, 6, 38, 37, -1, 6, 7, 39, 38, -1, 7, 8, 40, 39, -1, 8, 9, 41, 40, -1, 9, 10, 42, 41, -1, 10, 11, 43, 42, -1, 11, 12, 44, 43, -1, 12, 13, 45, 44, -1, 13, 14, 46, 45, -1, 14, 15, 47, 46, -1, 15, 16, 48, 47, -1, 16, 17, 49, 48, -1, 17, 18, 50, 49, -1, 18, 19, 51, 50, -1, 19, 20, 52, 51, -1, 20, 21, 53, 52, -1, 21, 22, 54, 53, -1, 22, 23, 55, 54, -1, 23, 24, 56, 55, -1, 24, 25, 57, 56, -1, 25, 26, 58, 57, -1, 26, 27, 59, 58, -1, 27, 28, 60, 59, -1, 28, 29, 61, 60, -1, 29, 30, 62, 61, -1, 30, 31, 63, 62, -1, 31, 0, 32, 63, -1 ] } }
Shape { appearance Appearance { material Material { diffuseColor 0.2 0.22 0.23 specularColor 0.25 0.25 0.25 shininess 0.3 } } geometry IndexedFaceSet { solid TRUE coord Coordinate { point [ 3.444882 -2.066929 2.598425, 7.578740 -2.066929 2.598425, 7.578740 2.066929 2.598425, 3.444882 2.066929 2.598425, 3.444882 -2.066929 4.606299, 7.578740 -2.066929 4.606299, 7.578740 2.066929 4.606299, 3.444882 2.066929 4.606299 ] } coordIndex [ 0, 3, 2, 1, -1, 4, 5, 6, 7, -1, 0, 1, 5, 4, -1, 1, 2, 6, 5, -1, 2, 3, 7, 6, -1, 3, 0, 4, 7, -1 ] } }
Shape { appearance Appearance { material Material { diffuseColor 0.27 0.29 0.3 specularColor 0.25 0.25 0.25 shininess 0.3 } } geometry IndexedFaceSet { solid TRUE coord Coordinate { point [ 3.779528 -1.732283 4.606299, 7.244094 -1.732283 4.606299, 7.244094 1.732283 4.606299, 3.779528 1.732283 4.606299, 3.779528 -1.732283 4.637795, 7.244094 -1.732283 4.637795, 7.244094 1.732283 4.637795, 3.779528 1.732283 4.637795 ] } coordIndex [ 0, 3, 2, 1, -1, 4, 5, 6, 7, -1, 0, 1, 5, 4, -1, 1, 2, 6, 5, -1, 2, 3, 7, 6, -1, 3, 0, 4, 7, -1 ] } }
Shape { appearance Appearance { material Material { diffuseColor 0.1 0.12 0.13 specularColor 0.25 0.25 0.25 shininess 0.3 } } geometry IndexedFaceSet { solid TRUE coord Coordinate { point [ 8.543307 -3.818898 2.637795, 8.515317 -3.534711 2.637795, 8.432423 -3.261445 2.637795, 8.297810 -3.009602 2.637795, 8.116652 -2.788860 2.637795, 7.895909 -2.607702 2.637795, 7.644066 -2.473089 2.637795, 7.370801 -2.390195 2.637795, 7.086614 -2.362205 2.637795, 6.802427 -2.390195 2.637795, 6.529162 -2.473089 2.637795, 6.277319 -2.607702 2.637795, 6.056577 -2.788860 2.637795, 5.875418 -3.009602 2.637795, 5.740805 -3.261445 2.637795, 5.657911 -3.534711 2.637795, 5.629921 -3.818898 2.637795, 5.657911 -4.103084 2.637795, 5.740805 -4.376350 2.637795, 5.875418 -4.628193 2.637795, 6.056577 -4.848935 2.637795, 6.277319 -5.030094 2.637795, 6.529162 -5.164706 2.637795, 6.802427 -5.247601 2.637795, 7.086614 -5.275591 2.637795, 7.370801 -5.247601 2.637795, 7.644066 -5.164706 2.637795, 7.895909 -5.030094 2.637795, 8.116652 -4.848935 2.637795, 8.297810 -4.628193 2.637795, 8.432423 -4.376350 2.637795, 8.515317 -4.103084 2.637795, 8.543307 -3.818898 5.669291, 8.515317 -3.534711 5.669291, 8.432423 -3.261445 5.669291, 8.297810 -3.009602 5.669291, 8.116652 -2.788860 5.669291, 7.895909 -2.607702 5.669291, 7.644066 -2.473089 5.669291, 7.370801 -2.390195 5.669291, 7.086614 -2.362205 5.669291, 6.802427 -2.390195 5.669291, 6.529162 -2.473089 5.669291, 6.277319 -2.607702 5.669291, 6.056577 -2.788860 5.669291, 5.875418 -3.009602 5.669291, 5.740805 -3.261445 5.669291, 5.657911 -3.534711 5.669291, 5.629921 -3.818898 5.669291, 5.657911 -4.103084 5.669291, 5.740805 -4.376350 5.669291, 5.875418 -4.628193 5.669291, 6.056577 -4.848935 5.669291, 6.277319 -5.030094 5.669291, 6.529162 -5.164706 5.669291, 6.802427 -5.247601 5.669291, 7.086614 -5.275591 5.669291, 7.370801 -5.247601 5.669291, 7.644066 -5.164706 5.669291, 7.895909 -5.030094 5.669291, 8.116652 -4.848935 5.669291, 8.297810 -4.628193 5.669291, 8.432423 -4.376350 5.669291, 8.515317 -4.103084 5.669291 ] } coordIndex [ 31, 30, 29, 28, 27, 26, 25, 24, 23, 22, 21, 20, 19, 18, 17, 16, 15, 14, 13, 12, 11, 10, 9, 8, 7, 6, 5, 4, 3, 2, 1, 0, -1, 32, 33, 34, 35, 36, 37, 38, 39, 40, 41, 42, 43, 44, 45, 46, 47, 48, 49, 50, 51, 52, 53, 54, 55, 56, 57, 58, 59, 60, 61, 62, 63, -1, 0, 1, 33, 32, -1, 1, 2, 34, 33, -1, 2, 3, 35, 34, -1, 3, 4, 36, 35, -1, 4, 5, 37, 36, -1, 5, 6, 38, 37, -1, 6, 7, 39, 38, -1, 7, 8, 40, 39, -1, 8, 9, 41, 40, -1, 9, 10, 42, 41, -1, 10, 11, 43, 42, -1, 11, 12, 44, 43, -1, 12, 13, 45, 44, -1, 13, 14, 46, 45, -1, 14, 15, 47, 46, -1, 15, 16, 48, 47, -1, 16, 17, 49, 48, -1, 17, 18, 50, 49, -1, 18, 19, 51, 50, -1, 19, 20, 52, 51, -1, 20, 21, 53, 52, -1, 21, 22, 54, 53, -1, 22, 23, 55, 54, -1, 23, 24, 56, 55, -1, 24, 25, 57, 56, -1, 25, 26, 58, 57, -1, 26, 27, 59, 58, -1, 27, 28, 60, 59, -1, 28, 29, 61, 60, -1, 29, 30, 62, 61, -1, 30, 31, 63, 62, -1, 31, 0, 32, 63, -1 ] } }
Shape { appearance Appearance { material Material { diffuseColor 0.65 0.68 0.7 specularColor 0.25 0.25 0.25 shininess 0.3 } } geometry IndexedFaceSet { solid TRUE coord Coordinate { point [ 8.484252 -3.818898 5.669291, 8.457397 -3.546232 5.669291, 8.377863 -3.284045 5.669291, 8.248708 -3.042412 5.669291, 8.074893 -2.830618 5.669291, 7.863100 -2.656804 5.669291, 7.621467 -2.527649 5.669291, 7.359280 -2.448115 5.669291, 7.086614 -2.421260 5.669291, 6.813949 -2.448115 5.669291, 6.551761 -2.527649 5.669291, 6.310128 -2.656804 5.669291, 6.098335 -2.830618 5.669291, 5.924521 -3.042412 5.669291, 5.795365 -3.284045 5.669291, 5.715832 -3.546232 5.669291, 5.688976 -3.818898 5.669291, 5.715832 -4.091563 5.669291, 5.795365 -4.353750 5.669291, 5.924521 -4.595384 5.669291, 6.098335 -4.807177 5.669291, 6.310128 -4.980991 5.669291, 6.551761 -5.110147 5.669291, 6.813949 -5.189680 5.669291, 7.086614 -5.216535 5.669291, 7.359280 -5.189680 5.669291, 7.621467 -5.110147 5.669291, 7.863100 -4.980991 5.669291, 8.074893 -4.807177 5.669291, 8.248708 -4.595384 5.669291, 8.377863 -4.353750 5.669291, 8.457397 -4.091563 5.669291, 8.484252 -3.818898 5.716535, 8.457397 -3.546232 5.716535, 8.377863 -3.284045 5.716535, 8.248708 -3.042412 5.716535, 8.074893 -2.830618 5.716535, 7.863100 -2.656804 5.716535, 7.621467 -2.527649 5.716535, 7.359280 -2.448115 5.716535, 7.086614 -2.421260 5.716535, 6.813949 -2.448115 5.716535, 6.551761 -2.527649 5.716535, 6.310128 -2.656804 5.716535, 6.098335 -2.830618 5.716535, 5.924521 -3.042412 5.716535, 5.795365 -3.284045 5.716535, 5.715832 -3.546232 5.716535, 5.688976 -3.818898 5.716535, 5.715832 -4.091563 5.716535, 5.795365 -4.353750 5.716535, 5.924521 -4.595384 5.716535, 6.098335 -4.807177 5.716535, 6.310128 -4.980991 5.716535, 6.551761 -5.110147 5.716535, 6.813949 -5.189680 5.716535, 7.086614 -5.216535 5.716535, 7.359280 -5.189680 5.716535, 7.621467 -5.110147 5.716535, 7.863100 -4.980991 5.716535, 8.074893 -4.807177 5.716535, 8.248708 -4.595384 5.716535, 8.377863 -4.353750 5.716535, 8.457397 -4.091563 5.716535 ] } coordIndex [ 31, 30, 29, 28, 27, 26, 25, 24, 23, 22, 21, 20, 19, 18, 17, 16, 15, 14, 13, 12, 11, 10, 9, 8, 7, 6, 5, 4, 3, 2, 1, 0, -1, 32, 33, 34, 35, 36, 37, 38, 39, 40, 41, 42, 43, 44, 45, 46, 47, 48, 49, 50, 51, 52, 53, 54, 55, 56, 57, 58, 59, 60, 61, 62, 63, -1, 0, 1, 33, 32, -1, 1, 2, 34, 33, -1, 2, 3, 35, 34, -1, 3, 4, 36, 35, -1, 4, 5, 37, 36, -1, 5, 6, 38, 37, -1, 6, 7, 39, 38, -1, 7, 8, 40, 39, -1, 8, 9, 41, 40, -1, 9, 10, 42, 41, -1, 10, 11, 43, 42, -1, 11, 12, 44, 43, -1, 12, 13, 45, 44, -1, 13, 14, 46, 45, -1, 14, 15, 47, 46, -1, 15, 16, 48, 47, -1, 16, 17, 49, 48, -1, 17, 18, 50, 49, -1, 18, 19, 51, 50, -1, 19, 20, 52, 51, -1, 20, 21, 53, 52, -1, 21, 22, 54, 53, -1, 22, 23, 55, 54, -1, 23, 24, 56, 55, -1, 24, 25, 57, 56, -1, 25, 26, 58, 57, -1, 26, 27, 59, 58, -1, 27, 28, 60, 59, -1, 28, 29, 61, 60, -1, 29, 30, 62, 61, -1, 30, 31, 63, 62, -1, 31, 0, 32, 63, -1 ] } }
Shape { appearance Appearance { material Material { diffuseColor 0.3 0.32 0.34 specularColor 0.25 0.25 0.25 shininess 0.3 } } geometry IndexedFaceSet { solid TRUE coord Coordinate { point [ 6.030512 -3.842520 5.716535, 8.142717 -3.842520 5.716535, 8.142717 -3.795276 5.716535, 6.030512 -3.795276 5.716535, 6.030512 -3.842520 5.724409, 8.142717 -3.842520 5.724409, 8.142717 -3.795276 5.724409, 6.030512 -3.795276 5.724409 ] } coordIndex [ 0, 3, 2, 1, -1, 4, 5, 6, 7, -1, 0, 1, 5, 4, -1, 1, 2, 6, 5, -1, 2, 3, 7, 6, -1, 3, 0, 4, 7, -1 ] } }
Shape { appearance Appearance { material Material { diffuseColor 0.1 0.12 0.13 specularColor 0.25 0.25 0.25 shininess 0.3 } } geometry IndexedFaceSet { solid TRUE coord Coordinate { point [ 5.196850 -5.708661 2.637795, 5.174912 -5.485920 2.637795, 5.109941 -5.271739 2.637795, 5.004434 -5.074349 2.637795, 4.862445 -4.901335 2.637795, 4.689431 -4.759346 2.637795, 4.492040 -4.653838 2.637795, 4.277859 -4.588867 2.637795, 4.055118 -4.566929 2.637795, 3.832377 -4.588867 2.637795, 3.618196 -4.653838 2.637795, 3.420806 -4.759346 2.637795, 3.247791 -4.901335 2.637795, 3.105802 -5.074349 2.637795, 3.000295 -5.271739 2.637795, 2.935324 -5.485920 2.637795, 2.913386 -5.708661 2.637795, 2.935324 -5.931402 2.637795, 3.000295 -6.145583 2.637795, 3.105802 -6.342974 2.637795, 3.247791 -6.515988 2.637795, 3.420806 -6.657977 2.637795, 3.618196 -6.763485 2.637795, 3.832377 -6.828456 2.637795, 4.055118 -6.850394 2.637795, 4.277859 -6.828456 2.637795, 4.492040 -6.763485 2.637795, 4.689431 -6.657977 2.637795, 4.862445 -6.515988 2.637795, 5.004434 -6.342974 2.637795, 5.109941 -6.145583 2.637795, 5.174912 -5.931402 2.637795, 5.196850 -5.708661 5.078740, 5.174912 -5.485920 5.078740, 5.109941 -5.271739 5.078740, 5.004434 -5.074349 5.078740, 4.862445 -4.901335 5.078740, 4.689431 -4.759346 5.078740, 4.492040 -4.653838 5.078740, 4.277859 -4.588867 5.078740, 4.055118 -4.566929 5.078740, 3.832377 -4.588867 5.078740, 3.618196 -4.653838 5.078740, 3.420806 -4.759346 5.078740, 3.247791 -4.901335 5.078740, 3.105802 -5.074349 5.078740, 3.000295 -5.271739 5.078740, 2.935324 -5.485920 5.078740, 2.913386 -5.708661 5.078740, 2.935324 -5.931402 5.078740, 3.000295 -6.145583 5.078740, 3.105802 -6.342974 5.078740, 3.247791 -6.515988 5.078740, 3.420806 -6.657977 5.078740, 3.618196 -6.763485 5.078740, 3.832377 -6.828456 5.078740, 4.055118 -6.850394 5.078740, 4.277859 -6.828456 5.078740, 4.492040 -6.763485 5.078740, 4.689431 -6.657977 5.078740, 4.862445 -6.515988 5.078740, 5.004434 -6.342974 5.078740, 5.109941 -6.145583 5.078740, 5.174912 -5.931402 5.078740 ] } coordIndex [ 31, 30, 29, 28, 27, 26, 25, 24, 23, 22, 21, 20, 19, 18, 17, 16, 15, 14, 13, 12, 11, 10, 9, 8, 7, 6, 5, 4, 3, 2, 1, 0, -1, 32, 33, 34, 35, 36, 37, 38, 39, 40, 41, 42, 43, 44, 45, 46, 47, 48, 49, 50, 51, 52, 53, 54, 55, 56, 57, 58, 59, 60, 61, 62, 63, -1, 0, 1, 33, 32, -1, 1, 2, 34, 33, -1, 2, 3, 35, 34, -1, 3, 4, 36, 35, -1, 4, 5, 37, 36, -1, 5, 6, 38, 37, -1, 6, 7, 39, 38, -1, 7, 8, 40, 39, -1, 8, 9, 41, 40, -1, 9, 10, 42, 41, -1, 10, 11, 43, 42, -1, 11, 12, 44, 43, -1, 12, 13, 45, 44, -1, 13, 14, 46, 45, -1, 14, 15, 47, 46, -1, 15, 16, 48, 47, -1, 16, 17, 49, 48, -1, 17, 18, 50, 49, -1, 18, 19, 51, 50, -1, 19, 20, 52, 51, -1, 20, 21, 53, 52, -1, 21, 22, 54, 53, -1, 22, 23, 55, 54, -1, 23, 24, 56, 55, -1, 24, 25, 57, 56, -1, 25, 26, 58, 57, -1, 26, 27, 59, 58, -1, 27, 28, 60, 59, -1, 28, 29, 61, 60, -1, 29, 30, 62, 61, -1, 30, 31, 63, 62, -1, 31, 0, 32, 63, -1 ] } }
Shape { appearance Appearance { material Material { diffuseColor 0.65 0.68 0.7 specularColor 0.25 0.25 0.25 shininess 0.3 } } geometry IndexedFaceSet { solid TRUE coord Coordinate { point [ 5.137795 -5.708661 5.078740, 5.116992 -5.497442 5.078740, 5.055381 -5.294339 5.078740, 4.955331 -5.107158 5.078740, 4.820686 -4.943093 5.078740, 4.656621 -4.808448 5.078740, 4.469441 -4.708398 5.078740, 4.266338 -4.646788 5.078740, 4.055118 -4.625984 5.078740, 3.843898 -4.646788 5.078740, 3.640795 -4.708398 5.078740, 3.453615 -4.808448 5.078740, 3.289550 -4.943093 5.078740, 3.154905 -5.107158 5.078740, 3.054855 -5.294339 5.078740, 2.993244 -5.497442 5.078740, 2.972441 -5.708661 5.078740, 2.993244 -5.919881 5.078740, 3.054855 -6.122984 5.078740, 3.154905 -6.310165 5.078740, 3.289550 -6.474230 5.078740, 3.453615 -6.608875 5.078740, 3.640795 -6.708925 5.078740, 3.843898 -6.770535 5.078740, 4.055118 -6.791339 5.078740, 4.266338 -6.770535 5.078740, 4.469441 -6.708925 5.078740, 4.656621 -6.608875 5.078740, 4.820686 -6.474230 5.078740, 4.955331 -6.310165 5.078740, 5.055381 -6.122984 5.078740, 5.116992 -5.919881 5.078740, 5.137795 -5.708661 5.125984, 5.116992 -5.497442 5.125984, 5.055381 -5.294339 5.125984, 4.955331 -5.107158 5.125984, 4.820686 -4.943093 5.125984, 4.656621 -4.808448 5.125984, 4.469441 -4.708398 5.125984, 4.266338 -4.646788 5.125984, 4.055118 -4.625984 5.125984, 3.843898 -4.646788 5.125984, 3.640795 -4.708398 5.125984, 3.453615 -4.808448 5.125984, 3.289550 -4.943093 5.125984, 3.154905 -5.107158 5.125984, 3.054855 -5.294339 5.125984, 2.993244 -5.497442 5.125984, 2.972441 -5.708661 5.125984, 2.993244 -5.919881 5.125984, 3.054855 -6.122984 5.125984, 3.154905 -6.310165 5.125984, 3.289550 -6.474230 5.125984, 3.453615 -6.608875 5.125984, 3.640795 -6.708925 5.125984, 3.843898 -6.770535 5.125984, 4.055118 -6.791339 5.125984, 4.266338 -6.770535 5.125984, 4.469441 -6.708925 5.125984, 4.656621 -6.608875 5.125984, 4.820686 -6.474230 5.125984, 4.955331 -6.310165 5.125984, 5.055381 -6.122984 5.125984, 5.116992 -5.919881 5.125984 ] } coordIndex [ 31, 30, 29, 28, 27, 26, 25, 24, 23, 22, 21, 20, 19, 18, 17, 16, 15, 14, 13, 12, 11, 10, 9, 8, 7, 6, 5, 4, 3, 2, 1, 0, -1, 32, 33, 34, 35, 36, 37, 38, 39, 40, 41, 42, 43, 44, 45, 46, 47, 48, 49, 50, 51, 52, 53, 54, 55, 56, 57, 58, 59, 60, 61, 62, 63, -1, 0, 1, 33, 32, -1, 1, 2, 34, 33, -1, 2, 3, 35, 34, -1, 3, 4, 36, 35, -1, 4, 5, 37, 36, -1, 5, 6, 38, 37, -1, 6, 7, 39, 38, -1, 7, 8, 40, 39, -1, 8, 9, 41, 40, -1, 9, 10, 42, 41, -1, 10, 11, 43, 42, -1, 11, 12, 44, 43, -1, 12, 13, 45, 44, -1, 13, 14, 46, 45, -1, 14, 15, 47, 46, -1, 15, 16, 48, 47, -1, 16, 17, 49, 48, -1, 17, 18, 50, 49, -1, 18, 19, 51, 50, -1, 19, 20, 52, 51, -1, 20, 21, 53, 52, -1, 21, 22, 54, 53, -1, 22, 23, 55, 54, -1, 23, 24, 56, 55, -1, 24, 25, 57, 56, -1, 25, 26, 58, 57, -1, 26, 27, 59, 58, -1, 27, 28, 60, 59, -1, 28, 29, 61, 60, -1, 29, 30, 62, 61, -1, 30, 31, 63, 62, -1, 31, 0, 32, 63, -1 ] } }
Shape { appearance Appearance { material Material { diffuseColor 0.3 0.32 0.34 specularColor 0.25 0.25 0.25 shininess 0.3 } } geometry IndexedFaceSet { solid TRUE coord Coordinate { point [ 3.227362 -5.732283 5.125984, 4.882874 -5.732283 5.125984, 4.882874 -5.685039 5.125984, 3.227362 -5.685039 5.125984, 3.227362 -5.732283 5.133858, 4.882874 -5.732283 5.133858, 4.882874 -5.685039 5.133858, 3.227362 -5.685039 5.133858 ] } coordIndex [ 0, 3, 2, 1, -1, 4, 5, 6, 7, -1, 0, 1, 5, 4, -1, 1, 2, 6, 5, -1, 2, 3, 7, 6, -1, 3, 0, 4, 7, -1 ] } }
Shape { appearance Appearance { material Material { diffuseColor 0.035 0.04 0.045 specularColor 0.25 0.25 0.25 shininess 0.3 } } geometry IndexedFaceSet { solid TRUE coord Coordinate { point [ 2.007874 -3.779528 2.598425, 3.897638 -3.779528 2.598425, 3.897638 -1.338583 2.598425, 2.007874 -1.338583 2.598425, 2.007874 -3.779528 2.952756, 3.897638 -3.779528 2.952756, 3.897638 -1.338583 2.952756, 2.007874 -1.338583 2.952756 ] } coordIndex [ 0, 3, 2, 1, -1, 4, 5, 6, 7, -1, 0, 1, 5, 4, -1, 1, 2, 6, 5, -1, 2, 3, 7, 6, -1, 3, 0, 4, 7, -1 ] } }
Shape { appearance Appearance { material Material { diffuseColor 0.57 0.4 0.24 specularColor 0.25 0.25 0.25 shininess 0.3 } } geometry IndexedFaceSet { solid TRUE coord Coordinate { point [ 8.444882 -1.929134 2.598425, 8.877953 -1.929134 2.598425, 8.877953 -1.220472 2.598425, 8.444882 -1.220472 2.598425, 8.444882 -1.929134 2.834646, 8.877953 -1.929134 2.834646, 8.877953 -1.220472 2.834646, 8.444882 -1.220472 2.834646 ] } coordIndex [ 0, 3, 2, 1, -1, 4, 5, 6, 7, -1, 0, 1, 5, 4, -1, 1, 2, 6, 5, -1, 2, 3, 7, 6, -1, 3, 0, 4, 7, -1 ] } }
Shape { appearance Appearance { material Material { diffuseColor 0.57 0.4 0.24 specularColor 0.25 0.25 0.25 shininess 0.3 } } geometry IndexedFaceSet { solid TRUE coord Coordinate { point [ 8.444882 -3.110236 2.598425, 8.877953 -3.110236 2.598425, 8.877953 -2.401575 2.598425, 8.444882 -2.401575 2.598425, 8.444882 -3.110236 2.834646, 8.877953 -3.110236 2.834646, 8.877953 -2.401575 2.834646, 8.444882 -2.401575 2.834646 ] } coordIndex [ 0, 3, 2, 1, -1, 4, 5, 6, 7, -1, 0, 1, 5, 4, -1, 1, 2, 6, 5, -1, 2, 3, 7, 6, -1, 3, 0, 4, 7, -1 ] } }
Shape { appearance Appearance { material Material { diffuseColor 0.57 0.4 0.24 specularColor 0.25 0.25 0.25 shininess 0.3 } } geometry IndexedFaceSet { solid TRUE coord Coordinate { point [ 8.444882 -4.291339 2.598425, 8.877953 -4.291339 2.598425, 8.877953 -3.582677 2.598425, 8.444882 -3.582677 2.598425, 8.444882 -4.291339 2.834646, 8.877953 -4.291339 2.834646, 8.877953 -3.582677 2.834646, 8.444882 -3.582677 2.834646 ] } coordIndex [ 0, 3, 2, 1, -1, 4, 5, 6, 7, -1, 0, 1, 5, 4, -1, 1, 2, 6, 5, -1, 2, 3, 7, 6, -1, 3, 0, 4, 7, -1 ] } }
Shape { appearance Appearance { material Material { diffuseColor 0.57 0.4 0.24 specularColor 0.25 0.25 0.25 shininess 0.3 } } geometry IndexedFaceSet { solid TRUE coord Coordinate { point [ 8.444882 -5.472441 2.598425, 8.877953 -5.472441 2.598425, 8.877953 -4.763780 2.598425, 8.444882 -4.763780 2.598425, 8.444882 -5.472441 2.834646, 8.877953 -5.472441 2.834646, 8.877953 -4.763780 2.834646, 8.444882 -4.763780 2.834646 ] } coordIndex [ 0, 3, 2, 1, -1, 4, 5, 6, 7, -1, 0, 1, 5, 4, -1, 1, 2, 6, 5, -1, 2, 3, 7, 6, -1, 3, 0, 4, 7, -1 ] } }
